<svg xmlns="http://www.w3.org/2000/svg" viewBox="0 0 223.23 606"><defs><style>.cls-1{isolation:isolate;}.cls-2{fill:#e8d8b1;}.cls-3,.cls-5{mix-blend-mode:multiply;}.cls-4,.cls-5{fill:#eee6cf;}.cls-6{fill:#9cc5a0;}.cls-7{fill:#90b695;}.cls-8{fill:#442800;}.cls-9{fill:#301700;}.cls-10{fill:#696256;}.cls-11{fill:#a98c57;}.cls-12{fill:#866f45;}.cls-13{fill:#645231;}.cls-14{fill:#c8c8c9;}.cls-15{fill:#7c7c7c;}.cls-16{fill:#fcf69f;}.cls-17{fill:#c9c082;}.cls-18{fill:#c8b281;}.cls-19{fill:#8f6022;fill-rule:evenodd;}.cls-20{fill:#704a14;}.cls-21{fill:#4b2f00;}.cls-22{fill:#251e1c;}.cls-23{fill:#fff;}.cls-24{fill:#e0d9c4;}.cls-25{fill:#370000;}.cls-26{fill:#b4b4b4;}.cls-27{fill:#b25439;}.cls-28{fill:#8a402b;}.cls-29{fill:#1b1f2f;}.cls-30{fill:#363e52;}.cls-31{fill:#ab743d;}.cls-32{fill:#d3e9f8;}.cls-33{fill:#b4d3e9;}.cls-34{fill:#92aec0;}.cls-35{fill:#595959;}.cls-36{fill:#1c1c1c;}.cls-37{fill:#e4d459;}.cls-38{fill:#bebebf;}.cls-39{fill:#f2e3ca;}</style></defs><title>Asset 2</title><g class="cls-1"><g id="Layer_2" data-name="Layer 2"><g id="Layer_1-2" data-name="Layer 1"><path class="cls-2" d="M20.88,278.62s-49.31,99.24,46.5,170.13l4-4.37-3.41-5.82,3.41-4.66L78.46,438l5.12-6.44L76.19,426l1.71-6.11,8.53,1.45,2.84-6.69L75,407.42l5.58-5.92-2.76-6.14s-35.55,9.6-52-45.26c-8.56-28.62,8.53-59.65,8.24-59.36S30.86,284,20.88,278.62Z"/><g class="cls-3"><path class="cls-4" d="M32,287.82c1.43,1.84,2,3,2.16,2.92S24.67,308.11,23.57,329C22.61,311.75,28.6,295.5,32,287.82Z"/><polygon class="cls-4" points="78.86 401.14 78.29 396.38 80.6 401.49 75.01 407.42 73.72 406.82 78.86 401.14"/><polygon class="cls-4" points="72.66 431.82 77.72 435.79 81.92 430.3 83.58 431.54 78.46 437.98 71.36 433.9 72.66 431.82"/><polygon class="cls-4" points="78.52 417.13 86 419.53 88.11 414.11 89.27 414.7 86.42 421.39 77.89 419.94 78.52 417.13"/><path class="cls-4" d="M69.54,444.86l1.28-1.41.54.93-4,4.37c-49-36.26-60-79.94-59.13-114C9.13,367.55,24.08,411.23,69.54,444.86Z"/></g><path class="cls-5" d="M8.74,326.9a29.63,29.63,0,0,1,14.73,1.59l.5-6.13L9.49,319.28Z"/><polygon class="cls-6" points="20.22 275.83 12 280.01 5.47 305.43 1.89 305.43 0 316.64 30.73 323.32 37.28 288.89 20.22 275.83"/><polygon class="cls-7" points="23.47 294.77 17.57 287.47 10.25 286.83 12 280.01 19.81 276.08 29.58 281.47 27.34 300.46 23.47 294.77"/><polygon class="cls-7" points="22.37 317.47 28.13 282.11 37.28 288.89 30.73 323.32 0 316.64 0.66 312.74 22.37 317.47"/><path class="cls-8" d="M39.67,586.51l1.2-4.86,25.29-6.72a32.7,32.7,0,0,1,1.33,8.19c0,1.65-4.28,8.68-3.91,13.55.29,3.76-24.07,10.8-29.5,8.17-2.82-1.37-4.52-9.68-2.84-12.5C33.13,589.17,39.67,586.51,39.67,586.51Z"/><path class="cls-9" d="M66.48,574.88,64.29,577c2.54,6.7-4.17,7-7.79,16.54-2.42,6.41-16.68,8.22-25.05,7.23a13.81,13.81,0,0,0,2.4,4c17.69,3.73,29.45-6.55,29.54-8.22.37-6.7,3.45-7.9,3.74-9.49A28,28,0,0,0,66.48,574.88Z"/><path class="cls-9" d="M34,595.82c7.65-.2,15.45-4.87,15.45-4.87-10.05,3-17.16,1.33-17.16,1.33l-.82-.35c-2,3.32-.06,8.81-.06,8.81l1.31.13S30.6,595.91,34,595.82Z"/><path class="cls-10" d="M61.18,593.36a25.14,25.14,0,0,1,4.51-6c1.61-1.37,1.58-3.2,1.77-6.45l.08,1.52s1.4,5.41-.05,7.23c-2.86,3.59-2.69,5.73-4.27,8-5.82,8.2-24,9.95-29.38,7.15-.92-.47-1.72-1.93-2.32-3.78C38.33,603.12,57.7,600,61.18,593.36Z"/><path class="cls-8" d="M146.57,569.66l-3.66-9.15-26-1.54s-2.52,9,.7,11.89c1,.86,1.9,8.47,2.95,10.4,3.56,6.54,26,4.81,30.81,1.93,2.48-1.48,2.27-9.75,0-11.53A27.38,27.38,0,0,0,146.57,569.66Z"/><path class="cls-9" d="M125.76,576.59c-1.05-1.93-2-9.54-2.95-10.41-1.61-1.46-1.79-4.44-1.55-7.06l-4.42-.17s-2.53,9,.69,11.89c1,.86,1.9,8.47,2.95,10.4,3.56,6.54,26,4.81,30.81,1.93.85-.5,1.38-1.81,1.62-3.37C144.87,581.74,128.73,582,125.76,576.59Z"/><path class="cls-10" d="M123.06,577.61c-1.05-1.93-2-9.54-2.95-10.41a10.33,10.33,0,0,1-3.15-8l-.12-.25s-2.52,9,.69,11.89c1,.86,1.9,8.47,3,10.4,3.56,6.54,26,4.81,30.81,1.93A4.57,4.57,0,0,0,152.9,580C146.59,582.58,126.42,583.77,123.06,577.61Z"/><path class="cls-9" d="M128.39,572.36s12.15-.54,23-.7c0,0-1.06-.87-4.83-2S129.69,569.29,128.39,572.36Z"/><path class="cls-11" d="M25,369.48s-4,96.83-5.12,118.45l18.21,85.23,26.74-4.55L51.17,491.35,64.1,424.59s21.48.61,40.93-2.06,26.55-5,26.55-5L120,553.82l26.36,5.72L188.3,358.72"/><path class="cls-12" d="M53.9,419.28s5.94,4.74,9.67,5.06l-14.62.24,14.1,4.09L51.17,483.2l.63,3.22,12.71-61.64s23.39-.76,38.14-2.45,30.51-4.73,30.51-4.73l1.14-8.29s-17.23,6-32.46,8C65.65,421.95,53.9,419.28,53.9,419.28Z"/><polygon class="cls-12" points="139.84 550.82 125.86 549.06 121.49 545.61 120.02 553.82 146.38 559.54 188.3 358.73 185.19 358.93 139.84 550.82"/><path class="cls-12" d="M39.77,567.93,20.22,481.22c-.13,2.66-.24,4.93-.34,6.72l18.21,85.23,26.74-4.55-1.37-7.77-3.19,3.57Z"/><path class="cls-13" d="M59.56,563.86l-.7-3.29.56-.12.7,3.29Zm-1.4-6.57-.7-3.29.56-.12.7,3.29Zm-1.4-6.58-.7-3.29.56-.12.7,3.29Zm-1.4-6.58-.7-3.29.56-.12.7,3.29ZM54,537.56l-.7-3.29.56-.12.7,3.29ZM52.56,531l-.7-3.29.56-.12.7,3.29Zm-1.4-6.58-.7-3.29L51,521l.7,3.29Zm-1.4-6.58-.7-3.29.56-.12.7,3.29Zm-1.4-6.58-.7-3.29.56-.12.7,3.29Zm-1.4-6.57-.7-3.29.56-.12.7,3.29Zm-1.4-6.58-.7-3.29.56-.12.7,3.29Zm-1.4-6.58-.26-1.22.26-2.19.56.07-.25,2.1.24,1.13Zm1-6.68-.57-.07.39-3.34.57.06Zm.78-6.68-.57-.07.39-3.34.57.07Zm.78-6.68-.56-.07.39-3.34.57.07Zm.78-6.68-.56-.07.39-3.34.56.07Zm.78-6.68-.56-.07.39-3.34.56.06Zm.79-6.68-.57-.07.39-3.34.57.07Zm.78-6.68-.57-.07.39-3.34.57.07Zm.78-6.68L50,438l.39-3.34.57.07Zm.78-6.68-.57-.07L51.2,428l.56.06Z"/><rect class="cls-13" x="60.44" y="567.08" width="0.57" height="1.71" transform="translate(-117.08 25.14) rotate(-12.03)"/><rect class="cls-13" x="129.15" y="506.53" width="3.42" height="0.57" transform="translate(-389.64 562.15) rotate(-81.59)"/><polygon class="cls-13" points="129.33 515.22 129.89 515.3 130.39 511.92 129.83 511.84 129.33 515.22"/><polygon class="cls-13" points="132.32 494.95 132.88 495.04 133.38 491.66 132.82 491.57 132.32 494.95"/><rect class="cls-13" x="127.15" y="520.04" width="3.41" height="0.57" transform="translate(-404.76 571.18) rotate(-81.53)"/><rect class="cls-13" x="130.15" y="499.77" width="3.41" height="0.57" transform="translate(-382.08 557.62) rotate(-81.62)"/><polygon class="cls-13" points="126.33 535.48 126.89 535.56 127.39 532.18 126.83 532.1 126.33 535.48"/><polygon class="cls-13" points="124.33 548.99 124.9 549.07 125.4 545.69 124.83 545.61 124.33 548.99"/><polygon class="cls-13" points="127.33 528.72 127.89 528.81 128.39 525.43 127.83 525.35 127.33 528.72"/><polygon class="cls-13" points="123.75 552.95 124.31 553.03 124.4 552.45 123.83 552.37 123.75 552.95"/><rect class="cls-13" x="124.16" y="540.3" width="3.41" height="0.57" transform="translate(-427.3 586.19) rotate(-81.61)"/><rect class="cls-13" x="132.15" y="486.27" width="3.41" height="0.57" transform="translate(-367.1 547.29) rotate(-81.53)"/><polygon class="cls-13" points="141.31 434.16 141.87 434.25 142.37 430.87 141.81 430.78 141.31 434.16"/><polygon class="cls-13" points="142.31 427.41 142.87 427.49 143.37 424.11 142.81 424.03 142.31 427.41"/><polygon class="cls-13" points="140.31 440.92 140.87 441 141.37 437.62 140.81 437.54 140.31 440.92"/><polygon class="cls-13" points="139.31 447.67 139.88 447.75 140.38 444.38 139.81 444.29 139.31 447.67"/><rect class="cls-13" x="142.13" y="418.72" width="3.41" height="0.57" transform="translate(-291.67 500.14) rotate(-81.61)"/><polygon class="cls-13" points="134.32 481.44 134.88 481.53 135.38 478.15 134.82 478.07 134.32 481.44"/><rect class="cls-13" x="134.14" y="472.76" width="3.42" height="0.57" transform="translate(-351.92 538.62) rotate(-81.63)"/><rect class="cls-13" x="135.14" y="466" width="3.41" height="0.57" transform="translate(-344.4 533.73) rotate(-81.62)"/><polygon class="cls-13" points="137.32 461.18 137.88 461.26 138.38 457.88 137.82 457.8 137.32 461.18"/><rect class="cls-13" x="137.14" y="452.49" width="3.41" height="0.57" transform="translate(-329.37 523.93) rotate(-81.59)"/><polygon class="cls-12" points="25 380.36 185.9 369.54 185.6 371.1 116.83 375.39 116.64 379.19 85.33 381.53 84.96 377.76 24.94 381.9 25 380.36"/><path class="cls-12" d="M52.49,387c-2.66,15.57-21.54,26.93-21.54,26.93l17.78-10Z"/><polygon class="cls-12" points="53.49 387.12 49.03 403.99 48.99 404.12 48.88 404.18 30.61 414.11 48.58 403.64 48.43 403.84 52.39 386.84 53.49 387.12"/><path class="cls-12" d="M147.63,380.36c2.66,15.58,21.54,26.93,21.54,26.93l-17.78-10Z"/><polygon class="cls-12" points="147.73 380.22 151.69 397.21 151.54 397.02 169.51 407.48 151.24 397.56 151.12 397.5 151.09 397.36 146.62 380.5 147.73 380.22"/><polygon class="cls-12" points="103.94 413.52 94.54 407.36 93.6 377.68 94.46 377.65 95.38 406.89 103.05 411.92 102.31 377.37 103.16 377.35 103.94 413.52"/><polygon class="cls-14" points="185.9 369.54 25 380.36 25 369.49 188.3 358.73 185.9 369.54"/><path class="cls-15" d="M25.63,369.54,26.32,380l-.7,0-.69-10.41Z"/><path class="cls-15" d="M30.61,369.21l.69,10.41-.7,0-.69-10.41Z"/><path class="cls-15" d="M35.59,368.88l.69,10.41-.7,0-.69-10.41Z"/><path class="cls-15" d="M40.57,368.55,41.26,379l-.7,0-.69-10.41Z"/><path class="cls-15" d="M45.55,368.22l.69,10.41-.7,0-.69-10.41Z"/><path class="cls-15" d="M50.52,367.89l.69,10.41-.7,0-.69-10.41Z"/><path class="cls-15" d="M55.5,367.56,56.19,378l-.7,0-.69-10.41Z"/><path class="cls-15" d="M60.48,367.24l.69,10.41-.7,0-.69-10.41Z"/><path class="cls-15" d="M65.45,366.91l.69,10.41-.7,0L64.75,367Z"/><path class="cls-15" d="M70.43,366.58,71.12,377l-.7,0-.69-10.41Z"/><path class="cls-15" d="M75.41,366.25l.69,10.41-.7,0-.69-10.41Z"/><path class="cls-15" d="M80.38,365.92l.69,10.41-.7,0L79.69,366Z"/><path class="cls-15" d="M85.36,365.59,86.05,376l-.7,0-.69-10.41Z"/><path class="cls-15" d="M90.34,365.26,91,375.67l-.7,0-.69-10.41Z"/><path class="cls-15" d="M95.32,364.93,96,375.34l-.7,0L94.62,365Z"/><path class="cls-15" d="M100.3,364.6,101,375l-.7,0-.69-10.41Z"/><path class="cls-15" d="M105.27,364.27l.69,10.41-.7,0-.69-10.41Z"/><path class="cls-15" d="M110.24,363.94l.69,10.41-.7,0L109.54,364Z"/><path class="cls-15" d="M115.22,363.61l.69,10.41-.7,0-.69-10.41Z"/><path class="cls-15" d="M120.2,363.28l.69,10.41-.7,0-.69-10.41Z"/><path class="cls-15" d="M125.18,363l.69,10.41-.7,0L124.48,363Z"/><path class="cls-15" d="M130.16,362.62l.69,10.41-.7,0-.69-10.41Z"/><path class="cls-15" d="M135.13,362.3l.69,10.41-.7,0-.69-10.41Z"/><path class="cls-15" d="M140.11,362l.69,10.41-.7,0L139.41,362Z"/><path class="cls-15" d="M145.09,361.64l.69,10.41-.7,0-.69-10.41Z"/><path class="cls-15" d="M150.07,361.31l.69,10.41-.7,0-.69-10.41Z"/><path class="cls-15" d="M155,361l.69,10.41-.7,0L154.34,361Z"/><path class="cls-15" d="M160,360.65l.69,10.41-.7,0-.69-10.41Z"/><path class="cls-15" d="M165,360.32l.69,10.41-.7,0-.69-10.41Z"/><path class="cls-15" d="M170,360l.69,10.41-.7,0L169.28,360Z"/><path class="cls-15" d="M175,359.66l.69,10.41-.7,0-.69-10.41Z"/><path class="cls-15" d="M179.93,359.33l.69,10.41-.7,0-.69-10.41Z"/><path class="cls-15" d="M184.91,359l.69,10.41-.7,0L184.21,359Z"/><rect class="cls-16" x="85.36" y="364.43" width="29.86" height="12.77" transform="translate(-24.69 7.58) rotate(-3.85)"/><polygon class="cls-17" points="64.16 561.53 64.83 564.98 60.85 568.48 38 572.75 36.97 569.81 35.59 573.63 37.76 581.85 63.21 577.85 68.55 573.16 66.92 563.7 64.16 561.53"/><polygon class="cls-17" points="120.58 546.3 119.92 549.75 123.9 553.25 146.75 557.52 147.78 554.58 149.16 558.4 146.99 566.62 121.54 562.61 116.2 557.93 117.83 548.47 120.58 546.3"/><line class="cls-17" x1="148.06" y1="558.1" x2="146.57" y2="557.49"/><polygon class="cls-2" points="185.78 158.53 202.38 158.53 198.48 183.3 186.44 183.3 185.78 158.53"/><path class="cls-2" d="M199,183.87H185.88L185.19,158H203Zm-12-1.14h11l3.71-23.63H186.36Z"/><polygon class="cls-5" points="188.77 179.73 188.21 158.53 185.78 158.53 186.44 183.3 198.48 183.3 199.04 179.73 188.77 179.73"/><path class="cls-18" d="M188.3,167.91a10.41,10.41,0,0,1,.41-1.43,9.26,9.26,0,0,1,.61-1.37,5.34,5.34,0,0,1,.92-1.25,3.2,3.2,0,0,1,.65-.51,2.5,2.5,0,0,1,.4-.18l.21-.06h.12l.09,0c.23,0,.49-.08.76-.12l.75-.07c.5,0,1,0,1.5,0s1,0,1.49,0l1.49.12.57.06-.07.58c-.08.66-.17,1.31-.25,2l-.26,2c-.2,1.31-.37,2.63-.59,3.93l-.32,2-.34,2c-.12.65-.24,1.31-.37,2s-.26,1.3-.41,2c0-.67.05-1.33.09-2s.08-1.33.12-2l.15-2,.18-2c.11-1.32.27-2.64.4-4l.23-2c.08-.66.15-1.32.24-2l.5.63-1.44-.14-1.45-.1c-.48,0-1-.05-1.44-.05h-.72c-.23,0-.46,0-.71,0a1.78,1.78,0,0,0-.59.14,2.5,2.5,0,0,0-.55.34,5.62,5.62,0,0,0-.95,1,12,12,0,0,0-.78,1.22C188.72,167,188.5,167.46,188.3,167.91Z"/><polygon class="cls-2" points="27.76 158.53 11.15 158.53 15.05 183.3 27.1 183.3 27.76 158.53"/><path class="cls-2" d="M27.65,183.87H14.56L10.49,158H28.34Zm-12.12-1.14h11l.63-23.63H11.82Z"/><polygon class="cls-5" points="24.76 179.73 25.33 158.53 27.76 158.53 27.1 183.3 15.05 183.3 14.49 179.73 24.76 179.73"/><path class="cls-18" d="M25.24,167.91c-.2-.45-.42-.89-.66-1.31a11.89,11.89,0,0,0-.78-1.22,5.54,5.54,0,0,0-.95-1,2.51,2.51,0,0,0-.55-.34,1.77,1.77,0,0,0-.59-.14c-.25,0-.48,0-.71,0H20.3c-.48,0-1,0-1.44.05l-1.45.1-1.44.14.5-.63c.09.66.16,1.32.24,2l.23,2c.13,1.32.29,2.64.4,4l.18,2,.15,2c0,.66.09,1.33.12,2s.07,1.33.09,2c-.15-.65-.28-1.3-.41-2s-.25-1.31-.37-2l-.34-2-.32-2c-.21-1.31-.39-2.62-.59-3.93l-.26-2c-.08-.66-.18-1.31-.26-2l-.07-.58.56-.06,1.49-.12c.5,0,1-.05,1.49,0s1,0,1.5,0l.75.07c.26,0,.52.07.76.12l.09,0H22l.21.06a2.46,2.46,0,0,1,.4.18,3.24,3.24,0,0,1,.65.51,5.35,5.35,0,0,1,.92,1.25,9.37,9.37,0,0,1,.61,1.37A10.49,10.49,0,0,1,25.24,167.91Z"/><polygon class="cls-2" points="28.98 107.15 25 277.34 188.3 277.34 184.88 107.15 28.98 107.15"/><polygon class="cls-5" points="25.2 269.18 25 277.34 188.3 277.34 188.13 269.18 25.2 269.18"/><path class="cls-19" d="M177.81,196.73c-9.8-14.59-9.44-36.1-11.45-54.06-1.72-10.6-29.73-3.19-31.37-18.31-3.37,15.46-15.83.5-15.63,19.8-6.87-.79-11.29-10.74-10.2-18.27-8,4.4-15.79,11.17-13.24,18.27-8.65-7.33-10.88-11.15-7.17-20.46-9.8,4.92-17.48,8.84-16.28,17.16-9.19-5.36-2.69-17.56-.43-19.56-35.64,2.91-21.25,55.46-35.27,75.36,0,0-3.86-10.95-11.18-12.89-2.37-14.93,10.48-30-7.81-26.41,2.61-5.44,9-3.41,7.81-9.9-1.7-4.89-5.46,2.9-11.72,0,6.47-6,6-12.35,7.81-29.7-4.8,1.44-8,4.22-7.81,9.9C11.19,123.17,13,112,15.1,108,41.21,58.49,94,49.27,137.91,66.37c9.5,3.69,7.71,13.68,7.71,13.68s12.53-5.44,18.18-1.84C195,98,211.57,116.84,192.43,157.45a39.39,39.39,0,0,0-2.75,26.32C180.29,186.23,177.81,196.73,177.81,196.73Z"/><path class="cls-20" d="M27,155c8.45-10.34-3.37-12.52-3.37-12.52,6.07-9.43,5.34-30.82,5.34-30.82l-9.68,2.51c1.41-5.26,10.17-17.4,26.55-29.77,30.58-23.1,62.86-22.68,82.24-16.28C137.59,71.29,145.62,80,145.62,80s1.79-10-7.71-13.68C94,49.27,41.21,58.49,15.1,108c-2.12,4-3.92,15.16-1.21,19.65-.21-5.68,3-8.46,7.81-9.9-1.83,17.36-1.35,23.67-7.81,29.7,6.25,2.9,10-4.89,11.72,0,1.16,6.49-5.2,4.47-7.81,9.9,18.3-3.64,5.45,11.48,7.81,26.41a11.45,11.45,0,0,1,4.8,2.8l2.26-4.87C37.62,149.21,27,155,27,155Z"/><path class="cls-21" d="M69.25,118.65C35.56,121.39,46.56,168.5,36,190.46c-1.87-2.83-4.54-5.74-8-6.65-2.21-13.89,8.75-27.93-4.44-26.89,9.29.93,0,14,2,26.89,7.33,1.94,11.18,12.89,11.18,12.89a24.32,24.32,0,0,0,1.44-2.34v0c11-20.22.75-65,28.68-72.18a32.83,32.83,0,0,1,5.16-.85C72.44,120.74,70.82,118.65,69.25,118.65Z"/><path class="cls-21" d="M69.68,138.2l-.42-.27a9.7,9.7,0,0,0,3.22,2.92c-1-7.06,4.36-10.94,12-15,2.09-1.08,4.29-2.18,4.29-2.18C88.94,123.19,68.85,125.36,69.68,138.2Z"/><path class="cls-21" d="M116.56,141.5a8.38,8.38,0,0,1-3.66-1.38,9.77,9.77,0,0,0,6.45,4c-.18-18.14,12.57-5.08,15.64-19.8a78.19,78.19,0,0,1-7.81,4.83C122.39,131.22,116.43,128.1,116.56,141.5Z"/><path class="cls-21" d="M93.12,141.5c-.59-.5-1.15-1-1.68-1.46a60.3,60.3,0,0,0,4.48,4.12c-2.24-6.25,3-12.44,13.25-18.27C102,126.49,90.58,134.4,93.12,141.5Z"/><path class="cls-20" d="M191.06,100.62c-6-7.38-19.48-18.59-26.75-22.37-2.82-1.47-6-3.24-18.69,1.8a70,70,0,0,1,7.8,3.6c3.86,2.23,15.86,11,18.9,35a66.84,66.84,0,0,0-3.75-24.71h0c.26.43,15.59,25.72,10.2,48.18A82.91,82.91,0,0,0,181,109.36a40.19,40.19,0,0,1,4.2,13.16c4,29.53-7,34.2-2.87,65.78a15.75,15.75,0,0,1,7.32-4.53s-4-13.59,2-24.54S209.08,122.93,191.06,100.62Z"/><path class="cls-21" d="M102.46,152.74s-4.95,5.22-9.76,31.65c-2.14,11.74-11.55,19.16-8.81,24.48,4.07,7.9,35.42,14.73,42.11-1.48,0,0-33.46,7.48-36.24-1.38-1.12-3.56,4.66-10.92,7.25-20.78C100.86,170.57,102.46,152.74,102.46,152.74Z"/><path class="cls-5" d="M158.58,166.12s-4.3,6-9,.73c0,0-.08,5.6,4.5,5.6S158.58,166.12,158.58,166.12Z"/><ellipse class="cls-22" cx="154.05" cy="166.2" rx="4.54" ry="3.99"/><ellipse class="cls-23" cx="152.31" cy="164.37" rx="1.43" ry="1.26"/><ellipse class="cls-23" cx="150.67" cy="166.2" rx="0.58" ry="0.51"/><path class="cls-5" d="M56.13,166.2s4.3,6,9,.73c0,0,.08,5.6-4.5,5.6S56.13,166.2,56.13,166.2Z"/><ellipse class="cls-22" cx="60.67" cy="166.2" rx="4.54" ry="3.99"/><ellipse class="cls-23" cx="58.93" cy="164.37" rx="1.43" ry="1.26"/><ellipse class="cls-23" cx="57.28" cy="166.2" rx="0.59" ry="0.51"/><g class="cls-3"><path class="cls-24" d="M67.57,197.18a1.12,1.12,0,0,0,1.57-1.58,1.12,1.12,0,0,0-1.57,1.58Z"/><path class="cls-24" d="M52.23,205.68a1.12,1.12,0,0,0,1.57-1.58,1.12,1.12,0,0,0-1.57,1.58Z"/><path class="cls-24" d="M45.64,190.53a1.12,1.12,0,0,0,1.57-1.58,1.12,1.12,0,0,0-1.57,1.58Z"/></g><g class="cls-3"><path class="cls-24" d="M167.48,187.28a1.12,1.12,0,0,0,.06-2.23,1.12,1.12,0,0,0-.06,2.23Z"/><path class="cls-24" d="M162.12,204a1.12,1.12,0,0,0,.06-2.23,1.12,1.12,0,0,0-.06,2.23Z"/><path class="cls-24" d="M146.94,197.44a1.12,1.12,0,0,0,.06-2.23,1.12,1.12,0,0,0-.06,2.23Z"/></g><path class="cls-25" d="M77.73,222.94s21.11,5.68,44.11.71,25.44.26,25.38,3.95c-.11,6.51-7.11,12.2-23,13.89S67.1,246.06,64.6,229.1C63.38,220.81,74.22,222.16,77.73,222.94Z"/><path class="cls-23" d="M80.64,223.6s-1,6.28,6.08,6.71,5.9-5,5.9-5Z"/><path class="cls-23" d="M98.36,225.26s-1,6.28,6.08,6.71,6-6.63,6-6.63Z"/><path class="cls-23" d="M116.12,224.24s-1,6.28,6.08,6.71,6.11-8.51,6.11-8.51Z"/><path class="cls-23" d="M121.9,243.19s1-6.28-6.08-6.71-6,6.63-6,6.63Z"/><path class="cls-26" d="M105.35,230.61c-4-.24-5.42-2.37-5.9-4.16,3.95.67,11.06-.22,11.06-.22a8.76,8.76,0,0,0-.05-.89l-11.21-.08h-.88s-1,6.28,6.08,6.71c3.27.2,4.8-1.21,5.5-2.79A5.57,5.57,0,0,1,105.35,230.61Z"/><path class="cls-26" d="M92.69,226.22a1.86,1.86,0,0,0-.1-.93c-3-.22-11.05-1.56-11.05-1.56l-.9-.13s-1,6.28,6.08,6.71c3.73.23,5.17-1.19,5.69-2.57-.86.8-2.32,1.37-4.79,1.22-4.13-.25-5.51-2.5-5.94-4.33h0C85.46,225.95,92.69,226.22,92.69,226.22Z"/><path class="cls-26" d="M123.11,229.59c-4.06-.25-5.46-2.43-5.92-4.24a56.47,56.47,0,0,0,11.17-2.18,8.63,8.63,0,0,0-.06-.89L117,224.11l-.87.13s-1,6.28,6.08,6.71a5,5,0,0,0,5.25-2.91A5.11,5.11,0,0,1,123.11,229.59Z"/><path class="cls-23" d="M100.22,242.77s1-6.28-6.08-6.71S88,242.81,88,242.81Z"/><path class="cls-26" d="M112.22,241.63c-.58-.12-1.8-1.91-1-3.72-1.89,2-1.41,5.2-1.41,5.2l12.09.08a4.38,4.38,0,0,0-.14-2.38S116.48,242.52,112.22,241.63Z"/><path class="cls-26" d="M89.88,241.27c-.52-.12-1.24-1.87-.4-3.72-1.9,2-1.48,5.26-1.48,5.26l12.22,0a6.53,6.53,0,0,0,0-1.35A23.55,23.55,0,0,1,89.88,241.27Z"/><path class="cls-5" d="M144.65,240.9c-4.73,3.08-11.4,5.1-19.84,6a222.76,222.76,0,0,1-26.12,1.32c-9.91-.16-18-1.26-24.16-3.26a28.12,28.12,0,0,1-9.81-5.23,16,16,0,0,1-5.56-9.9c0-.34-.08-.67-.11-1a13.36,13.36,0,0,0,.11,3.09,17,17,0,0,0,5.35,10.47,33.17,33.17,0,0,0,10.61,5.9c6.12,2,14.25,3.1,24.16,3.26a223.22,223.22,0,0,0,26.12-1.32,46,46,0,0,0,20.09-7.05,15.6,15.6,0,0,0,7.24-13.46c0-.42,0-.82,0-1.21C152.31,233.38,149.48,237.75,144.65,240.9Z"/><path class="cls-27" d="M149.27,219.57c-2.56-2.23-6.29-3.36-11.41-3.44a78.07,78.07,0,0,0-17.17,2.15,90.07,90.07,0,0,1-20.41,1.9,97.53,97.53,0,0,1-21.11-2.55l-.12,0-.12,0a31.78,31.78,0,0,0-6.09-.72c-5.09-.08-8.9,1.28-11.33,4a10.72,10.72,0,0,0-2.36,9,16,16,0,0,0,5.56,9.9A28.15,28.15,0,0,0,74.53,245c6.12,2,14.25,3.09,24.16,3.25A223,223,0,0,0,124.81,247c8.44-.89,15.12-2.91,19.84-6,5.12-3.34,8-8.06,8.07-13.27A10.18,10.18,0,0,0,149.27,219.57Zm-25,21.93c-15.89,1.68-57.13,4.57-59.63-12.4-1.22-8.28,9.62-6.93,13.13-6.15,0,0,21.11,5.68,44.11.71s25.44.26,25.38,3.95C147.12,234.12,140.12,239.81,124.23,241.49Z"/><path class="cls-28" d="M121.85,221.82c-23,5-44.11-.71-44.11-.71-3.46-.77-14.06-2.09-13.17,5.84.83-5.9,10-4.73,13.17-4,0,0,21.11,5.68,44.11.71,20.87-4.51,24.81-.62,25.31,2.89,0-.25.06-.5.06-.75C147.28,222.09,144.85,216.86,121.85,221.82Z"/><path class="cls-28" d="M144.65,239.14c-4.73,3.09-11.4,5.1-19.85,6a223.18,223.18,0,0,1-26.12,1.32c-9.91-.16-18-1.26-24.16-3.25A28.15,28.15,0,0,1,64.72,238a16,16,0,0,1-5.56-9.9c-.06-.43-.09-.83-.11-1.23a13.38,13.38,0,0,0,.11,3,16,16,0,0,0,5.56,9.9A28.14,28.14,0,0,0,74.52,245c6.12,2,14.25,3.1,24.16,3.26a222.93,222.93,0,0,0,26.12-1.32c8.44-.89,15.12-2.91,19.85-6,5.12-3.34,8-8.06,8.07-13.27,0-.34,0-.65,0-1C152.33,231.58,149.5,236,144.65,239.14Z"/><path class="cls-28" d="M69.47,218.3s.14.19.32.48.4.7.61,1.12.38.84.5,1.17.18.55.18.55-.14-.19-.32-.48-.41-.7-.61-1.12-.38-.84-.5-1.17A5.8,5.8,0,0,1,69.47,218.3Z"/><path class="cls-28" d="M82.86,219.71s0,.24.08.61.06.85.06,1.34,0,1-.06,1.34-.08.61-.08.61,0-.24-.08-.61-.06-.85-.06-1.34,0-1,.06-1.34S82.86,219.71,82.86,219.71Z"/><path class="cls-28" d="M105.87,221s0,.22.08.54a11.8,11.8,0,0,1,0,2.38c0,.32-.08.54-.08.54a5.36,5.36,0,0,1-.08-.54,11.42,11.42,0,0,1-.06-1.19c0-.43,0-.86.06-1.19S105.87,221,105.87,221Z"/><path class="cls-28" d="M127.79,218.3s0,.23,0,.58-.1.8-.19,1.24-.2.89-.31,1.22a5.77,5.77,0,0,1-.19.55s0-.23,0-.58a12.38,12.38,0,0,1,.19-1.25c.09-.45.2-.89.31-1.22S127.79,218.3,127.79,218.3Z"/><path class="cls-28" d="M145.9,218.73s-.09.22-.26.54-.41.72-.67,1.12-.55.78-.78,1.05-.4.45-.4.45a5.84,5.84,0,0,1,.26-.54c.17-.32.41-.72.67-1.12s.55-.78.78-1.05S145.9,218.73,145.9,218.73Z"/><path class="cls-29" d="M25.41,141.89s-34.95-33.34-17-50c20.34-18.82,119.11-55,182.75-15.55,43.17,26.78-4.4,65.51-4.4,65.51S198,89.57,141.62,87.17C83.27,84.69,23.13,96.87,25.41,141.89Z"/><path class="cls-29" d="M34.83,76.86s.48-16.07,7.68-27.26,19.18-34,21.18-41.17S86.47-2,98.86,1.24,121.64,10,130,12.43s28.39-3.67,47.09,56.67c0,0-20.9-12.59-64-10.43S34.83,76.86,34.83,76.86Z"/><path class="cls-30" d="M191.52,76.17c-53.3-33.07-131.24-13-167.11,5.4,37.06-18,112.25-36.08,164.11-3.9,36.07,22.38,8.79,53.1-1.16,62.59-.14.91-.25,1.42-.25,1.42S234.69,102.95,191.52,76.17Z"/><path class="cls-30" d="M116.29,10.7s12.82,14.08,22.89,15.79c0,0-9.66-5.51-12.32-10-1.13-1.89-1-5.14,3.17-4.11a54.14,54.14,0,0,1-7.62-2.68c-2.25-1.19-15.85-6.17-15.85-6.17S114.14,8.18,116.29,10.7Z"/><path class="cls-31" d="M177.19,68.86c-1.55-5-3.11-9.54-4.67-13.67-45.26-17.25-101.1-5.74-135.66,8.44a81.13,81.13,0,0,0-2,12.95C70.23,61.49,130.16,48.69,177.19,68.86Z"/><polygon class="cls-32" points="25 369.49 25 277.34 188.3 277.34 188.3 358.73 25 369.49"/><polygon class="cls-33" points="187.34 231.44 205.31 259.86 205.31 271.2 189.43 282.54 190.1 333.74 193.13 336.38 192.72 344.36 188.3 346.63 188.3 358.73 24.24 369.49 24.24 361.17 20.08 358.9 20.08 351.45 24.24 348.57 23.56 278.4 8.06 271.22 8.06 261.77 26.08 233.03 25.34 263.18 101.35 316.94 187.88 257.5 187.34 231.44"/><polygon class="cls-34" points="23.78 298.19 25.85 289.15 76.61 304.5 23.78 279.11 23.78 298.19"/><polygon class="cls-34" points="138.16 322.89 189.5 283.37 190.1 333.42 184.21 334.65 177.67 300.99 138.16 322.89"/><polygon class="cls-34" points="168.05 299.88 205.31 271.2 205.31 263.05 189.5 279.68 168.05 299.88"/><polygon class="cls-34" points="23.56 276.35 8.06 263.06 8.06 271.22 33.56 283.47 23.56 276.35"/><polygon class="cls-34" points="184.36 335.13 188.03 339.1 188.3 346.63 192.72 344.36 193.13 336.38 190.1 334.07 184.36 335.13"/><polygon class="cls-34" points="24.24 351.26 33.6 349.94 24.94 348.77 20.08 351.45 20.08 358.9 24.24 361.17 24.24 351.26"/><polygon class="cls-34" points="24.24 369.49 188.3 358.73 188.3 355.79 24.24 366.55 24.24 369.49"/><polygon class="cls-34" points="26.32 366.41 26.32 362.95 119.5 354.13 24.24 360.85 24.24 368.23 26.32 366.41"/><polygon class="cls-34" points="188.3 355.79 188.3 346.63 105.41 358.71 186.27 349.67 188.3 355.79"/><polygon class="cls-34" points="192.27 258.48 192.5 272.71 165.25 283.08 189.78 269.4 190.21 255.17 192.27 258.48"/><path class="cls-34" d="M205.88,259.7l-19.15-30.29.58,27.8-86,59L25.92,262.89,26.7,231,7.49,261.6v10L23,278.76l.67,69.51-4.15,2.88v8.09l4.16,2.27v8.58l165.2-10.84V347l4.41-2.26.43-8.58-3-2.66L190,283.33l9.55-7.29-.29.17,6.6-4.72Zm-1.14,11.21-15.88,11.34-51.38,41.16,51.4-39.22.64,48.91-13.88,3.55L190,334.39l2.56,2.24-.37,7.38-3.82,2v0l-83.08,12.8,82.46-11.28v10.74L24.81,368.88v-7.29l95.4-7.5-96.39,6.15v.05l-3.17-1.73v-6.82l4.16-2.88-.67-69.57L76.7,304.56,24.1,278h0L8.63,270.85v-8.92l16.83-26.84-.69,28.38,76.58,54.17L188.21,258h0l.08.11.5-.38.08,11.16-24.22,14.57,25.13-13.7.3-.16v-.36l.09-12.9v-1.39l-1.12.83-.66.49L188,233.47,204.74,260Z"/><circle cx="86.23" cy="311.3" r="1.11"/><path class="cls-35" d="M86.42,309.72a1.47,1.47,0,1,0,1.47,1.47A1.47,1.47,0,0,0,86.42,309.72Zm-.21,2.66a1.11,1.11,0,1,1,1.11-1.11A1.11,1.11,0,0,1,86.21,312.38Z"/><path class="cls-36" d="M87.38,311.13a1.1,1.1,0,0,0-2.15-.35,1.1,1.1,0,0,1,2,.85A1.08,1.08,0,0,0,87.38,311.13Z"/><path class="cls-36" d="M86.48,312.52a1.45,1.45,0,0,1-1.38-2,1.46,1.46,0,1,0,2.69,1.13A1.46,1.46,0,0,1,86.48,312.52Z"/><circle cx="117.24" cy="313.13" r="1.11"/><path class="cls-35" d="M117.43,311.56A1.47,1.47,0,1,0,118.9,313,1.47,1.47,0,0,0,117.43,311.56Zm-.21,2.66a1.11,1.11,0,1,1,1.11-1.11A1.11,1.11,0,0,1,117.22,314.22Z"/><path class="cls-36" d="M118.39,313a1.1,1.1,0,0,0-2.15-.35,1.1,1.1,0,0,1,2,.85A1.11,1.11,0,0,0,118.39,313Z"/><path class="cls-36" d="M117.49,314.35a1.47,1.47,0,0,1-1.47-1.47,1.57,1.57,0,0,1,.09-.5,1.46,1.46,0,1,0,2.69,1.13A1.46,1.46,0,0,1,117.49,314.35Z"/><path class="cls-34" d="M123.28,336.66c-7.22-10.91-1.95-14.62-5.49-22.5,0,0,0,.12,0,.33,1.25,4.24.57,10.3,1.06,15,.39,5.07,6,11,4.08,17.09h4S127.47,343,123.28,336.66Z"/><path class="cls-34" d="M90.34,339.09a21,21,0,0,0,1.83,8.77l4.89-.37s-4.53-3.89-3.91-12.15a36.92,36.92,0,0,0-5.65-23C90.32,317.21,92.26,330.06,90.34,339.09Z"/><path class="cls-16" d="M86.05,310.94s3.84,15.53,0,28.43a19.52,19.52,0,0,0,.89,13.3h6.21s-5.07-2.78-2.82-13.3S89.56,313.12,86.05,310.94Z"/><path class="cls-16" d="M117.29,313a85.54,85.54,0,0,1-.58,16c-1.15,8.37,2.79,14.5-2.75,21.76h6.36a15.13,15.13,0,0,0,.56-12.33C117.26,329,120,318,117.29,313Z"/><path class="cls-37" d="M90.33,339.37c2.25-10.52-.77-26.25-4.29-28.43,0,0,.05.2.13.57,2.86,4.72,4.87,17.76,2.93,26.89-2.25,10.52,1.86,13.3,1.86,13.3H86.53c.23.62.41,1,.41,1h6.21S88.09,349.89,90.33,339.37Z"/><path class="cls-37" d="M120.89,338.48C117.26,329,120,318,117.29,313c0,0,.19,2.51.13,6.22.22,5.37-.11,12.16,2.24,18.27a15.12,15.12,0,0,1-.56,12.32h-4.46c-.21.32-.43.64-.68,1h6.36A15.13,15.13,0,0,0,120.89,338.48Z"/><polygon class="cls-34" points="71.73 337.03 65.83 345.99 65.73 346.13 65.57 346.18 34.16 354.84 65.32 345.32 65.07 345.51 70.52 336.28 71.73 337.03"/><path class="cls-34" d="M70.43,336.65s-11.28,10.86-34.15,17.58l29.17-8.48Z"/><polygon class="cls-34" points="135.04 327.65 140.48 336.89 140.21 336.69 169.88 344.23 140 337.56 139.83 337.52 139.73 337.36 133.83 328.41 135.04 327.65"/><path class="cls-34" d="M135.08,328s11.93,9.48,34.8,16.19l-29.82-7.1Z"/><path class="cls-2" d="M198.14,278.77s59.25,107.09-55.88,183.58l-4.78-4.71,4.1-6.28-4.1-5-8.54,4.4-6.15-6.95,8.88-5.92-2-6.59-10.25,1.57L116,425.61l17.13-7.86-6.71-6.39,3.32-6.62s42.72,10.35,62.44-48.84c10.29-30.88-10.25-64.37-9.91-64.06S186.15,284.55,198.14,278.77Z"/><g class="cls-3"><path class="cls-38" d="M142.45,461.7,137.67,457l4.1-6.28-4.1-5-6.56,3.06-1.19,9.57,4.58-2,4.1,5-4.1,6.28,4.78,4.71a199.59,199.59,0,0,0,29-23.25l2.12-9.56A200.74,200.74,0,0,1,142.45,461.7Z"/></g><g class="cls-3"><path class="cls-4" d="M184.83,288.69c-1.71,2-2.45,3.29-2.59,3.15s11.35,18.75,12.67,41.34C196.06,314.52,188.86,297,184.83,288.69Z"/><polygon class="cls-4" points="128.47 410.99 129.15 405.84 126.38 411.36 133.09 417.75 134.65 417.11 128.47 410.99"/><polygon class="cls-4" points="136.28 443.77 129.84 448.37 124.8 442.45 122.8 443.78 128.94 450.73 137.85 446.02 136.28 443.77"/><polygon class="cls-4" points="129.25 428.07 119.89 430.83 117.36 424.97 115.96 425.61 119.38 432.83 130 431.1 129.25 428.07"/><path class="cls-4" d="M139.67,458.16l-1.54-1.52-.65,1,4.78,4.71c58.89-39.13,72.15-86.26,71.06-123C212.25,374.73,194.29,421.87,139.67,458.16Z"/></g><path class="cls-5" d="M137.13,420.78s-2.25,4.8,2.52,6.72Z"/><path class="cls-5" d="M141,432.33s-1.18,5.53,4.25,6.36Z"/><path class="cls-5" d="M148.65,443.89s0,4.4,4.22,4.18Z"/><path class="cls-5" d="M194.16,326.05l.74,7s10.42-4.61,17.9-2.24l-1-8.18Z"/><polygon class="cls-6" points="198.93 275.76 208.81 280.27 216.66 307.7 220.96 307.7 223.23 319.8 186.3 327 182.23 289.8 198.93 275.76"/><polygon class="cls-7" points="222.44 315.59 196.35 320.69 191.03 290.31 208.81 280.27 198.93 275.76 189.44 283.08 182.03 289.24 186.3 327 223.23 319.8 222.44 315.59"/><path class="cls-39" d="M124.48,200.18c-11.59-20-8-51.07-17.83-51.07s-6.24,31.09-17.83,51.07S136.06,220.16,124.48,200.18Z"/><path class="cls-5" d="M87.92,202.32c-6.75,17.49,44.2,17.49,37.46,0C120.84,212,92.46,212,87.92,202.32Z"/><path class="cls-2" d="M106.65,215.55c-9,0-16.36-2.73-18.8-7-1.44-2.5-1.22-5.39.64-8.6,5.49-9.46,7.59-21.65,9.29-31.45,1.91-11.07,3.42-19.81,8.87-19.81s7,8.74,8.88,19.81c1.69,9.79,3.79,22,9.28,31.45,1.86,3.21,2.08,6.11.64,8.6C123,212.82,115.63,215.55,106.65,215.55Zm0-66c-4.8,0-6.27,8.46-8.12,19.17-1.7,9.85-3.82,22.12-9.38,31.7-1.71,3-1.93,5.59-.64,7.84,2.3,4,9.42,6.57,18.13,6.57s15.83-2.58,18.13-6.57c1.29-2.24,1.08-4.88-.64-7.84-5.56-9.58-7.67-21.85-9.38-31.7C112.92,158,111.45,149.5,106.65,149.5Z"/></g></g></g></svg>