<svg xmlns="http://www.w3.org/2000/svg" viewBox="0 0 288.24 666.64"><defs><style>.cls-1{fill:#f3daa8;}.cls-2{fill:#bcaa84;}.cls-3{fill:#928366;}.cls-4{fill:#ab4133;}.cls-5{fill:#9b3b2e;}.cls-6{fill:#772a1f;}.cls-7{fill:#c4a787;}.cls-8{fill:#f7e8ce;}.cls-9{fill:#252525;}.cls-10{fill:#4c4c4c;}.cls-11{fill:#323333;}.cls-12{fill:#ad4e2f;}.cls-13{fill:#582200;}.cls-14{fill:#181818;}.cls-15{fill:#f6ed99;}.cls-16{fill:#3e0c00;}.cls-17{fill:#605f5d;}.cls-18{fill:#735029;}.cls-19{fill:#996a39;}.cls-20{fill:#5b3e1c;}.cls-21{fill:#3d2600;}.cls-22{fill:#fbfbfb;}.cls-23{fill:#627db6;}.cls-24{fill:#7e92c1;}.cls-25{fill:#b4ad4d;}.cls-26{opacity:0.5;}.cls-27{fill:#251e1c;}.cls-28{fill:#7a351c;}.cls-29{fill:#ad4e2b;}.cls-30{fill:#bc8b4f;}</style></defs><title>Asset 3</title><g id="Layer_2" data-name="Layer 2"><g id="Layer_1-2" data-name="Layer 1"><path class="cls-1" d="M93.92,97.36v0l.07,0A.08.08,0,0,0,93.92,97.36Z"/><path class="cls-2" d="M176.42,59.8c-10-5-20.91-9-32.18-10A94.4,94.4,0,0,0,103,56c-19.08,7.3-47.59,25.56-38.53,50a.15.15,0,0,1-.05.16c4.29,9.66,8.51,19.36,12.77,29.06,2.08.66,4.28,1,6.37,1.6a.33.33,0,0,0,.14-.07c-2.1-.42-3.78-2.73-5-4.55-2-3.22-1.68-7.21-1.19-10.84,1-7.35,6.79-12.18,11.89-17.21a16.74,16.74,0,0,0,4.47-6.67l-.13,0,.13,0v0a.08.08,0,0,1,.06,0c8.05-1.72,16.31-2.77,24.29-4.93h.07c2,2.1,4.83,3.15,7.42,4.69A37.89,37.89,0,0,0,138,101.63a33.71,33.71,0,0,0,7,.49,15.76,15.76,0,0,1-5-6.29s0,.09,0,.13,0-.09,0-.13h0v0l-.14-.2.14.2a.48.48,0,0,1,.21-.41.48.48,0,0,0-.21.41c2.06,2.83,5.73,4.69,8.53,7.08,1.54,1.4,3.08,2.59,4.55,4a92.92,92.92,0,0,0,12,9c4.55,2.94,8.61,5.74,13.37,7.91.28.07.63.21.84.28,5.14,2.48,10.08,5,15.57,6.65,4.06-10,8.14-20.06,11.95-30.18C211,81.18,191.6,67.39,176.42,59.8Z"/><path class="cls-2" d="M169.7,166.49c-5.18-.28-11-.56-15.12-4.2-1.47-1.4-3.08-2.45-4.27-4.13a28.68,28.68,0,0,1-5.18-9.93c-.84-3.15-.7-6.3-1.19-9.52-.42-2.31-2.45-3.85-4.83-4.34-5-1-10.85.7-12.8,5.6a40.86,40.86,0,0,0-1.26,5c-.14.35-.07.77-.21,1.12-.84,2.73-1.19,5.46-2.87,7.91a26.82,26.82,0,0,1-3.92,4.83,30.84,30.84,0,0,1-10.77,6.65c-.21.14-.56.07-.77.21a22,22,0,0,1-5.18,1.12,71.34,71.34,0,0,1-10-.18q1.81,3.93,3.65,7.84c3.73.51,7.6-.52,11-2A25.75,25.75,0,0,0,109.1,171c.56-.28,1-.63,1.54-.84,10.77-4.2,16.79-14.41,19.17-25.61a7.4,7.4,0,0,1,1.54-3.64c1.61-1.61,4.62-2,6.16.14a40.84,40.84,0,0,1,4.76,10.57,6.09,6.09,0,0,1,.49,1.19c1.61,7.07,7.07,11.33,12.94,15a24.6,24.6,0,0,0,6.37,3.15c5.25,1.4,10.36,2.45,15.74,2h0q1.22-3.19,2.49-6.36C176.79,166.72,173.24,166.66,169.7,166.49Z"/><path class="cls-2" d="M99.79,180.14c-.48-2.65-1.53-4.94-2.17-7.4a14.47,14.47,0,0,1-3.48.07c1.78,3.77,4.37,9.23,6.2,13a.15.15,0,0,1,0,.13,50,50,0,0,0,8.87,8.57c-1.89-2.25-3.55-4.46-5.43-6.78A16.84,16.84,0,0,1,99.79,180.14Z"/><path class="cls-1" d="M164.67,170.58c-7.54-2.5-17.14-11.06-19.65-17.53-2.42-4.59-1.91-11.69-4.14-15.12-1.54-2.17-9.29-1.61-10.9,0-.91,1-2,4.47-2.27,5.8-2.38,11.2-8,18.9-17.76,25.1-2.85,1.81-8.24,3.44-12.32,3.92.64,2.46,1.69,4.75,2.17,7.4a16.84,16.84,0,0,0,4,7.56c1.88,2.32,3.54,4.53,5.43,6.78,2,1.56,3.94,3.07,5.77,4.56,4.05,3.29,8.06,6.68,12.2,9.85,0,0,0,0,0,0a44.41,44.41,0,0,0,10.48,1.2c3.51-.1,6.92-.74,10.4-1.16,0,0,.05,0,.08,0,5.53-3.59,10-8.31,14.55-13,1.11-1.4,2.26-2.79,3.48-4.15,2-2.31,4.41-4.2,5.46-7,1.47-4.2,2.87-8.26,4.48-12.31a3.39,3.39,0,0,0,.15-.43A28.36,28.36,0,0,1,164.67,170.58Z"/><path class="cls-2" d="M177.86,173.07s.48-1.21.47-1.21c-.68.1-1.36.17-2,.23a3.39,3.39,0,0,1-.15.43c-1.61,4.06-3,8.12-4.48,12.31-1,2.8-3.43,4.69-5.46,7-1.23,1.36-2.37,2.75-3.48,4.15a114.53,114.53,0,0,1,10.49-10.08.12.12,0,0,1,0-.08C174.67,181.54,176.24,177.3,177.86,173.07Z"/><path class="cls-1" d="M179.28,124.09c-.21-.07-.56-.21-.84-.28-4.76-2.17-8.82-5-13.37-7.91a92.92,92.92,0,0,1-12-9c-1.47-1.4-3-2.59-4.55-4-2.8-2.39-6.47-4.25-8.53-7.08v0a15.76,15.76,0,0,0,5,6.29,33.71,33.71,0,0,1-7-.49,37.89,37.89,0,0,1-12.24-4.48c-2.59-1.54-5.39-2.59-7.42-4.69l-4.85-6.29c-8,2.15-9.68,2.19-17.73,3.91,0,0-1.77,7.33-1.77,7.35a.08.08,0,0,0,0,0l-.07,0a16.74,16.74,0,0,1-4.47,6.67c-5.11,5-10.92,9.87-11.89,17.21-.49,3.64-.84,7.63,1.19,10.84,1.19,1.82,2.87,4.13,5,4.55a.33.33,0,0,1-.14.07.36.36,0,0,0-.14.07.36.36,0,0,1,.14-.07c-2.09-.6-4.29-.94-6.37-1.6,4.62,10.54,9.28,21.06,14.1,31.51a71.34,71.34,0,0,0,10,.18,22,22,0,0,0,5.18-1.12c.21-.14.56-.07.77-.21a30.84,30.84,0,0,0,10.77-6.65A26.82,26.82,0,0,0,122,154c1.68-2.45,2-5.18,2.87-7.91.14-.35.07-.77.21-1.12a40.86,40.86,0,0,1,1.26-5c2-4.9,7.84-6.58,12.8-5.6,2.38.49,4.41,2,4.83,4.34.49,3.22.35,6.37,1.19,9.52a28.68,28.68,0,0,0,5.18,9.93c1.19,1.68,2.8,2.73,4.27,4.13,4.13,3.64,9.94,3.92,15.12,4.2,3.54.17,7.1.22,10.65.22,3.17-8,6.48-15.93,9.65-23.89q2.4-6,4.86-12.08C189.36,129.11,184.42,126.57,179.28,124.09Z"/><path class="cls-3" d="M170.46,56.25a84.09,84.09,0,0,0-31.12-7.41c-13.49-.42-27.09,2.54-39.54,7.65-17.64,7.24-46.13,26.69-35.66,49.58a.14.14,0,0,0,.16.08q7.57,18.07,15.45,36c4,9.08,8,18.15,12.14,27.18,2.51,5.5,4.78,11.54,8.18,16.58a.13.13,0,0,0,.13.06,25.3,25.3,0,0,0,4.9,5.29c3.06,2.83,6.27,5.49,9.49,8.14,4.08,3.34,8.29,6.47,12.47,9.67a.08.08,0,0,0,.11,0c6,2.89,14.79,2.41,21,.34a.23.23,0,0,0,.14-.19c10.15-5.09,16.74-15.77,25-23.25a.18.18,0,0,0,.21-.1c10.91-28.2,23-56,33.22-84.47a.09.09,0,0,0,.09-.06c.11-.32.19-.64.29-1l.16-.44a.09.09,0,0,0,0-.08C213.14,78.73,186.38,63.18,170.46,56.25Zm36.34,44.31c-5.33,14.18-11.21,28.18-16.81,42.26-5.67,14.27-11.8,28.46-16.8,43a.12.12,0,0,0,0,.08c-8.86,7.17-15.39,16.84-25,23.11,0,0,0,0-.08,0-3.47.42-6.88,1.06-10.4,1.16a44.41,44.41,0,0,1-10.48-1.2s0,0,0,0C123,205.72,119,202.33,115,199c-4.89-4-10.81-8-14.64-13.13a.15.15,0,0,0,0-.13c-12.78-26.17-24.11-53.07-35.92-79.68a.15.15,0,0,0,.05-.16C55.42,81.52,83.92,63.26,103,56a94.4,94.4,0,0,1,41.23-6.14c11.27.94,22.13,5,32.18,10C191.6,67.39,211,81.18,206.8,100.57Z"/><path class="cls-4" d="M143.42,182.8a37.3,37.3,0,0,1-5.76,1.28.19.19,0,0,1-.19.1,31.76,31.76,0,0,1-5.86-1.75h0a54.55,54.55,0,0,1-8.26-.92c1.26.87,2.43,1.93,3.58,2.9a59.58,59.58,0,0,1,4.75,4.39h0c4.19.13,8,.56,12.22-.1a.14.14,0,0,1,.08,0c3.49-2.23,6.64-5.05,9.92-7.59-3.39.85-7,1.73-10.43,1.61A.14.14,0,0,1,143.42,182.8Z"/><path class="cls-5" d="M131.65,182.2a13.37,13.37,0,0,1,5.95,1.67v0a26,26,0,0,1,5.77-1.37.11.11,0,0,1,.1,0c3.26-.36,6.5-1.08,9.75-1.69a37.75,37.75,0,0,1-4.12-.37c-2.09-.26-4.43-.57-6.22-1.77-1.58.79-3.26,1.37-4.86,2.11a.15.15,0,0,1-.15.14c-.53,0-1.1-.46-1.52-.72a14.63,14.63,0,0,0-3-1.54s0,0-.05,0a40.88,40.88,0,0,1-10.88,2c3.07.52,6.17.85,9.21,1.51Z"/><path class="cls-6" d="M156.94,179.89a31,31,0,0,1-6.45,0c-2.32-.18-5.39-.37-7.54-1.41h0a.12.12,0,0,0-.09,0,17.78,17.78,0,0,0-4.93,2.21l0,0a3.13,3.13,0,0,1-.6-.45c-.41-.31-.84-.57-1.27-.83a6,6,0,0,0-2.65-.92.11.11,0,0,0-.12.1A65,65,0,0,1,118.86,180a.15.15,0,0,0,0,.3c.42.1.85.16,1.29.22a.17.17,0,0,0,.1.11,18.54,18.54,0,0,0,1.88.6,121.78,121.78,0,0,1,9.44,7.73.09.09,0,0,0,.12,0c3.86,1.07,8.52,1.45,12.33.08a.14.14,0,0,0,.1-.14A83.16,83.16,0,0,0,154.29,181l1.53-.38a.13.13,0,0,0,.09-.07,8.06,8.06,0,0,0,1.09-.32C157.19,180.21,157.18,179.86,156.94,179.89Zm-23.63-1.23s0,0,.05,0a14.63,14.63,0,0,1,3,1.54c.42.26,1,.74,1.52.72a.15.15,0,0,0,.15-.14c1.6-.75,3.28-1.33,4.86-2.11,1.8,1.2,4.13,1.51,6.22,1.77a37.75,37.75,0,0,0,4.12.37c-3.24.61-6.48,1.34-9.75,1.69a.11.11,0,0,0-.1,0,26,26,0,0,0-5.77,1.37v0a13.37,13.37,0,0,0-5.95-1.67h0c-3-.67-6.14-1-9.21-1.51A40.88,40.88,0,0,0,133.31,178.66ZM144,188.74a.14.14,0,0,0-.08,0c-4.2.65-8,.23-12.22.1h0a59.58,59.58,0,0,0-4.75-4.39c-1.15-1-2.31-2-3.58-2.9a54.55,54.55,0,0,0,8.26.92h0a31.76,31.76,0,0,0,5.86,1.75.19.19,0,0,0,.19-.1,37.3,37.3,0,0,0,5.76-1.28.14.14,0,0,0,0,0c3.38.11,7-.77,10.43-1.61C150.62,183.69,147.47,186.51,144,188.74Z"/><path class="cls-7" d="M144.44,158c0,1.95-1.83,3.92-3.53,4.83-2.14,1.15-4.1,1.15-6.49,1.19a9.62,9.62,0,0,0-2.72.24c-2.69.89-1.6,2.47-1,3.17.34.38.52.5.75.56,3.82.46,8.17.53,11.77-1.5S146,161,144.44,158Z"/><path class="cls-3" d="M143.16,155.34a.13.13,0,0,0-.21.16l.37.59c1.41,2.92-.47,5.05-3.27,6.52-2.49,1.3-5.27.39-7.9.86-4.16.76-3.06,4.37-.78,5,0,0,0,0,0,0h.08a2.86,2.86,0,0,0,.52.07h0c4.26.52,10,.1,13.25-2.76C148.35,163.19,145.38,157.52,143.16,155.34Zm.11,11.17c-3.61,2-8,2-11.77,1.5-.24-.05-.41-.18-.75-.56-.63-.7-1.72-2.28,1-3.17a9.62,9.62,0,0,1,2.72-.24c2.39,0,4.35,0,6.49-1.19,1.7-.92,3.48-2.89,3.53-4.83C146,161,147,164.45,143.26,166.52Z"/><path class="cls-1" d="M126.31,654.83c0,.06,0,.11,0,.16l0-.18S126.31,654.8,126.31,654.83Z"/><polygon class="cls-2" points="125.33 549.17 125.33 549.18 125.34 549.17 125.33 549.17"/><path class="cls-2" d="M123,615.53v0l0,0a.25.25,0,0,0-.14,0l0,.14Z"/><path class="cls-2" d="M126.35,654.81v0l0,0Z"/><path class="cls-2" d="M123.16,665.46h0Z"/><path class="cls-2" d="M129.38,622c-.9-1.8-1.78-3.64-2.61-5.48a13.3,13.3,0,0,1-.82-2.14.17.17,0,0,1-.25-.1c-2.77-12.52-2-26.52-.29-39.14,1-7.3,2.7-14.53,3.11-21.91a78.12,78.12,0,0,0-.58-14.53c-1.87-7.81-3.38-17.12-.78-24.87,2.63-11.07,5.53-22,7.26-33.27q-5.67-.07-11.31-.48l.11.07c3.71,2.45,4.34,6.79,4.2,10.78-.21,7.84-2.1,15.32-4.55,22.88a25.07,25.07,0,0,0-.63,14.7,21.26,21.26,0,0,1,.56,2.24c.14.84.21,1.61.42,2.38,1.33,5.32,2.45,10.57,2.1,16,0,0,0,0,0,.08h0l.13-.14-.13.14s.12,0,.06.14c.06-.12,0-.14-.06-.14h0c0,.07,0,.14,0,.21a.29.29,0,0,0,.21.27.29.29,0,0,1-.21-.27,18.74,18.74,0,0,1-.07,4c-.84,5-1.26,9.59-2,14.55-1,7-1.47,13.71-2.31,20.71-1,9.06-1,18.34,1.93,26.86a.25.25,0,0,1,.14,0l0-.05,0,.05h0l0,0a109.74,109.74,0,0,1,3,13.13c.07.28.21.63.28.84a33.88,33.88,0,0,1,.91,5.18,59.8,59.8,0,0,1,.28,15.81,27.06,27.06,0,0,1-1.15,4.31h0l.16-.13-.16.13s.05.07,0,.15c0-.08,0-.13,0-.15l0,0,0,.14a17.72,17.72,0,0,1-1.53,7c-.56,1.14-1.09,2.28-1.61,3.41h0c2.07,0,3-1.89,5.41-2.37h.06c2-4.37,4-7.16,5.32-11.73l0,0c-2-9.48-4.48-19.56-4.52-29.31A.11.11,0,0,1,129.38,622Z"/><path class="cls-1" d="M127.22,634.68a33.88,33.88,0,0,0-.91-5.18c-.07-.21-.21-.56-.28-.84a109.74,109.74,0,0,0-3-13.13l-.06.11.05.14-.05-.14a4.3,4.3,0,0,1-.23.42,4.3,4.3,0,0,0,.23-.42l0-.14a1,1,0,0,1-.25.08,1,1,0,0,0,.25-.08c-3-8.53-3-17.8-1.93-26.86.84-7,1.26-13.71,2.31-20.71.7-5,1.12-9.59,2-14.55a18.74,18.74,0,0,0,.07-4,.9.9,0,0,1,0-.21,1,1,0,0,0-.2.34,1,1,0,0,1,.2-.34s0-.07,0-.08c.35-5.46-.77-10.71-2.1-16-.21-.77-.28-1.54-.42-2.38a21.26,21.26,0,0,0-.56-2.24,25.07,25.07,0,0,1,.63-14.7c2.45-7.56,4.34-15,4.55-22.88.14-4-.49-8.33-4.2-10.78l-.11-.07a167.27,167.27,0,0,1-21.62-3c.47,2,.95,4,1.44,6,1.09,4.32,2.31,8.6,3.46,12.9,2,7.28,4.64,14.46,3.39,22.13-1.38,8.46-4.86,16.32-5.86,24.91a112.4,112.4,0,0,0,.23,25.87,119.53,119.53,0,0,0,6.07,25.46c2.6,7.55,5.48,15.06,7,22.94a.31.31,0,0,1-.22.37,43.94,43.94,0,0,1-.21,13.75,94.75,94.75,0,0,1-4.67,19.53.15.15,0,0,1-.16.11,19,19,0,0,0,.28,5.62c.6,2.32,2.66,3.73,3.87,5.73a.15.15,0,0,1,0,.1c2.23.9,3.66,2.41,6,3a4,4,0,0,0,1,.12h0s0,0,0,0,0,0,0,0c.52-1.13,1.05-2.27,1.61-3.41a17.72,17.72,0,0,0,1.53-7l-.06.26.06-.26s0-.07,0-.11a3,3,0,0,0-.28.37,3,3,0,0,1,.28-.37v0s0,0,0,0a27.06,27.06,0,0,0,1.15-4.31A59.8,59.8,0,0,0,127.22,634.68Z"/><path class="cls-2" d="M125.34,549.39c0-.07,0-.14,0-.21h0A.9.9,0,0,0,125.34,549.39Z"/><path class="cls-2" d="M152,579c-.91-6.72-1-13.08-1.89-19.73a80.17,80.17,0,0,1-.43-20.8,1,1,0,0,0-.41.3,1,1,0,0,1,.41-.3.19.19,0,0,0,0,0h0c1.45-6.17,2.82-12.47,2.05-18.91a84.08,84.08,0,0,0-2.73-13.15c-1.68-6-3.08-12-2.38-18.26a9.37,9.37,0,0,1,2.38-5.81,13.45,13.45,0,0,1,2.63-2.33c-4.22.31-8.44.46-12.62.5,1.78,11.24,4.61,22.2,7.23,33.29,2.61,7.79,1.07,17.14-.81,25a72,72,0,0,0-.55,14.43c.51,7.39,2.11,14.6,3.11,21.91,1.74,12.62,2.49,26.62-.29,39.14a.16.16,0,0,1-.24.1,13.88,13.88,0,0,1-1.05,2.6c-.8,1.67-1.56,3.37-2.39,5a.11.11,0,0,1-.07.06c0,9.75-2.55,19.83-4.51,29.31,0,0,0,0,0,0,1.31,4.57,3.47,7.63,5.42,12H145c1.88.37,3,1.3,4.31,1.74,0-.36,0-.73,0-1.1,0-.56-.56-1-.7-1.61a2.11,2.11,0,0,0-.35-1.12,44.91,44.91,0,0,1-2.24-7.34c-1.33-5.39-1-10.71-.7-16.09a58.62,58.62,0,0,1,1.19-8.33c.14-.77.28-1.54.42-2.31.63-3.29,1.75-6.09,2.45-9.31.56-2.31,1.19-4.34,1.61-6.65a109.07,109.07,0,0,0,1.75-16.87l-.07.08.07-.08a.44.44,0,0,1,0-.06.44.44,0,0,0,0,.06h0C153.31,589.23,152.75,584.24,152,579Z"/><path class="cls-2" d="M149.73,538.48h0a.19.19,0,0,1,0,0l0,0Z"/><path class="cls-2" d="M149.74,538.49h0Z"/><path class="cls-1" d="M170.9,482.27c.48-1.75.94-3.51,1.4-5.27l0,0a132.25,132.25,0,0,1-20.59,3,13.45,13.45,0,0,0-2.63,2.33,9.37,9.37,0,0,0-2.38,5.81c-.7,6.3.7,12.25,2.38,18.26a84.08,84.08,0,0,1,2.73,13.15c.76,6.44-.6,12.74-2.05,18.91h0l.16-.09-.16.09a.07.07,0,0,1,0,0,.07.07,0,0,0,0,0h0l0,.18,0-.18,0,0a80.17,80.17,0,0,0,.43,20.8c.84,6.65,1,13,1.89,19.73.76,5.19,1.32,10.18.72,15.3.13-.1.29-.07.4-.19-.11.11-.27.09-.4.19l0,.16,0-.16h0a109.07,109.07,0,0,1-1.75,16.87c-.42,2.31-1.05,4.34-1.61,6.65-.7,3.22-1.82,6-2.45,9.31-.14.77-.28,1.54-.42,2.31a58.62,58.62,0,0,0-1.19,8.33c-.28,5.39-.63,10.7.7,16.09a44.91,44.91,0,0,0,2.24,7.34,2.11,2.11,0,0,1,.35,1.12c.14.63.7,1.05.7,1.61,0,.37,0,.73,0,1.1a4.25,4.25,0,0,0,3-.05c2-.68,3.13-1.89,5.07-2.67a.14.14,0,0,1,0-.09c1.19-2,3.35-3.43,3.83-5.74a22.94,22.94,0,0,0,.27-5.62.16.16,0,0,1-.15-.11,90,90,0,0,1-4.67-19.53,45.77,45.77,0,0,1-.21-13.75.31.31,0,0,1-.22-.37c1.61-8.24,4.7-16.05,7.37-24a116,116,0,0,0,5.85-25.57c.91-8.91,1.23-18-.18-26.86-1.29-8.1-4.63-15.69-5.71-23.81-1-7.41,1.62-15.19,3.8-22.15C168.62,490.67,169.76,486.46,170.9,482.27Z"/><path class="cls-3" d="M171.44,483.18c2.84-10.46,6.09-21,8.06-31.7a.16.16,0,0,0-.31-.09c-2.59,8.33-4.63,16.87-6.83,25.34a.13.13,0,0,0-.14-.08c-11.12,1.41-22.05,3-33.26,3.26-.33-2.11-.63-4.24-.87-6.37-.67-5.94-.85-12-1-17.93,0-.85,0-1.7-.06-2.56.13-5.94.14-11.89,0-17.82q.1-3.28.29-6.55a104.45,104.45,0,0,1,1.35-12.25,41.38,41.38,0,0,1,1-4.51c.18,0,.36-.07.54-.12a.2.2,0,0,0-.05-.39h-.32a13.71,13.71,0,0,1,1.52-3.28c0-.07-.07-.17-.12-.1a14.66,14.66,0,0,0-1.9,3.4c-1.54.13-3.09.71-4.63.3a26.17,26.17,0,0,0-1.62-4.32c0-.08-.18,0-.14.06,2.65,6.43,2.82,14.2,3.2,21.06.11,2.09.19,4.18.26,6.28-.21,6.13-.15,12.29,0,18.41,0,.79,0,1.59,0,2.38-.16,6-.31,12-.94,17.92-.23,2.16-.51,4.3-.84,6.44a185.76,185.76,0,0,1-33.06-3.12c-2-8.52-3.83-17.12-6.41-25.45a.16.16,0,0,0-.31.09c1.91,10.41,4.74,20.73,7.29,31,1,4.2,2.06,8.43,3.34,12.56,2.63,8.48,5,16.87,3,25.76-.8,3.67-2.08,7.23-3.12,10.83A76.86,76.86,0,0,0,102.93,544c-1,8.6-.51,17.32.46,25.9,1.87,16.49,9,31.53,13.28,47.41a.27.27,0,0,0,.11.14c1.39,11-2.57,21.6-4.74,32.27,0,0,0-.1,0-.14s-.09-.07-.1,0a13.89,13.89,0,0,0,3.94,12.86.16.16,0,0,0,.21,0c4.2,2.81,7.79,3.69,12.6,1a.18.18,0,0,0,0-.29c2.3-4.16,4.74-7,5.53-11.7a.17.17,0,0,0-.06-.16c-.47-4.91-1.5-9.74-2.42-14.58-1-5.15-1.53-10.33-2.25-15.53,0,0-.05,0-.09,0a17.34,17.34,0,0,0-1.35-3.12,28.72,28.72,0,0,1-2.14-5.2c-.35-6.53-1.12-13-1.09-19.56A154.36,154.36,0,0,1,126.65,572c1.76-12.16,3.75-23.77,1.25-35.83a70.32,70.32,0,0,1-.32-22.36A281.54,281.54,0,0,0,135,480.53l1,0,2.3,0a263.21,263.21,0,0,0,7.54,33.35,70.39,70.39,0,0,1-.32,22.31c-2.43,11.64-.75,23,1.08,34.73a159.35,159.35,0,0,1,1.91,21.33c.14,6.93-.7,13.73-1.07,20.62a26.84,26.84,0,0,1-1.91,4.74,19.52,19.52,0,0,0-1.58,3.58s-.08,0-.09,0c-.72,5.19-1.29,10.37-2.25,15.53-.9,4.84-1.95,9.67-2.41,14.58a.17.17,0,0,0-.06.16c.79,4.66,3.33,7.81,5.64,12a.17.17,0,0,0,0,.29c4.82,2.71,8.34,1.58,12.54-1.23a.15.15,0,0,0,.21,0,13.89,13.89,0,0,0,3.9-12.88c0-.06-.1,0-.1,0s0,.09,0,.13c-2.17-10.67-6.13-21.27-4.74-32.27a.27.27,0,0,0,.11-.14c4.16-15.5,11.14-30.21,13.15-46.26a120.67,120.67,0,0,0,.72-25.93c-.74-8.11-3.35-15.55-5.37-23.36-2.34-9.09.22-17,2.54-25.7C169,491.77,170.27,487.49,171.44,483.18Zm-44.27,30.61c-2.61,7.75-1.09,17.06.78,24.87a78.12,78.12,0,0,1,.58,14.53c-.41,7.38-2.11,14.61-3.11,21.91-1.74,12.62-2.49,26.62.29,39.14a.17.17,0,0,0,.25.1,13.3,13.3,0,0,0,.82,2.14c.82,1.84,1.7,3.68,2.61,5.48a.11.11,0,0,0,.07.06c0,9.75,2.56,19.83,4.52,29.31l0,0c-1.31,4.57-3.37,7.37-5.32,11.73h-.06c-2.79.54-3.57,2.93-6.39,2.25-2.35-.57-3.77-2.08-6-3a.15.15,0,0,0,0-.1c-1.22-2-3.28-3.4-3.87-5.73a19,19,0,0,1-.28-5.62.15.15,0,0,0,.16-.11,94.75,94.75,0,0,0,4.67-19.53,43.94,43.94,0,0,0,.21-13.75.31.31,0,0,0,.22-.37c-1.54-7.87-4.42-15.39-7-22.94a119.53,119.53,0,0,1-6.07-25.46,112.4,112.4,0,0,1-.23-25.87c1-8.58,4.48-16.44,5.86-24.91,1.25-7.66-1.44-14.85-3.39-22.13-1.15-4.3-2.37-8.58-3.46-12.9-.5-2-1-4-1.44-6a170.61,170.61,0,0,0,32.93,3.51C132.7,491.76,129.8,502.72,127.18,513.79Zm7.61-101.62a3.83,3.83,0,0,0,1.87.22,13.86,13.86,0,0,0,2.37-.32c-1.63,4.4-1.84,9.73-2.2,14-.06.76-.11,1.52-.16,2.27,0-.18,0-.35,0-.53C136.36,422.83,136.15,417.23,134.79,412.17Zm2.4,67.8h-2.05c.31-2,.6-4,.85-6.06.42-3.38.61-6.8.73-10.23.16,3.3.38,6.59.73,9.86.23,2.14.51,4.27.82,6.39Zm26.34,37c1.08,8.12,4.42,15.7,5.71,23.81,1.41,8.88,1.09,17.95.18,26.86a116,116,0,0,1-5.85,25.57c-2.67,7.91-5.76,15.73-7.37,24a.31.31,0,0,0,.22.37,45.77,45.77,0,0,0,.21,13.75,90,90,0,0,0,4.67,19.53.16.16,0,0,0,.15.11,22.94,22.94,0,0,1-.27,5.62c-.48,2.31-2.64,3.79-3.83,5.74a.14.14,0,0,0,0,.09c-1.93.78-3.1,2-5.07,2.67-3.09,1.06-4.15-1.08-7.27-1.68h-.06c-1.95-4.37-4.11-7.43-5.42-12,0,0,0,0,0,0,2-9.48,4.48-19.56,4.51-29.31a.11.11,0,0,0,.07-.06c.83-1.65,1.6-3.35,2.39-5a13.88,13.88,0,0,0,1.05-2.6.16.16,0,0,0,.24-.1c2.78-12.52,2-26.52.29-39.14-1-7.31-2.61-14.52-3.11-21.91a72,72,0,0,1,.55-14.43c1.88-7.82,3.42-17.17.81-25-2.62-11.09-5.45-22-7.23-33.29,11.06-.11,22.47-1,33.21-3.51l0,0c-.46,1.76-.92,3.52-1.4,5.27-1.14,4.2-2.28,8.4-3.58,12.55C165.14,501.78,162.54,509.56,163.52,517Z"/><path class="cls-1" d="M126.07,208.38l.19.38,0-.27Z"/><path class="cls-2" d="M152,206.93a21.47,21.47,0,0,1-4.94,2.75.11.11,0,0,1-.09.13c-6,1.47-14.17,2.08-19.83-.85a.08.08,0,0,1-.1,0,5.08,5.08,0,0,1-.82-.5l0,.27a20.73,20.73,0,0,0,4.32,5.17c2.66,2.52,6.09,4.62,9.8,4.48a5.2,5.2,0,0,0,3-1.19,34.05,34.05,0,0,0,7.43-7.88l.19-1.15-.19,1.15q.56-.87,1-1.8C151.91,207.34,152,207.14,152,206.93Z"/><path class="cls-8" d="M126.73,227.37c.14-.14.42-.07.42-.14,1.54-3.29,1.19-6.93.77-10.43-.32-2.72-1.25-5.33-1.66-8l-.19-.38a2.74,2.74,0,0,1-.54-.58c1,6.15,2.38,13.15,1.22,19.36a.17.17,0,0,1-.12.14A.1.1,0,0,0,126.73,227.37Z"/><path class="cls-8" d="M150.1,226.67a.89.89,0,0,0,1.12.63.8.8,0,0,1-.44-.25s0,0,0,.06a.11.11,0,0,1-.22,0c-.15-6.46-.15-13.22,1.31-19.56q-.48.93-1,1.8C149.87,215,149.18,220.7,150.1,226.67Z"/><path class="cls-2" d="M114.77,241.92c.41-7.28,3.86-15.69,11.72-17.17,0-1.11,0-2.24,0-3.36-7.18.89-13.7,4.1-15.32,11.76-1.55,7.3.37,15.1,2.65,22a141.14,141.14,0,0,0,5.74,14.52,150.38,150.38,0,0,1-4.21-17.56A50.26,50.26,0,0,1,114.77,241.92Z"/><path class="cls-1" d="M137.08,310.07c5-10.19,10.84-29.9,16-40,2.58-6.39,5.3-12.44,6.65-19.46.49-2.31.49-4.41.77-6.72.84-5.53.28-12-5-15.39-.21-.14-.42-.49-.63-.63a37.87,37.87,0,0,0-4-2.81c0,.67,0,1.33,0,2a.8.8,0,0,0,.44.25.89.89,0,0,1-1.12-.63c-.92-6-.24-11.62.71-17.32a34.05,34.05,0,0,1-7.43,7.88,5.2,5.2,0,0,1-3,1.19c-3.71.14-7.14-2-9.8-4.48a20.73,20.73,0,0,1-4.32-5.17c.41,2.71,1.34,5.31,1.66,8,.42,3.5.77,7.14-.77,10.43,0,.07-.28,0-.42.14a.1.1,0,0,1-.09-.07c-.13,0-.3,0-.29-.19.07-.78.11-1.56.13-2.36-7.85,1.48-11.31,9.89-11.72,17.17a50.26,50.26,0,0,0,.56,10.22,150.38,150.38,0,0,0,4.21,17.56c4.42,9.7,9.71,29,14.88,38.35Zm-3.84-70c-4-.74-8-.12-12-.83-.15,0-.11-.27,0-.26,4,.2,8.09-.21,12,.93A.08.08,0,0,1,133.23,240.08Zm5.64,2a1.58,1.58,0,0,1-1.8-.86s0-.11.08-.06a1.38,1.38,0,0,0,1.85.54,4.32,4.32,0,0,0,1.19-1.61c.05-.08.2-.05.19.05A2.32,2.32,0,0,1,138.88,242.13Zm18.8-3.73c-5.3-.13-10.25,1.17-15.46,1.81,0,0,0,0,0-.06,5-1.23,10.3-3,15.51-2C157.89,238.13,157.84,238.4,157.68,238.4Z"/><path class="cls-2" d="M136.82,299.2h-.21c-.11-1.75-.47-3.5-.5-5.25a8.49,8.49,0,0,1-.13,1.12c-.31,1.7-.68,3.34-1.06,5q1,1.76,1.94,3.52l.72-1.5a5.66,5.66,0,0,1-.41-1.19C137.1,300.32,136.75,299.76,136.82,299.2Z"/><path class="cls-2" d="M163.74,234.44c-.87-7.41-5.94-11.27-12.85-12.94,0,1.19,0,2.37-.06,3.55a37.87,37.87,0,0,1,4,2.81c.21.14.42.49.63.63,5.25,3.43,5.81,9.87,5,15.39-.28,2.31-.28,4.41-.77,6.72-1.35,7-4.07,13.07-6.65,19.46,2.2-4.33,4.25-8.72,6-13.26C161.79,249.9,164.63,242,163.74,234.44Z"/><path class="cls-3" d="M164.12,232.51c-1.28-6.67-6.8-10.47-13.22-11.44a77,77,0,0,1,1.28-14.14c0-.08-.06-.1-.12-.07s0-.14-.07-.11a29.35,29.35,0,0,0-5,2.84.12.12,0,0,0-.08,0c-6.81,0-13.11,1.81-19.8-.62,0,0,0,0,0-.07a10.84,10.84,0,0,0-1.68-1.29s-.06,0,0,0l0,0s-.09,0-.09.07c.33,4.36.94,8.92,1.1,13.41-38.06,2.66,1,66.32,9.78,80.68a.11.11,0,0,0,.21-.09c8-15.83,17.92-30.58,24.2-47.25C163.21,247.66,165.53,239.87,164.12,232.51Zm-5,24.29c-6.15,15.64-15.55,29.63-22.72,44.76-8.27-15.08-17.17-30-22.56-46.38-2.28-6.94-4.2-14.74-2.65-22,1.63-7.66,8.14-10.87,15.32-11.76a47.13,47.13,0,0,1-.12,5.72.21.21,0,0,0,.41.06c1.16-6.2-.23-13.2-1.22-19.36A3.87,3.87,0,0,0,127,209a.08.08,0,0,0,.1,0c5.66,2.93,13.83,2.32,19.83.85a.11.11,0,0,0,.09-.13,21.47,21.47,0,0,0,4.94-2.75c-1.6,6.51-1.61,13.51-1.45,20.17a.11.11,0,0,0,.22,0c0-1.86.07-3.74.1-5.61,6.91,1.66,12,5.53,12.85,12.94S161.79,249.9,159.08,256.81Z"/><path class="cls-3" d="M140.19,240.13a4.32,4.32,0,0,1-1.19,1.61,1.38,1.38,0,0,1-1.85-.54s-.11,0-.08.06a1.58,1.58,0,0,0,1.8.86,2.32,2.32,0,0,0,1.51-1.95C140.4,240.08,140.25,240,140.19,240.13Z"/><path class="cls-3" d="M157.72,238.1c-5.21-.93-10.5.82-15.51,2,0,0,0,.06,0,.06,5.21-.64,10.16-1.94,15.46-1.81C157.84,238.4,157.89,238.13,157.72,238.1Z"/><path class="cls-3" d="M121.31,239c-.15,0-.18.23,0,.26,4,.71,8,.09,12,.83a.08.08,0,0,0,0-.15C129.4,238.79,125.3,239.19,121.31,239Z"/><path class="cls-9" d="M98.6,309.59c-.77,5.41-3.29,27.33-6.95,27.58,0,0,9.54,13.17,9.47,19.75-.07,5-4.85,13.66-5.46,15.9q1.44,2.81,2.93,5.53a173.31,173.31,0,0,0,6.85-18.54c-1.51-7.89-3.32-15.72-4.48-23.67h0s0,0,0,0c0-9,1-18,1.63-27A22.12,22.12,0,0,1,98,302.18a18.76,18.76,0,0,1-1.54-7.57C95.57,299.63,96.92,304.78,98.6,309.59Z"/><path class="cls-10" d="M92.24,363.46c-2-5.8-4.27-11.33-6.16-17.28A65.15,65.15,0,0,1,84.86,334c.2-2.47.63-21.76.63-24.84-.14-7.84.56-15.67.63-23.51.07-.63,1-17.29,1.12-23.58A18.53,18.53,0,0,1,90,251.86a16.1,16.1,0,0,1,5.81-5.46,53.32,53.32,0,0,1,8.47-4.27c2-.86,4-1.41,5.9-2.24,0-.51,0-1,.07-1.51-5.35,2.36-17.8,4.66-23.85,14.79a19.3,19.3,0,0,0-1,3.86,89.78,89.78,0,0,0-1.21,9.42c-.68,8.09-.93,16.21-1.11,24.33-.34,15.4.18,30.87-.62,46.26a.11.11,0,0,1,0,.09c2.38,11.71,7.08,23.38,12.55,34.25l-.25-.72C94.34,369.55,92.51,364.38,92.24,363.46Z"/><path class="cls-11" d="M110.18,239.9c-1.93.83-3.92,1.38-5.9,2.24a53.32,53.32,0,0,0-8.47,4.27A16.1,16.1,0,0,0,90,251.86,18.53,18.53,0,0,0,87.24,262c-.14,6.3-1.05,23-1.12,23.58-.07,7.84-.77,15.67-.63,23.51,0,3.08-.43,22.38-.63,24.84a65.15,65.15,0,0,0,1.22,12.23c1.89,5.95,4.2,11.48,6.16,17.28.28.91,2.62,7.69,2.7,7.93l.72,1.42c.61-2.23,5.39-10.86,5.46-15.9.07-6.58-9.47-19.75-9.47-19.75,3.71.37,7.23-26.6,6.95-27.58-1.69-4.81-3-10-2.16-15a22.68,22.68,0,0,1,4.21-12.79l.06-.14-.06.14.35-.5s.07,0,0,0c-.2.31-.4.62-.59.93-3.24,8.39-1.48,17.84,2.62,25.7a8.08,8.08,0,0,0,.73,1.13s.12-.06.14,0l0,.21c.19.23.39.45.6.66a14.45,14.45,0,0,0,7.72,3.09c9.52.87,19.38-3.93,21.58-13.25C126.1,286.91,109.83,258.33,110.18,239.9Z"/><path class="cls-10" d="M100.46,282.28c-3.83,6.36-4.85,14.36-1.23,21.1a22.58,22.58,0,0,0,3.55,5,.11.11,0,0,1,.1.11c.3.31.61.61.93.9l0-.18a.08.08,0,0,1,0-.07,8.08,8.08,0,0,1-.73-1.13C99,300.12,97.22,290.66,100.46,282.28Z"/><path class="cls-11" d="M104,309.35l0,.2.56.46C104.39,309.8,104.18,309.58,104,309.35Z"/><path class="cls-11" d="M143.74,314.35c5.57,6.48,20.8,6.46,22.6,6,.5-3.31,1.09-6.63,1.89-9.88a19.89,19.89,0,0,1-12.48,3.94c-5.42-.12-11-2-14.67-6.14a19.63,19.63,0,0,1-3-4.49,6.17,6.17,0,0,0,.44,2A33.52,33.52,0,0,0,143.74,314.35Z"/><path class="cls-11" d="M123.82,317.4c5.48-3.72,8.12-10,8.44-12.08-4.12,6.31-12.84,9.51-20.58,8.36a15.86,15.86,0,0,1-7.42-3.13c.52,2.42,1,4.86,1.37,7.3C111.37,319.33,118.91,320.74,123.82,317.4Z"/><path class="cls-9" d="M110.82,318.68c-3.9-6.74-5-6.53-6.57-8.1.46,2.78,2.23,12.88,2.64,15.66,1,7.14,2.7,15,1.59,22.19a89.57,89.57,0,0,1-2.12,9.87C108.74,352.59,116.17,327.91,110.82,318.68Z"/><path class="cls-9" d="M165.57,359.83a4.66,4.66,0,0,0,.51.5,52.76,52.76,0,0,1-1.28-6.23c-1.35-9.49-.45-19.39.84-28.84.22-1.63,2.34-13.14,2.59-14.78-.52.13-5.18,3.76-6.27,10C160,333.78,165.08,358.71,165.57,359.83Z"/><path class="cls-10" d="M91.89,416.71s-.07,0-.07.07,0-.07,0-.07a46.72,46.72,0,0,1,.49-12c.63-3.22,2.73-12.67,3.57-14.14h0c2.86-8,6.21-15.7,8.72-23.93a78.86,78.86,0,0,0,1.87-8.56l-.12.23c-2.31,8.49-5.67,16.64-9.12,24.78-4.24,10-8.53,20.28-8,31.37a.16.16,0,0,1-.05.13,234.3,234.3,0,0,0,4.39,31.05c2.32,10.39,5,20.69,7.08,31.13q2.07.38,4.16.71C104.14,474.54,93.08,422.52,91.89,416.71Z"/><path class="cls-10" d="M186.19,414.45c-.48-11.64-4.45-21.37-10.05-31.41-3.77-6.77-7.36-13.64-9.57-21a6.45,6.45,0,0,1,.12,1.52h.21a2.59,2.59,0,0,0,.14,1.26c.77,2.1,1.61,4.06,2.38,6.23.56,1.47,1.12,2.94,1.75,4.41a3,3,0,0,1,.28.84c1.68,3.64,3.29,7.28,5,10.84.14.21.14.63.28.84.42.91.77,1.89,1.26,2.73a18.65,18.65,0,0,1,.7,1.75h.21c-.14.49.21.84.35,1.26,1.68,4.9,3.64,9.8,3.5,15H183c2.13,15.07-11.2,64.05-12.6,68.26l2.92-.36c2.72-9.6,5.68-19.14,7.92-28.87,2.54-11,3.6-22,5-33.2A.17.17,0,0,1,186.19,414.45Z"/><path class="cls-11" d="M183,408.73h-.21c.14-5.25-1.82-10.14-3.5-15-.14-.42-.49-.77-.35-1.26h-.21a18.65,18.65,0,0,0-.7-1.75c-.49-.84-.84-1.82-1.26-2.73-.14-.21-.14-.63-.28-.84-1.75-3.57-3.36-7.21-5-10.84a3,3,0,0,0-.28-.84c-.63-1.47-1.19-2.94-1.75-4.41-.77-2.17-1.61-4.13-2.38-6.23a2.59,2.59,0,0,1-.14-1.26h-.21a6.45,6.45,0,0,0-.12-1.52c-.17-.56-.33-1.12-.48-1.69a4.66,4.66,0,0,1-.51-.5c-3.57-14-3.62-38.52-3.61-39.4-5.51-.29-14.52-1.71-18.22-6.08a33.52,33.52,0,0,1-5.18-8.54,6.17,6.17,0,0,1-.44-2c-.29-.59-.54-1.2-.78-1.81-.29.56-.58,1.12-.87,1.69a.11.11,0,0,1-.21.09l-2-3.23a14.58,14.58,0,0,1-1.71,4.3c0,.17-.08.33-.12.5h-.19l0,0c-.08,1.32-4,8.06-9.44,11.58-3.48,2.23-7.68,2.53-11.84,2,3.72,17.53-4.18,38.5-4.48,39.12a78.86,78.86,0,0,1-1.87,8.56c-2.51,8.23-5.86,15.91-8.72,23.93h0l0,.07,0-.07h0c-.84,1.47-2.94,10.92-3.57,14.14a46.72,46.72,0,0,0-.49,12h.08c1.19,5.81,12.25,57.82,12.93,60.75a191.58,191.58,0,0,0,32.73,2.47c11.09-.13,21.9-1.56,32.85-2.94C171.79,472.79,185.91,424.08,183,408.73Z"/><path class="cls-11" d="M132.59,304.82l-.31.5h.19C132.52,305.15,132.55,305,132.59,304.82Z"/><path class="cls-12" d="M164.56,238.27v0A.09.09,0,0,0,164.56,238.27Z"/><path class="cls-10" d="M175.29,288.1v0c-.63,8-3.57,16.16-10,21.41a26.91,26.91,0,0,1-6.26,3.9,18.41,18.41,0,0,0,9.49-4.13c0-.16.25-.28.24-.19a14.94,14.94,0,0,0,1.33-1.37c4.72-5.52,5.27-12.71,5.21-19.67C175.28,288.07,175.27,288.08,175.29,288.1Z"/><path class="cls-11" d="M189,327.77c-.17-.09-.17-.34-.17-.41-.07-5.25-1.12-57.66-1.89-65-.35-3.71-.91-7.49-2.73-10.85a11.21,11.21,0,0,0-5-4.55,6.45,6.45,0,0,1-.91-.56c-3.36-1.68-6.44-3.71-10-4.83a4.71,4.71,0,0,0-1-.42c-1-.24-1.8-.8-2.77-.95-.21,5.55-2,11.13-3.87,16.2-6,15.83-15.23,29.93-23,44.87a18,18,0,0,0,4.31,6.95,19.56,19.56,0,0,0,14.32,5.43,23.22,23.22,0,0,0,2.7-.23,26.91,26.91,0,0,0,6.26-3.9c6.44-5.25,9.38-13.37,10-21.41,0,0,0,0,0,0s0-.08,0-.12c0-.27.37-.25.4,0a35,35,0,0,1,.2,6.67,71.74,71.74,0,0,1,.73,7.35h-.21c-.21,3.29-1.61,6.16-2,9.38-1,7.14.49,14.06.49,21.13a19.36,19.36,0,0,1-.7,5.25c-.21.77-.49,1.54-.77,2.31-.7,2-.7,4.2-1.54,6.23-.07.21.07.49,0,.77-1.12,4.48-2.1,8.82-1.33,13.44A20.84,20.84,0,0,0,175.93,372c.39.38.78.76,1.16,1.14.93-1.83,1.83-3.67,2.71-5.51.49-1.2,1-2.4,1.45-3.61.56-1.4.91-2.87,1.33-4.27.49-1.61.91-3.08,1.4-4.69,1.05-3.57,2-7.21,2.94-11,.07-.14.14-.49.21-.63a43.39,43.39,0,0,0,1.47-9h.21A36.45,36.45,0,0,0,189,327.77Z"/><path class="cls-9" d="M175.93,372a21.67,21.67,0,0,1-5.39-13.18A29.6,29.6,0,0,1,178.71,337c-1.53-.57-2.31-2.71-2.31-4.46,0-7.07.15-30.62.22-30.62a71.74,71.74,0,0,0-.73-7.35c-.35,5-1.89,10.08-5.32,13.77a.13.13,0,0,1,0,.1c.83,9,2.2,18.12,2.2,27.17h0c-1.76,8.12-4.17,16.08-6.28,24.11,1.76,6.49,4.71,12.53,7.81,18.49.95-1.68,1.86-3.39,2.74-5.12C176.71,372.76,176.32,372.38,175.93,372Z"/><path class="cls-10" d="M191.33,336.58c-.81-15.73-.15-31.55-.42-47.29-.14-8.28-.32-16.59-1-24.85a82.93,82.93,0,0,0-1.15-9.29,20.38,20.38,0,0,0-1-3.74c-4.11-7.11-18.46-11-23.22-13.13l0,0c0,.65,0,1.29,0,1.94,1,.14,1.73.7,2.77.95a4.71,4.71,0,0,1,1,.42c3.57,1.12,6.65,3.15,10,4.83a6.45,6.45,0,0,0,.91.56,11.21,11.21,0,0,1,5,4.55c1.82,3.36,2.38,7.14,2.73,10.85.77,7.35,1.82,59.76,1.89,65,0,.07,0,.32.17.41,0-.25,0-.5,0-.76,0,0,.14,0,.07.14.07-.14-.07-.14-.07-.14,0,.26,0,.51,0,.76h0a36.45,36.45,0,0,1-.25,6.73h-.21a43.39,43.39,0,0,1-1.47,9c-.07.14-.14.49-.21.63-.91,3.78-1.89,7.42-2.94,11-.49,1.61-.91,3.08-1.4,4.69-.42,1.4-.77,2.87-1.33,4.27-.47,1.21-1,2.41-1.45,3.61l1.46-3.08c4.2-8.9,8.15-18.2,10.12-27.88A.12.12,0,0,1,191.33,336.58Z"/><path class="cls-13" d="M164.56,238.27a.1.1,0,0,1,0,0A0,0,0,0,0,164.56,238.27Z"/><path class="cls-3" d="M136.06,288.93c0-.08-.11-.07-.11,0a31.27,31.27,0,0,0,1.26,13.65l.38-.66A37.64,37.64,0,0,1,136.06,288.93Z"/><path class="cls-3" d="M134.65,297.9a.14.14,0,0,0-.28,0,16.75,16.75,0,0,1-.3,2.64,2.45,2.45,0,0,1,.39.68A15.3,15.3,0,0,0,134.65,297.9Z"/><path class="cls-11" d="M191.4,287.85c-.17-8.35-.45-16.71-1.25-25-.26-2.69-.35-6.37-1.26-9.43a.09.09,0,0,0,0,0,7.45,7.45,0,0,0-.73-1.9,7.76,7.76,0,0,0-1-1.53.07.07,0,0,0-.08,0c-4.92-6.13-17.89-10.06-22.52-11.73a0,0,0,0,0-.05,0,.27.27,0,0,1,0,0,1.86,1.86,0,0,1-.46.06l-.19,0c.27,7-2.31,14.16-4.8,20.49C153.3,273.48,144.6,286.78,137.6,301a.18.18,0,0,0,0,0l-.38.66,0,.12c-.29.59-.58,1.18-.86,1.77l-2-3.56c0-.06,0-.12,0-.19a2.45,2.45,0,0,0-.39-.68l0,.16c-7.56-13.63-15.32-27.23-20.21-42.11-1.95-5.94-3.77-12.49-3.24-18.84a.93.93,0,0,1-.34,0v0c-5.82,2.13-20.11,5-24.94,16.33a.13.13,0,0,0,.1.18c-.94,2.87-1.07,6.36-1.37,9-.94,8.25-1.23,16.58-1.46,24.87-.45,16.13-.45,32.28-.41,48.41a.11.11,0,0,0,.09.11c2.49,14.58,9.15,28.56,16.21,41.47q-1.38,3.3-2.78,6.59c-3.85,9.16-7.91,19.09-6.79,29.23a.18.18,0,0,0,.07.12c-.48,21,6.86,42,11.5,62.27a.09.09,0,0,0,.13.06,178.36,178.36,0,0,0,35.78,3.62c12.26,0,25-.78,37-3.53a.19.19,0,0,0,.09-.29c6.33-20.12,12.58-40.85,12.95-62.12a.16.16,0,0,0,.07-.13c.31-13.44-6.12-24.55-12-35.93,7.39-12.91,14.49-27.06,17-41.83a.11.11,0,0,0,.08-.11C191.62,320.34,191.73,304.09,191.4,287.85Zm-109,49.29a.11.11,0,0,0,0-.09c.8-15.38.29-30.86.62-46.26.18-8.12.43-16.24,1.11-24.33A89.78,89.78,0,0,1,85.38,257a19.3,19.3,0,0,1,1-3.86c6-10.14,18.5-12.44,23.85-14.79-1.32,18.34,15.64,48.17,23.65,61.46-2.2,9.33-12.06,14.13-21.58,13.25a14.51,14.51,0,0,1-8.28-3.55c0-.14-.06-.28-.09-.41s-.18-.06-.16,0l0,.18c-.32-.29-.63-.59-.93-.9a.11.11,0,0,0-.1-.11,22.58,22.58,0,0,1-3.55-5c-3.8-7.08-2.49-15.54,1.81-22,0,0,0-.06,0,0-4.39,6-6,13.89-3,20.86a22.12,22.12,0,0,0,4.59,6.92c-.64,9-1.66,18-1.63,27,0,0,0,0,0,0h0c1.16,8,3,15.79,4.48,23.67a173.31,173.31,0,0,1-6.85,18.54C91.63,365.59,85.28,351.39,82.39,337.14Zm24-11.45c1.22,8.47,2.66,17.06,1.13,25.55a83.54,83.54,0,0,1-1.94,8.17c-1.45-7.77-2.63-15.59-4.44-23.29h0c.18-8.91,1.08-17.87,1.72-26.77.36.35.74.68,1.13,1C104.68,315.46,105.61,320.56,106.35,325.69ZM176.14,383c5.6,10,9.58,19.77,10.05,31.41a.17.17,0,0,0,.05.11c-1.41,11.16-2.47,22.21-5,33.2-2.25,9.73-5.2,19.27-7.92,28.87-12,1.48-23.69,3.15-35.77,3.3a192.88,192.88,0,0,1-36.89-3.18c-2.07-10.44-4.76-20.74-7.08-31.13a234.3,234.3,0,0,1-4.39-31.05.16.16,0,0,0,.05-.13c-.51-11.09,3.78-21.36,8-31.37,4.76-11.24,9.37-22.51,11.24-34.65,1.11-7.21-.55-15.05-1.59-22.19-.76-5.22-1.52-10.49-2.64-15.66a15.86,15.86,0,0,0,7.42,3.13c9.51,1.41,20.52-3.74,22.62-13.19l2,3.23a.11.11,0,0,0,.21-.09c.28-.57.58-1.13.87-1.69a20.15,20.15,0,0,0,3.73,6.3c3.67,4.17,9.25,6,14.67,6.14a19.89,19.89,0,0,0,12.48-3.94,139.84,139.84,0,0,0-2.59,14.78c-1.29,9.45-2.19,19.35-.84,28.84C166.29,364.58,171,373.9,176.14,383Zm-7.59-72.79a19.09,19.09,0,0,0,1.69-1.5l.13-.14c.83,9,2.08,18.06,2.29,27h0c-2.4,7.84-4.17,15.84-6.22,23.77-.29-1.08-.55-2.18-.76-3.29C162.79,341.11,165.89,325.13,168.55,310.24Zm12.71,54.31c-2.17,4.6-4.4,9.27-6.91,13.71-3.1-6-6-12-7.81-18.49,2.11-8,4.52-16,6.28-24.11h0c0-9-1.37-18.17-2.2-27.17a.13.13,0,0,0,0-.1c5-5.34,6-13.5,5.12-20.44,0-.25-.4-.27-.4,0,.07,7-.46,14.24-5.2,19.79a14.94,14.94,0,0,1-1.33,1.37c0-.08-.19,0-.24.19A20.44,20.44,0,0,1,142,308.22a18,18,0,0,1-4.31-6.95c7.75-14.93,17-29,23-44.87,2.13-5.66,4.07-12,3.89-18.14a0,0,0,0,1,0,0,0,0,0,0,0,0,0v0c4.76,2.13,19.11,6,23.22,13.13a20.38,20.38,0,0,1,1,3.74,82.93,82.93,0,0,1,1.15,9.29c.68,8.26.85,16.57,1,24.85.27,15.74-.39,31.56.42,47.29a.12.12,0,0,0,0,.09C189.41,346.36,185.45,355.65,181.26,364.55Z"/><path class="cls-14" d="M126.28,411.62c6.48-2.87,13.39-3.85,20.41-4.33.07,0,.07-.12,0-.11-7.06.25-14,1.36-20.45,4.37,0,0,0,.09,0,.07Z"/><path class="cls-15" d="M180,63.16h0Z"/><path class="cls-12" d="M287.7,69.26c-.58-8.88-7.75-14.85-15.21-18.57-9.29-4.63-19.62-7.07-29.8-8.77a247.8,247.8,0,0,0-29.68-3,271.31,271.31,0,0,0-34.32,1,488,488,0,0,0-55,7.66A469.48,469.48,0,0,0,70.9,61.12c-12.51,4-25.08,8.42-36.93,14.16C23.23,80.47,11.38,87.1,4.87,97.49,2.31,101.57-.6,108.07.74,113a3.91,3.91,0,0,0,.16.47,6.78,6.78,0,0,0,1.77.08c8.63-1.18,16.91-2.23,25.19-4.3,1.29-8.81,21.38-20.72,22.6-21.38,8.1-4.39,41.71-12.46,56-14.55-.14,0-.07-.14-.07-.14,8.19-1.26,15.74-2.66,24-4.06,5.53-1,76.31-4.4,90.06-1.33.49.14,18.49,3.24,24.07,9.59,2,2.32,4.27,8.46,4.27,8.47,3.83,1.72,23.21,3.68,27.13,3.63C282.37,84.44,288.25,77.67,287.7,69.26Z"/><path class="cls-13" d="M248.76,85.89c-.93-2.38-1.71-5.62-4.27-8.47-5.65-6.28-23.58-9.45-24.07-9.59-13.74-3.07-64.3-1.82-73.82-.7-5.53.63-68.13,8.45-96.14,20.78-1.26.56-20.46,10.14-22.6,21.38l.14,0-.14,0a.17.17,0,0,1,0,0,.17.17,0,0,0,0,0c-8.28,2.07-16.56,3.12-25.19,4.3a6.78,6.78,0,0,1-1.77-.08c1.09,2.7,5,4.12,7.4,5,10,3.65,21,4.95,31.53,6.08a276.18,276.18,0,0,0,28.67,2,63,63,0,0,1,2.41-7.24h0c-6.28.06-12.76-1.07-18.92-2.19a95.37,95.37,0,0,1-11.35-2.6c-2.05-.64-4.51-1.32-6.18-2.76-2.75-2.35,3.15-6.8,4.9-8,5.84-3.91,12.66-6.41,19.29-8.6a352.69,352.69,0,0,1,42.89-10.72c13.26-2.59,26.71-5.27,40.17-6.5a497.19,497.19,0,0,1,61.21-2.21c9.7.31,19.61.83,29.09,3.06,4.64,1.1,12.11,2.85,14.1,7.93,2.67,6.83-9.13,11.2-13.6,12.95-9.51,3.72-20,6.8-30.25,7.62a27.6,27.6,0,0,1,3,9.1c22.19-4.4,45.72-10.58,64.94-22.94,1.85-1.19,3.79-2.52,5.67-4C272,89.57,248.9,86.16,248.76,85.89Z"/><path class="cls-13" d="M198.86,26.45a30.71,30.71,0,0,1,.78,6h.21a1.14,1.14,0,0,1,0,.7c-2.1,1-4.41.63-6.58.63-14.27-.14-28.27-1.19-42.68.7-.77.07-1.54.35-2.31.49-2,.21-3.78.56-5.67.84-.77.14-1.61.21-2.38.28a25.48,25.48,0,0,0-3.15.63c-1.68.35-3.15.56-4.83.91-9.66,1.82-18.33,3.85-27.85,6.16-.84.21-1.68.56-2.52.84a15.81,15.81,0,0,0-1.75.35c-4,1.4-7.7,2.94-11.75,4.06-.21.07-.35.35-.56.42-4.76,1.47-9.38,2.73-14.06,4.2-.42.14-.84.14-1.26.28-2,.49-4,1.75-5.81,1-2.86-1.14-4-3.67-4.29-6.53a70.16,70.16,0,0,0-3.85,16.29,445.94,445.94,0,0,1,74.66-19.41c24.52-4.31,49.78-7.6,74.78-7.05A82.6,82.6,0,0,0,198.86,26.45Z"/><path class="cls-12" d="M66.7,54.89c1.82.77,3.78-.49,5.81-1,.42-.14.84-.14,1.26-.28,4.69-1.47,9.31-2.73,14.06-4.2.21-.07.35-.35.56-.42,4.06-1.12,7.77-2.66,11.75-4.06a15.81,15.81,0,0,1,1.75-.35c.84-.28,1.68-.63,2.52-.84,9.52-2.31,18.19-4.34,27.85-6.16,1.68-.35,3.15-.56,4.83-.91a25.48,25.48,0,0,1,3.15-.63c.77-.07,1.61-.14,2.38-.28,1.89-.28,3.71-.63,5.67-.84.77-.14,1.54-.42,2.31-.49,14.42-1.89,28.41-.84,42.68-.7,2.17,0,4.48.35,6.58-.63a1.14,1.14,0,0,0,0-.7h-.21a30.71,30.71,0,0,0-.78-6A81.38,81.38,0,0,0,151.38,1.57c-20.52-3.08-42.47.69-60.19,11.74a69.49,69.49,0,0,0-28.78,35C62.68,51.22,63.84,53.75,66.7,54.89Z"/><path class="cls-13" d="M288.06,67.38c-1.08-7.61-7.49-12.93-13.83-16.44-8.65-4.79-18.59-7.21-28.23-9a233,233,0,0,0-29.46-3.42c-2.83-.17-5.66-.26-8.5-.33C186.8,1.66,138.28-8.83,100.91,7.44,77.45,17.66,60.46,38.85,58.25,64.65a.14.14,0,0,0,0,.09Q49.52,67.93,41,71.57C30.07,76.22,19.15,81.83,10.51,90.06A35.66,35.66,0,0,0,1.86,102.4c-1.24,3.08-2.68,8.24-1.3,11.48s6.11,4.59,9,5.58a115.91,115.91,0,0,0,19.82,4.38A261.8,261.8,0,0,0,68.56,127a.2.2,0,0,0,.11-.37c1-2.39,1.47-4.91,2.34-7.33a.21.21,0,0,0,.08-.24l0,0s0,0,0,0a.2.2,0,0,0-.18-.1,123.47,123.47,0,0,1-29-4.6A29,29,0,0,1,36,112.08c-1.87-1-1.83-1.87-.76-3.56,2.06-3.28,6.05-5.34,9.39-7,11.47-5.85,24.45-9,36.89-12,15.39-3.71,31-6.57,46.62-9,20.16-3.16,40.75-4.07,61.14-4.2a257.65,257.65,0,0,1,32.63,1.5c7,.85,16.33,1.83,21.88,6.8,7.54,6.74-6.61,12.76-11.4,14.67a137.75,137.75,0,0,1-30.26,7.87l0,0a.14.14,0,0,0-.25.15l0,.05a.16.16,0,0,0,.07.15,56.06,56.06,0,0,1,3.2,9.19.13.13,0,0,0,0,.12.37.37,0,0,0,0,.06.09.09,0,0,0,.18,0,236.2,236.2,0,0,0,39.21-10.55C256,102,267.67,96.81,277.21,89,283.76,83.67,289.32,76.25,288.06,67.38ZM91.19,13.31c17.72-11,39.66-14.82,60.19-11.74A81.43,81.43,0,0,1,208,38.18c-25-.55-50.26,2.74-74.78,7.05A445.94,445.94,0,0,0,58.56,64.64,69.18,69.18,0,0,1,91.19,13.31Zm179,80.2c-19.22,12.35-42.74,18.54-64.94,22.94a27.6,27.6,0,0,0-3-9.1c10.24-.82,20.74-3.9,30.25-7.62C237,98,248.77,93.62,246.1,86.79c-2-5.08-9.46-6.83-14.1-7.93-9.48-2.23-19.39-2.75-29.09-3.06A497.19,497.19,0,0,0,141.7,78c-13.46,1.23-26.92,3.91-40.17,6.5A352.69,352.69,0,0,0,58.64,95.23c-6.63,2.19-13.46,4.69-19.29,8.6-1.75,1.17-7.65,5.62-4.9,8,1.67,1.43,4.12,2.12,6.18,2.76A95.37,95.37,0,0,0,52,117.16c6.16,1.12,12.64,2.25,18.92,2.19h0a63,63,0,0,0-2.41,7.24,276.18,276.18,0,0,1-28.67-2c-10.53-1.13-21.52-2.43-31.53-6.08-2.59-.94-6.75-2.47-7.56-5.49-1.34-5,1.56-11.47,4.13-15.56,6.52-10.39,18.37-17,29.1-22.22C45.82,69.53,58.39,65.15,70.9,61.12a469.48,469.48,0,0,1,52.74-13.55,488,488,0,0,1,55-7.66,271.31,271.31,0,0,1,34.32-1,247.8,247.8,0,0,1,29.68,3c10.18,1.7,20.52,4.14,29.8,8.77,7.46,3.72,14.63,9.69,15.21,18.57C288.4,80.13,278.4,88.25,270.22,93.51Z"/><path class="cls-16" d="M57,117.31a27.82,27.82,0,0,1-4.16-9.57,29,29,0,0,1-.28-9.62l.1-.78-.71.32c-1,.43-1.9.84-2.84,1.25-4.15,1.8-8.07,3.5-11.71,6.47C35,107.32,33.88,109,34,110.33a2.25,2.25,0,0,0,1.17,1.79A22.54,22.54,0,0,0,40,114.28,105.09,105.09,0,0,0,56,117.89l1.64.28Z"/><path class="cls-16" d="M246.18,87.28c-1-3.17-4.4-5.6-10.25-7.43l-.86-.27.32.84c.92,2.42.28,6.52,0,8.18A30.83,30.83,0,0,1,231,99.33l-.79,1.2,1.32-.56c.44-.19,1-.4,1.62-.64C238.44,97.28,248.21,93.46,246.18,87.28Z"/><polygon class="cls-17" points="227.14 99.76 226.13 101.45 226.67 101.27 227.14 99.76"/><path class="cls-18" d="M76.56,136.23l.23.25.61.26Z"/><path class="cls-19" d="M59.7,117.16c-1.88-4-3.82-8.1-4.49-12.46-.53.12-1,.24-1.55.38l-1.15.32c1.08,6.48,4.5,12.72,8.39,17.76s8.77,9.83,14.54,12.7h0A47.06,47.06,0,0,1,59.7,117.16Z"/><path class="cls-19" d="M81.12,103.88c1.72-1.86,3.36-3.72,4.85-5.65l-1.61.3c-5.48,4.93-12.25,9.75-13.25,17.51a20.73,20.73,0,0,0,1,8.75A47.46,47.46,0,0,0,78,136.9l.08.12c.58.22,1.16.42,1.76.6C64.17,121.49,77.11,108.23,81.12,103.88Z"/><path class="cls-18" d="M84.15,98.71A13.94,13.94,0,0,1,86,98.23,34.8,34.8,0,0,0,92,87q-5.3,1.14-10.56,2.4c-9.67,2.33-19.66,4.79-29,8.52a23.71,23.71,0,0,0,.1,7.46c1-.29,2.05-.57,3.17-.8l-.48.1c.66,4.36,2.6,8.44,4.49,12.46a47.06,47.06,0,0,0,15.74,18.68h0c.44.22.89.43,1.34.62l-.23-.25.83.51.71.28L78,136.9a47.46,47.46,0,0,1-5.95-12.11,20.73,20.73,0,0,1-1-8.75C72.1,108.38,78.71,103.58,84.15,98.71ZM55.7,104.6l.5-.1Z"/><path class="cls-18" d="M227.77,98.34v0h0Z"/><path class="cls-18" d="M227.87,98.53v0c-.06.27-.11.55-.17.82l.43-.24A5.33,5.33,0,0,0,227.87,98.53Z"/><path class="cls-20" d="M228.13,99.14l-.43.24a16.22,16.22,0,0,1-2.53,6.1c1.14-1,2.26-2.09,3.3-3.21A7.71,7.71,0,0,0,228.13,99.14Z"/><path class="cls-19" d="M141.85,97.36c-4.48-1-8.47-2-12.38-4.55-.6-.39-1.2-.69-1.76-1.07l-4.13.52a38,38,0,0,0,21,6.94l-1.3-1.29c-.31-.06-.61-.12-.91-.2S142.06,97.43,141.85,97.36Z"/><path class="cls-19" d="M222.95,103.1c-.14,0-.42.28-.49.56s-.35.14-.42.28c-1,1.33-2.38,2-3.36,3.29-.28.35-.56.63-.84,1-.91,1.54-2,2.8-2.59,4.55a5.77,5.77,0,0,0-.42.91c-.14.28-.21.63-.35,1s.07.63,0,1c0,.07-.21.07-.21.14a11.87,11.87,0,0,0,.56,4.69,24.24,24.24,0,0,0,2.17,3.92,8.13,8.13,0,0,0,1.19,1.82c.79.87,1.53,1.74,2.27,2.61q1.91.28,3.82.53c-.72-.65-1.43-1.35-2.1-2.09-3.82-4.15-6.61-9.52-4.14-15.12,2.09-4.74,6.41-8,8.93-12.36a29.25,29.25,0,0,1-3.4,2.78C223.36,102.75,223.29,103,222.95,103.1Z"/><path class="cls-19" d="M234.66,91.46l-1.28-.2c-1.08,3-2,6-3.15,9a22.6,22.6,0,0,0,3.43-5.93C234,93.45,234.33,92.49,234.66,91.46Z"/><path class="cls-21" d="M235.8,80.26l.32.12a2,2,0,0,1-.14-.5c-1.43-.42-2.82-.74-4-1-9.48-2.24-19.4-2.75-29.09-3.07A497.32,497.32,0,0,0,141.67,78c-9,.83-18.06,2.31-27,4,0,0,0,.09,0,.13a2,2,0,0,1,.36.8c5.31,10.85,18.12,16.64,29.81,16.46,0,0,0,0,0,0a0,0,0,0,0,0,0,0,0,0,0,0,0,0s0,0,0,0c-2-2-4.42-4.15-4.76-7.14,12.44,13.52,28.75,22.83,45.88,29.09,12.27,4.48,25.58,7.94,38.68,8.62.23,0,.22-.33,0-.36h0c-5.51-5.64-9.49-12-5-19.54,2.17-3.58,5.51-6.44,7.46-10.15-.26.82-.5,1.65-.79,2.47a14.28,14.28,0,0,1-3.31,5.14l-.23.2c-.11.1,0,.29.16.21a34.26,34.26,0,0,0,7.81-7.34,1.54,1.54,0,0,1,.16-.24,1.6,1.6,0,0,1,.34-.52l0,0a.52.52,0,0,1,.1-.08l.1-.15a22.93,22.93,0,0,0,2.34-4.22,33,33,0,0,0,2.29-8.81C236.35,84.59,236.8,82,235.8,80.26Zm-2.14,14c-1.73,4.56-5,8-8.49,11.19a17.25,17.25,0,0,0,2.7-6.93.16.16,0,0,0-.3-.08c-.08.22-.15.45-.22.68-2.45,4.76-7.1,8.06-9.3,13-2.92,6.6,1.47,12.87,6.24,17.21-31-4-61.79-14.81-84.18-37.39v0c0-.07-.12-.07-.11,0,.14,3.08,2.6,5.18,4.64,7.22-12.17-.5-23.51-5.81-29.67-16.63q6.54-1.14,13.1-2.17c20.15-3.17,40.75-4.07,61.14-4.2a258.07,258.07,0,0,1,32.63,1.5,77.29,77.29,0,0,1,13.79,2.51C237.14,84.24,235.09,90.53,233.66,94.29Z"/><path class="cls-21" d="M92.58,86.32a.18.18,0,0,0-.34,0l0,.09A315.85,315.85,0,0,0,58.6,95.22c-2.15.71-4.31,1.46-6.46,2.27a2,2,0,0,1,0,.57l.08,0c-1.52,6.5.73,13.31,4.05,19.22a1.65,1.65,0,0,1,.37.72h.05a61.2,61.2,0,0,0,3.65,5.52c4.86,6.57,12.78,14.57,21.51,15.06a.21.21,0,0,0,.06-.42c-.51-.11-1-.23-1.51-.38-15.91-17-1.83-30.28,2.8-35.35,4-4.43,8.12-9.48,9.32-15.51h.07a.19.19,0,0,0,0,0,2.22,2.22,0,0,1,.06-.55ZM81.12,103.88c-4,4.34-17,17.61-1.26,33.73-7.77-2.33-14.07-8.12-19-14.45-5.37-7-9.86-16.21-8.49-25.22,9.36-3.72,19.35-6.18,29-8.52Q86.7,88.16,92,87C90,93.71,85.84,98.77,81.12,103.88Z"/><path class="cls-18" d="M235.61,80.21a77.29,77.29,0,0,0-13.79-2.51,258.07,258.07,0,0,0-32.63-1.5c-20.38.14-41,1-61.14,4.2q-6.56,1-13.1,2.17a30.92,30.92,0,0,0,8.62,9.69l5.08-.63h0l-1,.12c.55.37,1.15.68,1.76,1.07,3.92,2.59,7.91,3.57,12.38,4.55.21.07.35.28.56.35s.61.14.91.2l-.49-.5c-1.47-1.53-2.74-3.23-2.84-5.43,0-.07.1-.07.11,0v0Q141,93,142,93.87q1.45,1.39,2.93,2.71c20.91,18.63,48,28.25,75.53,32.29-.74-.87-1.48-1.74-2.27-2.61a8.13,8.13,0,0,1-1.19-1.82,24.24,24.24,0,0,1-2.17-3.92,11.87,11.87,0,0,1-.56-4.69c0-.07.21-.07.21-.14.07-.35-.07-.7,0-1s.21-.7.35-1a5.77,5.77,0,0,1,.42-.91c.56-1.75,1.68-3,2.59-4.55.28-.42.56-.7.84-1,1-1.33,2.31-2,3.36-3.29.07-.14.35-.14.42-.28s.35-.56.49-.56c.35-.07.42-.35.63-.49a29.25,29.25,0,0,0,3.4-2.78h0q.19-.33.37-.67c.08-.23.14-.45.22-.68a.16.16,0,0,1,.21-.1v0l0,0a.15.15,0,0,1,.08.15c.07.14.13.27.18.41l.08.2a7.71,7.71,0,0,1,.34,3.12c.62-.66,1.21-1.34,1.76-2,1.17-3,2.07-6,3.15-9l1.28.2C235.82,87.85,236.8,83.35,235.61,80.21Z"/><path class="cls-22" d="M145,139.2c1.25-3,2.25-5.6,1.23-8.83-.14-.2-.29-.4-.44-.59a.06.06,0,0,1,0-.06c-5.62-7-16.59-6.05-22.41.42h0c-.53,3.42-.32,6.75,1.81,9.6.14-.2.29-.4.46-.59l0-.09a.13.13,0,0,1,.14-.1C130.14,134.07,142.49,131.66,145,139.2Z"/><path class="cls-22" d="M121,134.7a13.52,13.52,0,0,0,.48,2.53c.59,2.1,2.91,6.67,4,2.35l-.29.28c.1.14-.1.3-.23.22-2.76-1.58-3-7.36-1.85-10a.14.14,0,0,1,0-.14,9.37,9.37,0,0,1,.87-1.27C121.33,127.16,120.94,133.91,121,134.7Z"/><path class="cls-23" d="M97.34,116.74a21.18,21.18,0,0,0-18.67,31.2c7-10.68,15.15-20.62,22.92-30.78A21.23,21.23,0,0,0,97.34,116.74Z"/><path class="cls-24" d="M110.84,121.61a21.1,21.1,0,0,0-9.24-4.44c-7.77,10.16-15.9,20.09-22.92,30.78A21.35,21.35,0,0,0,86,155.79c5.7-8.65,11.64-17.11,18.38-25.55C106.69,127.32,108.67,124.47,110.84,121.61Z"/><path class="cls-24" d="M115.54,133.68c.49-.63.84-1.12,1.26-1.61l.64-.87a21.1,21.1,0,0,0-1.59-3.58c-.42.56-.87,1.09-1.29,1.65-7.61,10-14.83,19.35-21.18,29.48a21.26,21.26,0,0,0,3.47.37C101,153,105.24,146.93,110,140.89,111.9,138.37,113.58,136.06,115.54,133.68Z"/><path class="cls-23" d="M116.8,132.07c-.42.49-.77,1-1.26,1.61-2,2.38-3.64,4.69-5.53,7.21-4.77,6-9.05,12.1-13.16,18.23h.49a21.19,21.19,0,0,0,20.09-27.92Z"/><path class="cls-23" d="M114.56,129.27c.41-.57.87-1.09,1.29-1.65a21.32,21.32,0,0,0-5-6c-2.17,2.86-4.15,5.71-6.49,8.64-6.75,8.43-12.68,16.9-18.38,25.55a21,21,0,0,0,7.42,3C99.73,148.62,107,139.26,114.56,129.27Z"/><path class="cls-22" d="M145.12,139.76h0l0,0h0l-.06,0h-.1l0,0,0,0c-.07-.1-.15-.19-.22-.29,0,.35-.08.71-.11,1q-.26,1,1.26.73a6.74,6.74,0,0,0,.76-1c.2-.34.4-.67.58-1a23.44,23.44,0,0,0,1.56-5.68,23.17,23.17,0,0,0,0-2.34,2.5,2.5,0,0,0-.67-1.71,1.71,1.71,0,0,0-2,.16l.16.27a.15.15,0,0,1,.13,0C148.76,131.87,146.9,137.9,145.12,139.76Z"/><path class="cls-22" d="M123.88,142.1c-1.8-.69-2.52-3-2.95-4.72a13,13,0,0,1,.49-8.13c.44-1.15,2-1.89,2.58-.65.16-.2.35-.37.53-.55a28.92,28.92,0,1,0,1.74,10.78l-.39.35C126.13,140.39,125.72,142.8,123.88,142.1ZM97.34,160.32a22.39,22.39,0,1,1,22.39-22.39A22.41,22.41,0,0,1,97.34,160.32Z"/><path class="cls-22" d="M172.15,109a29,29,0,0,0-27.26,19.23,9.76,9.76,0,0,1,1,1.21,1.76,1.76,0,0,1,2.91.41,5.64,5.64,0,0,1,.26,3.44,14.64,14.64,0,0,1-1.16,5,7.83,7.83,0,0,1-2.21,3.46c-1.73,1.37-1.68-1.56-1.53-2.85a12.89,12.89,0,0,0-1-1.11s0,.08,0,.12a29,29,0,1,0,29-29Zm0,51.34a22.39,22.39,0,1,1,22.39-22.39A22.42,22.42,0,0,1,172.15,160.32Z"/><path class="cls-23" d="M172.56,120.24a34.66,34.66,0,0,0,2.67-3.28A21.18,21.18,0,0,0,152.57,146c5.56-7.75,11.58-15.21,17.82-23C171.17,122.06,171.79,121.15,172.56,120.24Z"/><path class="cls-24" d="M175.23,117a34.66,34.66,0,0,1-2.67,3.28c-.77.91-1.4,1.82-2.17,2.8-6.25,7.77-12.26,15.23-17.82,23a21.31,21.31,0,0,0,8.09,9.7c8.33-11.33,17.19-22.26,26.07-33.16A21.13,21.13,0,0,0,175.23,117Z"/><path class="cls-23" d="M178.72,142.56c4.22-4.81,8.08-9.5,12.31-14.23a21.26,21.26,0,0,0-4.31-5.76c-8.88,10.89-17.74,21.83-26.07,33.16a21.08,21.08,0,0,0,5.11,2.41C169.89,152.88,174.18,147.73,178.72,142.56Z"/><path class="cls-23" d="M172.15,159.12a21.2,21.2,0,0,0,20.57-26.28c-7.68,8.84-15.26,17.31-22.51,26.19C170.85,159.09,171.5,159.12,172.15,159.12Z"/><path class="cls-24" d="M178.72,142.56c-4.55,5.17-8.84,10.31-12.95,15.57a21.13,21.13,0,0,0,4.44.89c7.25-8.88,14.83-17.35,22.51-26.19a21.06,21.06,0,0,0-1.69-4.51C186.81,133.07,182.95,137.76,178.72,142.56Z"/><path class="cls-25" d="M97.34,115.54a22.39,22.39,0,1,0,22.39,22.39A22.42,22.42,0,0,0,97.34,115.54Zm0,43.58a21.19,21.19,0,1,1,21.19-21.19A21.21,21.21,0,0,1,97.34,159.12Z"/><path class="cls-25" d="M172.15,115.54a22.39,22.39,0,1,0,22.39,22.39A22.42,22.42,0,0,0,172.15,115.54Zm0,43.58a21.19,21.19,0,1,1,21.19-21.19A21.21,21.21,0,0,1,172.15,159.12Z"/><path class="cls-25" d="M172.15,107.78a30.2,30.2,0,0,0-28.23,19.58c-4.91-3.92-13.56-4.13-18.44-.2a30.11,30.11,0,1,0,2,10.78v0a1.63,1.63,0,0,1-.69.49,16,16,0,0,1,8.29-3.3,9.48,9.48,0,0,1,6.93,1.71c0,.38,0,.76,0,1.14a30.16,30.16,0,1,0,30.16-30.15ZM97.34,166.88A29,29,0,1,1,124.53,128c-.18.18-.37.35-.53.55-.58-1.24-2.14-.49-2.58.65a13,13,0,0,0-.49,8.13c.43,1.7,1.14,4,2.95,4.72s2.25-1.71,2-2.92l.39-.35A29,29,0,0,1,97.34,166.88Zm25.74-36.8c-1.19,2.64-.9,8.42,1.85,10,.14.08.33-.08.23-.22l.29-.28c-1.07,4.31-3.39-.25-4-2.35a13.52,13.52,0,0,1-.48-2.53c-.06-.79.32-7.54,2.94-6a9.37,9.37,0,0,0-.87,1.27A.14.14,0,0,0,123.08,130.08Zm2.64,8.89a.13.13,0,0,0-.14.1l0,.09c-.16.2-.32.39-.46.59-2.12-2.85-2.34-6.19-1.81-9.6h0c5.82-6.47,16.79-7.42,22.41-.42a.06.06,0,0,0,0,.06c.15.19.3.39.44.59,1,3.23,0,5.83-1.23,8.83C142.49,131.66,130.14,134.07,125.72,139Zm20.33-9.33a1.71,1.71,0,0,1,2-.16,2.5,2.5,0,0,1,.67,1.71,23.17,23.17,0,0,1,0,2.34,23.44,23.44,0,0,1-1.56,5.68c-.18.35-.38.69-.58,1a6.74,6.74,0,0,1-.76,1q-1.52.24-1.26-.73c0-.34.09-.69.11-1,.07.1.15.19.22.29l0,0,0,0h.1l.06,0h0l0,0h0c1.79-1.86,3.64-7.88,1.22-9.82a.15.15,0,0,0-.13,0Zm26.1,37.24a29,29,0,0,1-29-29s0-.08,0-.12a12.89,12.89,0,0,1,1,1.11c-.15,1.28-.2,4.22,1.53,2.85a7.83,7.83,0,0,0,2.21-3.46,14.64,14.64,0,0,0,1.16-5,5.64,5.64,0,0,0-.26-3.44,1.76,1.76,0,0,0-2.91-.41,9.76,9.76,0,0,0-1-1.21,28.95,28.95,0,1,1,27.26,38.68Z"/><path class="cls-11" d="M108.84,226c-5,2.84-10.21,6.23-13.46,11.11,4.68,4.59,8.48,10.23,12.21,15.59.07.1-.06.2-.15.16a28.14,28.14,0,0,1-6,.74c6.24,7,11.38,15.15,16.67,22.87q9.27,13.52,18.27,27.23c6.09-9.27,12.74-18.2,19.38-27.08,5.42-7.25,10.77-14.67,16.81-21.43a27.4,27.4,0,0,1-6-.74c-.09,0-.22-.07-.15-.16a127.61,127.61,0,0,1,14.39-17.18c-3.23-4.85-8.19-8.45-13.19-11.31-5.18-3-10.84-5.51-16.79-6.41l-.07,1.67h0c6.47.94,12.06,4.75,13.35,11.46,1.41,7.36-.91,15.15-3.48,22-6.28,16.68-16.22,31.43-24.19,47.25a.11.11,0,0,1-.21.09c-8.82-14.39-48-78.31-9.52-80.7,0-.28,0-.68.06-1.06l0-.76C120.51,220.22,114.34,222.89,108.84,226Z"/><path class="cls-14" d="M181.11,237c-2.53-4.93-7.87-8.42-12.47-11.21-5.39-3.27-11.63-6.05-18-6.52-.06,0-.08.1,0,.11l.18,0a9.34,9.34,0,0,0-.09,1.67c-.23,0-.33.33-.08.38,7,1.63,12.19,5.5,13.07,13s-1.94,15.47-4.66,22.37c-6.15,15.64-15.55,29.63-22.72,44.76-8.27-15.08-17.17-29.95-22.56-46.38-2.28-6.94-4.2-14.74-2.65-22,1.64-7.75,8.29-10.95,15.57-11.79.14,0,.14-.23,0-.22-38.51,2.39.7,66.31,9.52,80.7a.11.11,0,0,0,.21-.09c8-15.83,17.92-30.58,24.19-47.25,2.57-6.84,4.89-14.63,3.48-22-1.29-6.71-6.87-10.52-13.35-11.46h0l.07-1.67c6,.9,11.62,3.44,16.79,6.41,5,2.87,10,6.46,13.19,11.31a127.61,127.61,0,0,0-14.39,17.18c-.07.09.06.2.15.16a27.4,27.4,0,0,0,6,.74c-6,6.75-11.39,14.18-16.81,21.43-6.64,8.88-13.29,17.82-19.38,27.08q-9-13.71-18.27-27.23c-5.3-7.73-10.43-15.85-16.67-22.87a28.14,28.14,0,0,0,6-.74c.09,0,.22-.06.15-.16-3.73-5.36-7.54-11-12.21-15.59,3.25-4.88,8.44-8.28,13.46-11.11,5.5-3.11,11.67-5.77,18-6.68l0,.76c0-.29,0-.55,0-.76h0c.05,0,0-.08,0-.1h0c-6.45.48-12.63,3.23-18.24,6.32-4.87,2.67-10.83,6.34-13.47,11.45a.16.16,0,0,0,.17.23c4,5.12,7.84,10.46,12,15.47a27.55,27.55,0,0,0-6,.65.13.13,0,0,0,0,.25c12.61,16,23.36,33.56,35,50.24h.09C148,287.29,160.12,271,172.66,255.18a.14.14,0,0,0,0-.26,26.79,26.79,0,0,0-5.9-.65c4.76-5.66,9.52-11.33,14.19-17.07A.15.15,0,0,0,181.11,237Z"/><g class="cls-26"><path class="cls-27" d="M126.77,220.08c0,.38-.06.78-.06,1.06Z"/></g><path class="cls-28" d="M115.78,615.46c0,.25.05.49.06.72a15,15,0,0,0,11.2-3.39,4.31,4.31,0,0,1-.14-.59C123.94,614.71,119.64,615.64,115.78,615.46Z"/><path class="cls-29" d="M126.78,611.21a5.15,5.15,0,0,1-1-.36l.15.79.45-.24a.09.09,0,0,1,.13.06l.07-.09-.07.09a.07.07,0,0,1,0,.08l-.12.11c-2.09,2.49-5.91,2.88-9,2.88-.68,0-1.56-.07-1.86-.85l-.05,0a0,0,0,0,1,0,0,3,3,0,0,0,.41.16,4.93,4.93,0,0,1-.14-.74,5,5,0,0,1-.59.49,4.45,4.45,0,0,1,.65,2c3.86.18,8.16-.75,11.13-3.26C126.85,611.87,126.82,611.53,126.78,611.21Z"/><path class="cls-30" d="M117.36,614.52c3,0,6.87-.39,9-2.88a12.7,12.7,0,0,1-6.58,2.55c-1.22.17-3.26.45-4.24-.52C115.79,614.46,116.67,614.52,117.36,614.52Z"/><path class="cls-29" d="M126.73,616v0Z"/><path class="cls-30" d="M114.35,642.37c.71-2.78,1.46-5.51,1.92-8.25,0-.36,0-.72.05-1.08.23-5.51.32-11.05.62-16.56l-.61-.08c-.08,8.37.4,17.7-3,25.55-1.21,4.71-2.54,9.38-1.16,14l0,.07C111.58,651.52,113.24,646.82,114.35,642.37Z"/><path class="cls-29" d="M132.83,642.11a70,70,0,0,1-1.84-9.85c-.52-3.69-.78-7.42-1.19-11.13a18.39,18.39,0,0,0-.85-4,16.78,16.78,0,0,0-1.44-2.49c-.26.44-.51.9-.76,1.35,1.32,3.49,1.39,7.18,2.16,10.81v.45a46.36,46.36,0,0,1,.75,4.68c.75,4.65,1.23,9.66-.15,14.06-.87,2.79-1.89,7.21-4.78,8.72,0,0,0,0,0,0-1.65,1.44-4.44.2-5.91-1-2.38-2-3.08-5-3.1-8,0-3.84.35-7.72.55-11.57-.46,2.74-1.21,5.47-1.92,8.25-1.11,4.45-2.76,9.15-2.12,13.64a13.12,13.12,0,0,0,9.68,6.23c2.31.28,4.83,0,6.44-1.82,3.15-3.57,4-8,4.76-12.6A21.82,21.82,0,0,0,132.83,642.11Z"/><path class="cls-28" d="M132.83,642.11a21.82,21.82,0,0,1,.27,5.72c-.77,4.55-1.61,9-4.76,12.6-1.61,1.82-4.13,2.1-6.44,1.82a13.12,13.12,0,0,1-9.73-6.31,13.5,13.5,0,0,0,1.27,2.93,14.6,14.6,0,0,0,11.16,7.5,15.58,15.58,0,0,0,7.17-8.19c1-2.55,1.35-5.39,2.47-7.86A57.81,57.81,0,0,0,132.83,642.11Z"/><path class="cls-28" d="M126.75,616v0c.25-.45.5-.91.76-1.35a7.33,7.33,0,0,1-.67-1.33,8.3,8.3,0,0,1-1.56,1.26c1.31,4.18,2.71,8.38,3.62,12.67v-.45C128.14,623.15,128.06,619.45,126.75,616Z"/><path class="cls-13" d="M134.42,650.22c.06-5.15-1.48-10.14-2.56-15.18-.56-4.74-.93-9.58-1.94-14.2a13.48,13.48,0,0,0-3-7.62c.1-.11.2-.21.3-.33a.08.08,0,0,0,0-.1,3.78,3.78,0,0,0-.31-1.62.09.09,0,0,0,0-.1,2,2,0,0,0-1.15-.51.12.12,0,0,0-.1.21,4,4,0,0,0,.18.89,20.37,20.37,0,0,1-4.74,1.94,10.84,10.84,0,0,1-5.1.18,6.46,6.46,0,0,0-.2-.81h0s0-.09-.05-.08a1,1,0,0,0-.79.59c0,.07.06.12.12.09h0a5.16,5.16,0,0,0,.59,2.72c0,.07.11.06.16,0l.41.08c-.44,8.75-.69,17.08-3,25.59,0,0,0,0,0,0-2.06,5.8-3,11.38-.17,17.12,2.11,4.24,6.72,7.82,11.62,7.5h0c5.93-1.89,9.33-10,9.71-15.91h0s0-.07,0-.11,0-.24,0-.35S134.42,650.23,134.42,650.22Zm-18.57-34a5.35,5.35,0,0,0-.71-2.68,5,5,0,0,0,.59-.49,4.93,4.93,0,0,0,.14.74,3,3,0,0,1-.41-.16,0,0,0,0,0,0,0c1,1,3.05.74,4.29.57a12.51,12.51,0,0,0,6.7-2.66c.08-.07,0-.18-.11-.14l-.45.24-.15-.79a5.15,5.15,0,0,0,1,.36,8.85,8.85,0,0,0,.27,1.58A15,15,0,0,1,115.84,616.18Zm1.13.31a13.78,13.78,0,0,0,8.24-1.89c1.49,5.88,3.21,11.62,4.26,17.59.88,7.84.86,17.25-5.4,22.48-3.77.83-6.81-2.59-7.65-6-.74-3-.24-6.23,0-9.21A184.85,184.85,0,0,0,117,616.48Zm14.82,41.69a15.58,15.58,0,0,1-7.17,8.19,14.6,14.6,0,0,1-11.16-7.5c-3.23-5.54-1.58-11.19-.11-16.91,3.4-7.85,2.91-17.19,3-25.55l.61.08c-.3,5.51-.39,11-.62,16.56-.18,4.2-.63,8.45-.6,12.65,0,3,.72,6,3.1,8,1.47,1.22,4.26,2.46,5.91,1,0,0,0,0,0,0,2.88-1.51,3.9-5.94,4.78-8.72,1.38-4.4.9-9.41.15-14.06-.63-6-2.6-11.67-4.37-17.35a8.3,8.3,0,0,0,1.56-1.26c.5,1.36,1.57,2.45,2.11,3.82a18.39,18.39,0,0,1,.85,4c.41,3.72.67,7.44,1.19,11.13.51,6.08,2.78,11.94,3.27,18.05C133.14,652.78,132.77,655.63,131.79,658.18Z"/><path class="cls-28" d="M157.72,615.33c0,.25-.05.49-.06.72a15,15,0,0,1-11.2-3.39,4.21,4.21,0,0,0,.14-.59C149.56,614.58,153.87,615.51,157.72,615.33Z"/><path class="cls-29" d="M146.72,611.08a5.18,5.18,0,0,0,1-.36l-.14.79-.45-.24a.09.09,0,0,0-.13.06l-.07-.08.07.08a.07.07,0,0,0,0,.08l.12.1c2.09,2.49,5.91,2.88,9,2.88.68,0,1.56-.07,1.87-.85l.05,0s0,0,0,0a4.06,4.06,0,0,1-.41.16,4.47,4.47,0,0,0,.14-.74,5.29,5.29,0,0,0,.59.48,4.44,4.44,0,0,0-.65,2c-3.85.18-8.16-.75-11.12-3.26C146.65,611.74,146.68,611.41,146.72,611.08Z"/><path class="cls-30" d="M156.15,614.39c-3,0-6.87-.39-9-2.88a12.65,12.65,0,0,0,6.58,2.55c1.22.17,3.26.45,4.24-.52C157.71,614.33,156.83,614.39,156.15,614.39Z"/><path class="cls-29" d="M146.77,615.86l0,0,0,0Z"/><path class="cls-30" d="M159.15,642.24c-.71-2.78-1.47-5.51-1.93-8.25,0-.36,0-.72,0-1.08-.23-5.52-.32-11-.62-16.56l.61-.08c.08,8.37-.4,17.7,3,25.55,1.21,4.72,2.54,9.38,1.16,14l0,.07C161.92,651.39,160.27,646.69,159.15,642.24Z"/><path class="cls-29" d="M140.68,642a70.59,70.59,0,0,0,1.84-9.85c.52-3.69.78-7.42,1.19-11.13a18.54,18.54,0,0,1,.85-4,16.48,16.48,0,0,1,1.44-2.49c.26.44.51.9.76,1.36-1.31,3.48-1.39,7.18-2.15,10.8v.45a46.33,46.33,0,0,0-.75,4.68c-.75,4.65-1.23,9.66.14,14.06.88,2.79,1.9,7.21,4.78,8.72,0,0,0,0,0,0,1.65,1.44,4.44.19,5.91-1,2.38-2,3.08-5,3.1-8,0-3.85-.35-7.73-.55-11.57.46,2.74,1.21,5.47,1.93,8.25,1.11,4.45,2.76,9.15,2.12,13.64a13.12,13.12,0,0,1-9.68,6.23c-2.31.28-4.83,0-6.44-1.82-3.15-3.57-4-8-4.76-12.6A21.77,21.77,0,0,1,140.68,642Z"/><path class="cls-28" d="M140.68,642a21.77,21.77,0,0,0-.28,5.72c.77,4.55,1.61,9,4.76,12.6,1.61,1.82,4.13,2.1,6.44,1.82a13.12,13.12,0,0,0,9.73-6.31,13.47,13.47,0,0,1-1.28,2.93,14.58,14.58,0,0,1-11.16,7.5,15.58,15.58,0,0,1-7.17-8.19c-1-2.55-1.35-5.39-2.47-7.86A57.15,57.15,0,0,1,140.68,642Z"/><path class="cls-28" d="M146.75,615.84l0,0v-.07l0,0c-.25-.46-.5-.91-.76-1.36a7.58,7.58,0,0,0,.67-1.33,8.54,8.54,0,0,0,1.56,1.26c-1.31,4.18-2.72,8.38-3.62,12.67v-.45C145.37,623,145.44,619.32,146.75,615.84Z"/><path class="cls-13" d="M139.06,650.12c0,.11,0,.23,0,.35v.11h0c.38,5.87,3.78,14,9.71,15.91h.05c4.9.32,9.51-3.26,11.62-7.51,2.85-5.74,1.88-11.32-.17-17.12,0,0,0,0,0,0-2.33-8.51-2.59-16.84-3-25.59l.41-.08c.05,0,.12.06.16,0a5.22,5.22,0,0,0,.59-2.72h0c.05,0,.14,0,.11-.09a1,1,0,0,0-.79-.59s-.09,0,0,.09h0a6.24,6.24,0,0,0-.21.82,10.86,10.86,0,0,1-5.1-.19,20.25,20.25,0,0,1-4.74-1.94,4.15,4.15,0,0,0,.18-.89.12.12,0,0,0-.1-.21,2,2,0,0,0-1.15.51.08.08,0,0,0,0,.09,3.79,3.79,0,0,0-.31,1.62.08.08,0,0,0,0,.1l.3.32a13.5,13.5,0,0,0-3,7.62c-1,4.62-1.38,9.47-1.94,14.2-1.08,5-2.62,10-2.56,15.18C139.08,650.1,139.06,650.1,139.06,650.12Zm7.39-37.46a8.89,8.89,0,0,0,.27-1.58,5.18,5.18,0,0,0,1-.36l-.14.79-.45-.24c-.08,0-.18.07-.1.14a12.51,12.51,0,0,0,6.7,2.65c1.24.17,3.33.46,4.29-.57,0,0,0,0,0,0a4.06,4.06,0,0,1-.41.16,4.47,4.47,0,0,0,.14-.74,5.29,5.29,0,0,0,.59.48,5.36,5.36,0,0,0-.71,2.68A15,15,0,0,1,146.46,612.66Zm10.63,26.71c.23,3,.73,6.26,0,9.21-.84,3.37-3.87,6.79-7.65,6-6.26-5.23-6.29-14.64-5.4-22.48,1-6,2.76-11.72,4.25-17.59a13.78,13.78,0,0,0,8.24,1.89A185.25,185.25,0,0,0,157.09,639.37Zm-17.84,10.82c.49-6.12,2.76-12,3.27-18.05.52-3.69.78-7.42,1.19-11.13a18.54,18.54,0,0,1,.85-4c.55-1.37,1.62-2.47,2.11-3.82a8.54,8.54,0,0,0,1.56,1.26c-1.78,5.68-3.74,11.4-4.37,17.35-.75,4.65-1.23,9.66.14,14.06.88,2.79,1.9,7.21,4.78,8.72,0,0,0,0,0,0,1.65,1.44,4.44.19,5.91-1,2.38-2,3.08-5,3.1-8,0-4.2-.43-8.45-.6-12.65-.23-5.52-.32-11-.62-16.56l.61-.08c.08,8.37-.4,17.7,3,25.55,1.47,5.71,3.11,11.37-.11,16.91a14.58,14.58,0,0,1-11.16,7.5,15.58,15.58,0,0,1-7.17-8.19C140.73,655.5,140.36,652.65,139.24,650.18Z"/></g></g></svg>