<svg xmlns="http://www.w3.org/2000/svg" xmlns:xlink="http://www.w3.org/1999/xlink" viewBox="0 0 384.5 516.84"><defs><style>.cls-1{mask:url(#mask);filter:url(#luminosity-noclip-5);}.cls-2,.cls-28,.cls-31,.cls-4,.cls-41,.cls-46,.cls-48,.cls-6,.cls-8{mix-blend-mode:multiply;}.cls-2{fill:url(#linear-gradient);}.cls-3{mask:url(#mask-2);filter:url(#luminosity-noclip-6);}.cls-4{fill:url(#linear-gradient-2);}.cls-5{mask:url(#mask-3);filter:url(#luminosity-noclip-7);}.cls-6{fill:url(#linear-gradient-3);}.cls-7{mask:url(#mask-4);filter:url(#luminosity-noclip-8);}.cls-8{fill:url(#linear-gradient-4);}.cls-9{isolation:isolate;}.cls-10{fill:#704a14;}.cls-11,.cls-30{fill:#251e1c;}.cls-12{fill:#4c3000;}.cls-13{fill:#c5b8a8;}.cls-14{fill:#b6bdd5;}.cls-15{fill:#ededed;}.cls-16{fill:#e1e2e2;}.cls-17{fill:#ba5a30;}.cls-18{fill:#a54f2a;}.cls-19{fill:#3e2500;}.cls-20{fill:#595959;}.cls-21{fill:#1c1c1c;}.cls-22{fill:#dab229;}.cls-23{fill:#8c8c8c;}.cls-24{fill:#e7d7b0;}.cls-25{fill:#4b2f00;}.cls-26{fill:#8f6022;}.cls-27{fill:#bb582b;}.cls-28,.cls-41{fill:#cdbd91;}.cls-29{fill:#fff;}.cls-30,.cls-41{fill-rule:evenodd;}.cls-32{fill:#bddef7;}.cls-33{mask:url(#mask-5);}.cls-34,.cls-36,.cls-38,.cls-40{opacity:0.3;}.cls-34{fill:url(#linear-gradient-5);}.cls-35{mask:url(#mask-6);}.cls-36{fill:url(#linear-gradient-6);}.cls-37{mask:url(#mask-7);}.cls-38{fill:url(#linear-gradient-7);}.cls-39{mask:url(#mask-8);}.cls-40{fill:url(#linear-gradient-8);}.cls-42{fill:#a04d29;}.cls-43{fill:#cf8f2b;}.cls-44,.cls-48{fill:#c78659;}.cls-45{fill:#a68a7a;}.cls-46{fill:#e6d3a8;}.cls-47{fill:#f5f3e2;}.cls-49{fill:#7b391a;}.cls-50{fill:#3d3a39;}.cls-51{fill:none;}.cls-52{filter:url(#luminosity-noclip-4);}.cls-53{filter:url(#luminosity-noclip-3);}.cls-54{filter:url(#luminosity-noclip-2);}.cls-55{filter:url(#luminosity-noclip);}</style><filter id="luminosity-noclip" x="227.56" y="-8430.13" width="47.22" height="32766" filterUnits="userSpaceOnUse" color-interpolation-filters="sRGB"><feFlood flood-color="#fff" result="bg"/><feBlend in="SourceGraphic" in2="bg"/></filter><mask id="mask" x="227.56" y="-8430.13" width="47.22" height="32766" maskUnits="userSpaceOnUse"><g class="cls-55"/></mask><linearGradient id="linear-gradient" x1="144.77" y1="88.66" x2="117.39" y2="137.66" gradientTransform="matrix(-1, 0, 0, 1, 384.5, 0)" gradientUnits="userSpaceOnUse"><stop offset="0" stop-color="#fff"/><stop offset="0.09" stop-color="#f4f4f4"/><stop offset="0.23" stop-color="#d8d8d8"/><stop offset="0.43" stop-color="#aaa"/><stop offset="0.66" stop-color="#6b6b6b"/><stop offset="0.92" stop-color="#1b1b1b"/><stop offset="1"/></linearGradient><filter id="luminosity-noclip-2" x="216.03" y="-8430.13" width="30.79" height="32766" filterUnits="userSpaceOnUse" color-interpolation-filters="sRGB"><feFlood flood-color="#fff" result="bg"/><feBlend in="SourceGraphic" in2="bg"/></filter><mask id="mask-2" x="216.03" y="-8430.13" width="30.79" height="32766" maskUnits="userSpaceOnUse"><g class="cls-54"/></mask><linearGradient id="linear-gradient-2" x1="105.71" y1="117.23" x2="175.98" y2="117.23" xlink:href="#linear-gradient"/><filter id="luminosity-noclip-3" x="127.89" y="-8430.13" width="47.47" height="32766" filterUnits="userSpaceOnUse" color-interpolation-filters="sRGB"><feFlood flood-color="#fff" result="bg"/><feBlend in="SourceGraphic" in2="bg"/></filter><mask id="mask-3" x="127.89" y="-8430.13" width="47.47" height="32766" maskUnits="userSpaceOnUse"><g class="cls-53"/></mask><linearGradient id="linear-gradient-3" x1="216.34" y1="136.65" x2="245.29" y2="87.33" xlink:href="#linear-gradient"/><filter id="luminosity-noclip-4" x="116.12" y="-8430.13" width="31.91" height="32766" filterUnits="userSpaceOnUse" color-interpolation-filters="sRGB"><feFlood flood-color="#fff" result="bg"/><feBlend in="SourceGraphic" in2="bg"/></filter><mask id="mask-4" x="116.12" y="-8430.13" width="31.91" height="32766" maskUnits="userSpaceOnUse"><g class="cls-52"/></mask><linearGradient id="linear-gradient-4" x1="266.47" y1="91.74" x2="238.8" y2="141.92" xlink:href="#linear-gradient"/><filter id="luminosity-noclip-5" x="227.56" y="88.72" width="47.22" height="52.45" filterUnits="userSpaceOnUse" color-interpolation-filters="sRGB"><feFlood flood-color="#fff" result="bg"/><feBlend in="SourceGraphic" in2="bg"/></filter><mask id="mask-5" x="227.56" y="88.72" width="47.22" height="52.45" maskUnits="userSpaceOnUse"><g class="cls-1"><path class="cls-2" d="M238.44,89.09A145.45,145.45,0,0,1,253,88.79l21.78,39c-1.67,4.2-4,7.53-7.66,9.78-2.77,1.72-6.74,2.9-11.23,3.58L227.56,90.43A96.8,96.8,0,0,1,238.44,89.09Z"/></g></mask><linearGradient id="linear-gradient-5" x1="144.77" y1="88.66" x2="117.39" y2="137.66" gradientTransform="matrix(-1, 0, 0, 1, 384.5, 0)" gradientUnits="userSpaceOnUse"><stop offset="0" stop-color="#edf6fd"/><stop offset="0.66" stop-color="#f7fbfe"/><stop offset="1" stop-color="#fff"/></linearGradient><filter id="luminosity-noclip-6" x="216.03" y="92.57" width="30.79" height="49.32" filterUnits="userSpaceOnUse" color-interpolation-filters="sRGB"><feFlood flood-color="#fff" result="bg"/><feBlend in="SourceGraphic" in2="bg"/></filter><mask id="mask-6" x="216.03" y="92.57" width="30.79" height="49.32" maskUnits="userSpaceOnUse"><g class="cls-3"><path class="cls-4" d="M219.3,92.57l27.52,49.31c-1.35,0-2.71,0-4.06-.06L216,93.93A31.52,31.52,0,0,1,219.3,92.57Z"/></g></mask><linearGradient id="linear-gradient-6" x1="105.71" y1="117.23" x2="175.98" y2="117.23" xlink:href="#linear-gradient-5"/><filter id="luminosity-noclip-7" x="127.89" y="88.72" width="47.47" height="51.92" filterUnits="userSpaceOnUse" color-interpolation-filters="sRGB"><feFlood flood-color="#fff" result="bg"/><feBlend in="SourceGraphic" in2="bg"/></filter><mask id="mask-7" x="127.89" y="88.72" width="47.47" height="51.92" maskUnits="userSpaceOnUse"><g class="cls-5"><path class="cls-6" d="M150.91,89.09c1,.07,2.11.16,3.19.27L175.36,127a23.25,23.25,0,0,1-9.5,10.59,32,32,0,0,1-9.06,3l-28.91-51.2A124.49,124.49,0,0,1,150.91,89.09Z"/></g></mask><linearGradient id="linear-gradient-7" x1="216.34" y1="136.65" x2="245.29" y2="87.33" xlink:href="#linear-gradient-5"/><filter id="luminosity-noclip-8" x="116.12" y="91.23" width="31.91" height="50.66" filterUnits="userSpaceOnUse" color-interpolation-filters="sRGB"><feFlood flood-color="#fff" result="bg"/><feBlend in="SourceGraphic" in2="bg"/></filter><mask id="mask-8" x="116.12" y="91.23" width="31.91" height="50.66" maskUnits="userSpaceOnUse"><g class="cls-7"><path class="cls-8" d="M119.5,91.23,148,141.75c-1.36.08-2.74.13-4.12.14L116.12,92.67A21,21,0,0,1,119.5,91.23Z"/></g></mask><linearGradient id="linear-gradient-8" x1="266.47" y1="91.74" x2="238.8" y2="141.92" xlink:href="#linear-gradient-5"/></defs><title>Asset 5</title><g class="cls-9"><g id="Layer_2" data-name="Layer 2"><g id="Layer_1-2" data-name="Layer 1"><path class="cls-10" d="M120.75,295.92H266.54c6.24,0,11.31,5.36,11.31,12V382c0,48.11-.17,89.87-.17,89.87H249v-88a64.16,64.16,0,0,0-13.62-38.81l-40.84-2-.88,0-.88,0-40.84,2a64.16,64.16,0,0,0-13.62,38.81v88h-28.7s-.17-41.75-.17-89.87V307.9C109.44,301.28,114.5,295.92,120.75,295.92Z"/><path class="cls-11" d="M109.11,471.85c0-.42-.17-42.31-.17-89.87V307.9c0-6.88,5.3-12.48,11.81-12.48H266.54c6.51,0,11.81,5.6,11.81,12.48V382c0,47.56-.17,89.45-.17,89.87v.5h-29.7V383.89c0-21.38-11.95-36.6-13.36-38.32l-40.57-1.95-.93,0-.83,0-40.63,1.95c-1.41,1.72-13.36,16.95-13.36,38.32v88.46h-29.7Zm28.7-88c0-23,13.6-39,13.74-39.14l.14-.16,41.11-2,.82,0,.93,0,40.84,2h.21l.14.16c.14.16,13.74,16.15,13.74,39.14v87.46h27.7c0-4.87.17-44.61.17-89.37V307.9c0-6.33-4.85-11.48-10.81-11.48H120.75c-6,0-10.81,5.15-10.81,11.48V382c0,44.76.15,84.49.17,89.37h27.7Z"/><path class="cls-12" d="M130.65,470.79V402.28c0-3.22-5.06,8.66-5.06,8.66,0-.59,5.06-17.14,5.06-17.14,0-23.07,2.17-44,10.2-47s44.25-4.71,44.25-4.71l.88,0,.88,0,40.85,2s.21.25.58.72l-33.77-1.62-.88,0-.88,0-40.85,2a64.16,64.16,0,0,0-13.62,38.81v88H109.6s0-.36,0-1.06Z"/><path class="cls-12" d="M270,470.79s.17-41.75.17-89.87V352c0-8.41-12.58-15-16.09-20.37-4.62-7-3.19-19.42-3.19-19.42s0,20.12,19.28,27.4V306.84a12,12,0,0,0-6.67-10.92h3c6.24,0,11.31,5.36,11.31,12V382c0,48.11-.17,89.87-.17,89.87H249v-1.06Z"/><path class="cls-12" d="M245.81,362.29s7.59,14.5,13.26,38c0,0-7.33-16.51-10.1-20.56A141.27,141.27,0,0,0,245.81,362.29Z"/><path class="cls-12" d="M121.26,300.36,184.08,332l10.67-19.54L203.29,332,268,300.36a39.25,39.25,0,0,1,5.33-2l-70.09,41.71-8.54-19.54-10.67,19.54L114.8,297.71A25,25,0,0,1,121.26,300.36Z"/><path class="cls-13" d="M140.75,456.85c0-3.22-4.16-2.35-8.77-2.35-6.62,0-19.76.74-23-.18s-.23,4.7-.23,8.59c0,3.58-.26,6.43-.26,8.94,0,1.92,20.88-2,29.38,1.8,3.4,1.52,3.07-2.56,2.84-5.87C140.45,463.76,140.75,461.41,140.75,456.85Z"/><path class="cls-11" d="M137.68,474.11c-2.55-1.14-6.55-1.69-12.24-1.69-3.1,0-6.2.16-8.94.3-2.09.11-3.9.2-5.29.2-1.69,0-3.2-.08-3.2-1.06,0-1.16.06-2.39.11-3.7.07-1.55.15-3.3.15-5.24a20.35,20.35,0,0,0-.71-4.33c-.48-2-.85-3.6-.22-4.4a1.62,1.62,0,0,1,1.8-.34,32.76,32.76,0,0,0,7,.45c2.74,0,5.83-.08,8.82-.15,2.62-.07,5.08-.13,7-.13.84,0,1.66,0,2.44-.06s1.42,0,2.07,0c1.66,0,4.76,0,4.76,3,0,1.68,0,3.07-.08,4.35a61.56,61.56,0,0,0,.05,6.56v.16c.16,2.4.33,4.88-.72,6a1.79,1.79,0,0,1-1.36.57A3.65,3.65,0,0,1,137.68,474.11Zm-3.22-19.17c-.8,0-1.63.06-2.48.06-1.91,0-4.37.06-7,.13-3,.08-6.09.15-8.84.15a32.69,32.69,0,0,1-7.3-.48c-.47-.13-.7,0-.74,0-.33.42.08,2.15.41,3.55a21,21,0,0,1,.74,4.56c0,2-.08,3.72-.15,5.28-.06,1.25-.11,2.43-.11,3.53a6.82,6.82,0,0,0,2.2.2c1.36,0,3.16-.09,5.24-.2,2.75-.14,5.86-.3,9-.3,5.83,0,10,.58,12.65,1.78.81.36,1.37.39,1.7,0,.75-.8.58-3.26.45-5.24v-.16a62.41,62.41,0,0,1-.05-6.65c0-1.27.08-2.64.08-4.32,0-1.46-.95-2-3.76-2C135.86,454.9,135.17,454.92,134.46,454.94Z"/><path class="cls-14" d="M135.32,461s-3.63,1.54-14,.11"/><path class="cls-11" d="M135.32,461s-.22,0-.6.08c-.18,0-.43,0-.69.06s-.56,0-.89,0l-1.05,0c-.37,0-.77,0-1.17,0s-.83,0-1.25,0l-1.3,0c-.87,0-1.74-.07-2.56-.07-.41,0-.81,0-1.18,0l-1.06,0c-1.32,0-2.21,0-2.21,0s.85.27,2.15.53a17.71,17.71,0,0,0,2.24.36c.83.08,1.71.18,2.6.19h1.33a9.92,9.92,0,0,0,1.29-.08,14.6,14.6,0,0,0,2.26-.35,6.06,6.06,0,0,0,.88-.24,5.81,5.81,0,0,0,.67-.24A4.41,4.41,0,0,0,135.32,461Z"/><path class="cls-14" d="M133.92,467s-13.22-2.66-21.46-2.85"/><path class="cls-11" d="M133.92,467s-1.29-.43-3.28-.89c-1-.24-2.15-.49-3.4-.74s-2.6-.43-3.94-.64-2.69-.36-4-.49-2.47-.1-3.49-.11-1.87,0-2.46,0l-.93,0,.92.17c.59.09,1.43.24,2.43.38s2.17.28,3.43.42,2.58.41,3.92.6l2,.26c.66.08,1.31.15,1.94.25,1.25.18,2.43.33,3.44.44L133,467Z"/><path class="cls-13" d="M246.65,457.48c0-3.22,4.16-2.35,8.77-2.35,6.62,0,19.76.75,23-.18s.23,4.7.23,8.59c0,3.58.26,6.43.26,8.94,0,1.92-20.88-2-29.38,1.8-3.4,1.52-3.07-2.56-2.84-5.87C247,464.38,246.65,462,246.65,457.48Z"/><path class="cls-11" d="M246.89,474.53c-1-1.12-.88-3.6-.72-6v-.16a61.5,61.5,0,0,0,.05-6.55c0-1.28-.08-2.66-.08-4.35,0-3,3.1-3,4.76-3,.65,0,1.34,0,2.07,0s1.6.06,2.44.06c1.92,0,4.4.06,7,.13,3,.08,6.08.15,8.82.15a32.79,32.79,0,0,0,7-.44,1.62,1.62,0,0,1,1.8.34c.63.8.26,2.39-.22,4.4a20.38,20.38,0,0,0-.71,4.33c0,1.94.08,3.69.15,5.24.06,1.31.11,2.55.11,3.7,0,1-1.51,1.06-3.2,1.06-1.39,0-3.2-.09-5.29-.2-2.74-.14-5.84-.3-8.94-.3-5.69,0-9.69.55-12.24,1.69a3.65,3.65,0,0,1-1.48.37h0A1.79,1.79,0,0,1,246.89,474.53Zm24.07-2.2c2.08.11,3.88.2,5.24.2a6.85,6.85,0,0,0,2.2-.19c0-1.1-.06-2.28-.11-3.53-.07-1.56-.15-3.32-.15-5.28a21.07,21.07,0,0,1,.74-4.56c.33-1.39.74-3.13.41-3.55,0,0-.27-.13-.74,0a32.66,32.66,0,0,1-7.29.48c-2.76,0-5.85-.08-8.85-.15-2.61-.07-5.08-.13-7-.13-.85,0-1.68,0-2.47-.06s-1.4,0-2,0c-2.81,0-3.76.49-3.76,2,0,1.67,0,3,.08,4.32a62.33,62.33,0,0,1-.05,6.65v.16c-.13,2-.3,4.44.45,5.24a.8.8,0,0,0,.63.25h0a2.75,2.75,0,0,0,1.07-.28C252,472.62,256.13,472,262,472,265.09,472,268.21,472.2,271,472.34Z"/><path class="cls-14" d="M252.09,461.67s3.63,1.54,14,.11"/><path class="cls-11" d="M252.09,461.67a4.41,4.41,0,0,0,.55.27,10.35,10.35,0,0,0,1.55.48,14.38,14.38,0,0,0,2.26.35,9.74,9.74,0,0,0,1.29.08h1.33c.89,0,1.77-.11,2.6-.19a17.68,17.68,0,0,0,2.24-.36c1.3-.27,2.15-.53,2.15-.53s-.9-.07-2.21,0l-1.06,0c-.37,0-.77,0-1.18,0-.82,0-1.69.08-2.56.07l-1.3,0c-.43,0-.85,0-1.25,0s-.8,0-1.17,0l-1,0c-.33,0-.63,0-.89,0s-.5,0-.69-.06C252.31,461.71,252.09,461.67,252.09,461.67Z"/><path class="cls-14" d="M253.49,467.66s13.22-2.66,21.45-2.85"/><path class="cls-11" d="M253.49,467.66l.93-.08,2.45-.25c1-.11,2.19-.26,3.44-.44.63-.1,1.28-.17,1.94-.25l2-.26c1.34-.2,2.67-.39,3.92-.6s2.42-.27,3.43-.42,1.84-.29,2.43-.38l.92-.17-.93,0c-.59,0-1.44,0-2.46,0s-2.21.05-3.49.11-2.61.31-4,.49-2.69.36-3.94.64-2.41.5-3.4.74C254.79,467.24,253.49,467.66,253.49,467.66Z"/><path class="cls-15" d="M81.19,495.65c3,5.41,24,11.51,38.4,7.5a96.55,96.55,0,0,0,17.69-7.21,117.66,117.66,0,0,1,11.66-5.21s1,.1,1,5.62c0,1.38-5,2.2-8.53,3.78-5.83,2.59-14.52,8.72-21.24,11.86-17.16,8-42-3.83-41.77-7.06C78.68,501.07,80.27,494,81.19,495.65Z"/><path class="cls-16" d="M118.24,509.85c6.71-3.13,15.41-9.27,21.24-11.86,3.54-1.57,8-2.16,8-3.54a29.59,29.59,0,0,0-.15-3.2,14.92,14.92,0,0,1,1.59-.53s1,.1,1,5.62c0,1.38-5,2.2-8.53,3.78-5.83,2.59-14.52,8.72-21.24,11.86-16.9,7.89-41.23-3.47-41.74-6.9C84.57,509.51,104,516.48,118.24,509.85Z"/><path class="cls-17" d="M81.16,495.65a25,25,0,0,1,2.1-3.72c3.73-5.48,11.4-8.21,16.18-9.4s5.41-23.48,6.06-24.49,18.94-.48,20.12,6.15l5.68-7.31,12.28,2.71,4.85,31.2c-5.57,2.3-16.72,8.72-28.71,12.3C103.66,507.9,83.71,500.39,81.16,495.65Z"/><path class="cls-18" d="M112.54,499c12-3.58,23.14-10,28.71-12.3L136.77,458l6.82,1.51,4.85,31.2c-5.57,2.3-16.72,8.72-28.71,12.3-14.36,4.29-31.82-1.25-37.18-5.87C90.43,500.15,102.27,502.11,112.54,499Z"/><path class="cls-19" d="M80.72,495.89l-.11-.21.1-.22a25.25,25.25,0,0,1,2.15-3.8c3.92-5.75,12-8.49,16.47-9.6,3.21-.8,4.5-13.63,5.12-19.79.33-3.29.44-4.16.65-4.49s.41-.63,3.49-.63c4.26,0,15.12,1.11,17.24,6l5.29-6.8L144,459.18l5,31.93-.36.15c-1.66.69-3.84,1.75-6.37,3-5.89,2.88-14,6.82-22.39,9.33a39.9,39.9,0,0,1-11.4,1.56h0C95.26,505.15,82.73,499.61,80.72,495.89ZM143.15,460l-11.64-2.57-6.18,7.95-.2-1.11c-.8-4.47-10.58-6.14-16.56-6.14a10,10,0,0,0-2.66.22c-.13.47-.3,2.18-.48,4-1,9.53-2.28,19.76-5.87,20.66-4.33,1.08-12.15,3.72-15.88,9.2a25.65,25.65,0,0,0-2,3.41c2.24,3.51,14.13,8.53,26.75,8.53a38.87,38.87,0,0,0,11.12-1.52c8.35-2.49,16.38-6.41,22.24-9.27,2.36-1.15,4.43-2.16,6.06-2.86Z"/><path class="cls-19" d="M107.54,502.11c11.67.92,34.78-10.29,40.82-11.85l.09.56c-5.57,2.3-16.72,8.72-28.71,12.3-16.07,4.8-36-2.71-38.57-7.45a11.12,11.12,0,0,1,.76-1.71C93.08,501.18,102.36,501.7,107.54,502.11Z"/><path class="cls-18" d="M125.59,465.06s-5.89,21-10.78,23.77-2.18-6.72-16.77-5.4c0,0,5-1.43,6.61-15.55.54-4.75,15.16,1.08,15.16,1.08A7,7,0,0,0,125.59,465.06Z"/><path class="cls-19" d="M144.53,465.62l-12.89-1.54h0l0,0a11.68,11.68,0,0,0-2.09,2.32,21.67,21.67,0,0,0-1.58,2.68,27.59,27.59,0,0,0-1.2,2.87c-.35,1-.63,2-.89,3s-.46,2-.62,3-.33,2-.57,3a24.85,24.85,0,0,1-.87,2.92,19.37,19.37,0,0,1-1.28,2.75,14.63,14.63,0,0,1-1.73,2.47,12,12,0,0,1-2.2,2,11.11,11.11,0,0,1-2.62,1.43,18.38,18.38,0,0,0-2.87,1.31,12.86,12.86,0,0,0-4.52,4.44,13.58,13.58,0,0,0-1.32,2.91,11.44,11.44,0,0,0-.56,3.18h1a10.49,10.49,0,0,1,.48-2.89,12.63,12.63,0,0,1,1.19-2.72,12,12,0,0,1,4.16-4.18,17.68,17.68,0,0,1,2.73-1.28,11.82,11.82,0,0,0,2.77-1.57,12.68,12.68,0,0,0,2.3-2.18A15.23,15.23,0,0,0,123,487a20,20,0,0,0,1.27-2.87,25.62,25.62,0,0,0,.85-3c.23-1,.36-2,.53-3.06s.34-2,.55-3,.5-2,.83-3a27.08,27.08,0,0,1,1.13-2.85,21.36,21.36,0,0,1,1.51-2.66,11.42,11.42,0,0,1,2-2.3l-.08,0Z"/><path class="cls-19" d="M126.37,472.87l.09.27c.06.19.16.45.3.78a14.94,14.94,0,0,0,1.37,2.55,16,16,0,0,0,1.16,1.55c.22.26.48.5.72.77a6.45,6.45,0,0,0,.8.75l.88.72,1,.63.5.32.54.25,1.08.5c.75.25,1.5.5,2.26.67s1.51.28,2.25.32l2.12.05,1.88-.19.83-.09.74-.16,1.2-.26,1-.23-1.05.19-1.21.21-.74.13-.83.05-1.87.11-2.08-.13c-.72-.06-1.44-.27-2.18-.4s-1.44-.47-2.16-.74l-1-.52-.5-.26-.46-.32-.91-.63-.81-.72a6,6,0,0,1-.73-.74c-.22-.26-.46-.49-.66-.75a15.28,15.28,0,0,1-1-1.51,13.92,13.92,0,0,1-1.19-2.45c-.12-.31-.19-.55-.24-.71s-.07-.26-.07-.26Z"/><path class="cls-19" d="M121.33,502.09l1,0C122,494.56,118,492,117.8,491.87l-.53.85S121,495.16,121.33,502.09Z"/><path class="cls-19" d="M125.63,464.19l-1.43,4.27c-.42,1.28-1,2.76-1.53,4.34s-1.19,3.26-1.88,4.91-1.39,3.29-2.13,4.79c-.38.75-.75,1.46-1.12,2.13s-.76,1.28-1.13,1.83-.75,1-1.09,1.45a10.46,10.46,0,0,1-1,1,7.3,7.3,0,0,1-.69.59l-.26.2.29-.15a5,5,0,0,0,.79-.48,10.54,10.54,0,0,0,1.11-.91,13.34,13.34,0,0,0,1.27-1.37,26.75,26.75,0,0,0,2.58-3.89c.41-.75.82-1.53,1.19-2.34s.74-1.64,1.09-2.48c.67-1.68,1.28-3.39,1.78-5s.9-3.15,1.23-4.46.53-2.43.69-3.2S125.63,464.19,125.63,464.19Z"/><circle cx="131.81" cy="462.08" r="0.97"/><path class="cls-20" d="M130.36,462a1.28,1.28,0,1,0,1.28-1.28A1.28,1.28,0,0,0,130.36,462Zm.5.07a1,1,0,1,1,1,1A1,1,0,0,1,130.86,462.06Z"/><path class="cls-21" d="M130.81,461.94a1,1,0,0,1,1.88-.31,1,1,0,0,0-1.77.74A1,1,0,0,1,130.81,461.94Z"/><path class="cls-21" d="M131.59,463.15a1.28,1.28,0,0,0,1.28-1.28,1.29,1.29,0,0,0-.08-.43,1.28,1.28,0,1,1-2.35,1A1.28,1.28,0,0,0,131.59,463.15Z"/><circle cx="123.58" cy="475.58" r="0.97"/><path class="cls-20" d="M125,475.67a1.28,1.28,0,1,0-1.28,1.28A1.28,1.28,0,0,0,125,475.67Zm-.5-.07a1,1,0,1,1-1-1A1,1,0,0,1,124.54,475.59Z"/><path class="cls-21" d="M124.59,475.72a1,1,0,0,1-1.88.31,1,1,0,0,0,1.77-.74A1,1,0,0,1,124.59,475.72Z"/><path class="cls-21" d="M123.81,474.51a1.28,1.28,0,0,0-1.28,1.28,1.29,1.29,0,0,0,.08.43,1.28,1.28,0,1,1,2.35-1A1.28,1.28,0,0,0,123.81,474.51Z"/><circle cx="122.73" cy="479.91" r="0.97"/><path class="cls-20" d="M124.18,480a1.28,1.28,0,1,0-1.28,1.28A1.28,1.28,0,0,0,124.18,480Zm-.5-.07a1,1,0,1,1-1-1A1,1,0,0,1,123.68,479.93Z"/><path class="cls-21" d="M123.73,480.05a1,1,0,0,1-1.88.31,1,1,0,0,0,1.77-.74A1,1,0,0,1,123.73,480.05Z"/><path class="cls-21" d="M122.95,478.85a1.27,1.27,0,0,0-1.2,1.71,1.28,1.28,0,1,1,2.35-1A1.28,1.28,0,0,0,122.95,478.85Z"/><circle cx="121.25" cy="483.78" r="0.97"/><path class="cls-20" d="M122.7,483.87a1.28,1.28,0,1,0-1.28,1.28A1.28,1.28,0,0,0,122.7,483.87Zm-.5-.07a1,1,0,1,1-1-1A1,1,0,0,1,122.2,483.8Z"/><path class="cls-21" d="M122.25,483.92a1,1,0,0,1-1.88.31,1,1,0,0,0,1.77-.74A1,1,0,0,1,122.25,483.92Z"/><path class="cls-21" d="M121.47,482.72a1.28,1.28,0,0,0-1.28,1.28,1.29,1.29,0,0,0,.08.43,1.28,1.28,0,1,1,2.35-1A1.28,1.28,0,0,0,121.47,482.72Z"/><circle cx="118.26" cy="488.25" r="0.97"/><path class="cls-20" d="M119.71,488.34a1.28,1.28,0,1,0-1.28,1.28A1.28,1.28,0,0,0,119.71,488.34Zm-.5-.07a1,1,0,1,1-1-1A1,1,0,0,1,119.22,488.27Z"/><path class="cls-21" d="M119.27,488.39a1,1,0,0,1-1.88.31,1,1,0,0,0,1.77-.74A1,1,0,0,1,119.27,488.39Z"/><path class="cls-21" d="M118.48,487.18a1.27,1.27,0,0,0-1.2,1.71,1.28,1.28,0,1,1,2.35-1A1.28,1.28,0,0,0,118.48,487.18Z"/><path class="cls-10" d="M101,477.65s14.75-2.5,20.77,5.48c0,0,.2,1.46-.56,1.14s-11.67-6.37-20.48-3.47c0,0-1.2.09-1-1.65S101,477.65,101,477.65Z"/><path class="cls-22" d="M99.76,479.14a2.52,2.52,0,0,1,.3-1s0,.06,0,.1c-.22,1.74,1,1.65,1,1.65,8.81-2.9,19.72,3.14,20.48,3.47a.37.37,0,0,0,.31,0c0,.41,0,1.11-.58.87-.76-.33-11.67-6.37-20.48-3.47C100.75,480.79,99.55,480.88,99.76,479.14Z"/><path class="cls-10" d="M103.1,469.83s14.71-2.31,20.72,5.06c0,0,.2,1.35-.56,1.05s-11.64-5.89-20.43-3.21c0,0-1.2.08-1-1.53S103.1,469.83,103.1,469.83Z"/><path class="cls-22" d="M101.85,471.2a2.17,2.17,0,0,1,.31-.92v0c-.22,1.61,1,1.53,1,1.53,8.78-2.69,19.67,2.9,20.43,3.21a.42.42,0,0,0,.28,0c0,.36,0,1.09-.58.86-.76-.3-11.64-5.89-20.43-3.21C102.83,472.73,101.63,472.82,101.85,471.2Z"/><path class="cls-10" d="M102.39,474.08s14.52-2.39,20.44,5.24c0,0,.2,1.4-.55,1.09s-11.49-6.1-20.15-3.32c0,0-1.18.09-1-1.58S102.39,474.08,102.39,474.08Z"/><path class="cls-22" d="M101.16,475.5a2.33,2.33,0,0,1,.3-.95s0,0,0,.06c-.21,1.67,1,1.58,1,1.58,8.67-2.78,19.4,3,20.15,3.32a.39.39,0,0,0,.29,0c0,.38,0,1.1-.57.86-.75-.31-11.49-6.1-20.15-3.32C102.13,477.09,100.95,477.17,101.16,475.5Z"/><path class="cls-10" d="M98.65,480s14.94-.86,20,7.73c0,0,0,1.48-.69,1.07s-10.9-7.62-20-5.7c0,0-1.2,0-.79-1.75S98.65,480,98.65,480Z"/><path class="cls-22" d="M97.24,481.38a2.89,2.89,0,0,1,.25-.67c-.25,1.48.83,1.54.83,1.54,9.07-1.92,19.25,5.3,20,5.71a.34.34,0,0,0,.4,0c0,.38-.12,1.19-.68.87-.72-.41-10.9-7.62-20-5.71C98,483.13,96.84,483.09,97.24,481.38Z"/><path class="cls-10" d="M131.73,461.77s5.88,1.6,1.31,10.31-2.72,12.66,3.59,14.49c5.66,1.63,15.25-6.86,22.11,3.7,0,0,0,1.74-1.42,1.2s-3.81-4.68-7-4.47-9.5,2.71-14.16,1.28c-9.09-2.79-7.87-8.27-5.69-14.3,2.48-6.85,1.31-10.08.83-11.43C131.11,461.9,131.42,461.69,131.73,461.77Z"/><path class="cls-22" d="M130.51,474c2.68-7.4,1.19-10.24.76-11.74-.11-.39.18-.55.46-.47a4.28,4.28,0,0,1,1.47.84c.45,1.37.32,3.8-2.11,10.54-2.18,6-3.4,11.51,5.69,14.3,4.66,1.43,11-1.06,14.16-1.28s5.55,3.92,7,4.47a1.07,1.07,0,0,0,.78,0c-.1.48-.4,1.16-1.36.79-1.42-.54-3.81-4.68-7-4.47s-9.5,2.71-14.16,1.28C127.11,485.48,128.33,480,130.51,474Z"/><path class="cls-16" d="M158.59,490.6l2,1.92-.34.63-2-1.83A.56.56,0,0,1,158.59,490.6Z"/><path class="cls-23" d="M158.54,490.61a.64.64,0,0,0-.06.49l1.9,1.74-.16.29-2-1.83A.57.57,0,0,1,158.54,490.61Z"/><path class="cls-10" d="M104.52,461.43s-5,1.82-7.36,11.3-5.61,10.46-11,8.55-10.25.17-11.86,1.7.27,2.24,1.62,1.47,7.15-3.12,10.51-.95,10.87.7,12.54-10.38c1.35-8.94,5.47-10.88,5.47-10.88Z"/><path class="cls-22" d="M75.14,483.31c1.35-.76,7.15-3.12,10.51-.95s10.87.7,12.54-10.38a24.19,24.19,0,0,1,1.5-5.63c2.31-3.95,4.83-4.88,4.83-4.88l-.08.82s-4.13,1.94-5.47,10.88c-1.67,11.08-9.17,12.55-12.54,10.38s-9.17.19-10.51.95c-1.16.66-2.71.22-2.1-.89A2.33,2.33,0,0,0,75.14,483.31Z"/><path class="cls-16" d="M73.89,483.76l-2.25,1.58.24.67,2.26-1.49A.56.56,0,0,0,73.89,483.76Z"/><path class="cls-23" d="M73.95,483.78a.65.65,0,0,1,0,.5l-2.16,1.42.11.31,2.26-1.49A.57.57,0,0,0,73.95,483.78Z"/><path class="cls-10" d="M282.69,461.07s5.88,1.6,1.31,10.31-2.72,12.66,3.59,14.49c5.66,1.63,15.25-6.86,22.11,3.7,0,0,0,1.74-1.42,1.2s-3.81-4.68-7-4.47-9.5,2.71-14.16,1.28c-9.09-2.79-7.87-8.27-5.69-14.3,2.48-6.85,1.31-10.08.83-11.43C282.07,461.2,282.37,461,282.69,461.07Z"/><path class="cls-22" d="M281.46,473.27c2.68-7.4,1.19-10.24.76-11.74-.11-.39.18-.55.46-.47a4.28,4.28,0,0,1,1.47.84c.45,1.37.32,3.8-2.11,10.54-2.18,6-3.4,11.51,5.69,14.3,4.66,1.43,11-1.06,14.16-1.28s5.55,3.92,7,4.47a1.07,1.07,0,0,0,.78,0c-.1.48-.4,1.16-1.36.79-1.42-.54-3.81-4.68-7-4.47s-9.5,2.71-14.16,1.28C278.06,484.78,279.28,479.29,281.46,473.27Z"/><path class="cls-16" d="M309.55,489.9l2,1.92-.34.63-2-1.83A.56.56,0,0,1,309.55,489.9Z"/><path class="cls-23" d="M309.49,489.91a.64.64,0,0,0-.06.49l1.9,1.74-.16.29-2-1.83A.57.57,0,0,1,309.49,489.91Z"/><path class="cls-15" d="M306.35,497.78c-3,5.41-24,11.51-38.4,7.5a96.55,96.55,0,0,1-17.69-7.21,117.67,117.67,0,0,0-11.66-5.21s-1,.1-1,5.62c0,1.38,5,2.2,8.53,3.78,5.83,2.59,14.52,8.72,21.24,11.86,17.16,8,42-3.83,41.77-7.06C308.86,503.2,307.26,496.13,306.35,497.78Z"/><path class="cls-16" d="M269.3,512c-6.71-3.13-15.41-9.27-21.24-11.86-3.54-1.57-8-2.16-8-3.54a29.56,29.56,0,0,1,.15-3.2,14.94,14.94,0,0,0-1.59-.53s-1,.1-1,5.62c0,1.38,5,2.2,8.53,3.78,5.83,2.59,14.52,8.72,21.24,11.86,16.9,7.89,41.23-3.47,41.74-6.9C303,511.64,283.51,518.61,269.3,512Z"/><path class="cls-17" d="M306.37,497.78a25,25,0,0,0-2.1-3.72c-3.73-5.48-11.4-8.21-16.18-9.4s-5.41-23.48-6.06-24.49-18.94-.48-20.12,6.15L256.23,459l-12.28,2.71-4.85,31.2c5.57,2.3,16.72,8.72,28.71,12.3C283.87,510,303.83,502.52,306.37,497.78Z"/><path class="cls-18" d="M275,501.17c-12-3.58-23.14-10-28.71-12.3l4.48-28.79-6.82,1.51-4.85,31.2c5.57,2.3,16.72,8.72,28.71,12.3,14.36,4.29,31.82-1.25,37.18-5.87C297.1,502.28,285.26,504.24,275,501.17Z"/><path class="cls-19" d="M279.06,507.28h0a39.9,39.9,0,0,1-11.4-1.56c-8.43-2.52-16.5-6.46-22.39-9.33-2.53-1.23-4.71-2.3-6.37-3l-.36-.15,5-31.93,12.92-2.86,5.29,6.8c2.13-4.88,13-6,17.24-6,3.08,0,3.36.42,3.49.63s.32,1.2.65,4.49c.62,6.16,1.91,19,5.12,19.79,4.47,1.12,12.55,3.85,16.47,9.6a25.25,25.25,0,0,1,2.15,3.8l.1.22-.11.21C304.81,501.75,292.28,507.28,279.06,507.28Zm-39.42-14.65c1.63.7,3.7,1.7,6.06,2.86,5.86,2.86,13.89,6.78,22.24,9.27a38.86,38.86,0,0,0,11.12,1.52c12.61,0,24.51-5,26.75-8.53a25.66,25.66,0,0,0-2-3.41c-3.73-5.48-11.55-8.11-15.88-9.2-3.59-.9-4.91-11.13-5.87-20.66-.18-1.81-.35-3.52-.48-4a10,10,0,0,0-2.67-.22c-6,0-15.76,1.67-16.56,6.14l-.2,1.11L256,459.57l-11.64,2.57Z"/><path class="cls-19" d="M280,504.24c-11.67.92-34.78-10.29-40.82-11.85l-.09.56c5.57,2.3,16.72,8.72,28.71,12.3,16.07,4.8,36-2.71,38.57-7.46a11.12,11.12,0,0,0-.76-1.71C294.46,503.32,285.17,503.83,280,504.24Z"/><path class="cls-18" d="M261.95,467.19s5.89,21,10.78,23.77,2.18-6.72,16.77-5.4c0,0-5-1.43-6.61-15.55-.54-4.75-15.16,1.09-15.16,1.09A7,7,0,0,1,261.95,467.19Z"/><path class="cls-19" d="M243,467.75l12.89-1.54h0l0,0a11.68,11.68,0,0,1,2.09,2.32,21.67,21.67,0,0,1,1.58,2.68,27.61,27.61,0,0,1,1.2,2.87c.35,1,.63,2,.89,3s.46,2,.62,3,.33,2,.57,3a24.84,24.84,0,0,0,.87,2.92,19.36,19.36,0,0,0,1.28,2.75,14.62,14.62,0,0,0,1.73,2.47,12,12,0,0,0,2.2,2,11.11,11.11,0,0,0,2.62,1.43,18.38,18.38,0,0,1,2.87,1.31,12.86,12.86,0,0,1,4.52,4.44,13.58,13.58,0,0,1,1.32,2.91,11.44,11.44,0,0,1,.56,3.18h-1a10.49,10.49,0,0,0-.48-2.89,12.64,12.64,0,0,0-1.19-2.72,12,12,0,0,0-4.16-4.18,17.68,17.68,0,0,0-2.73-1.28,11.82,11.82,0,0,1-2.77-1.57,12.67,12.67,0,0,1-2.3-2.18,15.24,15.24,0,0,1-1.76-2.61,20,20,0,0,1-1.27-2.87,25.57,25.57,0,0,1-.85-3c-.23-1-.36-2-.53-3.06s-.34-2-.55-3-.5-2-.83-3a27.07,27.07,0,0,0-1.13-2.85,21.35,21.35,0,0,0-1.51-2.66,11.42,11.42,0,0,0-2-2.3l.08,0Z"/><path class="cls-19" d="M261.17,475l-.09.27c-.06.19-.16.45-.3.78a15,15,0,0,1-1.37,2.55,16,16,0,0,1-1.16,1.55c-.22.26-.48.5-.72.77a6.45,6.45,0,0,1-.8.75l-.88.72-1,.63-.5.32-.54.25-1.08.5c-.75.25-1.5.5-2.26.67s-1.51.28-2.25.32l-2.12.05-1.88-.19-.83-.09-.74-.16-1.2-.26-1-.23,1.05.19,1.21.21.74.13.83.05,1.87.11,2.08-.13c.72-.06,1.44-.27,2.18-.4s1.44-.47,2.16-.74l1-.52.5-.26.46-.32.91-.63.81-.72a6.05,6.05,0,0,0,.73-.74c.22-.26.46-.49.66-.75a15.26,15.26,0,0,0,1-1.51,13.92,13.92,0,0,0,1.19-2.45c.12-.31.19-.55.24-.71s.07-.26.07-.26Z"/><path class="cls-19" d="M266.21,504.22l-1,0c.32-7.49,4.36-10.06,4.53-10.17l.53.85S266.51,497.29,266.21,504.22Z"/><path class="cls-19" d="M261.91,466.32l1.43,4.27c.42,1.28,1,2.76,1.53,4.34s1.19,3.26,1.88,4.91,1.39,3.29,2.13,4.79c.38.75.75,1.46,1.12,2.13s.76,1.28,1.13,1.83.75,1,1.09,1.45a10.44,10.44,0,0,0,1,1,7.28,7.28,0,0,0,.69.59l.26.2-.29-.15a5,5,0,0,1-.79-.48,10.54,10.54,0,0,1-1.11-.91,13.35,13.35,0,0,1-1.27-1.37A26.74,26.74,0,0,1,268.1,485c-.41-.75-.82-1.53-1.19-2.34s-.74-1.64-1.09-2.48c-.67-1.68-1.28-3.39-1.78-5s-.9-3.15-1.23-4.46-.53-2.43-.69-3.2S261.91,466.32,261.91,466.32Z"/><circle cx="255.73" cy="464.21" r="0.97"/><path class="cls-20" d="M255.9,462.83a1.28,1.28,0,1,0,1.28,1.28A1.28,1.28,0,0,0,255.9,462.83Zm-.18,2.32a1,1,0,1,1,1-1A1,1,0,0,1,255.71,465.16Z"/><path class="cls-21" d="M256.73,464.07a1,1,0,0,0-1.88-.31,1,1,0,0,1,1.77.74A1,1,0,0,0,256.73,464.07Z"/><path class="cls-21" d="M255.95,465.28a1.27,1.27,0,0,1-1.2-1.71,1.28,1.28,0,1,0,2.35,1A1.28,1.28,0,0,1,255.95,465.28Z"/><circle cx="263.95" cy="477.71" r="0.97"/><path class="cls-20" d="M263.78,479.08a1.28,1.28,0,1,0-1.28-1.28A1.28,1.28,0,0,0,263.78,479.08Zm.18-2.32a1,1,0,1,1-1,1A1,1,0,0,1,264,476.76Z"/><path class="cls-21" d="M262.95,477.85a1,1,0,0,0,1.88.31,1,1,0,0,1-1.77-.74A1,1,0,0,0,262.95,477.85Z"/><path class="cls-21" d="M263.73,476.64a1.28,1.28,0,0,1,1.28,1.28,1.3,1.3,0,0,1-.08.43,1.28,1.28,0,1,0-2.35-1A1.28,1.28,0,0,1,263.73,476.64Z"/><circle cx="264.81" cy="482.04" r="0.97"/><path class="cls-20" d="M264.64,483.42a1.28,1.28,0,1,0-1.28-1.28A1.28,1.28,0,0,0,264.64,483.42Zm.18-2.32a1,1,0,1,1-1,1A1,1,0,0,1,264.82,481.1Z"/><path class="cls-21" d="M263.81,482.18a1,1,0,0,0,1.88.31,1,1,0,0,1-1.77-.74A1,1,0,0,0,263.81,482.18Z"/><path class="cls-21" d="M264.59,481a1.28,1.28,0,0,1,1.28,1.28,1.29,1.29,0,0,1-.08.43,1.28,1.28,0,1,0-2.35-1A1.28,1.28,0,0,1,264.59,481Z"/><circle cx="266.29" cy="485.91" r="0.97"/><path class="cls-20" d="M266.12,487.29a1.28,1.28,0,1,0-1.28-1.28A1.28,1.28,0,0,0,266.12,487.29Zm.18-2.32a1,1,0,1,1-1,1A1,1,0,0,1,266.3,485Z"/><path class="cls-21" d="M265.29,486.05a1,1,0,0,0,1.88.31,1,1,0,0,1-1.77-.74A1,1,0,0,0,265.29,486.05Z"/><path class="cls-21" d="M266.07,484.85a1.27,1.27,0,0,1,1.2,1.71,1.28,1.28,0,1,0-2.35-1A1.28,1.28,0,0,1,266.07,484.85Z"/><circle cx="269.28" cy="490.38" r="0.97"/><path class="cls-20" d="M269.11,491.75a1.28,1.28,0,1,0-1.28-1.28A1.28,1.28,0,0,0,269.11,491.75Zm.18-2.32a1,1,0,1,1-1,1A1,1,0,0,1,269.29,489.43Z"/><path class="cls-21" d="M268.27,490.52a1,1,0,0,0,1.88.31,1,1,0,0,1-1.77-.74A1,1,0,0,0,268.27,490.52Z"/><path class="cls-21" d="M269.05,489.31a1.27,1.27,0,0,1,1.2,1.71,1.28,1.28,0,1,0-2.35-1A1.28,1.28,0,0,1,269.05,489.31Z"/><path class="cls-10" d="M286.52,479.78s-14.75-2.5-20.77,5.48c0,0-.2,1.46.56,1.14S278,480,286.79,482.92c0,0,1.2.09,1-1.65S286.52,479.78,286.52,479.78Z"/><path class="cls-22" d="M287.77,481.27a2.52,2.52,0,0,0-.3-1s0,.06,0,.1c.22,1.74-1,1.65-1,1.65-8.81-2.9-19.72,3.14-20.48,3.47a.37.37,0,0,1-.31,0c0,.41,0,1.11.58.87.76-.33,11.67-6.37,20.48-3.47C286.79,482.92,288,483,287.77,481.27Z"/><path class="cls-10" d="M284.44,472s-14.71-2.31-20.72,5.06c0,0-.2,1.35.56,1.05s11.64-5.89,20.43-3.21c0,0,1.2.08,1-1.53S284.44,472,284.44,472Z"/><path class="cls-22" d="M285.69,473.34a2.17,2.17,0,0,0-.31-.92v0c.22,1.61-1,1.53-1,1.53-8.78-2.69-19.67,2.9-20.43,3.21a.43.43,0,0,1-.28,0c0,.36,0,1.09.58.86.76-.3,11.64-5.89,20.43-3.21C284.71,474.86,285.91,474.95,285.69,473.34Z"/><path class="cls-10" d="M285.14,476.21s-14.52-2.39-20.44,5.24c0,0-.2,1.4.55,1.09s11.49-6.1,20.15-3.32c0,0,1.18.09,1-1.58S285.14,476.21,285.14,476.21Z"/><path class="cls-22" d="M286.38,477.64a2.33,2.33,0,0,0-.3-.95s0,0,0,.06c.21,1.67-1,1.58-1,1.58-8.67-2.78-19.4,3-20.15,3.32a.39.39,0,0,1-.29,0c0,.38,0,1.1.57.86.75-.31,11.49-6.1,20.15-3.32C285.41,479.22,286.59,479.3,286.38,477.64Z"/><path class="cls-10" d="M288.88,482.17s-14.94-.86-20,7.73c0,0,0,1.48.69,1.07s10.9-7.62,20-5.71c0,0,1.2,0,.79-1.75S288.88,482.17,288.88,482.17Z"/><path class="cls-22" d="M290.29,483.51a2.89,2.89,0,0,0-.25-.67c.25,1.48-.83,1.54-.83,1.54-9.07-1.92-19.25,5.3-20,5.71a.34.34,0,0,1-.4,0c0,.38.12,1.19.68.87.72-.41,10.9-7.62,20-5.71C289.5,485.26,290.7,485.22,290.29,483.51Z"/><path class="cls-10" d="M255.9,463.56s-5,1.82-7.36,11.3-5.61,10.46-11,8.55-10.25.17-11.86,1.7.27,2.24,1.62,1.47,7.15-3.12,10.51-.95,10.87.7,12.54-10.38c1.35-8.94,5.47-10.88,5.47-10.88Z"/><path class="cls-22" d="M226.51,485.44c1.35-.76,7.15-3.12,10.51-.95s10.87.7,12.54-10.38a24.18,24.18,0,0,1,1.5-5.63c2.31-3.95,4.83-4.88,4.83-4.88l-.08.82s-4.13,1.94-5.47,10.88c-1.67,11.08-9.17,12.55-12.54,10.38s-9.17.19-10.51.95c-1.16.66-2.71.22-2.1-.89A2.33,2.33,0,0,0,226.51,485.44Z"/><path class="cls-16" d="M225.27,485.89,223,487.47l.24.67,2.26-1.49A.56.56,0,0,0,225.27,485.89Z"/><path class="cls-23" d="M225.32,485.91a.65.65,0,0,1,0,.5l-2.16,1.42.11.31,2.26-1.49A.57.57,0,0,0,225.32,485.91Z"/><path class="cls-11" d="M247.51,345.34l-1.21-.14c-.79-.08-1.94-.24-3.41-.37-2.94-.28-7.15-.72-12.2-1.09s-11-.76-17.29-1.06c-3.17-.11-6.44-.28-9.76-.35s-6.71-.17-10.09-.17-6.76,0-10.09.05-6.61.14-9.78.3l-4.67.21-4.46.34c-1.45.12-2.86.2-4.22.34l-3.94.46-3.62.44-3.24.57c-2,.36-3.81.62-5.24,1-2.88.71-4.51,1.15-4.51,1.15l4.58-.76c1.44-.31,3.23-.44,5.27-.67l3.25-.35,3.62-.25,3.93-.27,4.21-.18,4.45-.19,4.65-.1,4.81-.1,4.93,0c3.32-.06,6.69,0,10.06,0s6.74.07,10.06.1l9.75.18,17.29.44Z"/><path class="cls-11" d="M235.45,344.56l.38.55c.26.35.58.91,1,1.59s1,1.51,1.54,2.51l1.93,3.3,2.1,4,1.14,2.18,1.09,2.33,2.3,4.87c.73,1.68,1.39,3.42,2.1,5.15s1.46,3.43,2.11,5.15l1.76,5.09c.56,1.65,1.14,3.24,1.68,4.75s.88,3,1.29,4.33c.77,2.69,1.46,4.92,1.93,6.49l.76,2.46L258,396.8c-.38-1.59-.89-3.87-1.57-6.6-.36-1.36-.66-2.85-1.13-4.39s-1-3.15-1.56-4.82L252,375.86c-.63-1.73-1.37-3.46-2.06-5.2s-1.42-3.47-2.18-5.15l-2.37-4.87-1.14-2.32-1.23-2.15-2.26-3.94-2.1-3.21c-.61-1-1.21-1.76-1.69-2.42C236.06,345.26,235.45,344.56,235.45,344.56Z"/><path class="cls-11" d="M152.42,344.56s-.61.71-1.57,2c-.48.66-1.08,1.46-1.69,2.42l-2.1,3.21-2.26,3.94-1.23,2.15-1.14,2.32-2.37,4.87c-.76,1.68-1.44,3.43-2.18,5.15s-1.43,3.47-2.06,5.2L134.12,381c-.56,1.66-1.07,3.28-1.56,4.82s-.78,3-1.13,4.39c-.68,2.72-1.19,5-1.57,6.6l-.57,2.51.76-2.46c.46-1.57,1.16-3.8,1.93-6.49.41-1.34.76-2.82,1.29-4.33s1.12-3.1,1.68-4.75l1.76-5.09c.64-1.72,1.41-3.42,2.11-5.15s1.37-3.47,2.1-5.15l2.3-4.87,1.09-2.33,1.14-2.18,2.1-4,1.93-3.3c.55-1,1.1-1.82,1.54-2.51s.77-1.24,1-1.59Z"/><path class="cls-11" d="M135.32,310.13s0,.61-.14,1.67-.33,2.57-.69,4.35a40.34,40.34,0,0,1-1.7,6c-.37,1.07-.85,2.13-1.35,3.21a29.29,29.29,0,0,1-1.74,3.13,28.44,28.44,0,0,1-2.08,2.91c-.39.44-.76.89-1.16,1.32s-.79.84-1.21,1.21a31.42,31.42,0,0,1-2.49,2.08l-1.24.87-1.21.73c-.79.44-1.53.84-2.19,1.16s-1.25.59-1.76.77l-1.57.61,1.63-.42c.52-.13,1.13-.38,1.84-.61a23.1,23.1,0,0,0,2.31-1l1.28-.68,1.32-.82a23.47,23.47,0,0,0,2.66-2,26.06,26.06,0,0,0,2.51-2.56,29.28,29.28,0,0,0,2.18-3,30.37,30.37,0,0,0,1.76-3.25,31.34,31.34,0,0,0,1.31-3.33,35.66,35.66,0,0,0,1.42-6.15,33.27,33.27,0,0,0,.34-4.44C135.38,310.74,135.32,310.13,135.32,310.13Z"/><path class="cls-11" d="M271.42,340.11l-1.57-.61c-.5-.18-1.08-.48-1.76-.77s-1.4-.72-2.19-1.15l-1.21-.73-1.24-.87a30.81,30.81,0,0,1-2.49-2.08c-.42-.37-.8-.8-1.21-1.21s-.76-.88-1.16-1.32a28.39,28.39,0,0,1-2.08-2.91,29.54,29.54,0,0,1-1.74-3.13c-.49-1.07-1-2.14-1.35-3.21a40.55,40.55,0,0,1-1.7-6c-.36-1.78-.59-3.29-.7-4.35s-.14-1.67-.14-1.67-.06.61-.05,1.68a33.21,33.21,0,0,0,.34,4.44,35.5,35.5,0,0,0,1.42,6.15,31.25,31.25,0,0,0,1.31,3.33,30.27,30.27,0,0,0,1.76,3.25,29.41,29.41,0,0,0,2.18,3,26.36,26.36,0,0,0,2.52,2.56,23.47,23.47,0,0,0,2.66,2l1.32.82,1.28.68a23.1,23.1,0,0,0,2.31,1c.71.24,1.32.48,1.84.61Z"/><path class="cls-24" d="M109.47,211.68c0,5.56,5.06,10.06,11.31,10.06h147c6.24,0,11.31-4.5,11.31-10.06V64.47c0-5.56-5.06-10.07-11.31-10.07h-147c-6.24,0-11.31,4.51-11.31,10.07Z"/><path class="cls-25" d="M114.28,219.41c.12.08.22.17.34.25h0a10.8,10.8,0,0,0,6.17,1.95H189c12.86,0,48.71,0,72.31,0h6.52c6.25,0,11.31-5.36,11.31-12V220c0,6.62-5.06,12-11.31,12h-6.52c-23.6,0-59.45,0-72.31,0H120.81a10.8,10.8,0,0,1-6.17-1.95h0c-.12-.08-.23-.17-.34-.25a10.15,10.15,0,0,1-3.2-3.68A12.44,12.44,0,0,1,109.5,220V209.64a12.45,12.45,0,0,0,1.58,6.09A10.15,10.15,0,0,0,114.28,219.41Z"/><path class="cls-26" d="M194.67,163s-3.3-7.21-17.43-7.21C167,155.83,152,166,144.19,166s-7-4.7-5-5.39c0,0-2-4.83-9.61-4.83-10.28,0-13.94,11.25-13.94,17s5.25,23.76,29.93,23.76S173.83,178,194.67,178Z"/><path class="cls-26" d="M194.67,163s3.3-7.21,17.43-7.21c10.22,0,25.24,10.22,33.05,10.22s7-4.7,5-5.39c0,0,2-4.83,9.61-4.83,10.28,0,13.93,11.25,13.93,17s-5.25,23.76-29.93,23.76S215.52,178,194.67,178Z"/><path class="cls-10" d="M129.56,155.83c7.6,0,9.61,4.83,9.61,4.83s-8.92-1.49-8.92,6.6c0,5.55,4.54,8.93,12.74,8.93,11.63,0,33.81-24.07,51.63-13.15v15c-20.85,0-24.39,18.51-49.07,18.51s-29.93-18.05-29.93-23.76S119.28,155.83,129.56,155.83Z"/><path class="cls-10" d="M246.25,176.19c8.19,0,12.74-3.37,12.74-8.93,0-8.1-8.92-6.6-8.92-6.6s2-4.83,9.61-4.83c10.28,0,13.93,11.25,13.93,17s-5.25,23.76-29.92,23.76S215.47,178,194.62,178V163C211.83,150.17,234.62,176.19,246.25,176.19Z"/><path class="cls-25" d="M117.46,164.61c2.82,15.79,10.93,24.73,27.61,24.73S174.2,171.48,194.62,178c-20.85,0-24.39,18.51-49.07,18.51s-29.93-18.05-29.93-23.76A22.89,22.89,0,0,1,117.46,164.61Z"/><path class="cls-25" d="M244.17,189.33c16.68,0,24.48-9.87,27.29-25.66,2.2,5.18,2.2,8.18,2.2,9.11,0,5.71-5.31,23.76-30,23.76S215.47,178,194.62,178C215,171.48,227.49,189.33,244.17,189.33Z"/><path class="cls-27" d="M179.33,160.19a11.31,11.31,0,0,0,11.31,11.31h8A11.31,11.31,0,0,0,210,160.19l-5.34-43.37c0-6.24-2.81-11.75-9.06-11.75h-2.45c-6.25,0-8.67,7.06-8.67,13.31Z"/><path class="cls-25" d="M179.36,160.72a11.39,11.39,0,0,0,11.33,10.72h8A11.32,11.32,0,0,0,210,160.19l0,5.33a11.31,11.31,0,0,1-11.31,11.31h-8a11.31,11.31,0,0,1-11.31-11.31Z"/><path class="cls-28" d="M190.63,171.49a11.31,11.31,0,0,1-11.31-11.31V160l.32-2.62a11.4,11.4,0,0,0,11,8.68h8a11.36,11.36,0,0,0,10.91-8.59l.34,2.75a11.22,11.22,0,0,1-11.28,11.23Z"/><path class="cls-28" d="M145.54,196.54c24.67,0,28.39-18.51,49-18.51S219,196.54,243.7,196.54c1.55,0,23.54.91,29.39-19.72,0,0-2.53,22.67-22,27a30.17,30.17,0,0,1-18-2.09C215.09,193.64,208.16,182,194.62,182s-20.47,11.69-38.38,19.76a30.18,30.18,0,0,1-18,2.09c-19.52-4.31-22-27-22-27C122.47,197.59,144,196.54,145.54,196.54Z"/><circle class="cls-11" cx="245.73" cy="116.09" r="6.69"/><circle class="cls-29" cx="243.17" cy="113.02" r="2.11"/><circle class="cls-29" cx="240.74" cy="116.09" r="0.86"/><circle class="cls-11" cx="148.13" cy="116.09" r="6.69"/><circle class="cls-29" cx="145.57" cy="113.02" r="2.11"/><circle class="cls-29" cx="143.14" cy="116.09" r="0.86"/><path class="cls-30" d="M96.62,104c.62,2.54,3.78,5.48,5.18,7.93,4.49,7.79,6.91,19.9,12.81,25.92,7.36,7.51,24.1,8.15,37.82,7.32,20.35-1.23,25.56-11.69,32-26.84,2.18-5.11,3.87-11.91,9-12.82h0a7.37,7.37,0,0,1,2.48,0h0c5.09.91,6.78,7.71,9,12.82,6.47,15.15,11.67,25.6,32,26.84,13.72.83,30.46.19,37.82-7.32,5.9-6,8.32-18.13,12.81-25.92,1.41-2.45,4.57-5.39,5.18-7.93,1.25-5.16-.12-11.7,0-16.77-19.23-7-49.45-7.23-70.75-2.75-3.6.72-16.31,4.85-17.38,5.18a30.91,30.91,0,0,1-8.66,1.35v0l-1.24,0-1.24,0v0a30.91,30.91,0,0,1-8.66-1.35c-1.08-.33-13.78-4.46-17.38-5.18-21.3-4.48-51.52-4.27-70.75,2.75C96.74,92.35,95.36,98.88,96.62,104Zm112.5-3.35c2.35-7.81,17.33-10.76,29.28-11.59,12.63-.88,33.6-.7,38.42,6.71,2.78,4.27,2,13.58.91,20.13-1.65,9.92-4.1,17.58-10.67,21.65-9.62,6-33.8,5.49-43.61,0-6.56-3.67-10.19-10.27-12.81-19.52C209.38,113.61,207.49,106.11,209.12,100.69Zm-96.65-4.88c4.83-7.41,25.79-7.58,38.42-6.71,11.95.83,26.93,3.78,29.28,11.59,1.63,5.42-.26,12.92-1.53,17.38-2.62,9.24-6.24,15.85-12.81,19.52-9.81,5.49-34,6-43.61,0-6.58-4.08-9-11.73-10.67-21.65C110.47,109.39,109.69,100.08,112.47,95.81Z"/><g class="cls-31"><path class="cls-32" d="M112.6,95.84c4.83-7.41,25.79-7.59,38.42-6.71C163,90,178,92.91,180.31,100.72c1.63,5.42-.26,12.92-1.53,17.38-2.62,9.24-6.24,15.85-12.81,19.52-9.81,5.49-34,6-43.61,0-6.58-4.08-9-11.73-10.67-21.65C110.6,109.42,109.82,100.11,112.6,95.84Z"/><path class="cls-32" d="M238.53,89.13c12.63-.88,33.6-.7,38.42,6.71,2.78,4.27,2,13.58.91,20.13-1.65,9.92-4.1,17.58-10.67,21.65-9.62,6-33.8,5.49-43.61,0-6.57-3.67-10.19-10.27-12.81-19.52-1.27-4.47-3.15-12-1.53-17.38C211.6,92.91,226.58,90,238.53,89.13Z"/></g><g class="cls-33"><path class="cls-34" d="M238.44,89.09A145.45,145.45,0,0,1,253,88.79l21.78,39c-1.67,4.2-4,7.53-7.66,9.78-2.77,1.72-6.74,2.9-11.23,3.58L227.56,90.43A96.8,96.8,0,0,1,238.44,89.09Z"/></g><g class="cls-35"><path class="cls-36" d="M219.3,92.57l27.52,49.31c-1.35,0-2.71,0-4.06-.06L216,93.93A31.52,31.52,0,0,1,219.3,92.57Z"/></g><g class="cls-37"><path class="cls-38" d="M150.91,89.09c1,.07,2.11.16,3.19.27L175.36,127a23.25,23.25,0,0,1-9.5,10.59,32,32,0,0,1-9.06,3l-28.91-51.2A124.49,124.49,0,0,1,150.91,89.09Z"/></g><g class="cls-39"><path class="cls-40" d="M119.5,91.23,148,141.75c-1.36.08-2.74.13-4.12.14L116.12,92.67A21,21,0,0,1,119.5,91.23Z"/></g><path class="cls-41" d="M109.47,129.69a28.71,28.71,0,0,0,5.16,8.13c7.36,7.51,24.1,8.15,37.82,7.32,20.35-1.23,25.56-11.69,32-26.84,2.18-5.11,3.87-11.91,9-12.82h0a7.41,7.41,0,0,1,2.48,0h0c5.09.91,6.78,7.71,9,12.82,6.47,15.15,11.67,25.6,32,26.84,13.72.83,30.46.19,37.82-7.32a21.57,21.57,0,0,0,4.41-6.56v3.6a21.53,21.53,0,0,1-4.41,6.56c-7.36,7.51-24.1,8.15-37.82,7.32-20.35-1.23-25.56-11.69-32-26.84-2.18-5.12-3.87-11.91-9-12.82h0a7.4,7.4,0,0,0-2.48,0h0c-5.09.91-6.78,7.71-9,12.82-6.46,15.15-11.67,25.6-32,26.84-13.72.83-30.46.19-37.82-7.32a28.71,28.71,0,0,1-5.16-8.13Z"/><path class="cls-17" d="M106.45,241.81s-7.37,19.81-23.77,19.81c-10.57,0-30.34-2.79-30.34-36.41H10.53s-1,63.92,66.12,56.91c28.44-3,40.55-23.84,43.2-37.16S106.45,241.81,106.45,241.81Z"/><path class="cls-42" d="M26.53,268.23c-16.71-17-16.5-42.76-16.5-43a.5.5,0,0,1,.5-.49H52.34a.5.5,0,0,1,.5.5c0,23.83,10,35.91,29.84,35.91,15.86,0,23.23-19.29,23.3-19.49a.51.51,0,0,1,.2-.25c.24-.15,6-3.79,10.18-3.79a4,4,0,0,1,3.31,1.34c1,1.23,1.24,3.29.67,6.13-3.09,15.55-16.38,34.71-43.64,37.56a96.49,96.49,0,0,1-10,.54C49.81,283.17,36.28,278.14,26.53,268.23Zm80.33-26.08c-.77,1.92-8.42,20-24.17,20-20.32,0-30.69-12.25-30.83-36.41H11c.06,3.63,1.06,26.43,16.21,41.82,11.38,11.55,28.06,16.32,49.35,14.1,26.72-2.79,39.74-21.55,42.76-36.76.5-2.52.34-4.31-.47-5.3a3.1,3.1,0,0,0-2.53-1C112.84,238.6,107.75,241.6,106.85,242.15Z"/><path class="cls-43" d="M11.25,233.79c0,.32.1.65.15,1h2.2v3.06h1v-3.06h5.15v5.83H14.59v-2.72h-1v2.72h-1c.08.31.16.62.24.93h.77v2.72q.51,1.68,1.14,3.41h5v5.06H16.83l.44.93h2.46v4.54c.32.54.66,1.07,1,1.6h5.36v3.08h1v-3.08h5.15v5.83H27.09v-2.72h-1v2.72h-.92l.85.93h.08v.08c.32.34.65.67,1,1v-1.08h5.15v5.15h-.51q.7.54,1.44,1.06v-.08h5.44V276l1,.5v-3.87h5.15v5.06H42.25q1.17.49,2.4.93h.09v0l.93.33v-.36H51.1v1.89l1,.22v-2.11h5.15v3l.93.1v-3.07H63.6v3.48l1,0v-3.52h5.15v3.49l.93,0v-3.46h5.9v3h0l.94-.12v-2.89H82.7v2l.93-.2v-1.85h5.44v.31c1.11-.38,2.18-.8,3.22-1.24H90v-5.06H95.2v3.72l.93-.49v-3.23h5.22c.45-.32.89-.65,1.32-1h-.12v-5.15h5.15v.65c.5-.52,1-1,1.46-1.58h-.53v-5.83h4.92q.8-1.26,1.5-2.52v-3.61h1.8c.14-.31.28-.62.41-.93H115v-5.06h4c.09-.33.19-.66.27-1H115v-5.15h5a6.56,6.56,0,0,0-.1-.93H115v-2.72h-.41l-.57.12v2.6h-5.44v-.46c-1.33.69-2.22,1.25-2.22,1.25l-.05.13h1.35v5.15h-3.9c-.19.32-.38.65-.59,1h4.49v5.06h-5.15v-4c-.31.46-.64.94-1,1.42v2.62H99.48q-.42.47-.86.94h2.94v5.15H98.63v0h-2.5v-2.79q-.45.38-.93.74v2.05H92a20.7,20.7,0,0,1-3,1.29v2.74h1v-3H95.2v3h.93v-3h5.44v3.06h1v-3.06h5.15v5.83h-5.15v-2.72h-1v2.72h-3v0H96.13V262.8H95.2v2.75H90v-2.72h-1v2.72H83.63v-2.75H82.7v2.75H77.55v-2.72h-1v2.72h-5.9v-5.83h1.17a27.26,27.26,0,0,1-2.77-1H64.58v-2.43q-.5-.34-1-.72v3.15H58.16v-5.15h3.18c-.29-.29-.57-.6-.85-.91H58.16v-3q-.48-.74-.93-1.54v4.57H52.09v-5.06H57c-.17-.32-.34-.65-.51-1H52.09v-5.15h2.39c-.09-.31-.2-.61-.28-.93H52.09v-5.83H53c0-.33-.1-.65-.14-1h-.76v-5.15h.32c0-.31,0-.61,0-.93h-.27v-2.95h-1v2.95H45.67v-3h-.93v3H39.59v-3h-1v3H33.17v-3h-.93v3H27.09v-3h-1v3H20.67v-3h-.93v3H14.59v-3h-1v3h-3c0,.29,0,.6.07.93h3v5.15Zm96.45,24.93h-5.15v-5.15h5.15Zm.93-5.15h5.44v5.15h-5.44Zm0-6h5.44v5.06h-5.44Zm0-6.13h5.44v5.15h-5.44Zm-12.5,25h5.44v5.15H96.13Zm-6.08,0H95.2v5.15H90Zm-6.42,6.15h5.44v5.06H83.63Zm0-6.13h3.06v0h2.38v5.15H83.63Zm-6.08,6.13H82.7v5.06H77.55Zm0-6.13H82.7v5.15H77.55Zm-6.88,6.13h5.9v5.06h-5.9Zm0-6.13h5.9v5.15h-5.9Zm-6.08,6.13h5.15v5.06H64.58Zm0-6.13h5.15v5.15H64.58Zm0-6.76h5.15v5.83H64.58v-5.83Zm-6.42,12.91h3.09v0H63.6v5.06H58.16Zm0-6.13H63.6v5.15H58.16Zm0-6.76H63.6v5.83H58.16v-5.83Zm-6.08,12.9h5.15v5.06H52.09Zm0-6.13h5.15v5.15H52.09Zm0-6.76h5.15v5.83H52.09v-5.83Zm0-6.13h5.15v5.15H52.09Zm-6.42,19H51.1v5.06H45.67Zm0-6.13H51.1v5.15H45.67Zm0-6.76H51.1v5.83H45.67v-5.84Zm0-6.13H51.1v5.15H45.67Zm0-6H51.1v5.06h-3v0H45.67Zm0-6.13H51.1v5.15H45.67Zm0-6.76h3.15v0H51.1v5.83H45.67v-5.83Zm0-6.13H51.1v5.15H45.67Zm-6.08,37.92h5.15v5.15H39.59Zm0-6.76h5.15v5.84H39.59v-5.84Zm0-6.13h5.15v5.15H39.59Zm0-6h5.15v5.06H39.59Zm0-6.13h5.15v5.15H39.59Zm0-6.76h5.15v5.83H39.59v-5.83Zm0-6.13h5.15v5.15H39.59Zm-6.42,37.93h3.06v0h2.38v5.15H33.17Zm0-6.76h5.44v5.84H33.17v-5.83Zm0-6.13h5.44v5.15H33.17Zm0-6h5.44v5.06H33.17Zm0-6.13h5.44v5.15H33.17Zm0-6.76h5.44v5.83H33.17v-5.83Zm0-6.13h5.44v5.15H33.17Zm-.93,5.15H27.09v-5.15h5.15Zm-5.15,19.87h5.15v5.15H27.09Zm0-6h5.15v5.06H27.09Zm0-6.13h5.15v5.15H27.09Zm-6.42,12.14h5.44v5.15H20.67Zm0-6h5.44v5.06H20.67Zm0-6.13h5.44v5.15H20.67Zm0-6.76h5.44v3.08h1v-3.08h5.15v5.83H27.09v-2.72h-1v2.72H20.67v-5.83Zm0-6.13h5.44v5.15H20.67Zm-.93,12.9v5.15H14.59v-5.15Zm-5.15-12.9h5.15v5.15H14.59Z"/><g class="cls-31"><path class="cls-44" d="M42.57,225.63h9.72c0,23.77,9.88,32.12,19.41,35C61,259.46,43,253.47,42.57,225.63Z"/><path class="cls-44" d="M70.66,279c27.44-7,32.86-22.57,35.51-35.89.5-2.51,8-3.07,7.37-4.14,3.88-1.08,7.64-.55,6.25,6.43-2.65,13.33-14.76,34.19-43.2,37.16-10.55,1.1-19.42.45-26.87-1.43C55.82,282,63,280.92,70.66,279Z"/></g><path class="cls-24" d="M.71,174.57v42.15a.47.47,0,0,0,.16.36s10.5,14.31,32.47,14.31c14.47,0,32.22-12.12,32.22-12.12a.47.47,0,0,0,.25-.5c0-.26-4.92-26.16.41-40.61a.47.47,0,0,0-.06-.43,9.39,9.39,0,0,0-3.67-1.66,19.37,19.37,0,0,0-4-.48.48.48,0,0,0,0-.1v-25s0-8.48-5.05-11.18c-6.26-3.37-9.77,0-9.77,0-.78-1.53-2.9-3.93-8.36-3.25-5,.63-6.88,3.67-7.51,5.27-1-1.12-3.35-2.7-8.11-.94-5.78,2.13-6.81,5.93-7,7.71a4.14,4.14,0,0,0-2.19-.48c-1.84.11-3.7,1.37-5.52,3.76-3.69,4.84-4.24,12.05-4.3,21Q.71,173.46.71,174.57Z"/><path class="cls-45" d="M.34,217.56a1.18,1.18,0,0,1-.34-.83V174.57c0-.76,0-1.5.06-2.2.07-9.94.82-16.63,4.45-21.38,2-2.56,4-3.92,6-4a5,5,0,0,1,1.67.19c.43-2,2-5.41,7.28-7.38a12.08,12.08,0,0,1,4.13-.83,6.34,6.34,0,0,1,4,1.26c1-1.84,3.13-4.22,7.65-4.79a15.49,15.49,0,0,1,1.92-.13c3.85,0,5.79,1.68,6.73,3a7.9,7.9,0,0,1,4.25-1.17,12,12,0,0,1,5.65,1.58c5.11,2.75,5.41,10.79,5.42,11.81v24.38a18,18,0,0,1,3.41.48,9.29,9.29,0,0,1,4.07,1.94,1.18,1.18,0,0,1,.14,1.08c-5.17,14-.58,39.16-.37,40.23a1.14,1.14,0,0,1-.54,1.22c-.73.5-18.1,12.24-32.62,12.24C12,232.1,1.12,218.56.34,217.56ZM65.49,178.1a10.71,10.71,0,0,0-3.18-1.34c-1.61-.43-4.47-1.32-4.47-1.32V150.52c0-.38-.18-8.12-4.68-10.54a10.61,10.61,0,0,0-5-1.41,6,6,0,0,0-4,1.3l-.69.66-.43-.85c-.7-1.36-2.28-3-5.9-3a14,14,0,0,0-1.74.11c-4.61.58-6.33,3.27-6.94,4.83l-.42,1.07-.76-.86a4.71,4.71,0,0,0-3.7-1.49,10.68,10.68,0,0,0-3.64.74c-5.3,2-6.35,5.29-6.5,7.1l-.09,1.07-.95-.51a3.54,3.54,0,0,0-1.82-.4c-1.62.1-3.31,1.27-5,3.49-3.39,4.44-4.09,10.89-4.16,20.57,0,.71-.06,1.42-.06,2.16v42.05l0,0c.1.14,10.54,14,31.9,14,13.41,0,30-10.77,31.75-11.94C64.66,216.43,60.43,192.1,65.49,178.1Z"/><path class="cls-46" d="M60.38,218.77c0-.26-4.92-26.16.41-40.61a.47.47,0,0,0-.05-.43,9.41,9.41,0,0,0-3.67-1.66,8.06,8.06,0,0,0-3.88.26s-.06-.8-.06-.84v-25s0-8.48-5.05-11.18a13.46,13.46,0,0,0-2.5-1c1.64-.6,4.32-.89,7.93,1,5,2.71,5.06,11.17,5.05,11.18v25a.48.48,0,0,1,0,.1,19.37,19.37,0,0,1,4,.48,9.39,9.39,0,0,1,3.67,1.66.47.47,0,0,1,.06.43c-5.33,14.45-.46,40.34-.41,40.61a.47.47,0,0,1-.25.5S47.82,231.4,33.34,231.4c-1.06,0-2.09,0-3.09-.11,14-1.16,29.88-12,29.88-12A.47.47,0,0,0,60.38,218.77Z"/><path class="cls-46" d="M28.1,140.84c.34-.07,1.28-3.38,6.45-4.54,3.78-.85,7.24.9,8.51,2.76.06,2.45-.15,50.81-.15,50.81-.17-.34-2.79-17-2.79-17,0-6.9-.13-19.68-.13-28.42C40,139.89,30.72,139.87,28.1,140.84Z"/><path class="cls-46" d="M12.79,148.14c.34-.07,1.79-6.55,7-7.71,3.78-.85,7.07,0,8.34,1.9.06,2.45-.15,47.2-.15,47.2-.17-.34-2.63-13.4-2.63-13.4,0-6.9-.13-19.68-.13-28.42C25.18,143.17,16,145.16,12.79,148.14Z"/><path class="cls-46" d="M1.2,163c.34-.07.62-8.87,4.47-12.52,3.59-3.4,5.84-3.74,7.11-1.88.06,2.45-.12,41-.12,41l-2.41-12.43c0-6.9-.11-10.35-.11-19.1C10.12,151.51,3.68,155.18,1.2,163Z"/><path class="cls-45" d="M52.35,227.27a.75.75,0,0,0,.32-.07c9-4.22,13.07-7.54,13.24-7.68a.75.75,0,0,0,.26-.71c0-.26-4.82-26.4.49-40.77a.75.75,0,0,0-.33-.91c-.12-.07-12-6.75-19.11,3-4.17,5.7-1.8,15.31.35,20.44-2.76.18-9.9,1.09-14.52,5.71a14.31,14.31,0,0,0-4.1,10.54.75.75,0,1,0,1.5,0,12.86,12.86,0,0,1,3.66-9.47c5.27-5.26,14.47-5.31,14.6-5.31h0a.75.75,0,0,0,.68-1.07c-2.1-4.48-5-14.4-1-19.94,5.6-7.66,14.32-4,16.6-2.88-4.79,14-1,36.89-.41,40.5A71.24,71.24,0,0,1,52,225.84a.75.75,0,0,0,.32,1.43Z"/><path class="cls-45" d="M43.4,190.29a.75.75,0,0,0,.75-.75V138.8a.75.75,0,0,0-1.5,0v50.74A.75.75,0,0,0,43.4,190.29Z"/><path class="cls-45" d="M27.93,190.29a.75.75,0,0,0,.75-.75V140.89a.75.75,0,1,0-1.5,0v48.65A.75.75,0,0,0,27.93,190.29Z"/><path class="cls-45" d="M13.08,190.29a.75.75,0,0,0,.75-.75V146.63a.75.75,0,1,0-1.5,0v42.91A.75.75,0,0,0,13.08,190.29Z"/><path class="cls-17" d="M277.54,274.23s7.37-19.81,23.77-19.81c10.57,0,30.34,2.79,30.34,36.41h41.81s1-63.92-66.12-56.91c-28.44,3-40.55,23.84-43.2,37.16S277.54,274.23,277.54,274.23Z"/><path class="cls-42" d="M331.14,290.82c0-23.83-10-35.91-29.84-35.91-15.86,0-23.23,19.29-23.3,19.49a.51.51,0,0,1-.2.25c-.24.15-6,3.79-10.18,3.79a4,4,0,0,1-3.31-1.34c-1-1.23-1.24-3.29-.67-6.13,3.09-15.55,16.38-34.71,43.64-37.56,21.62-2.26,38.58,2.62,50.18,14.4,16.71,17,16.5,42.76,16.5,43a.5.5,0,0,1-.5.49H331.64A.5.5,0,0,1,331.14,290.82Zm25.6-42.31c-11.38-11.56-28.06-16.33-49.36-14.11-26.72,2.79-39.74,21.55-42.76,36.76-.5,2.52-.34,4.31.47,5.3a3.1,3.1,0,0,0,2.53,1c3.53,0,8.61-3,9.51-3.55.77-1.92,8.42-20,24.17-20,20.32,0,30.69,12.25,30.83,36.41H373C372.89,286.7,371.9,263.91,356.75,248.51Z"/><path class="cls-43" d="M372.74,282.08c0-.32-.1-.65-.15-1h-2.2V278h-1v3.06h-5.15v-5.83h5.15V278h1v-2.72h1c-.08-.31-.16-.62-.24-.93h-.77v-2.72q-.51-1.68-1.14-3.41h-5v-5.06h2.91l-.44-.93h-2.46v-4.54q-.49-.8-1-1.6h-5.36V253h-1v3.08h-5.15v-5.83h5.15V253h1v-2.72h.92l-.85-.93h-.07v-.08c-.32-.34-.65-.67-1-1v1.09h-5.15v-5.15h.51q-.7-.54-1.44-1.06v.07h-5.44v-3.37l-1-.5v3.87h-5.15v-5.06h2.49q-1.17-.49-2.4-.93h-.09v0l-.93-.33v.36h-5.44v-1.89l-1-.22v2.11h-5.15v-3l-.93-.1v3.07h-5.44v-3.48l-1,0v3.52h-5.15v-3.49l-.93,0v3.46h-5.9v-3h0l-.94.12v2.89h-5.15v-2l-.93.2v1.85h-5.44V237c-1.11.38-2.18.8-3.22,1.24h2.24v5.06h-5.15v-3.72l-.93.49v3.23h-5.22q-.67.48-1.32,1h.13v5.15h-5.15v-.65c-.5.52-1,1-1.46,1.58h.53v5.83h-4.92q-.8,1.26-1.5,2.52v3.61h-1.81c-.14.31-.28.62-.41.93h2.21v5.06h-4c-.09.33-.19.66-.27,1h4.27v5.15h-5a6.57,6.57,0,0,0,.1.93h4.95v2.72h.41l.57-.12v-2.6h5.44v.46c1.33-.69,2.22-1.25,2.22-1.25l.05-.13h-1.35v-5.15h3.9c.19-.32.38-.65.59-1h-4.49v-5.06h5.15v4c.31-.47.64-.94,1-1.41v-2.62h2.08q.42-.47.86-.94h-2.94v-5.15h5.44v2.79q.45-.38.93-.74v-2H292a20.82,20.82,0,0,1,3-1.29v-2.74h-1v3h-5.15v-3h-.93v3h-5.44v-3.06h-1v3.06h-5.15v-5.83h5.15v2.72h1v-2.72h5.44v2.75h.93v-2.75h5.15V253h1v-2.72h5.44v2.75h.93v-2.75h5.15V253h1v-2.72h5.9v5.83h-1.17a27.3,27.3,0,0,1,2.77,1h4.48v2.43q.5.34,1,.72v-3.15h5.44v5.15h-3.18c.29.29.57.6.85.91h2.33v3c.32.49.63,1,.93,1.54v-4.57h5.15v5.06H327c.17.32.34.65.51,1h4.39v5.15h-2.39c.09.31.2.61.28.93h2.11v5.83H331c0,.33.1.65.14,1h.76v5.15h-.32c0,.31,0,.61,0,.93h.27v2.95h1v-2.95h5.44v3h.93v-3h5.15v3h1v-3h5.44v3h.93v-3h5.15v3h1v-3h5.44v3h.93v-3h5.15v3h1v-3h3q0-.44-.07-.93h-3v-5.15Zm-96.45-24.93h5.15v5.15h-5.15Zm-.93,5.15h-5.44v-5.15h5.44Zm0,6h-5.44v-5.06h5.44Zm0,6.13h-5.44v-5.15h5.44Zm12.5-25h-5.44v-5.15h5.44Zm6.08,0h-5.15v-5.15h5.15Zm6.42-6.15h-5.44V238.2h3v0h2.48Zm0,6.13H297.3v0h-2.38v-5.15h5.44Zm6.08-6.13h-5.15v-5.06h5.15Zm0,6.13h-5.15v-5.15h5.15Zm6.88-6.13h-5.9v-5.06h5.9Zm0,6.13h-5.9v-5.15h5.9Zm6.08-6.13h-5.15v-5.06h5.15Zm0,6.13h-5.15v-5.15h5.15Zm0,6.76h-5.15v-5.83h5.15v5.83Zm6.42-12.91h-3.09v0h-2.35v-5.06h5.44Zm0,6.13h-5.44v-5.15h5.44Zm0,6.76h-5.44v-5.83h5.44v5.83Zm6.08-12.9h-5.15v-5.06h5.15Zm0,6.13h-5.15v-5.15h5.15Zm0,6.76h-5.15v-5.83h5.15v5.83Zm0,6.13h-5.15v-5.15h5.15Zm6.42-19h-5.44v-5.06h5.44Zm0,6.13h-5.44v-5.15h5.44Zm0,6.76h-5.44v-5.83h5.44v5.83Zm0,6.13h-5.44v-5.15h5.44Zm0,6h-5.44v-5.06h5.44Zm0,6.13h-5.44v-5.15h5.44Zm0,6.76h-3.15v0h-2.29v-5.83h5.44v5.83Zm0,6.13h-5.44v-5.15h5.44Zm6.08-37.92h-5.15V244.2h5.15Zm0,6.76h-5.15v-5.83h5.15v5.83Zm0,6.13h-5.15v-5.15h5.15Zm0,6h-5.15v-5.06h5.15Zm0,6.13h-5.15v-5.15h5.15Zm0,6.76h-5.15V275.3h5.15v5.83Zm0,6.13h-5.15v-5.15h5.15Zm6.42-37.93h-3.06v0h-2.38V244.2h5.44Zm0,6.76h-5.44v-5.83h5.44v5.83Zm0,6.13h-5.44v-5.15h5.44Zm0,6h-5.44v-5.06h5.44Zm0,6.13h-5.44v-5.15h3v0h2.45Zm0,6.76h-5.44V275.3h5.44v5.83Zm0,6.13h-5.44v-5.15h5.44Zm.93-5.15h5.15v5.15h-5.15Zm5.15-19.87h-5.15v-5.15h5.15Zm0,6h-5.15v-5.06h5.15Zm0,6.13h-5.15V269.2h5.15Zm6.42-12.14h-5.44v-5.15h5.44Zm0,6h-5.44v-5.06h5.44Zm0,6.13h-5.44V269.2h5.44Zm0,6.76h-5.44V278h-1v3.08h-5.15v-5.83h5.15V278h1v-2.72h5.44v5.83Zm0,6.13h-5.44V282.1h5.44Zm.93-12.9v-5.15h5.15v5.15Zm5.15,12.9h-5.15v-5.15h5.15Z"/><g class="cls-31"><path class="cls-44" d="M360.94,282s.39-25.39-16.12-42.41c29.21,14.64,28.63,51.57,28.63,51.57H331.64a70,70,0,0,0-.57-9.16Z"/><path class="cls-44" d="M271.25,254.89c3.89-4.74,9.68-9.3,17.54-9.3,6.75,0,17.26,1.16,24,10.75a37.52,37.52,0,0,0-11.45-1.59c-16.4,0-23.77,19.81-23.77,19.81s-16.06,10.17-13.4-3.16A45.81,45.81,0,0,1,271.25,254.89Z"/></g><path class="cls-24" d="M383.75,341.13V299a.47.47,0,0,0-.16-.36s-10.5-14.31-32.47-14.31c-14.47,0-32.22,12.12-32.22,12.12a.47.47,0,0,0-.25.5c0,.26,4.92,26.16-.41,40.61a.47.47,0,0,0,.06.43,9.39,9.39,0,0,0,3.67,1.66,29,29,0,0,0,3.94.58v25s0,8.47,5.05,11.18c6.26,3.37,9.77,0,9.77,0,.78,1.53,2.9,3.93,8.36,3.25,5-.63,6.88-3.67,7.51-5.27,1,1.12,3.35,2.7,8.11.95,5.78-2.13,6.81-5.93,7-7.71a4.14,4.14,0,0,0,2.19.48c1.84-.11,3.7-1.37,5.52-3.76,3.69-4.84,4.24-12.05,4.31-21C383.73,342.6,383.75,341.87,383.75,341.13Z"/><path class="cls-45" d="M340.52,377.44a8,8,0,0,1-4.24,1.16,12,12,0,0,1-5.67-1.58c-5.1-2.74-5.43-10.75-5.44-11.84V340.88a21.65,21.65,0,0,1-3.38-.54,9.14,9.14,0,0,1-4.1-2,1.22,1.22,0,0,1-.14-1.12c5.16-14,.57-39.13.37-40.21a1.18,1.18,0,0,1,.56-1.26c.73-.5,18.11-12.25,32.64-12.25,21.37,0,32.25,13.54,33,14.56a1.22,1.22,0,0,1,.35.86v42.15c0,.76,0,1.5-.06,2.2-.07,10-.82,16.64-4.46,21.41-2,2.57-4,3.94-6.07,4.06h-.28a4.89,4.89,0,0,1-1.36-.19c-.44,2-2,5.41-7.3,7.36a12.13,12.13,0,0,1-4.15.83,6.4,6.4,0,0,1-4-1.24c-1,1.84-3.15,4.2-7.66,4.77a15.49,15.49,0,0,1-1.92.13C343.42,380.46,341.47,378.8,340.52,377.44Zm16.64-3.61a4.67,4.67,0,0,0,3.67,1.48,10.63,10.63,0,0,0,3.63-.74c5.28-1.95,6.32-5.26,6.47-7.07l.1-1.14,1,.54a3.39,3.39,0,0,0,1.6.4h.2c1.61-.09,3.28-1.26,5-3.47,3.38-4.43,4.08-10.87,4.15-20.54,0-.71.06-1.42.06-2.16v-42l0,0c-.1-.14-10.53-14-31.87-14-13.34,0-29.8,10.66-31.7,11.91.45,2.46,4.62,26.66-.4,40.62a10.82,10.82,0,0,0,3.14,1.31,21.76,21.76,0,0,0,3.41.52c.43,0,1.08.1,1.08.79v25c0,.38.18,8.09,4.66,10.5a10.57,10.57,0,0,0,5,1.41,6,6,0,0,0,3.93-1.29l.73-.7.46.9c.69,1.35,2.27,3,5.86,3a14,14,0,0,0,1.74-.11c4.59-.58,6.29-3.25,6.9-4.8l.45-1.14Z"/><path class="cls-45" d="M341.06,377.77a.75.75,0,0,0,.75-.75V326.16a.75.75,0,0,0-1.5,0V377A.75.75,0,0,0,341.06,377.77Z"/><path class="cls-46" d="M353.69,371.94V335.09l2.84-8.92v42.2a11.47,11.47,0,0,1,0,4.53v1.64H356a8.56,8.56,0,0,1-6.89,5c-2.93.37-7.51-2-8.82-2.79C340.28,376.7,348.77,375.66,353.69,371.94Z"/><path class="cls-46" d="M368.54,368.5V333.86l2.84-7.7v38.09a2.87,2.87,0,0,0,1.85-1c4-4.61,4.24-12.05,4.31-21,0-.72.06-1.45.06-2.2V297.92a.47.47,0,0,0-.16-.36s-7.19-9.77-22.08-13.17c19.09,1.66,28.24,14.13,28.24,14.13a.47.47,0,0,1,.16.36V341c0,.75,0,1.48-.06,2.2-.06,8.91-.61,16.12-4.31,21-1.82,2.39-3.68,3.65-5.52,3.76a4.15,4.15,0,0,1-2.19-.48,7.43,7.43,0,0,1-.29,1.5v1H371c-.81,1.78-2.55,3.86-6.3,5.25-4.15,1.53-6.48.52-7.66-.5A21.65,21.65,0,0,0,368.54,368.5Z"/><path class="cls-46" d="M338.22,373.35V335.49l2.84-9.33v43.77a10.25,10.25,0,0,1,0,4.35v.25H341c-1.82,6.1-11.41,3.53-14.24-4.07C329.67,373.65,334.85,375.09,338.22,373.35Z"/><path class="cls-46" d="M319.72,332s1.75,1.53,3.24.87,2.91-6.5,2.91-6.5l.05,13.73s-5.72,0-7.72-2.28C318.21,337.82,319.45,333.62,319.72,332Z"/><path class="cls-45" d="M356.52,375.46a.75.75,0,0,0,.75-.75V326.16a.75.75,0,1,0-1.5,0v48.55A.75.75,0,0,0,356.52,375.46Z"/><path class="cls-45" d="M371.38,369.72a.75.75,0,0,0,.75-.75v-42.8a.75.75,0,0,0-1.5,0V369A.75.75,0,0,0,371.38,369.72Z"/><path class="cls-45" d="M325.87,341.76a.75.75,0,0,0,.75-.75v-14.3a.75.75,0,1,0-1.5,0V341A.75.75,0,0,0,325.87,341.76Z"/><path class="cls-47" d="M279,232v52.62c0,6.62-5.06,12-11.31,12h-147c-6.24,0-11.31-5.36-11.31-12V232Z"/><path class="cls-17" d="M279,232v59.24c0,6.62-6.19,5.84-11.5,9.2L202.77,332l-8.54-19.54L183.57,332l-62.82-31.62c-4.31-2.3-11.14-3.84-11.31-9.2V232l57,31.8,13.85-16.84,13.55,32.15,14.57-32.15L222,263.48Z"/><path class="cls-42" d="M183.34,332.46l-62.83-31.62c-.91-.49-1.94-.94-3-1.41-3.94-1.73-8.41-3.7-8.55-8.23V232a.5.5,0,0,1,.25-.43.51.51,0,0,1,.5,0l56.59,31.6,13.59-16.52a.5.5,0,0,1,.85.12l13.11,31.09,14.1-31.1a.5.5,0,0,1,.39-.29.49.49,0,0,1,.45.18l13.36,16.24,56.68-31.33a.49.49,0,0,1,.5,0,.5.5,0,0,1,.25.43v59.24c0,4.88-3.28,6.08-6.76,7.36a25.43,25.43,0,0,0-5,2.29L203,332.46a.5.5,0,0,1-.39,0,.5.5,0,0,1-.29-.27l-8.13-18.6L184,332.25a.5.5,0,0,1-.66.21ZM194.26,312a.5.5,0,0,1,.44.3L203,331.33,267.26,300a26.37,26.37,0,0,1,5.16-2.36c3.54-1.3,6.1-2.24,6.1-6.42V232.8l-56.3,31.12a.5.5,0,0,1-.63-.12l-13.11-15.94-14.24,31.41a.52.52,0,0,1-.46.29.5.5,0,0,1-.45-.31L180.1,247.87l-13.33,16.2a.5.5,0,0,1-.63.12L109.94,232.8v58.37c.12,3.89,4.1,5.64,8,7.33,1.1.48,2.14.94,3.08,1.44l62.39,31.4,10.44-19.11a.5.5,0,0,1,.44-.26Z"/><path class="cls-43" d="M109.5,256.08V281h.71v-3h5.15v3h.93v-3h5.44v3h1v-3h5.15v3h.93v-3h5.44V281h1V278h5.15v5.83h-5.15v-2.72h-1v2.72h-5.44v-2.75h-.93v2.75h-5.15v-2.72h-1v2.72h-5.44v-2.75h-.93v2.75h-5.15V281.1h-.71v9.53a5.57,5.57,0,0,0,.71,2.59v-2.34h5.15v5.06h-2.45a18.1,18.1,0,0,0,1.57.93h.89v.45l.93.44v-.88h5.44v3.44l1,.49v-3.94h5.15V302h-2.73l2,1h.78v.39l.93.47V303h5.44V306h1V303h5.15v5.83h-1.72l2.65,1.33v-.4h3.06v0h2.38v3.16l1,.49v-3.65h5.15v5.15h-2.17l2,1h.21V316l.93.47v-.58h5.44v3.33l1,.49v-3.82h5.15v5.06h-2.68l1.84.93h.84v.42l.93.47v-.89h5.44v3.64l1,.49v-4.13h5.15V327h-3.13l1.95,1h1.18v.59l.93.47V328h5.44v2.43l1-1.8v-.63h.34l.54-1h-.88v-5.15h3.69l.51-.93h-4.2v-5.06h5.15v3.32l.93-1.7v-1.62h.88l.54-1h-1.42v-5.15h5.9v5.15h-1.61l.43,1h1.18v2.71l1,2.25v-5h5.15v5.06h-5.11l.4.93h4.7V327h-2.45l.43,1h2v3h.5l.43-.21v-2.82h5.44v.18l2.39-1.16h-1.41v-5.15h5.15v3.32l.93-.45v-2.87h5.44V322l2.37-1.16h-1.39v-5.06h5.15V319l.93-.45v-2.77h5.44v.13l2.28-1.11h-1.3v-5.15h5.15v3.27l.93-.45v-2.82h5.44v.18l2.27-1.11h-1.29v-5.83h5.15v3.95l.93-.45v-3.49h5.44v.85l1-.48v-.37h.77l2-1h-2.78v-5.15h5.15v4l.93-.45v-3.54h5.44v1l1-.37v-.64h1.63a11.22,11.22,0,0,0,1.76-.93h-3.38v-5.06h5.15v3.23a6.43,6.43,0,0,0,.78-3.31V231.4l-.78.43v1.78H275.1l-1.68.93h4.9v5.15h-5.15v-5l-1,.54v4.47h-5.44v-1.48l-.93.51v1h-1.75l-1.77,1h3.52v5.06h-5.15v-4.16l-1,.54v3.62h-5.44v-.63l-.93.51v.12h-.21l-1.68.93h1.89v5.15h-5.15v-3.35l-1,.54v2.81h-5.1l-1.78,1h.51v5.83h-5.15v-2.72h-1v2.72h-5l-1.68.93h.27v5.15h-5.15v-2.46l-1,.54v1.92h-5.44v-5.15h2.59l-.76-.93h-1.83v-2.23l-.43-.52h-.5v2.75h-5.15V256h-1v2.72h-5.44V256h-.17l-.76,1.67v1.08h-.49l-.42.93h.91v5.15h-3.25l-.44,1h3.69v5.06h-5.15V269l-1.25,2.77h.27v5.15h-2.61l-.45,1h3.05v3h1v-3h5.15v3h.93v-3h3.14v0h2.29v3h1v-3h5.15v3h.93v-3h5.44v3.06h1v-3.06h5.15v5.83h-5.15V281h-1v2.72h-5.44V281h-.93v2.75h-5.15V281h-1v2.72h-5.44V281h-.93v2.75h-5.15V281h-1v2.72h-5.9V277.9h2.32l-.41-1h-1.91V272.4l-.93-2.2v.64H185.2v-5.06h3.29l-.41-1H185.2v-5.15h.7l-.39-.93h-.31V258l-1-2.33v3.06h-5.44v-5.83h4.27l-.41-1h-3.86v-3.71l-.93,1.13v2.58h-2.12l-.81,1h2.93v5.83h-5.15V255.6l-1,1.19v1.93h-1.59l-.76.93h2.36v5.15h-3v0h-2.45v-1.72l-.93-.52v2.23h-5.15v-5.11l-1.74-1h-2.26v0h-2.42v-2.63l-.93-.52v3.15h-5.15V256h-1v2.72h-5.44v-5.84h5.44V256h1v-3.08H148l-1.76-1h-2.5v0h-2.5v-2.81l-.93-.52V252h-5.15V246.8h1.88l-1.66-.93h-.22v-.12l-1-.55v.67h-5.44v-3.72l-.93-.52v4.24h-5.15v-5.06h3.68l-1.76-1h-1.92v-1.08l-1-.55v1.62h-5.44v-4.67l-2.52-1.41h-3.56v-2l-.71-.4V256h.71v-3h5.15v3h.93v-3h5.44v3h1v-3h5.15v3h.93v-3h3.14v0h2.29V256h1v-3.06h5.15v5.84h-5.15V256h-1v2.72h-5.44V256h-.93v2.75h-5.15v-2.72h-1v2.72h-5.44V256h-.93v2.75h-5.15v-2.72Zm5.86-16.22h-5.15v-5.15h5.15Zm0,6h-5.15v-5.06h5.15Zm0,6.08h-5.15v-5.15h5.15Zm6.37-6.09h-5.44v-5.06h5.44Zm0,6.08h-5.44v-5.15h3.12v0h2.32Zm6.13,0h-5.15v-5.15h5.15Zm6.37,0h-5.44v-5.15h5.44Zm69.09,25h-5.15v-5.15h5.15Zm6.37-12.14h-5.44v-5.15h5.44Zm0,6h-5.44v-5.06h5.44Zm0,6.08h-5.44v-5.15h5.44Zm6.13-12.12h-5.15v-5.15h5.15Zm0,6h-5.15v-5.06h5.15Zm0,6.08h-5.15v-5.15h5.15Zm6.37-6.09h-5.44v-5.06h5.44Zm0,6.08h-5.44v-5.15h3.12v0h2.32Zm6.13-6.08h-5.15v-5.06h5.15Zm0,6.08h-5.15v-5.15h5.15Zm44.84,7.69h5.15v5.15h-5.15Zm0-6.76h5.15v5.83h-5.15v-5.83Zm0-6.13h5.15v5.15h-5.15Zm0-6h5.15v5.06h-5.15Zm0-6.13h5.15v5.15h-5.15Zm0-6.76h5.15v5.83h-5.15v-5.83Zm0-6.13h5.15v5.15h-5.15Zm0-6h5.15v5.06h-5.15Zm-6.42,50.06h5.44v5.06h-5.44Zm0-6.13h5.44v5.15h-5.44Zm0-6.76h5.44v5.83h-5.44v-5.83Zm0-6.13h5.44v5.15h-5.44Zm0-6h5.44v5.06h-5.44Zm0-6.13h3.06v0h2.38v5.15h-5.44Zm0-6.76h5.44v5.83h-5.44V252.8Zm0-6.13h5.44v5.15h-5.44Zm0-6h5.44v5.06h-3v0h-2.48Zm-6.08,50h5.15v5.06h-5.15Zm0-6.13h5.15v5.15h-5.15Zm0-6.76h5.15v5.83h-5.15v-5.83Zm0-6.13h5.15v5.15h-5.15Zm0-6h5.15v5.06h-5.15Zm0-6.13h5.15v5.15h-5.15Zm0-6.76h5.15v5.83h-5.15V252.8Zm0-6.13h5.15v5.15h-5.15Zm-6.42,50.06h5.44v5.15h-5.44Zm0-6h5.44v5.06h-5.44Zm0-6.13h5.44v5.15h-5.44Zm0-6.76h5.44v5.83h-5.44v-5.83Zm0-6.13h5.44v5.15h-5.44Zm0-6h5.44v5.06h-3v0h-2.48Zm0-6.13h5.44v5.15h-5.44Zm0-6.76h5.44v5.83h-5.44v-5.83Zm0-6.13h5.44v5.15h-5.44Zm-6.08,50h5.15v5.15h-5.15Zm0-6h5.15v5.06h-5.15Zm0-6.13h5.15v5.15h-5.15Zm0-6.76h5.15v5.83h-5.15v-5.83Zm0-6.13h5.15v5.15h-5.15Zm0-6h5.15v5.06h-5.15Zm0-6.13h5.15v5.15h-5.15Zm0-6.76h5.15v5.83h-5.15v-5.83Zm-6.42,50.06h5.44v5.83h-5.44v-5.83Zm0-6.13h5.44v5.15h-2.93v0h-2.51Zm0-6h5.44v5.06h-5.44Zm0-6.13h5.44v5.15h-5.44Zm0-6.76h5.44v5.83h-5.44v-5.83Zm0-6.13h5.44v5.15h-5.44Zm0-6h3.09v0h2.35v5.06h-5.44Zm0-6.13h5.44v5.15h-5.44Zm0-6.76h5.44v5.83h-5.44v-5.83Zm-.93,11.91h-5.15V259.6h5.15Zm0,6h-5.15v-5.06h5.15Zm0,6.08h-5.15v-5.15h5.15Zm0,12.9h-5.15v-5.15h5.15Zm0,6h-5.15v-5.06h5.15Zm0,6.08h-5.15v-5.15h5.15Zm-11.57,7.76h3.06v0h2.38v5.15h-5.44Zm0-6.76h5.44V306h1v-3.08h5.15v5.83h-5.15V306h-1v2.72h-5.44v-5.83Zm0-6.13h5.44v5.15h-5.44Zm0-6h5.44v5.06h-5.44Zm0-6.13h5.44v5.15h-5.44Zm0-6.76h5.44v3.08h1v-3.08h5.15v5.83h-5.15V281h-1v2.72h-5.44v-5.83Zm0-6.13h5.44v5.15h-5.44Zm0-6h5.44v5.06h-5.44Zm0-6.13h5.44v5.15h-5.44Zm-25.93,30.2h-5.15v-5.15h5.15Zm0,6h-5.15v-5.06h5.15Zm0,6.08h-5.15v-5.15h5.15Zm6.37-12.14h-5.44v-5.15h3.06v0h2.38Zm0,6h-5.44v-5.06h5.44Zm0,6.08h-5.44v-5.15h5.44Zm6.13-12.12h-5.15v-5.15h5.15Zm0,6h-5.15v-5.06h5.15Zm0,6.08h-5.15v-5.15h5.15Zm6.37-12.14h-5.44v-5.15h5.44Zm0,6h-5.44v-5.06h5.44Zm0,6.08h-5.44v-5.15h5.44Zm6.13-12.12h-5.15v-5.15h5.15Zm0,6h-5.15v-5.06h5.15Zm0,6.08h-5.15v-5.15h5.15Zm-5.15,7.74h5.15v5.15h-5.15Zm-6.42,6.15h5.44v5.06h-5.44Zm0-6.13h5.44v5.15h-5.44Zm-6.08,6.13h5.15v5.06h-5.15Zm0-6.13h5.15v5.15h-5.15Zm-6.42,12.14h5.44v5.15h-5.44Zm0-6h5.44v5.06h-5.44Zm0-6.13h5.44v5.15h-5.44Zm-6.08,0h5.15v5.15h-5.15Zm-6.88-6.76h5.9v3h1v-3h5.15v3h.93v-3h5.44v3h1v-3h5.15v3h.93v-3h5.44V306h1v-3.06h5.15v5.83h-5.15V306h-1v2.72h-5.44V306h-.93v2.75h-5.15V306h-1v2.72h-5.44V306h-.93v2.75h-5.15V306h-1v2.72h-5.9v-5.84Zm0-6.13h5.9v5.15h-5.9Zm0-6h5.9v5.06h-5.9Zm0-6.13h5.9v5.15h-5.9Zm-6.08,25h5.15v5.15H185.2Zm0-6.76h5.15v5.84H185.2v-5.84Zm0-6.13h5.15v5.15H185.2Zm0-6h5.15v5.06H185.2Zm0-6.13h5.15v5.15H185.2Zm0-6.76h5.15v5.83H185.2V277.9Zm0-6.13h5.15v5.15H185.2Zm-6.42,50.05h5.44V327h-5.44Zm0-6h5.44v5.06h-5.44Zm0-6.13h3.06v0h2.38v5.15h-5.44Zm0-6.76h5.44v5.84h-5.44v-5.83Zm0-6.13h5.44v5.15h-5.44Zm0-6h3.09v0h2.35v5.06h-5.44Zm0-6.13h5.44v5.15h-5.44Zm0-6.76h5.44v5.83h-5.44v-5.83Zm0-6.13h5.44v5.15h-5.44Zm0-6h5.44v5.06h-5.44Zm0-6.13h5.44v5.15h-5.44Zm-6.08,56.17h5.15v5.06h-5.15Zm0-6.13h5.15v5.15h-5.15Zm0-6.76h5.15v5.83h-5.15v-5.83Zm0-6.13h5.15V302h-5.15Zm0-6h5.15v5.06h-5.15Zm0-6.13h5.15v5.15h-5.15Zm0-6.76h5.15v5.83h-5.15v-5.83Zm0-6.13h5.15v5.15h-5.15Zm0-6h5.15v5.06h-5.15Zm0-6.13h5.15v5.15h-5.15Zm-6.42,56.19h5.44v5.06h-5.44Zm0-6.13h5.44v5.15h-5.44Zm0-6.76h5.44v5.83h-5.44v-5.83Zm0-6.13h5.44V302h-5.44Zm0-6h5.44v5.06h-5.44Zm0-6.13h5.44v5.15h-5.44Zm0-6.76h5.44v5.83h-5.44v-5.83Zm0-6.13h5.44v5.15h-5.44Zm0-6h5.44v5.06h-5.44Zm-6.08,43.91h5.15v5.15h-5.15Zm0-6.76h5.15v5.83h-5.15v-5.83Zm0-6.13h5.15V302h-5.15Zm0-6h5.15v5.06h-5.15Zm0-6.13h5.15v5.15h-5.15Zm0-6.76h5.15v5.83h-5.15v-5.83Zm0-6.13h5.15v5.15h-5.15Zm0-6h5.15v5.06h-5.15Zm-6.42,43.92h5.44v5.15h-5.44Zm0-6.76h5.44v5.83h-5.44V303Zm0-6.13h5.44V302h-5.44Zm0-6h5.44v5.06h-5.44Zm0-6.13h3.06v0h2.38v5.15h-5.44Zm0-6.76h5.44v5.83h-5.44v-5.83Zm0-6.13h5.44v5.15h-5.44Zm0-6h5.44v5.06h-5.44Zm0-6.13h5.44v5.15h-5.44Zm-.93,5.15h-5.15v-5.15h5.15Zm0,6h-5.15v-5.06h5.15Zm0,6.08h-5.15v-5.15h5.15Zm0,12.9h-5.15V284.7h5.15Zm0,6h-5.15v-5.06h5.15Zm0,6.08h-5.15v-5.15h5.15Zm-11.57,1h3.14v0h2.29V306h1V303h5.15v5.83h-5.15v-2.72h-1v2.72h-5.44V303Zm0-6.14h5.44V302h-5.44Zm0-6h5.44v5.06h-5.44Zm0-6.13h5.44v5.15h-3v0h-2.45Zm0-6.76h5.44V281h1v-3.08h5.15v5.83h-5.15v-2.72h-1v2.72h-5.44V278Zm0-6.13h5.44V277h-5.44Zm0-6h5.44v5.06h-5.44Zm0-6.13h5.44v5.15h-5.44Zm-25.93,30.2h-5.15v-5.15h5.15Zm6.37,0h-5.44v-5.15h5.44Zm0,6h-5.44v-5.06h5.44Zm6.13-6h-5.15v-5.15h5.15Zm0,6h-5.15v-5.06h5.15Zm6.37-6.06h-5.44v-5.15h5.44Zm0,6h-5.44v-5.06h5.44Zm0,6.08h-5.44v-5.15h5.44Zm1-5.15h5.15V302h-5.15Zm0-6h5.15v5.06h-5.15Zm5.15-6.13v5.15h-5.15v-5.15Zm-5.15-12.9h5.15V277h-5.15Zm0-6h5.15v5.06h-5.15Zm0-6.13h5.15v5.15h-5.15Zm-6.42,12.14h5.44V277h-5.44Zm0-6h5.44v5.06h-5.44Zm0-6.13h5.44v5.15h-5.44Zm-6.08,12.12h5.15V277h-5.15Zm0-6h5.15v5.06h-5.15Zm0-6.13h5.15v5.15h-5.15Zm-6.42,12.14h5.44V277h-2.93v0h-2.5Zm0-6h5.44v5.06h-5.44Zm0-6.13h5.44v5.15h-3v0h-2.45Zm-6.08,12.13h5.15V277h-5.15Zm0-6h5.15v5.06h-5.15Zm0-6.13h5.15v5.15h-5.15Z"/><polygon class="cls-43" points="210.66 255.91 209.68 255.91 209.68 252.86 207.39 252.86 207.39 252.88 205.47 252.88 205.92 251.9 206.75 251.9 206.75 251.88 209.68 251.88 209.68 247.88 210.66 249.08 210.66 251.88 212.97 251.88 213.78 252.86 210.66 252.86 210.66 255.91"/><g class="cls-31"><path class="cls-44" d="M116.71,295.9l62.82,31.62,13.06-23.62V279.72L178.81,248.6l1.39-1.69,14,32.15v33.41L183.52,332,120.7,300.39c-3.93-2.1-9.95-3.58-11.1-7.89C111.85,293.82,114.59,294.77,116.71,295.9Z"/><path class="cls-44" d="M263.5,295.9c5.3-3.36,11.5-2.58,11.5-9.2V234.16l4-2.21v59.24c0,6.62-6.19,5.84-11.5,9.2L202.73,332l-2.32-5.31Z"/></g><polygon class="cls-17" points="283.73 219.8 208.37 246.91 241.38 287.06 286.98 236.51 283.73 219.8"/><path class="cls-42" d="M241.37,287.56a.5.5,0,0,1-.37-.18l-33-40.15a.5.5,0,0,1,.22-.79l75.36-27.12a.51.51,0,0,1,.42,0,.5.5,0,0,1,.24.34l3.25,16.72a.5.5,0,0,1-.12.43l-45.6,50.55a.5.5,0,0,1-.37.17Zm42-67.1L209.2,247.14l32.2,39.15,45-49.93Z"/><polygon class="cls-48" points="286.98 236.51 241.38 287.06 208.37 246.91 238.36 295.93 286.98 236.51"/><polygon class="cls-49" points="283.73 219.8 279.09 217.6 279 221.5 283.73 219.8"/><path class="cls-43" d="M211.39,250.62l.62.76,2.94-2.31,3.12,4-2.85,2.23.59.72,2.83-2.22,3.18,4.05L219.09,260l.62.76,2.72-2.13,1.68,2.14h0l1.92,2.45-2.61,2,.59.72,2.59-2,3.18,4.06-2.5,2,.62.76,2.48-1.94,3.12,4-2.38,1.87.59.72,2.37-1.86,3.18,4.06L235,279.32l.62.76,2.25-1.77,1.91,2.43h0l1.69,2.16-2.15,1.68.59.72,2.13-1.67,1.16,1.47.63-.7-1.06-1.35,2.41-1.88h0l1.88-1.47.48.61.67-.74-.38-.48,2.76-2.16,3.68-4.08-.33.26h0l-1.9,1.49-.6-.76h0l-3-3.83,2.47-1.94h0l1.81-1.42,1.92,2.45,1.4,1.78.67-.74-.2-.26h0l-3-3.84,4.05-3.18,1.89,2.41.77,1,.63-.7-.67-.86-1.89-2.41,2.48-1.94h0l1.81-1.42,1.9,2.42.67-.52.09-.1-1.88-2.4,4.06-3.18,1.33,1.7.63-.7-1.23-1.57,2.47-1.94h0l1.81-1.42.66.84.67-.74-.55-.7,4-3.17,3.89-4.31-1.79,1.4h0l-2,1.54L274.13,242l2.45-1.92h0l1.83-1.43,3.11,4,.67-.74-3-3.83,4.06-3.18,2.45,3.13.63-.7-2.35-3,2.25-1.76-.2-1-.68.53h0l-1.95,1.53-3.12-4,2.43-1.9h0l1.85-1.45.58.75-.41-2.12h0l-3.18-4.06.38-.3-2.78,1-1.32,1h0l-1.9,1.49-.84-1.08-.92.33,1,1.32-4.06,3.18-1.68-2.15-.4-.51-1,.35.6.77,1.68,2.15L268,230.25h0l-1.9,1.49-1.69-2.16-1.71-2.18-.92.33,1.9,2.42,1.69,2.16-4.06,3.18-1.69-2.16-1.91-2.43,4-3.16-2.95,1.06-1.69,1.32-.44-.56-1,.35.64.81L254,232.55h0l-2,1.54-1.75-2.24-.92.33,1.94,2.48-4.06,3.18-3-3.82-3.67,1.32-.19.15h0L238.47,237l-.56-.72-.92.33.75,1-4.06,3.18-1.8-2.3-1,.35,2,2.55-2.33,1.83h0l-1.95,1.53-3.12-4-3,1.06-2.44,1.91-.63-.8-1,.35.83,1.06L217,246.21h0l-1.92,1.51-1.95-2.49-.92.33,2.14,2.73Zm16.52-5.28-4.06,3.18-3.12-4,4.05-3.18Zm3.75,4.79-4.06,3.18-3.18-4.06,4.06-3.18Zm-3.45,4,4.06-3.18,1.82,2.32,1.78,2.27-4.06,3.18L230,256.31h0Zm17.8,8.85h0l-1.95,1.53-3.12-4,2.43-1.9h0l1.85-1.45,3.12,4Zm9.83-7.72h0l-1.95,1.53-3.12-4,2.43-1.9h0l1.85-1.45,3.12,4Zm9.83-7.72h0L263.73,249l-3.12-4,2.43-1.9h0l1.85-1.45,3.12,4Zm0-6.42,4.06-3.18,3.12,4L268.77,245ZM263,249.59l-4.06,3.18-3.12-4,4.06-3.18ZM249.4,246h0l1.88-1.47,3.18,4.06-2.35,1.85h0L250.17,252,247,247.92Zm-13.93,2.34h0l1.81-1.42,1.67,2.13h0l1.93,2.47-2.38,1.86h0l-1.9,1.49-1.85-2.37h0L233,250.32Zm6.79,9.8h0l-1.93,1.51-3.18-4.05,2.41-1.89h0l1.88-1.47,3.18,4.05ZM238,246.35l4.06-3.18,1.89,2.41,1.71,2.18-4.06,3.18-1.85-2.36h0Zm8.23,2.15,3.18,4.05-4.05,3.18-3.18-4.06ZM252,244l4.06-3.18,3.18,4.05L255.21,248Zm1.13,13.35-4.05,3.18-3.12-4,4.06-3.18Zm-6.08,12.51L243,273l-3.18-4.05,4.06-3.18Zm-7.81-1.61-3.12-4,4.06-3.18,3.12,4Zm-3.73-4.76-3.18-4.05,4.06-3.18,3.18,4.05Zm1.11-17.27L234.35,248h0l-2,1.54-3.18-4.06,2.45-1.92h0l1.83-1.43Zm4.83-3.78-4.06,3.18-3.18-4.06,4.05-3.18Zm5-3.94-2.31,1.81h0l-2,1.55L239,237.77l2.45-1.92h0l1.83-1.43Zm2.4,3.06h0l1.8,2.3-2.38,1.86h0l-1.9,1.49L244.71,245l-1.89-2.41,2.48-1.94h0l1.81-1.41Zm4.93-3.65,1.7,2.17-4.06,3.18-1.82-2.32h0l-1.78-2.27,4.06-3.18Zm6.7-1.77L258.14,238h0l-1.9,1.49-1.7-2.17-1.9-2.42,2.47-1.94h0l1.81-1.42,1.91,2.43Zm3.75,4.79-2.36,1.84h0L260,244.26l-3.18-4.06,2.41-1.88h0l1.87-1.47Zm4.83-3.78L265,240.29l-3.18-4.06,4.06-3.18Zm5-3.94L271.75,235h0l-1.93,1.51-3.18-4.06,2.41-1.88h0l1.87-1.47Zm4.83-3.78-4.06,3.18-3.18-4.05,4.06-3.18Zm.73-.57-3.18-4.06,2.41-1.88h0l1.87-1.47,3.18,4.06-2.35,1.84h0Zm-4.18,4.52,4.06-3.18,3.12,4-4.06,3.18Zm-1.92,8-3.12-4,2.43-1.9h0l1.85-1.45,3.12,4-2.33,1.83h0Zm-4.21,4.48,4.06-3.18,3.18,4.06-4.06,3.18Zm-5,4,2.45-1.92h0l1.83-1.43,3.18,4.06-2.31,1.81h0l-2,1.54Zm-4.79,3.75,4.06-3.18,3.18,4.06-4.06,3.18Zm-5,4,2.45-1.92h0l1.83-1.43,3.18,4.05L259.61,260h0l-2,1.55Zm-4.79,3.75,4.06-3.18,3.18,4.06-4.05,3.18Zm-1.87,8-3.18-4.05,2.45-1.92h0l1.83-1.43,3.18,4.06-2.31,1.81h0Zm-1.18,8.35h0l-3-3.83,4.06-3.18,1.9,2.43,1.69,2.16-4.06,3.18Zm-8,.14,2.48-1.94h0l1.81-1.42,1.92,2.45h0l1.68,2.14-2.38,1.86h0l-1.9,1.49-.61-.77h0Zm-3.78-4.83,2.45-1.92h0l1.83-1.43,3.18,4.05L240,275.41h0L238,277Zm-3.69-4.72,2.43-1.9h0l1.85-1.45,3.12,4-2.33,1.83h0l-1.95,1.53Zm-3.78-4.83,2.41-1.89h0L231.6,260l3.18,4.05-2.36,1.84h0l-1.92,1.51ZM223.16,258l2.48-1.94h0l1.81-1.42,2.76,3.53h0l.83,1.07-2.38,1.86h0l-1.9,1.49-1.73-2.2h0Zm-3.78-4.83,2.45-1.92h0l1.83-1.43,3.18,4.06-2.31,1.81h0l-2,1.54Zm-3.7-4.71,2.43-1.91h0l1.85-1.45,3.12,4-2.33,1.83h0l-1.95,1.53Z"/><polygon class="cls-17" points="104.88 219.8 180.24 246.91 147.22 287.06 101.63 236.51 104.88 219.8"/><path class="cls-42" d="M146.85,287.4l-45.59-50.55a.5.5,0,0,1-.12-.43l3.25-16.72a.5.5,0,0,1,.66-.37l75.36,27.12a.5.5,0,0,1,.31.34.5.5,0,0,1-.1.45l-33,40.15a.5.5,0,0,1-.37.18h0A.5.5,0,0,1,146.85,287.4Zm-41.59-66.93-3.1,15.9,45,49.93,32.2-39.15Z"/><polygon class="cls-48" points="101.63 236.51 147.22 287.06 180.24 246.91 150.24 295.93 101.63 236.51"/><polygon class="cls-49" points="104.88 219.8 109.51 217.6 109.6 221.5 104.88 219.8"/><path class="cls-43" d="M174.28,248.22l2.14-2.73-.92-.33-1.95,2.49-1.92-1.51h0l-2.36-1.85.83-1.06-1-.35-.63.8-2.44-1.91-3-1.06-3.12,4L158,243.16h0l-2.33-1.83,2-2.55-1-.35-1.8,2.3-4.05-3.18.75-1-.92-.33-.56.72-1.95-1.53h0l-.19-.15L144.36,234l-3,3.82-4.06-3.18,1.94-2.48-.92-.33L136.58,234l-2-1.54h0l-2.31-1.81.64-.81-1-.35-.44.56-1.69-1.32-2.95-1.06,4,3.16L129,233.27l-1.69,2.16-4.06-3.18,1.69-2.16,1.9-2.42-.92-.33-1.71,2.18-1.69,2.16-1.9-1.49h0l-2.38-1.86,1.68-2.15.6-.77-1-.35-.4.51-1.68,2.15-4.06-3.18,1-1.32-.92-.33-.84,1.08-1.9-1.49h0l-1.32-1-2.78-1,.38.3-3.18,4.06h0l-.41,2.13.58-.75,1.85,1.45h0l2.43,1.9-3.12,4L103.29,232h0l-.67-.53-.2,1,2.25,1.76-2.35,3,.63.7,2.45-3.12,4.06,3.18-3,3.83.67.74,3.11-4,1.83,1.43h0L114.5,242,111.32,246l-2-1.54h0l-1.79-1.4,3.89,4.31,4,3.17-.55.7.67.74.66-.84,1.8,1.42h0l2.47,1.94-1.23,1.57.63.7,1.33-1.7,4.06,3.18-1.88,2.4.09.1.67.52,1.9-2.42,1.81,1.41h0l2.47,1.94-1.89,2.41-.67.86.63.7.77-1,1.89-2.41,4.06,3.18-3,3.84h0l-.21.26.67.74L134,269l1.92-2.45,1.81,1.42h0l2.47,1.94-3,3.83h0l-.6.76L134.7,273h0l-.34-.26,3.68,4.08,2.76,2.16-.38.48.67.74.48-.62,1.88,1.47h0l2.41,1.88-1.06,1.35.63.7,1.16-1.47,2.13,1.67.59-.72-2.15-1.68,1.69-2.16h0l1.91-2.43L153,280l.62-.76-2.27-1.78,3.18-4.06,2.37,1.86.59-.72-2.39-1.87,3.12-4,2.48,1.94.62-.76-2.5-2,3.18-4.06,2.59,2,.59-.72-2.61-2,1.92-2.45h0l1.68-2.14,2.72,2.13.62-.76-2.74-2.14,3.18-4.06,2.83,2.22.59-.72L170.55,253l3.12-4,2.94,2.31.62-.76Zm-10.43-6.95,4.06,3.18-3.12,4-4.06-3.18Zm-3.7,4.72,4.06,3.18L161,253.22,157,250Zm-1.48,10.25h0l-1.84,2.35-4.06-3.18,1.78-2.27,1.82-2.32,4.06,3.18ZM140.29,261l3.12-4,1.85,1.45h0l2.43,1.9-3.12,4-1.95-1.53h0Zm-9.83-7.72,3.12-4,1.85,1.45h0l2.43,1.9-3.12,4-1.95-1.53h0Zm-9.83-7.72,3.12-4L125.6,243h0L128,245l-3.12,4-1.95-1.53h0Zm-.77-.6-4.06-3.18,3.12-4L123,241Zm8.9.56,4.06,3.18-3.12,4-4.06-3.18Zm12.88,2.32-3.18,4.06-1.93-1.51h0l-2.35-1.85,3.18-4.06,1.88,1.47h0Zm14,2.4-1.74,2.22h0L152,254.84l-1.9-1.49h0l-2.38-1.86L149.7,249h0l1.66-2.12,1.81,1.41h0Zm-11.62,6,3.18-4.05,1.87,1.47h0l2.41,1.89-3.18,4.05-1.93-1.51h0Zm4.83-7.75h0L147,250.87l-4.06-3.18,1.71-2.18,1.89-2.41,4.06,3.18Zm-2.42,3.09-3.18,4.05-4.05-3.18,3.18-4.06Zm-13-3.66-4.06-3.18,3.18-4.05,4.06,3.18Zm5.17,5.31,4.05,3.18-3.12,4-4.05-3.18Zm6.13,12.44,4.06,3.18-3.18,4.05-4.06-3.18Zm.57-.73,3.12-4,4.05,3.18-3.12,4ZM149,260.2l3.18-4.05,4.06,3.18-3.18,4.05Zm6.13-18.14,1.83,1.43h0l2.45,1.92-3.18,4.06-2-1.54h0L152,246.11Zm-4.83-3.78,4.05,3.18-3.18,4.06-4.06-3.18Zm-5-3.94,1.83,1.43h0l2.45,1.92-3.18,4.06-2-1.55h0l-2.31-1.81Zm-3.79,4.83,1.81,1.42h0l2.47,1.94-1.89,2.41-1.71,2.18-1.9-1.49h0l-2.38-1.86,1.8-2.3h0Zm-4.83-3.78,4.06,3.18L139,240.82h0l-1.82,2.32L133.11,240l1.7-2.17Zm-6.91-1.51,1.91-2.43,1.8,1.42h0L136,234.8l-1.9,2.42-1.7,2.17-1.9-1.49h0L128.1,236Zm-2.26,2.89,1.87,1.47h0l2.41,1.88-3.18,4.06-1.92-1.51h0l-2.36-1.84ZM122.7,233l4.05,3.18-3.18,4.06L119.53,237Zm-5-3.94,1.87,1.47h0l2.41,1.89-3.18,4.05L116.87,235h0l-2.35-1.85Zm-4.83-3.78,4.05,3.18-3.18,4.06-4.05-3.18Zm-5.83,2h0l-2.35-1.84,3.18-4.06,1.87,1.47h0l2.41,1.88L109,228.74Zm3,10L106,234.07l3.12-4,4.06,3.18Zm3.1,2.44h0l-2.33-1.83,3.12-4,1.85,1.45h0l2.43,1.9-3.12,4Zm3,10.06L112,246.58l3.18-4.06,4.06,3.18Zm5,4-2-1.54h0l-2.31-1.81,3.18-4.06,1.83,1.43h0l2.45,1.92Zm4.79,3.75-4.06-3.18,3.18-4.05,4.06,3.18Zm5,4-2-1.54h0l-2.31-1.81,3.18-4.06,1.83,1.43h0l2.45,1.92Zm4.79,3.75L131.71,262l3.18-4.06,4.05,3.18Zm3.07,2.43h0l-2.31-1.81,3.18-4.06,1.83,1.43h0l2.45,1.92-3.18,4.06Zm2.55,10.66-4.06-3.18,1.69-2.16,1.9-2.43,4.06,3.18-3,3.83h0Zm5.65,3.2h0l-.61.77-1.91-1.49h0l-2.38-1.86,1.68-2.14h0l1.92-2.45,1.81,1.42h0l2.48,1.94Zm3.6-4.59-2-1.54h0l-2.31-1.81,3.18-4.05,1.83,1.43h0l2.45,1.92Zm3.75-4.79-1.95-1.53h0l-2.33-1.83,3.12-4,1.85,1.45h0l2.43,1.9Zm3.73-4.76-1.92-1.51h0L153.84,264l3.18-4.05,1.88,1.47h0l2.41,1.89Zm5.48-7h0l-1.73,2.21-1.9-1.49h0l-2.38-1.86.83-1.07h0l2.76-3.53L163,256h0l2.48,1.94Zm2.48-3.16-2-1.54h0l-2.31-1.81,3.18-4.06,1.83,1.43h0l2.45,1.92Zm3.75-4.79-1.95-1.53h0L165.55,249l3.12-4,1.85,1.45h0l2.43,1.9Z"/><polygon class="cls-11" points="163.65 226.01 193.76 241.65 223.88 226.01 223.88 254.87 193.76 242.18 163.65 254.87 163.65 226.01"/><polygon class="cls-50" points="165.96 227.27 165.96 252.32 192.59 241.1 193.64 241.65 196.87 239.97 223.76 251.3 223.76 254.87 193.64 242.18 163.53 254.87 163.53 226.01 165.96 227.27"/><ellipse class="cls-11" cx="193.2" cy="241.95" rx="8.53" ry="9.54"/><path class="cls-50" d="M193.2,232.41a7.66,7.66,0,0,1,1.55.17c-4,.82-7,4.7-7,9.37s3,8.55,7,9.37a7.66,7.66,0,0,1-1.55.17c-4.71,0-8.53-4.27-8.53-9.54S188.49,232.41,193.2,232.41Z"/><path class="cls-26" d="M237.86,32.3s-4.32-21.12-32.5-21.12c-20.38,0-22.63,14.32-33,14.32-18.14,0-10.42-21.08-10.42-21.08C136.7-5.79,100.61.1,100.61,39.07c0,25.83,20.05,42.22,51.21,42.22,42.41,0,53-42.37,86-21.55Z"/><path class="cls-26" d="M237.86,32.3c0-11.07,51.32-20.78,45.46,37.91a73.28,73.28,0,0,1-5.12,20.13s-12-8.12-12.71-19.63c-1-15.25-20.35-21.92-27.63-11Z"/><path class="cls-10" d="M151.82,81.29c-31.16,0-51.21-16.39-51.21-42.22,0-39,36.08-44.86,61.3-34.65C142.26,3.71,132,14,132,27.73s22.44,27.5,41,16.35c15.21-9.15,24.5-22.66,40.23-23.87,11.17-.85,18.7,5.27,24.67,12.08V59.74C205.32,38.8,193.92,81.29,151.82,81.29Z"/><path class="cls-10" d="M272.64,69.08c-2.13,11.67,5.56,21.25,5.56,21.25s-12-8.12-12.71-19.63c-1-15.25-20.35-21.92-27.63-11V32.3c10.26-5.7,23.92-1.68,30.56,6.64C274.85,47,274.48,59,272.64,69.08Z"/><path class="cls-25" d="M153.12,65.67c35.68-2.14,35.35-24.12,63.08-21.85,11.73,1,19.72,12.8,21.66,15.92-33.07-20.93-43.91,21.55-85.8,21.55-31.16,0-51.45-16.39-51.45-42.22a46.94,46.94,0,0,1,3-17.31C101.9,36,109.32,68.29,153.12,65.67Z"/><path class="cls-25" d="M248,49.06c15.55-.12,20.92,13.35,21,24.57.06,9.49,9.26,16.7,9.26,16.7s-12-8.12-12.71-19.63c-1-15.25-20.35-21.92-27.63-11C237.86,59.74,238.59,49.14,248,49.06Z"/><path class="cls-51" d="M270.09,46.81v0l0,0Z"/><path class="cls-26" d="M270.13,46.84h0Z"/><path class="cls-26" d="M270.14,46.81v0Z"/><path class="cls-25" d="M270.11,46.83h0v0Z"/><path class="cls-28" d="M265.48,70.71c.69,10.93,11.52,18.8,12.6,19.56v.08s-18.16-5.78-20.69-17.61-9.91-16.82-19.53-13C245.09,48.79,264.51,55.48,265.48,70.71Z"/><path class="cls-28" d="M237.86,59.74S224.51,53,215.4,57.65s-23.78,34-47.55,35.58c-21.14,1.37-45.23-11.09-58.34-23.43v-4.9c10.69,13.31,30.06,16.39,42.3,16.39C194.14,81.3,204.72,38.8,237.86,59.74Z"/></g></g></g></svg>