<svg xmlns="http://www.w3.org/2000/svg" viewBox="0 0 528.63 516"><defs><style>.cls-1{fill:none;}.cls-2{fill:#fafafa;}</style></defs><title>Asset 1</title><g id="Layer_2" data-name="Layer 2"><g id="레이어_1" data-name="레이어 1"><path class="cls-1" d="M511.6,271.9c-15.9-32.7-25-64.5-25-87.3a24.37,24.37,0,0,1,.1-2.7l.1-1.3v-.4c1.3-27.8,10.1-41.5,12.2-44.3a37.76,37.76,0,0,0,11-27.2,41.32,41.32,0,0,0-11.6-27.5L434,13A40.34,40.34,0,0,0,404.7.3a39.63,39.63,0,0,0-22.5,7c-1.5.9-23.3,14.6-44.4,14.6-11,0-18.1-3.5-27.9-8.3-11-5.4-24.4-12-41.8-12h-7.6C243.4,1.6,230,8,219.3,13.1c-9.9,4.7-17,8.1-28.3,8.1-21.4,0-43.5-13.7-44.6-14.4a40.22,40.22,0,0,0-51.8,6l-64.4,69c-7.9,8.4-11.8,18.2-11.4,28.4A38.9,38.9,0,0,0,30,136.7c2.1,2.8,10.6,16.2,11.9,43.6v.3l.1,1.3a24.37,24.37,0,0,1,.1,2.7c0,22.7-9.1,54.5-25,87.2-15.5,32-25.6,82.6-7.2,128.6,14,34.9,41.6,60.9,79.9,75.2,41.5,15.5,75.6,18.7,103.1,21.3,18.6,1.8,34.7,3.3,40.6,8.2.7.6,1.5,1.2,2.3,1.8a49.84,49.84,0,0,0,28.6,9.1,48.43,48.43,0,0,0,29.2-9.8,18.26,18.26,0,0,0,1.6-1.3c6-5,22.2-6.6,40.9-8.4,27.3-2.7,61.4-6.1,102.7-21.5,38.3-14.3,66-40.3,79.9-75.1C537.1,354.3,527.1,303.9,511.6,271.9Z"/><path class="cls-2" d="M502.6,276.3c-16.5-34-26-67.4-26-91.7,0-1.6,0-1.9.1-3.3l.1-1.3v-.2c1.6-32.4,12.7-48,14.6-50.4,11.8-11.5,11-29.3-.3-41.3L426.6,19.8a30.49,30.49,0,0,0-22.1-9.6,29.67,29.67,0,0,0-17,5.3c-1.4.9-25.3,16.3-50,16.3-13.4,0-22.1-4.3-32.3-9.3s-22-10.9-37.1-10.9h-7.6c-14.9,0-26.6,5.6-36.9,10.5s-19.1,9.1-32.6,9.1c-25,0-49.8-15.9-50.1-16A29.67,29.67,0,0,0,124,10.1a30.38,30.38,0,0,0-22.2,9.6l-64.4,69c-5.5,5.9-9.1,13.1-8.8,21.2.3,7.9,3.1,14.8,8.8,20.2,2,2.5,12.8,17.7,14.4,49.7v.2l.1,1.3c.1,1.4.1,1.7.1,3.3,0,24.2-9.5,57.6-26,91.6-14.6,30.1-24.1,77.6-6.9,120.6C32,429,57.6,453.1,93.2,466.3c40.3,15,73.7,18.2,100.5,20.7,22,2.1,37.8,3.6,46.1,10.5a19.22,19.22,0,0,0,1.7,1.3,39.53,39.53,0,0,0,22.8,7.3,38.37,38.37,0,0,0,23.2-7.8,10.59,10.59,0,0,0,1.2-1c8.3-6.9,24.3-8.5,46.4-10.7,26.8-2.6,60.1-5.9,100.2-20.9,35.6-13.3,61.3-37.3,74.1-69.5C526.6,353.6,517.1,306.3,502.6,276.3ZM458.2,179c0,27.2,10.6,68.2,28.5,105.1,12.9,26.6,21.4,68.3,6.4,105.7-11,27.4-33.1,48-63.9,59.5-38,14.2-70,17.3-95.8,19.9-25.2,2.5-43.4,4.3-55.9,14.7-.2.1-.3.3-.5.4a20.86,20.86,0,0,1-12.6,4.3,22.54,22.54,0,0,1-12.5-3.9c-.2-.2-.5-.4-.7-.6-12.5-10.4-30.6-12.1-55.7-14.5-25.8-2.4-57.9-5.5-96-19.7-30.8-11.5-52.9-32.1-63.9-59.5-15.1-37.6-6.7-79.6,6.3-106.3,17.9-36.9,27-77.9,27-105h0c-2-41.9-18.2-60.8-18.4-61a12.47,12.47,0,0,1,0-17.3l64.4-69a12.77,12.77,0,0,1,16.3-1.9c.3.2,29,19,59.9,19,17.6,0,29.1-5.5,40.2-10.8,9.5-4.5,18.4-8.8,29.2-8.8h7.6c11,0,20.3,4.6,29.4,9.1,11.1,5.5,22.6,11.1,40.1,11.1,31.1,0,59.5-19.1,59.8-19.3A12.51,12.51,0,0,1,413.6,32l64.3,68.2a12.57,12.57,0,0,1-.2,17.3c-.1.1-17.5,19.4-19.5,61.5"/><path class="cls-2" d="M313.4,97.9a38.16,38.16,0,0,0-6.5.5v40a29.43,29.43,0,0,0,5.2.3q9.6.15,15-5.4c3.6-3.6,5.4-9,5.4-16,0-6.3-1.7-11.1-5-14.4S319.5,97.9,313.4,97.9Z"/><path class="cls-2" d="M260.6,97.6a30.39,30.39,0,0,0-6.1.4v17.6h5.7c3.4,0,6.1-.8,8-2.5a8.49,8.49,0,0,0,2.9-6.6C271.1,100.6,267.6,97.6,260.6,97.6Z"/><path class="cls-2" d="M402.3,56.7c-12.9,7-37.6,18.1-64.7,18.1-23.4,0-38.8-7.6-51.3-13.7-7.4-3.6-13.2-6.5-18.2-6.5h-7.6c-5.1,0-11,2.8-18.4,6.3-12.4,5.9-27.8,13.3-51.1,13.3-27.1,0-51.7-10.9-64.6-17.8L75.9,110.5c6.2,10.1,14.7,28.3,17.9,55.3h341c3.1-27.2,11.6-45.5,17.9-55.7Zm-222,90.1H169l-13.9-24.2a181.39,181.39,0,0,1-9.9-19.7l-.3.1c.4,6.8.6,15,.6,24.5v19.3H135.4v-57h12.4l13.7,23.6a178.38,178.38,0,0,1,9.4,19.1l.2-.1c-.6-6.6-.9-14.6-.9-23.9V89.7h10.1Zm50.2,0H196.2v-57h33v9.1H207.1v14H228v9H207.1v16h23.4v8.9Zm42.4,0c-1-1.9-2.3-6.3-3.8-13.5-.8-3.7-1.9-6.2-3.4-7.6a9,9,0,0,0-6.4-2.1h-4.7v23.2H243.8V90.5a90.78,90.78,0,0,1,15.8-1.2c8.1,0,13.9,1.5,17.5,4.6,3.3,2.7,5,6.6,5,11.6a14.33,14.33,0,0,1-3.1,9.1,15.36,15.36,0,0,1-7,5.1v.3c3.7,1.5,6.3,5.1,7.8,11s2.3,9.3,2.5,9.7a34.07,34.07,0,0,0,2,6.2l-11.4-.1Zm62.2-7c-5.6,5.1-14.1,7.6-25.4,7.6a109.29,109.29,0,0,1-13.8-.8V90.5a101.28,101.28,0,0,1,16.3-1.2c10,0,17.6,2.1,22.8,6.2,6,4.9,9,12,9,21.4C344,126.9,341,134.5,335.1,139.8Zm51,2.8c-3.9,3.4-9.3,5.1-16.3,5.1-6.3,0-11.3-1.2-15.2-3.5l2.3-9.1a26.87,26.87,0,0,0,13.6,3.6c3.2,0,5.6-.7,7.3-2a6.46,6.46,0,0,0,2.6-5.4,6.73,6.73,0,0,0-2.2-5.2c-1.5-1.4-4-2.7-7.6-4.1-10.1-3.7-15.1-9.3-15.1-16.6A14.64,14.64,0,0,1,361,93.6c3.7-3.1,8.6-4.7,14.8-4.7a29.29,29.29,0,0,1,13.5,2.8l-2.5,8.8a25,25,0,0,0-11.3-2.6,11.1,11.1,0,0,0-6.9,2,5.68,5.68,0,0,0-2.1,4.5,6.15,6.15,0,0,0,2.5,5,37.26,37.26,0,0,0,8,4.1c9.6,3.8,14.5,9.4,14.5,16.9A15.34,15.34,0,0,1,386.1,142.6Z"/><path class="cls-2" d="M344.4,315.1c13.6,0,23.4-5.1,29.5-15.2,1.4-2.4,2.1-6.3,2.1-11.6,0-13.2-2.3-24.1-7-32.6-5.7-9.9-14.1-14.9-25.3-14.9q-13.65,0-21.9,11.4c-5.5,7.6-8.2,16.9-8.2,27.9,0,10.2,2.7,18.5,8.2,25.1S334.9,315.1,344.4,315.1Z"/><path class="cls-2" d="M59.1,380.9c8.4,21,25,36.2,49.2,45.3,35,13,64,15.8,89.6,18.2,25.9,2.5,48.4,4.6,66.4,17.8,18-13.3,40.7-15.6,66.7-18.1,25.5-2.5,54.5-5.4,89.4-18.4,24.3-9.1,40.9-24.3,49.3-45.2,11.9-29.7,4.9-63.6-5.7-85.3-10.8-22.1-28.4-64.2-30.2-104.1H94.9C93.1,231,75.5,273,64.7,295.2,54.6,315.9,47,350.8,59.1,380.9ZM294.6,232.4q20.25-20.85,51-20.9,33.75,0,52.7,24.4,18,22.8,18,60,0,51.75-25.6,82.8-27.15,32.55-77,36.2a140,140,0,0,1-21.6.6V384.4q6.75.6,20.1-.6c15.2-1.2,28.2-6,39-14.3,13-10.1,21.3-24.3,25-42.3h-.9c-9.9,11-23.7,16.4-41.1,16.4q-25.65,0-42.6-17.1t-17.1-44.2A68.67,68.67,0,0,1,294.6,232.4Zm-162,0q20.25-20.85,51-20.9,33.75,0,52.7,24.4,18,22.8,18,60,0,51.75-25.6,82.8-27.15,32.55-77,36.2a140,140,0,0,1-21.6.6V384.4q6.75.6,20.1-.6c15.2-1.2,28.2-6,39-14.3,13-10.1,21.3-24.3,25-42.3h-.9c-9.9,11-23.7,16.4-41.1,16.4q-25.65,0-42.6-17.1t-17.1-44.2C112.3,263,119.1,246.3,132.6,232.4Z"/><path class="cls-2" d="M182.4,315.1c13.6,0,23.4-5.1,29.5-15.2,1.4-2.4,2.1-6.3,2.1-11.6,0-13.2-2.3-24.1-7-32.6-5.7-9.9-14.1-14.9-25.3-14.9q-13.65,0-21.9,11.4c-5.5,7.6-8.2,16.9-8.2,27.9,0,10.2,2.7,18.5,8.2,25.1S172.8,315.1,182.4,315.1Z"/></g></g></svg>