<svg xmlns="http://www.w3.org/2000/svg" viewBox="0 0 273.32 530.25"><defs><style>.cls-1{isolation:isolate;}.cls-2{fill:#4d3313;}.cls-3{fill:#fff;}.cls-4{fill:#251e1c;}.cls-5{fill:#735029;}.cls-6{fill:#60421f;}.cls-7{fill:#e7b53e;}.cls-8{fill:#e8d8b1;}.cls-22,.cls-9{mix-blend-mode:multiply;}.cls-10,.cls-22,.cls-26{fill:#eee6cf;}.cls-11{fill:#b25439;}.cls-12{fill:#8a402b;}.cls-13{fill:#52200a;}.cls-14{fill:#c5b8a8;}.cls-15{fill:#9a9084;}.cls-16{fill:#b6bdd5;}.cls-17{fill:#81b19b;}.cls-18{fill:#aebaa6;}.cls-19{fill:#456356;}.cls-20{fill:#abc4ae;}.cls-21{fill:#f9fae4;}.cls-23,.cls-30{fill:#8f6022;}.cls-23,.cls-24,.cls-25,.cls-26{fill-rule:evenodd;}.cls-24,.cls-29{fill:#704a14;}.cls-25,.cls-31{fill:#4b2f00;}.cls-27{fill:#e2cfa4;}.cls-28{fill:#f1e8d1;}</style></defs><title>Asset 1_1</title><g class="cls-1"><g id="Layer_2" data-name="Layer 2"><g id="Layer_1-2" data-name="Layer 1"><path class="cls-2" d="M85.82,509.06c7.09,0,7.71-4,11.08-5.85.62-.34,5.66-.21,6.6.71-.34-.24-1.11,0-2,.58-3.22,2.09-8.07,6.23-15.16,6.23s-12.85-7.1-16.92-6c0,0,2-1.11,6.33,1C78.8,507.26,80.79,509.06,85.82,509.06Z"/><path class="cls-3" d="M35.79,522.21a5,5,0,0,0,2.38.67c4.17.4,17.61,2.1,31.58-.3s15.22-1.4,20.32-1.1c4.94.29,15-2.89,15-2.89,1,.34.6,3.21.52,5.32s-10,3.61-15.11,3.31-6.36-1.31-20.32,1.1-27.41.7-31.58.3-3.26-2.1-3.23-5.78c0-.58.39-.52.42-.62Z"/><path class="cls-4" d="M38.53,528.65c4.17.4,17.61,2.1,31.58-.3s15.21-1.41,20.32-1.1,15-1.09,15.11-3.31c.05-1.31.18-1,.12.64-.09,2.21-10,3.61-15.11,3.31s-6.36-1.3-20.32,1.1-27.41.7-31.58.3c-2.5-.24-3.17-1-3.3-2.27C35.65,527.93,36.46,528.45,38.53,528.65Z"/><path class="cls-5" d="M90.07,521.47c-5.11-.3-6.36-1.3-20.32,1.1s-27.41.7-31.58.3a5,5,0,0,1-2.38-.67c1-3.26,8.46-5.29,12.5-6.33,4.27-1.1,17.09-10,21.16-11.13s9.83,6,16.92,6,11.93-4.14,15.16-6.23,2,2.85,2.4,3.75a17.83,17.83,0,0,1,1.17,10.33S95,521.76,90.07,521.47Z"/><path class="cls-6" d="M37.24,520.27a105.8,105.8,0,0,0,25.89-.84c14-2.41,15.22-1.4,20.33-1.1,4.94.29,15-2.89,15-2.89a18.07,18.07,0,0,0-.5-8.55c1.35-.87,2.52-1.73,3.53-2.38,3.22-2.09,2,2.85,2.4,3.75a17.83,17.83,0,0,1,1.17,10.33s-10.08,3.18-15,2.89c-5.11-.3-6.36-1.3-20.32,1.1s-27.41.7-31.58.3a5,5,0,0,1-2.38-.67A4.23,4.23,0,0,1,37.24,520.27Z"/><path class="cls-4" d="M39.27,523.28l-1.13-.11a5.4,5.4,0,0,1-2.53-.72l-.18-.13.06-.2c.94-3.11,7-5.05,12.72-6.54,2.14-.55,6.58-3.17,10.86-5.7s8.26-4.88,10.29-5.43a3.91,3.91,0,0,1,1-.12c1.83,0,3.86,1.17,6.21,2.53,2.9,1.68,6.18,3.58,9.8,3.58,6,0,10.34-3,13.52-5.19.52-.36,1-.69,1.47-1,1-.66,1.76-.73,2.23-.26s.57,1.8.55,2.89a4.63,4.63,0,0,0,.07,1.24,18,18,0,0,1,1.19,10.51l0,.16-.17.05c-.38.12-9.32,2.92-14.44,2.92h0l-.7,0c-1-.06-1.8-.14-2.6-.22a38.26,38.26,0,0,0-4.07-.25,84.54,84.54,0,0,0-13.58,1.56,94,94,0,0,1-15.85,1.27A139.48,139.48,0,0,1,39.27,523.28ZM87.52,521c.8.08,1.62.16,2.57.22l.66,0h0c4.64,0,12.8-2.45,14.08-2.84a17.77,17.77,0,0,0-1.19-10,4.17,4.17,0,0,1-.12-1.48c0-.87,0-2.08-.37-2.47a.45.45,0,0,0-.33-.13,2.26,2.26,0,0,0-1.13.46c-.45.29-.94.63-1.45,1C97,508,92.55,511,86.36,511c-3.78,0-7.14-1.95-10.11-3.66-2.27-1.31-4.23-2.45-5.9-2.45a3.18,3.18,0,0,0-.82.11c-1.94.53-6.11,3-10.14,5.36-4.33,2.55-8.8,5.19-11,5.77-3.31.86-11,2.84-12.22,5.93a5.57,5.57,0,0,0,2,.5l1.14.11a138.67,138.67,0,0,0,14.61.84,93.16,93.16,0,0,0,15.75-1.26,85.18,85.18,0,0,1,13.69-1.57A38.63,38.63,0,0,1,87.52,521Z"/><path class="cls-4" d="M36.35,521.57l-.21-.55c.18-.06.34,0,.56.13a3.93,3.93,0,0,0,1.44.44l1.14.11c5.24.54,17.52,1.8,30.36-.41C81,519.32,84,519.62,87.47,520c.73.07,1.48.15,2.34.2a17.45,17.45,0,0,1,5.3-8,22.2,22.2,0,0,1-3.9,1.42,19.21,19.21,0,0,1-3.85.57A14.85,14.85,0,0,1,83,513.7a27.77,27.77,0,0,1-4.39-1.48,43.9,43.9,0,0,1-4.26-2.11c-1.38-.77-2.73-1.62-4.07-2.36a2.42,2.42,0,0,0-1.94.32,20.09,20.09,0,0,0-1.91,1.12c-2.46,1.61-4.77,3.15-6.88,4.25a32.75,32.75,0,0,1-5.29,2.26c-.66.22-1.19.36-1.55.45l-.55.14s.77-.21,2.06-.7a35,35,0,0,0,5.16-2.45c1-.58,2.11-1.25,3.23-2s2.28-1.58,3.52-2.4a19,19,0,0,1,2-1.17,5.34,5.34,0,0,1,1.14-.43,1.94,1.94,0,0,1,1.36.1c1.39.75,2.72,1.57,4.1,2.33s2.77,1.48,4.19,2.1a26.65,26.65,0,0,0,4.28,1.49,15.76,15.76,0,0,0,4.18.5,18.57,18.57,0,0,0,3.77-.45,24.91,24.91,0,0,0,3.09-.92c.56-.2,1.06-.41,1.51-.62a19.16,19.16,0,0,1,8.18-3.71l.09.58c-.1,0-10.13,1.51-13.53,11.65,5,.11,14.41-2.86,14.51-2.89l.19.56C104.72,518,95,521,90,520.76c-1-.06-1.79-.14-2.6-.22-3.41-.34-6.36-.63-17.65,1.32a94.12,94.12,0,0,1-15.86,1.27,139,139,0,0,1-14.67-.85l-1.14-.12a4.48,4.48,0,0,1-1.66-.5,1.06,1.06,0,0,0-.19-.08A.23.23,0,0,0,36.35,521.57Z"/><path class="cls-7" d="M52,513.91s1.38-.44,3.23,1.92c1.34,1.71,2.27.4,1.63-.7a6.86,6.86,0,0,0-2.79-2.19C53.22,512.63,51.88,513,52,513.91Z"/><path class="cls-7" d="M55.89,511.75s1.37-.44,3.22,1.92c1.34,1.71,2.27.4,1.63-.69A6.87,6.87,0,0,0,58,510.78C57.09,510.46,55.75,510.82,55.89,511.75Z"/><path class="cls-7" d="M59.21,509.83s1.38-.44,3.22,1.92c1.34,1.71,2.27.4,1.63-.7a6.88,6.88,0,0,0-2.79-2.19C60.41,508.55,59.07,508.91,59.21,509.83Z"/><path class="cls-7" d="M62.69,507.81s1.38-.44,3.23,1.92c1.34,1.71,2.27.39,1.63-.7a6.83,6.83,0,0,0-2.79-2.19C63.89,506.52,62.55,506.89,62.69,507.81Z"/><path class="cls-8" d="M96.87,498.72l0,4.49a6,6,0,0,1,2.63,2.37l-2.65,1.65a21.1,21.1,0,0,1-11.44,3.22c-3.93-.16-10.67-4.27-10.67-4.27v-10S86.73,499.86,96.87,498.72Z"/><g class="cls-9"><path class="cls-10" d="M88.5,501.68a106.39,106.39,0,0,1-13.73.58v-3.43a132.36,132.36,0,0,0,22.11-.11l0,4.49a5.33,5.33,0,0,1,2.63,2.37l-2.65,1.65s-3.93,3.18-8.38,3.22Z"/></g><path class="cls-2" d="M189.82,509.06c-7.09,0-7.71-4-11.08-5.85-.62-.34-5.66-.21-6.6.71.34-.24,1.11,0,2,.58,3.22,2.09,8.07,6.23,15.15,6.23s12.85-7.1,16.92-6c0,0-2-1.11-6.33,1C196.83,507.26,194.85,509.06,189.82,509.06Z"/><path class="cls-3" d="M239.85,522.21a5.06,5.06,0,0,1-2.38.67c-4.17.4-17.61,2.1-31.58-.3s-15.22-1.4-20.32-1.1c-4.95.29-15-2.89-15-2.89-1,.34-.6,3.21-.52,5.32s10,3.61,15.11,3.31,6.36-1.31,20.32,1.1,27.41.7,31.58.3,3.26-2.1,3.23-5.78c0-.58-.39-.52-.42-.62Z"/><path class="cls-4" d="M237.11,528.65c-4.17.4-17.61,2.1-31.58-.3s-15.22-1.41-20.32-1.1-15-1.09-15.11-3.31c-.05-1.31-.18-1-.12.64.09,2.21,10,3.61,15.11,3.31s6.36-1.3,20.32,1.1,27.41.7,31.58.3c2.5-.24,3.17-1,3.3-2.27C240,527.93,239.17,528.45,237.11,528.65Z"/><path class="cls-5" d="M185.56,521.47c5.1-.3,6.36-1.3,20.32,1.1s27.41.7,31.58.3a5.06,5.06,0,0,0,2.38-.67c-1-3.26-8.46-5.29-12.5-6.33-4.27-1.1-17.09-10-21.16-11.13s-9.83,6-16.92,6-11.93-4.14-15.15-6.23-2,2.85-2.4,3.75a17.85,17.85,0,0,0-1.17,10.33S180.62,521.76,185.56,521.47Z"/><path class="cls-6" d="M238.39,520.27a105.81,105.81,0,0,1-25.9-.84c-14-2.41-15.22-1.4-20.32-1.1-4.94.29-15-2.89-15-2.89a18.05,18.05,0,0,1,.5-8.55c-1.35-.87-2.52-1.73-3.53-2.38-3.22-2.09-2,2.85-2.4,3.75a17.85,17.85,0,0,0-1.17,10.33s10.08,3.18,15,2.89c5.1-.3,6.36-1.3,20.32,1.1s27.41.7,31.58.3a5.06,5.06,0,0,0,2.38-.67A4.25,4.25,0,0,0,238.39,520.27Z"/><path class="cls-4" d="M221.69,524.13a94,94,0,0,1-15.85-1.27,84.55,84.55,0,0,0-13.58-1.56,38.27,38.27,0,0,0-4.07.25c-.8.08-1.63.16-2.6.22l-.7,0h0c-5.12,0-14.06-2.8-14.44-2.92l-.17-.05,0-.16a18,18,0,0,1,1.19-10.51,4.68,4.68,0,0,0,.07-1.24c0-1.09,0-2.32.55-2.89s1.22-.4,2.24.26c.46.3.94.63,1.46,1,3.18,2.19,7.53,5.19,13.52,5.19,3.61,0,6.9-1.9,9.8-3.58,2.35-1.36,4.38-2.53,6.22-2.53a3.92,3.92,0,0,1,1,.12c2,.55,6,2.92,10.29,5.43s8.72,5.15,10.86,5.7c5.76,1.49,11.78,3.43,12.72,6.54l.06.2-.18.13a5.41,5.41,0,0,1-2.53.72l-1.13.11A139.54,139.54,0,0,1,221.69,524.13Zm-29.43-3.42a85.17,85.17,0,0,1,13.69,1.57,93.15,93.15,0,0,0,15.75,1.26,138.63,138.63,0,0,0,14.61-.84l1.14-.11a5.57,5.57,0,0,0,2-.5c-1.24-3.09-8.9-5.07-12.22-5.93-2.23-.58-6.7-3.21-11-5.77-4-2.38-8.19-4.84-10.13-5.36a3.18,3.18,0,0,0-.82-.11c-1.67,0-3.63,1.14-5.9,2.45-3,1.72-6.33,3.66-10.11,3.66-6.19,0-10.63-3.06-13.87-5.29-.52-.36-1-.69-1.45-1a2.26,2.26,0,0,0-1.13-.46.45.45,0,0,0-.33.13c-.4.39-.39,1.59-.37,2.47a4.2,4.2,0,0,1-.12,1.48,17.75,17.75,0,0,0-1.19,10c1.28.39,9.44,2.84,14.08,2.84h0l.66,0c1-.06,1.78-.14,2.57-.22A38.6,38.6,0,0,1,192.25,520.71Z"/><path class="cls-4" d="M239.28,521.57l.21-.55c-.18-.06-.34,0-.56.13a4,4,0,0,1-1.45.44l-1.14.11c-5.24.54-17.52,1.8-30.36-.41-11.38-2-14.36-1.67-17.82-1.32-.73.07-1.48.15-2.34.2a17.42,17.42,0,0,0-5.3-8,22.41,22.41,0,0,0,3.9,1.42,19.24,19.24,0,0,0,3.85.57,14.84,14.84,0,0,0,4.34-.45,27.8,27.8,0,0,0,4.39-1.48,43.81,43.81,0,0,0,4.26-2.11c1.39-.77,2.73-1.62,4.07-2.36a2.42,2.42,0,0,1,1.94.32,19.65,19.65,0,0,1,1.91,1.12c2.46,1.61,4.77,3.15,6.88,4.25a32.81,32.81,0,0,0,5.29,2.26c.66.22,1.19.36,1.55.45l.55.14s-.77-.21-2.07-.7a35.08,35.08,0,0,1-5.16-2.45c-1-.58-2.11-1.25-3.23-2s-2.28-1.58-3.51-2.4a19.09,19.09,0,0,0-2-1.17,5.35,5.35,0,0,0-1.14-.43,1.93,1.93,0,0,0-1.35.1c-1.39.75-2.72,1.57-4.1,2.33s-2.77,1.48-4.19,2.1a26.69,26.69,0,0,1-4.28,1.49,15.77,15.77,0,0,1-4.18.5,18.59,18.59,0,0,1-3.78-.45,24.91,24.91,0,0,1-3.09-.92c-.56-.2-1.06-.41-1.51-.62a19.16,19.16,0,0,0-8.18-3.71l-.09.58c.1,0,10.13,1.51,13.53,11.65-5,.11-14.42-2.86-14.51-2.89l-.19.56c.41.13,10.18,3.19,15.13,2.91,1-.06,1.79-.14,2.6-.22,3.41-.34,6.36-.63,17.65,1.32a94.1,94.1,0,0,0,15.85,1.27,139.16,139.16,0,0,0,14.68-.85l1.13-.12a4.51,4.51,0,0,0,1.66-.5,1,1,0,0,1,.19-.08A.23.23,0,0,1,239.28,521.57Z"/><path class="cls-7" d="M223.61,513.91s-1.38-.44-3.22,1.92c-1.34,1.71-2.27.4-1.63-.7a6.86,6.86,0,0,1,2.79-2.19C222.41,512.63,223.75,513,223.61,513.91Z"/><path class="cls-7" d="M219.74,511.75s-1.38-.44-3.22,1.92c-1.34,1.71-2.27.4-1.63-.69a6.86,6.86,0,0,1,2.78-2.19C218.54,510.46,219.88,510.82,219.74,511.75Z"/><path class="cls-7" d="M216.42,509.83s-1.38-.44-3.23,1.92c-1.34,1.71-2.27.4-1.63-.7a6.88,6.88,0,0,1,2.79-2.19C215.22,508.55,216.56,508.91,216.42,509.83Z"/><path class="cls-7" d="M212.94,507.81s-1.38-.44-3.23,1.92c-1.34,1.71-2.27.39-1.63-.7a6.85,6.85,0,0,1,2.79-2.19C211.75,506.52,213.08,506.89,212.94,507.81Z"/><path class="cls-8" d="M178.76,498.72l0,4.49a6,6,0,0,0-2.63,2.37l2.65,1.65a21.1,21.1,0,0,0,11.44,3.22c3.93-.16,10.67-4.27,10.67-4.27v-10S188.9,499.86,178.76,498.72Z"/><g class="cls-9"><path class="cls-10" d="M187.13,501.68c4.64.52,10.23.4,13.73-.54v-2.3s-11.84-.07-22.11-.11l0,4.49a5.33,5.33,0,0,0-2.63,2.37l2.65,1.65s3.93,3.18,8.37,3.22Z"/></g><path class="cls-11" d="M218.82,314.86l-13,179s-4.59,4.29-14.76,4.29-14.89-4.29-14.89-4.29v-126s-21.67-2.55-38.8-2.55A326.21,326.21,0,0,0,101,367.83v126s-4.29,4.29-15.5,4.29-14.15-4.29-14.15-4.29l-13.9-179Z"/><path class="cls-12" d="M195.64,493.81l13-179h10.22l-13,178.27s-4.59,4.29-14.76,4.29A32.6,32.6,0,0,1,186,497C192.6,496,195.64,493.81,195.64,493.81Z"/><path class="cls-12" d="M90.75,493.81l-.06-124.42L101,367.83V493s-4.29,4.29-15.5,4.29a35.16,35.16,0,0,1-5.06-.34C87.79,496,90.75,493.81,90.75,493.81Z"/><path class="cls-13" d="M56.55,314.07l.06.84L60,359.66l3.45,44.74,7,89.47,0,.24.12.15.21.26.2.2c.13.13.26.27.4.39l.85.65a16,16,0,0,0,1.83,1c.64.26,1.27.57,1.93.77l2,.55c.66.19,1.36.24,2,.36a18.24,18.24,0,0,0,2,.26l2,.09,1,0c.19,0,.28,0,.54,0l.51,0,2-.1a15.54,15.54,0,0,0,2-.17l2-.3a15.64,15.64,0,0,0,2-.44,16.64,16.64,0,0,0,2-.56c.64-.25,1.29-.46,1.91-.75a20.58,20.58,0,0,0,1.83-1,10.46,10.46,0,0,0,1.73-1.26l.22-.2v-.33l-.4-125.65c1.44-.18,2.88-.37,4.33-.51l3.72-.39,2-.15c1.31-.08,2.64-.22,4-.27l4.19-.18c1.42,0,2.87-.15,4.33-.17s3,0,4.45-.07c3-.11,6,0,9.07,0,1.52,0,3,0,4.55.07l4.52.12c3,.15,5.94.23,8.79.39s5.6.3,8.21.52,5.08.37,7.36.57c1.81.14,3.49.31,5,.45l-.08,30.79-.15,31.5-.14,31.49-.08,31.5v.33l.24.2a12.15,12.15,0,0,0,1.73,1.19,19.57,19.57,0,0,0,1.81.94c.61.3,1.26.5,1.88.75a16,16,0,0,0,1.94.58,14.33,14.33,0,0,0,2,.46l2,.32a18.7,18.7,0,0,0,2,.15l2,.1c.76,0,1.37-.06,2.06-.1s1.35,0,2-.14l2-.32a13.26,13.26,0,0,0,2-.44,17.17,17.17,0,0,0,1.95-.58c.63-.25,1.28-.46,1.89-.75s1.24-.57,1.81-1a11.63,11.63,0,0,0,1.73-1.21l.22-.19,0-.31L213,404.37l3-44.75,2.92-44.85-40.44-.26-40.35-.16-80.7-.28Zm1.75,1.56,79.82-.27,40.35-.16,40.25-.25-3.56,44.62-3.44,44.73-6.65,89.13a11.49,11.49,0,0,1-1.24.84c-.51.34-1.1.58-1.65.87s-1.17.46-1.75.7a14.63,14.63,0,0,1-1.81.54,12.17,12.17,0,0,1-1.86.42l-1.89.3c-.63.1-1.28.09-1.92.14l-1.88.1-2-.1a17.44,17.44,0,0,1-1.95-.15l-1.87-.3a12.84,12.84,0,0,1-1.85-.42,14.18,14.18,0,0,1-1.82-.54c-.58-.24-1.2-.42-1.76-.7a17,17,0,0,1-1.66-.86,11.74,11.74,0,0,1-1.24-.83l-.08-31.14-.14-31.49-.15-31.5-.08-30.74.54,0,4.79.49,3.09.33,1.09.13-1.07-.26c-.7-.17-1.72-.43-3-.7s-2.9-.61-4.73-1-3.9-.73-6.18-1l-3.54-.54-3.8-.48c-2.61-.35-5.38-.61-8.24-.87-1.43-.15-2.89-.22-4.37-.33s-3-.23-4.48-.29l-4.56-.17c-1.53-.07-3.06-.12-4.6-.11-3.07,0-6.14,0-9.16.09s-6,.22-8.87.47l-4.23.33c-1.38.12-2.72.33-4,.48-2.62.34-5.1.59-7.35,1.05s-4.34.8-6.17,1.14-3.4.83-4.69,1.15c-2.59.66-4.06,1.06-4.06,1.06l4.17-.55,4.76-.68,2.75-.28-.4,125.39a10.33,10.33,0,0,1-1.22.83,18.49,18.49,0,0,1-1.66.86c-.57.26-1.18.45-1.77.67a15,15,0,0,1-1.83.52,13.27,13.27,0,0,1-1.87.41l-1.91.28a14.52,14.52,0,0,1-1.93.15l-1.93.09-.48,0c-.07,0-.3,0-.45,0l-1,0-2-.1a5.51,5.51,0,0,1-1-.1l-.93-.15c-.62-.12-1.25-.16-1.86-.33L76.57,496c-.6-.19-1.15-.47-1.73-.7a15.37,15.37,0,0,1-1.58-.89l-.7-.54c-.11-.09-.2-.19-.3-.29l-.12-.12-6.84-89.23-3.5-44.74Z"/><path class="cls-13" d="M190.4,332.75c0,.21.06.55.12,1s.16,1,.28,1.55.28,1.27.51,2,.48,1.5.79,2.32.7,1.65,1.12,2.5a25.63,25.63,0,0,0,1.49,2.55c.28.42.55.85.85,1.26l1,1.2a24.51,24.51,0,0,0,2.1,2.26,10.49,10.49,0,0,0,1.14,1l1.15.94c.76.62,1.6,1.08,2.35,1.6a18.27,18.27,0,0,0,2.24,1.24,17.44,17.44,0,0,0,2,.93l1.57.6,1.37.52-1.39-.46-1.61-.52a17.85,17.85,0,0,1-2-.84,19,19,0,0,1-2.33-1.13c-.78-.48-1.66-.91-2.47-1.5l-1.23-.9a10.83,10.83,0,0,1-1.22-1,25.64,25.64,0,0,1-2.29-2.21l-1.07-1.19c-.33-.41-.64-.84-1-1.26a26.14,26.14,0,0,1-1.69-2.57c-.49-.87-.94-1.72-1.31-2.55s-.71-1.63-1-2.39-.47-1.45-.65-2.08-.3-1.18-.38-1.64-.16-.88-.19-1.15l1.75-.46S190.38,332.52,190.4,332.75Z"/><path class="cls-13" d="M65.91,355.1a17.17,17.17,0,0,0,2-.93,19,19,0,0,0,2.24-1.23c.74-.51,1.59-1,2.35-1.6l1.15-.94a10.13,10.13,0,0,0,1.14-1,24.42,24.42,0,0,0,2.1-2.26l1-1.2c.3-.42.57-.84.85-1.26a26.67,26.67,0,0,0,1.49-2.55c.42-.86.81-1.7,1.12-2.51s.59-1.59.79-2.32.37-1.4.51-2,.22-1.12.28-1.56.1-.77.12-1l0-.36,1.75.46c0,.27-.1.69-.19,1.15s-.23,1-.38,1.64-.37,1.33-.65,2.07-.59,1.55-1,2.38-.83,1.69-1.31,2.56a27.67,27.67,0,0,1-1.69,2.57c-.32.42-.62.85-1,1.26l-1.07,1.19a25.25,25.25,0,0,1-2.29,2.21,10.57,10.57,0,0,1-1.22,1l-1.23.91c-.81.59-1.69,1-2.47,1.5A19.12,19.12,0,0,1,68,354.41a17.46,17.46,0,0,1-2,.84l-1.61.52-1.4.46,1.37-.53Z"/><rect class="cls-13" x="132.52" y="317.95" width="1.35" height="47.32"/><rect class="cls-13" x="140.55" y="317.95" width="1.35" height="47.32"/><path class="cls-14" d="M208.66,483.38c0-3.22-4.32-2.35-9.11-2.35-6.88,0-20.54.75-23.89-.18s-.24,4.7-.24,8.59c0,3.58-.27,6.43-.27,8.94,0,1.92,21.7-2,30.53,1.8,3.53,1.52,3.19-2.56,3-5.87C208.35,490.29,208.66,487.94,208.66,483.38Z"/><path class="cls-15" d="M199.7,497.65c3.53,1.52,3.19-2.56,3-5.87-.28-3.93,0-6.27,0-10.6,3.39-.11,6-.06,6,2.43,0,4.56-.31,6.91,0,10.93.23,3.3.57,7.39-3,5.87-8.83-3.81-30.53.12-30.53-1.8,0-.73,0-1.49.06-2.29C182.3,496,193.84,495.12,199.7,497.65Z"/><path class="cls-4" d="M205.47,500.64c-2.64-1.14-6.81-1.69-12.72-1.69-3.22,0-6.45.16-9.29.3-2.18.11-4.06.2-5.5.2-1.76,0-3.33-.08-3.33-1.06,0-1.16.06-2.39.12-3.7.07-1.55.15-3.3.15-5.24a19.66,19.66,0,0,0-.74-4.33c-.5-2-.89-3.6-.23-4.4a1.73,1.73,0,0,1,1.87-.34,35.37,35.37,0,0,0,7.3.45c2.85,0,6.06-.08,9.17-.16,2.72-.06,5.28-.13,7.28-.13.87,0,1.72,0,2.54-.06s1.48,0,2.15,0c1.73,0,4.94,0,4.94,3,0,1.68,0,3.07-.08,4.34a59.38,59.38,0,0,0,.06,6.56v.16c.17,2.4.34,4.88-.74,6A1.89,1.89,0,0,1,207,501,3.89,3.89,0,0,1,205.47,500.64Zm-3.35-19.17c-.82,0-1.69.06-2.57.06-2,0-4.55.06-7.26.13-3.11.08-6.33.16-9.19.16a35.28,35.28,0,0,1-7.58-.49c-.49-.13-.73,0-.76,0-.35.42.08,2.16.42,3.55a20.34,20.34,0,0,1,.77,4.56c0,2-.08,3.72-.16,5.28-.06,1.25-.11,2.43-.12,3.53a7.34,7.34,0,0,0,2.29.2c1.42,0,3.29-.09,5.45-.2,2.86-.14,6.09-.3,9.34-.3,6.06,0,10.36.58,13.14,1.78.84.36,1.42.39,1.77,0,.78-.8.61-3.26.47-5.25v-.16a59.94,59.94,0,0,1-.06-6.65c0-1.27.08-2.65.08-4.32,0-1.46-1-2-3.9-2C203.58,481.42,202.86,481.45,202.12,481.47Z"/><path class="cls-16" d="M203,487.58s-3.77,1.54-14.52.11"/><path class="cls-4" d="M203,487.58s-.23,0-.63.08c-.19,0-.44,0-.72.05s-.58,0-.93.05l-1.09,0c-.39,0-.8,0-1.22,0s-.86,0-1.3,0l-1.35,0c-.9,0-1.81-.08-2.66-.07-.43,0-.84,0-1.23,0l-1.1,0c-1.37,0-2.3,0-2.3,0s.88.26,2.24.53a18.77,18.77,0,0,0,2.33.36c.86.08,1.78.18,2.7.19h1.38a10.51,10.51,0,0,0,1.34-.08,15.89,15.89,0,0,0,2.35-.35,6.65,6.65,0,0,0,.92-.24,5.66,5.66,0,0,0,.69-.24A4.24,4.24,0,0,0,203,487.58Z"/><path class="cls-16" d="M201.56,493.57s-13.74-2.66-22.3-2.85"/><path class="cls-4" d="M201.56,493.57s-1.34-.42-3.41-.89c-1-.24-2.23-.49-3.53-.74s-2.7-.43-4.09-.64-2.8-.36-4.11-.49-2.56-.1-3.63-.11-1.94,0-2.56,0l-1,0,1,.17c.61.09,1.48.25,2.53.38s2.26.29,3.56.42,2.69.41,4.08.6l2.07.26c.69.08,1.36.15,2,.25,1.3.18,2.52.33,3.57.44l2.55.25Z"/><path class="cls-14" d="M68.6,485.12c0-3.22,4.33-2.35,9.11-2.35,6.87,0,20.54.74,23.89-.18s.23,4.7.23,8.59c0,3.58.27,6.43.27,8.94,0,1.92-21.7-2-30.53,1.8-3.53,1.52-3.19-2.56-3-5.87C68.91,492,68.6,489.68,68.6,485.12Z"/><path class="cls-15" d="M96.13,497.46c0-2.51-.27-5.36-.27-8.94a25.84,25.84,0,0,1,1-5.4,23.57,23.57,0,0,0,4.75-.43c3.35-.92.24,4.7.24,8.6,0,3.58.27,6.43.27,8.94,0,1.92-21.7-2-30.53,1.8-2.76,1.19-3.15-1-3.08-3.66C78.43,496.16,96.13,499.19,96.13,497.46Z"/><path class="cls-4" d="M70.25,502.75a1.9,1.9,0,0,1-1.42-.57c-1.09-1.12-.91-3.6-.74-6V496a59.19,59.19,0,0,0,.06-6.56c0-1.28-.08-2.66-.08-4.35,0-3,3.22-3,4.94-3,.67,0,1.4,0,2.15,0s1.67.06,2.54.06c2,0,4.56.06,7.28.13,3.1.07,6.31.15,9.16.15a35.34,35.34,0,0,0,7.3-.45,1.73,1.73,0,0,1,1.87.34c.66.8.27,2.39-.23,4.4a19.78,19.78,0,0,0-.74,4.33c0,1.94.08,3.69.15,5.24.06,1.31.12,2.55.12,3.7,0,1-1.58,1.06-3.33,1.06-1.44,0-3.32-.09-5.5-.2-2.84-.14-6.07-.3-9.29-.3-5.91,0-10.07.56-12.72,1.69A3.92,3.92,0,0,1,70.25,502.75ZM73,483.17c-2.92,0-3.9.5-3.9,2,0,1.67,0,3,.08,4.32a59.74,59.74,0,0,1-.06,6.65v.16c-.14,2-.31,4.45.47,5.24.35.36.93.33,1.77,0,2.78-1.2,7.08-1.78,13.14-1.78,3.25,0,6.49.16,9.34.3,2.16.11,4,.2,5.45.2a7.28,7.28,0,0,0,2.29-.2c0-1.09-.06-2.28-.12-3.53-.07-1.56-.16-3.32-.16-5.28a20.15,20.15,0,0,1,.77-4.56c.34-1.39.77-3.13.42-3.55,0,0-.28-.13-.77,0a35.25,35.25,0,0,1-7.58.49c-2.86,0-6.08-.08-9.19-.16-2.71-.07-5.27-.13-7.25-.13-.88,0-1.75,0-2.57-.06S73.68,483.17,73,483.17Z"/><path class="cls-16" d="M74.25,489.32s3.77,1.54,14.52.11"/><path class="cls-4" d="M74.25,489.32s.23,0,.63.08c.19,0,.44,0,.72.06s.58,0,.92,0l1.09,0c.39,0,.8,0,1.22,0s.86,0,1.3,0l1.35,0c.9,0,1.81-.08,2.66-.07.43,0,.84,0,1.23,0l1.1,0c1.37,0,2.3,0,2.3,0s-.88.26-2.24.53a18.93,18.93,0,0,1-2.33.36c-.86.08-1.78.18-2.7.19H80.12a10.5,10.5,0,0,1-1.34-.08,15.55,15.55,0,0,1-2.35-.36,6.06,6.06,0,0,1-.92-.24,5.42,5.42,0,0,1-.69-.24A4.41,4.41,0,0,1,74.25,489.32Z"/><path class="cls-16" d="M75.7,495.31s13.74-2.66,22.3-2.85"/><path class="cls-4" d="M75.7,495.31s1.35-.42,3.41-.89c1-.24,2.23-.49,3.53-.74s2.7-.43,4.09-.64,2.8-.36,4.11-.49,2.56-.1,3.62-.11,1.94,0,2.56,0l1,0-1,.17c-.61.09-1.48.24-2.53.38s-2.26.28-3.56.42-2.69.41-4.07.61l-2.08.26c-.68.08-1.36.15-2,.25-1.3.18-2.52.33-3.57.44l-2.54.25Z"/><polygon class="cls-17" points="98.05 228.22 137.91 271.54 178.26 228.22 218.61 228.22 218.61 314.86 57.21 314.86 57.21 228.22 98.05 228.22"/><g class="cls-9"><polygon class="cls-18" points="57.21 257.83 63.44 257.5 63.44 310.84 203.51 310.84 203.51 228.22 218.82 228.22 218.82 314.86 57.42 314.86 57.42 314.85 57.21 314.86 57.21 257.83"/></g><path class="cls-19" d="M270.09,268.54s-4.58,14.54-35.78,12.36C249.41,261.91,270.09,268.54,270.09,268.54Z"/><path class="cls-8" d="M200,318.16s6.75,9,10.18,8.93c20-.17,33.46-14.94,33.46-35.33S230,258.94,209.89,256V236.18h0c34.9,0,55.62,24.89,55.62,55.58,4.31,0,7.8,3.08,7.8,6.86s-3.49,6.87-7.8,6.87a8.82,8.82,0,0,1-1.68-.16c-6,23.26-27.28,38.81-53.95,42L203.61,353s-11.67-5.2-13.29-20.55l-12.25,3.14v-8S190.77,326.63,200,318.16Z"/><g class="cls-9"><path class="cls-10" d="M240,275.13a31.08,31.08,0,0,1,20.69-7.69l2.32,6.37s-10.06-1.44-20.43,8.37Z"/></g><g class="cls-9"><path class="cls-10" d="M203.57,339.32c28.25-3.39,52.5-12.62,58.83-37.26,2.43,1.67,11.3-2,9.92-6.8a6.21,6.21,0,0,1,1,3.36c0,3.79-3.49,6.87-7.8,6.87a8.82,8.82,0,0,1-1.68-.16c-6,23.26-27.28,38.81-53.94,42L203.61,353a23.16,23.16,0,0,1-7.94-6.73C195.92,346.47,203.57,339.32,203.57,339.32Z"/></g><g class="cls-9"><polygon class="cls-10" points="190.32 332.42 190.32 330.3 178.07 332.12 178.07 335.56 190.32 332.42"/></g><path class="cls-17" d="M209.9,236.18c10.84-5.4,49.54,4.25,60.19,32.37,0,0-20.67-6.62-35.78,12.36,0,0-5-22.78-24.42-23.41C209.89,257.5,198.85,241.67,209.9,236.18Z"/><g class="cls-9"><path class="cls-18" d="M237.56,269.46l9.08,1.35a35.77,35.77,0,0,0-12.31,10.1s-5-22.78-24.42-23.41c0,0-4.33-6.22-4.85-12.21C227.07,245.65,237.56,269.46,237.56,269.46Z"/></g><path class="cls-19" d="M3.23,268.54S7.81,283.07,39,280.9C23.91,261.92,3.23,268.54,3.23,268.54Z"/><path class="cls-8" d="M73.31,318.16s-6.75,9-10.18,8.93c-20-.17-33.46-14.95-33.46-35.33S43.3,258.95,63.43,256V236.18h0c-34.9,0-55.62,24.89-55.62,55.58-4.31,0-7.8,3.07-7.8,6.87s3.49,6.86,7.8,6.86a8.86,8.86,0,0,0,1.68-.16c6,23.26,27.28,38.81,53.94,42L69.71,353s11.67-5.2,13.29-20.55l12.25,3.14v-8S82.55,326.63,73.31,318.16Z"/><g class="cls-9"><path class="cls-10" d="M33.36,275.13a31.07,31.07,0,0,0-20.69-7.69l-2.32,6.37s10.06-1.44,20.43,8.37Z"/></g><g class="cls-9"><path class="cls-10" d="M69.75,339.32c-28.25-3.4-52.5-12.62-58.83-37.26-2.43,1.67-11.3-2-9.92-6.8a6.21,6.21,0,0,0-1,3.36c0,3.79,3.49,6.86,7.8,6.86a8.86,8.86,0,0,0,1.68-.16c6,23.26,27.27,38.81,53.94,42L69.71,353a23.16,23.16,0,0,0,7.95-6.73C77.4,346.48,69.75,339.32,69.75,339.32Z"/></g><g class="cls-9"><polygon class="cls-10" points="83 332.42 83 330.3 95.25 332.12 95.25 335.56 83 332.42"/></g><path class="cls-17" d="M63.42,236.18c-10.84-5.4-49.54,4.25-60.19,32.37,0,0,20.67-6.62,35.78,12.36,0,0,5-22.78,24.42-23.41C63.43,257.5,74.47,241.67,63.42,236.18Z"/><g class="cls-9"><path class="cls-18" d="M35.77,269.46l-9.08,1.35A35.76,35.76,0,0,1,39,280.91s5-22.78,24.42-23.41c0,0,4.33-6.22,4.85-12.21C46.25,245.65,35.77,269.46,35.77,269.46Z"/></g><path class="cls-20" d="M20.05,257.26v11.16c.82.2,1.66.44,2.5.71H36v8.48c.23.23.45.48.68.72v-9.2h7.38l.43-.65H36.71V257.26H52V261l.68-.42v-3.3H68v11.22H57.15v.65H68v11.25H57.15V281H68v11.22H57.15v.65H68v11.22H57.15v.65H68v10.08h.68V304.78H84v10.08h.68V304.78H100v10.08h.68V304.78H116v10.08h.69V304.78h15.29v10.08h.68V304.78H148v10.08h.68V304.78h15.3v10.08h.68V304.78h15.29v10.08h.68V304.78h15.34v10.08h.67V304.78h15.3v10.08h.68V304.78h6v-.65h-6V292.91h6v-.65h-6V281h6v-.65h-6V269.13h6v-.65h-6V257.26h15.34v10.15l.68.94V257.26h15.29v11.22H228.69l.43.65h14.77v3.14l.68-.41v-2.73h6.07c.76-.25,1.51-.46,2.25-.65h-8.32V257.26h15.3v10.2l.68,0V257.26h3.08l-.52-.65h-2.56v-2.93l-.68-.68v3.61h-15.3V245.36h5.9l-1-.65h-4.87v-2.77l-.68-.34v3.11H228.6v-8.63l-.68-.15v8.78H212.58V233.49h6v-.65h-6v-4.62h-.68v4.62h-15.3v-4.62h-.67v4.62H180.59v-4.62h-.68v4.62h-6l-.61.65h6.62v11.22H164.62V242.8l-.68.73v1.18h-1.1l-.61.65h1.71v11.25H151.75l-.61.65h12.79v11.22h-15.3V260l-.68.72v7.8H140.7l-.61.65H148v11.25H132.62V269.13h3l-.6-.65h-2.41v-2.62l-.68-.74v3.36H116.66V257.26h8.05l-.6-.65h-7.45v-8.1l-.69-.75v8.85H100.69V245.36h13.08l-.6-.65H100.69V233.49h2.15l-.6-.65h-1.55v-1.69l-.68-.74v2.43H84.67v-4.62H84v4.62H68.7v-4.62H68v4.62H57.15v.65H68v11.22H52.72v-9.86l-.68.06v9.81H36.71v-6.28l-.68.24v6H23.76l-1,.65H36v11.25H20.73v-9.88l-.68.49v9.39h-10l-.51.65Zm208.55-11.9h15.29v11.25H228.6Zm-16,0h15.34v11.25H212.58Zm-16,47.54h15.3v11.22h-15.3Zm0-11.87h15.3v11.22h-15.3Zm0-11.9h15.3v11.25h-15.3Zm0-11.87h15.3v11.22h-15.3Zm0-11.9h15.3v11.25h-15.3Zm0-11.87h15.3v11.22h-15.3Zm-16,59.41h15.34v11.22H180.59Zm0-11.87h15.34v11.22H180.59Zm0-11.9h15.34v11.25H180.59Zm0-11.87h15.34v11.22H180.59Zm0-11.9h15.34v11.25H180.59Zm0-11.87h15.34v11.22H180.59Zm-16,59.41h15.29v11.22H164.62Zm0-11.87h15.29v11.22H164.62Zm0-11.9h15.29v11.25H164.62Zm0-11.87h15.29v11.22H164.62Zm0-11.9h15.29v11.25H164.62Zm-16,47.54h15.3v11.22h-15.3Zm0-11.87h15.3v11.22h-15.3Zm0-11.9h15.3v11.25h-15.3Zm-16,23.77H148v11.22H132.62Zm0-11.87H148v11.22H132.62Zm-16,11.87h15.29v11.22H116.66Zm0-11.87h15.29v11.22H116.66Zm0-11.9h15.29v11.25H116.66Zm-16,23.77H116v11.22H100.69Zm0-11.87H116v11.22H100.69Zm0-11.9H116v11.25H100.69Zm0-11.87H116v11.22H100.69Zm-16,35.64H100v11.22H84.67Zm0-11.87H100v11.22H84.67Zm0-11.9H100v11.25H84.67Zm0-11.87H100v11.22H84.67Zm0-11.9H100v11.25H84.67Zm0-11.87H100v11.22H84.67Zm-16,59.41H84v11.22H68.7Zm0-11.87H84v11.22H68.7Zm0-11.9H84v11.25H68.7Zm0-11.87H84v11.22H68.7Zm0-11.9H84v11.25H68.7Zm0-11.87H84v11.22H68.7Zm-16,11.87H68v11.25H52.72Zm-16,0H52v11.25H36.71Zm-16,11.9H36v11.22H20.73Z"/><g class="cls-9"><polygon class="cls-18" points="137.94 275.67 93.83 228.25 98.04 228.25 137.91 271.57 178.26 228.25 182.2 228.25 137.94 275.67"/></g><rect class="cls-21" x="180.28" y="228.22" width="10.04" height="86.91"/><rect class="cls-21" x="86.41" y="228.05" width="10.04" height="87.08"/><polygon class="cls-8" points="178.47 228.22 137.91 271.54 98.05 228.22 178.47 228.22"/><rect class="cls-8" x="57.42" y="57.21" width="161.4" height="171.01"/><polygon class="cls-22" points="203.65 222.1 203.65 57.21 218.82 57.21 218.82 228.22 57.42 228.22 57.42 222.1 203.65 222.1"/><path class="cls-23" d="M101.39,16.28C133-4.46,124.58,8.74,135.46,6.72,155.2,3,173,10.33,182.72,20.32c4.37,4.48,6.63,11.52,10.1,17,1-.63,33.61-16.11,42.11,9.47s.67,46-8.83,68.49H210.55c-3.94-12.86-6.43-30.52-13-43C190,58,172.29,55.09,155.34,64.38,134,76,102.86,87.83,78.54,83.22,49.45,77.71,21.11,60.86,56.64,22,56.64,22,69.82,37,101.39,16.28Z"/><path class="cls-24" d="M213.23,38.86c-5.91-7.74-20.58-1.56-20.58-1.56-16.5-21.05-36.51-7.5-63.22,3.17-33.06,8.08-53-2.7-53-2.7,10.4,7.61,23.95,9.26,32,9.5a91.24,91.24,0,0,1-20.52,2.43C38.77,49.71,56.48,22,56.48,22,21,60.86,49.28,77.71,78.38,83.22c24.32,4.61,55.49-7.18,76.79-18.84,17-9.29,34.62-6.35,42.18,7.91,6.61,12.46,9.1,30.12,13,43C228.82,75.1,219.15,46.6,213.23,38.86Z"/><path class="cls-25" d="M188.92,53.1c-31.74-16.34-64.47,17.16-94.49,20.33s-44.57-5-44.69-5.06c8.57,7.72,19,13.06,28.51,14.85C102.57,87.83,133.75,76,155,64.38c17-9.29,34.62-6.35,42.18,7.91,6.61,12.46,9.1,30.12,13,43C212.08,95.26,213.84,65.93,188.92,53.1Z"/><path class="cls-24" d="M68.69,0s-5,13.88,4.29,20.5,21.78,6.62,31.68,4.32c0,0-23.1,10.94-35.64-.86S68.69,0,68.69,0Z"/><g class="cls-9"><path class="cls-26" d="M155.06,64.43c-21.3,11.67-52.47,23.45-76.8,18.84a60.41,60.41,0,0,1-20-8.39s4.07,17.95,32.32,17.95c21.05,0,39.89-3.35,57.6-18.65,14.65-12.66,28.18-15,28.18-15l-1.1-.05A40.09,40.09,0,0,0,155.06,64.43Z"/></g><path class="cls-23" d="M47.83,70.44s-10.51,8,9.38,48.66l1-40.22A58.78,58.78,0,0,1,47.83,70.44Z"/><path class="cls-24" d="M52.23,70.56s-6.19,5.53,5,44.53l1-40.22Z"/><path class="cls-25" d="M46.17,40.84s9.92,25.75,44.4,21.05C90.58,61.89,48.76,74.86,46.17,40.84Z"/><ellipse class="cls-27" cx="221.26" cy="125.72" rx="14.75" ry="14"/><path class="cls-28" d="M221.26,113.12c-7.9,0-14.35,5.9-14.73,13.31,0-.23,0-.46,0-.69,0-7.73,6.6-14,14.75-14S236,118,236,125.74c0,.23,0,.46,0,.69C235.62,119,229.17,113.12,221.26,113.12Z"/><path class="cls-22" d="M221.26,132.6A14.64,14.64,0,0,1,207,122.16a13.23,13.23,0,0,0-.49,3.56c0,7.73,6.6,14,14.75,14s14.75-6.27,14.75-14a13.19,13.19,0,0,0-.49-3.56A14.64,14.64,0,0,1,221.26,132.6Z"/><g class="cls-9"><line class="cls-10" x1="104.25" y1="180.86" x2="160.67" y2="180.86"/><path class="cls-10" d="M158.88,183.48H106c-1,0-1.79-1.17-1.79-2.62h0c0-1.45.8-2.62,1.79-2.62h52.84c1,0,1.79,1.17,1.79,2.62h0C160.67,182.31,159.87,183.48,158.88,183.48Z"/></g><line class="cls-29" x1="102.25" y1="178.24" x2="156.75" y2="178.24"/><path class="cls-29" d="M155,180.24H104a1.88,1.88,0,0,1-1.73-2h0a1.88,1.88,0,0,1,1.73-2h51a1.88,1.88,0,0,1,1.73,2h0A1.88,1.88,0,0,1,155,180.24Z"/><path class="cls-22" d="M100.33,161.25l.71-8.18c.24-2.73.54-5.45.81-8.17s.53-5.45.87-8.17l1-8.2c.18-1.38.37-2.69.64-4.09s.49-2.7.8-4.07a23.86,23.86,0,0,1,1.24-4.14,9.58,9.58,0,0,1,2.69-3.81c1.3-1.08,4.1-2.59,5.71-2.56s3.58-.27,5,.19a9,9,0,0,1,3.84,2.32,6.27,6.27,0,0,1,1.7,3.82,6.3,6.3,0,0,0-2.18-3.37,8.35,8.35,0,0,0-3.7-1.65c-1.34-.28-3.29.19-4.65.3a10.14,10.14,0,0,0-4.34,2.4,7.43,7.43,0,0,0-1.8,3.13,26.67,26.67,0,0,0-.86,3.82c-.21,1.32-.36,2.66-.54,4s-.27,2.72-.4,4.05l-.68,8.13c-.2,2.73-.48,5.45-.71,8.17s-.47,5.45-.73,8.17l-.63,6.32c5.17,0,10.34.12,15.51.17,2.92,0,5.84.12,8.76.17,2.47.06,4.93.11,7.4.18l-.23-6.32-.27-8.65-5.75.18-6.38.15,6.33-.81,6.33-.75c.32,0-.42,1.69-.36,2l1.05-1.48,1,9.11.89,7.59a.92.92,0,0,1,0,.15,1.14,1.14,0,0,1-1.14,1.15h-.08c-2.92.1-5.84.14-8.76.21s-5.84.15-8.76.17c-5.84.06-11.68.19-17.52.19H102a1.75,1.75,0,0,1-1.67-1.85Z"/><path class="cls-29" d="M103.42,158.83l.68-8c.23-2.68.52-5.35.77-8s.51-5.35.83-8l.95-8.05c.17-1.36.36-2.64.61-4s.47-2.65.76-4a23.88,23.88,0,0,1,1.19-4.06,9.42,9.42,0,0,1,2.58-3.75,6.81,6.81,0,0,1,4.47-1.52,15.09,15.09,0,0,1,4.33.68,8.57,8.57,0,0,1,3.68,2.28,6.24,6.24,0,0,1,1.63,3.75,6.2,6.2,0,0,0-2.09-3.31,7.91,7.91,0,0,0-3.54-1.62,13.82,13.82,0,0,0-4-.2,5.12,5.12,0,0,0-3.16,1.36,7.35,7.35,0,0,0-1.73,3.08,26.75,26.75,0,0,0-.82,3.75c-.2,1.3-.35,2.62-.51,4s-.26,2.67-.39,4l-.65,8c-.19,2.68-.46,5.35-.68,8s-.45,5.35-.7,8l-.6,6.21c5,0,9.91.12,14.87.17,2.8,0,5.59.11,8.39.17,2.36.06,4.73.1,7.09.17l-.72-6.2-.76-7-5.51.18-6.11.14,6.06-.79,6.06-.74a.59.59,0,0,1,.65.46v0l1.41,7.44,1.35,7.45a.92.92,0,0,1,0,.15,1.11,1.11,0,0,1-1.09,1.13h-.08c-2.79.1-5.59.14-8.39.21s-5.59.14-8.39.17c-5.59.06-11.19.19-16.78.19H105a1.7,1.7,0,0,1-1.6-1.81Z"/><ellipse class="cls-4" cx="161.36" cy="116.06" rx="6.2" ry="5.45"/><ellipse class="cls-3" cx="159" cy="113.55" rx="1.95" ry="1.71"/><ellipse class="cls-3" cx="156.75" cy="116.06" rx="0.8" ry="0.7"/><ellipse class="cls-4" cx="83.92" cy="116.06" rx="6.2" ry="5.45"/><ellipse class="cls-3" cx="81.55" cy="113.55" rx="1.95" ry="1.71"/><ellipse class="cls-3" cx="79.3" cy="116.06" rx="0.8" ry="0.7"/><path class="cls-30" d="M219.11,213.81v-73.7c-4,8.14-13.74,46.72-13.74,59,0,11.6-71.36,16.67-81.46,9.67,0,0-5.53-3.31-1.92-18H106.54c4,10.94-2.63,18-2.63,18-10.11,7-40.43,1.15-40.43-10.45,0-12.33-2.49-54.1-6.45-62.24V228.4c22.32-.05,68.81,0,81.05,0h.09c12.25,0,58.61-.07,80.93,0Z"/><path class="cls-31" d="M202,221H69.8A13.68,13.68,0,0,1,57,210.76v17.65H219.11v-88.3A279.85,279.85,0,0,0,205.23,200C204.88,203.18,205.1,221,202,221Z"/><path class="cls-29" d="M142.89,104.07s23.86-17,42.41-14.09C185.3,90,159.43,93.88,142.89,104.07Z"/><path class="cls-29" d="M96.15,103.84S81.15,93.16,69.48,95C69.48,95,85.75,97.43,96.15,103.84Z"/></g></g></g></svg>