<svg xmlns="http://www.w3.org/2000/svg" xmlns:xlink="http://www.w3.org/1999/xlink" viewBox="0 0 384.5 516.84"><defs><style>.cls-1{mask:url(#mask);filter:url(#luminosity-noclip-5);}.cls-2,.cls-28,.cls-31,.cls-4,.cls-41,.cls-46,.cls-48,.cls-6,.cls-8{mix-blend-mode:multiply;}.cls-2{fill:url(#linear-gradient);}.cls-3{mask:url(#mask-2);filter:url(#luminosity-noclip-6);}.cls-4{fill:url(#linear-gradient-2);}.cls-5{mask:url(#mask-3);filter:url(#luminosity-noclip-7);}.cls-6{fill:url(#linear-gradient-3);}.cls-7{mask:url(#mask-4);filter:url(#luminosity-noclip-8);}.cls-8{fill:url(#linear-gradient-4);}.cls-9{isolation:isolate;}.cls-10{fill:#704a14;}.cls-11,.cls-30{fill:#251e1c;}.cls-12{fill:#4c3000;}.cls-13{fill:#c5b8a8;}.cls-14{fill:#b6bdd5;}.cls-15{fill:#ededed;}.cls-16{fill:#e1e2e2;}.cls-17{fill:#ba5a30;}.cls-18{fill:#a54f2a;}.cls-19{fill:#3e2500;}.cls-20{fill:#595959;}.cls-21{fill:#1c1c1c;}.cls-22{fill:#dab229;}.cls-23{fill:#8c8c8c;}.cls-24{fill:#e7d7b0;}.cls-25{fill:#4b2f00;}.cls-26{fill:#8f6022;}.cls-27{fill:#bb582b;}.cls-28,.cls-41{fill:#cdbd91;}.cls-29{fill:#fff;}.cls-30,.cls-41{fill-rule:evenodd;}.cls-32{fill:#bddef7;}.cls-33{mask:url(#mask-5);}.cls-34,.cls-36,.cls-38,.cls-40{opacity:0.3;}.cls-34{fill:url(#linear-gradient-5);}.cls-35{mask:url(#mask-6);}.cls-36{fill:url(#linear-gradient-6);}.cls-37{mask:url(#mask-7);}.cls-38{fill:url(#linear-gradient-7);}.cls-39{mask:url(#mask-8);}.cls-40{fill:url(#linear-gradient-8);}.cls-42{fill:#a04d29;}.cls-43{fill:#cf8f2b;}.cls-44,.cls-48{fill:#c78659;}.cls-45{fill:#a68a7a;}.cls-46{fill:#e6d3a8;}.cls-47{fill:#f5f3e2;}.cls-49{fill:#7b391a;}.cls-50{fill:#3d3a39;}.cls-51{fill:none;}.cls-52{filter:url(#luminosity-noclip-4);}.cls-53{filter:url(#luminosity-noclip-3);}.cls-54{filter:url(#luminosity-noclip-2);}.cls-55{filter:url(#luminosity-noclip);}</style><filter id="luminosity-noclip" x="109.72" y="-8430.13" width="47.22" height="32766" filterUnits="userSpaceOnUse" color-interpolation-filters="sRGB"><feFlood flood-color="#fff" result="bg"/><feBlend in="SourceGraphic" in2="bg"/></filter><mask id="mask" x="109.72" y="-8430.13" width="47.22" height="32766" maskUnits="userSpaceOnUse"><g class="cls-55"/></mask><linearGradient id="linear-gradient" x1="144.77" y1="88.66" x2="117.39" y2="137.66" gradientUnits="userSpaceOnUse"><stop offset="0" stop-color="#fff"/><stop offset="0.09" stop-color="#f4f4f4"/><stop offset="0.23" stop-color="#d8d8d8"/><stop offset="0.43" stop-color="#aaa"/><stop offset="0.66" stop-color="#6b6b6b"/><stop offset="0.92" stop-color="#1b1b1b"/><stop offset="1"/></linearGradient><filter id="luminosity-noclip-2" x="137.68" y="-8430.13" width="30.79" height="32766" filterUnits="userSpaceOnUse" color-interpolation-filters="sRGB"><feFlood flood-color="#fff" result="bg"/><feBlend in="SourceGraphic" in2="bg"/></filter><mask id="mask-2" x="137.68" y="-8430.13" width="30.79" height="32766" maskUnits="userSpaceOnUse"><g class="cls-54"/></mask><linearGradient id="linear-gradient-2" x1="105.71" y1="117.23" x2="175.98" y2="117.23" xlink:href="#linear-gradient"/><filter id="luminosity-noclip-3" x="209.14" y="-8430.13" width="47.47" height="32766" filterUnits="userSpaceOnUse" color-interpolation-filters="sRGB"><feFlood flood-color="#fff" result="bg"/><feBlend in="SourceGraphic" in2="bg"/></filter><mask id="mask-3" x="209.14" y="-8430.13" width="47.47" height="32766" maskUnits="userSpaceOnUse"><g class="cls-53"/></mask><linearGradient id="linear-gradient-3" x1="216.34" y1="136.65" x2="245.29" y2="87.33" xlink:href="#linear-gradient"/><filter id="luminosity-noclip-4" x="236.47" y="-8430.13" width="31.91" height="32766" filterUnits="userSpaceOnUse" color-interpolation-filters="sRGB"><feFlood flood-color="#fff" result="bg"/><feBlend in="SourceGraphic" in2="bg"/></filter><mask id="mask-4" x="236.47" y="-8430.13" width="31.91" height="32766" maskUnits="userSpaceOnUse"><g class="cls-52"/></mask><linearGradient id="linear-gradient-4" x1="266.47" y1="91.74" x2="238.8" y2="141.92" xlink:href="#linear-gradient"/><filter id="luminosity-noclip-5" x="109.72" y="88.72" width="47.22" height="52.45" filterUnits="userSpaceOnUse" color-interpolation-filters="sRGB"><feFlood flood-color="#fff" result="bg"/><feBlend in="SourceGraphic" in2="bg"/></filter><mask id="mask-5" x="109.72" y="88.72" width="47.22" height="52.45" maskUnits="userSpaceOnUse"><g class="cls-1"><path class="cls-2" d="M146.06,89.09a145.45,145.45,0,0,0-14.56-.29l-21.78,39c1.67,4.2,4,7.53,7.66,9.78,2.77,1.72,6.74,2.9,11.23,3.58l28.32-50.75A96.8,96.8,0,0,0,146.06,89.09Z"/></g></mask><linearGradient id="linear-gradient-5" x1="144.77" y1="88.66" x2="117.39" y2="137.66" gradientUnits="userSpaceOnUse"><stop offset="0" stop-color="#edf6fd"/><stop offset="0.66" stop-color="#f7fbfe"/><stop offset="1" stop-color="#fff"/></linearGradient><filter id="luminosity-noclip-6" x="137.68" y="92.57" width="30.79" height="49.32" filterUnits="userSpaceOnUse" color-interpolation-filters="sRGB"><feFlood flood-color="#fff" result="bg"/><feBlend in="SourceGraphic" in2="bg"/></filter><mask id="mask-6" x="137.68" y="92.57" width="30.79" height="49.32" maskUnits="userSpaceOnUse"><g class="cls-3"><path class="cls-4" d="M165.21,92.57l-27.52,49.31c1.35,0,2.71,0,4.06-.06l26.73-47.89A31.52,31.52,0,0,0,165.21,92.57Z"/></g></mask><linearGradient id="linear-gradient-6" x1="105.71" y1="117.23" x2="175.98" y2="117.23" xlink:href="#linear-gradient-5"/><filter id="luminosity-noclip-7" x="209.14" y="88.72" width="47.47" height="51.92" filterUnits="userSpaceOnUse" color-interpolation-filters="sRGB"><feFlood flood-color="#fff" result="bg"/><feBlend in="SourceGraphic" in2="bg"/></filter><mask id="mask-7" x="209.14" y="88.72" width="47.47" height="51.92" maskUnits="userSpaceOnUse"><g class="cls-5"><path class="cls-6" d="M233.59,89.09c-1,.07-2.11.16-3.19.27L209.14,127a23.25,23.25,0,0,0,9.5,10.59,32,32,0,0,0,9.06,3l28.91-51.2A124.49,124.49,0,0,0,233.59,89.09Z"/></g></mask><linearGradient id="linear-gradient-7" x1="216.34" y1="136.65" x2="245.29" y2="87.33" xlink:href="#linear-gradient-5"/><filter id="luminosity-noclip-8" x="236.47" y="91.23" width="31.91" height="50.66" filterUnits="userSpaceOnUse" color-interpolation-filters="sRGB"><feFlood flood-color="#fff" result="bg"/><feBlend in="SourceGraphic" in2="bg"/></filter><mask id="mask-8" x="236.47" y="91.23" width="31.91" height="50.66" maskUnits="userSpaceOnUse"><g class="cls-7"><path class="cls-8" d="M265,91.23l-28.53,50.51c1.36.08,2.74.13,4.12.14l27.79-49.22A21,21,0,0,0,265,91.23Z"/></g></mask><linearGradient id="linear-gradient-8" x1="266.47" y1="91.74" x2="238.8" y2="141.92" xlink:href="#linear-gradient-5"/></defs><title>Asset 4</title><g class="cls-9"><g id="Layer_2" data-name="Layer 2"><g id="Layer_1-2" data-name="Layer 1"><path class="cls-10" d="M263.76,295.92H118c-6.24,0-11.31,5.36-11.31,12V382c0,48.11.17,89.87.17,89.87h28.7v-88a64.16,64.16,0,0,1,13.62-38.81l40.84-2,.88,0,.88,0,40.84,2a64.16,64.16,0,0,1,13.62,38.81v88h28.7s.17-41.75.17-89.87V307.9C275.06,301.28,270,295.92,263.76,295.92Z"/><path class="cls-11" d="M275.4,472.35H245.7V383.89c0-21.38-11.95-36.6-13.36-38.32l-40.63-1.95-.83,0-.93,0-40.57,1.95C148,347.29,136,362.51,136,383.89v88.46h-29.7v-.5c0-.42-.17-42.31-.17-89.87V307.9c0-6.88,5.3-12.48,11.81-12.48H263.76c6.51,0,11.81,5.6,11.81,12.48V382c0,47.56-.16,89.45-.17,89.87Zm-28.7-1h27.7c0-4.87.16-44.61.16-89.37V307.9c0-6.33-4.85-11.48-10.81-11.48H118c-6,0-10.81,5.15-10.81,11.48V382c0,44.76.15,84.49.17,89.37H135V383.89c0-23,13.6-39,13.74-39.14l.14-.16h.21l40.84-2,.93,0,.82,0,41.11,2,.14.16c.14.16,13.74,16.15,13.74,39.14Z"/><path class="cls-12" d="M253.85,470.79V402.28c0-3.22,5.06,8.66,5.06,8.66,0-.59-5.06-17.14-5.06-17.14,0-23.07-2.17-44-10.21-47s-44.25-4.71-44.25-4.71l-.88,0-.88,0-40.85,2s-.21.25-.58.72L190,343.12l.88,0,.88,0,40.85,2a64.16,64.16,0,0,1,13.62,38.81v88h28.7s0-.36,0-1.06Z"/><path class="cls-12" d="M114.48,470.79s-.17-41.75-.17-89.87V352c0-8.41,12.58-15,16.09-20.37,4.62-7,3.19-19.42,3.19-19.42s0,20.12-19.28,27.4V306.84A12,12,0,0,1,121,295.92h-3c-6.24,0-11.31,5.36-11.31,12V382c0,48.11.17,89.87.17,89.87h28.7v-1.06Z"/><path class="cls-12" d="M138.69,362.29s-7.59,14.5-13.26,38c0,0,7.33-16.51,10.1-20.56A141.27,141.27,0,0,1,138.69,362.29Z"/><path class="cls-12" d="M263.24,300.36,200.42,332l-10.67-19.54L181.22,332l-64.76-31.62a39.25,39.25,0,0,0-5.33-2l70.09,41.71,8.54-19.54,10.67,19.54,69.28-42.36A25,25,0,0,0,263.24,300.36Z"/><path class="cls-13" d="M243.75,456.85c0-3.22,4.16-2.35,8.77-2.35,6.62,0,19.76.74,23-.18s.23,4.7.23,8.59c0,3.58.26,6.43.26,8.94,0,1.92-20.88-2-29.38,1.8-3.4,1.52-3.07-2.56-2.84-5.87C244,463.76,243.75,461.41,243.75,456.85Z"/><path class="cls-11" d="M245.34,474.48a1.79,1.79,0,0,1-1.36-.57c-1-1.12-.88-3.6-.72-6v-.16a61.56,61.56,0,0,0,.05-6.56c0-1.28-.08-2.66-.08-4.35,0-3,3.09-3,4.76-3,.65,0,1.34,0,2.07,0s1.61.06,2.44.06c1.92,0,4.39.06,7,.13,3,.08,6.08.15,8.82.15a32.76,32.76,0,0,0,7-.45,1.62,1.62,0,0,1,1.8.34c.63.8.25,2.39-.22,4.4a20.35,20.35,0,0,0-.71,4.33c0,1.94.08,3.69.15,5.24.06,1.31.11,2.55.11,3.7,0,1-1.51,1.06-3.2,1.06-1.39,0-3.2-.09-5.29-.2-2.74-.14-5.84-.3-8.94-.3-5.69,0-9.69.55-12.24,1.69A3.65,3.65,0,0,1,245.34,474.48ZM248,454.9c-2.81,0-3.76.49-3.76,2,0,1.67,0,3,.08,4.32a62.41,62.41,0,0,1-.05,6.65V468c-.13,2-.3,4.44.45,5.24.34.36.89.33,1.7,0,2.68-1.2,6.81-1.78,12.65-1.78,3.13,0,6.24.16,9,.3,2.08.11,3.88.2,5.24.2a6.82,6.82,0,0,0,2.2-.2c0-1.1-.06-2.28-.11-3.53-.07-1.56-.15-3.32-.15-5.28a21,21,0,0,1,.74-4.56c.33-1.39.74-3.13.41-3.55,0,0-.27-.13-.74,0a32.69,32.69,0,0,1-7.3.48c-2.76,0-5.85-.08-8.84-.15-2.61-.07-5.07-.13-7-.13-.85,0-1.68,0-2.48-.06S248.64,454.9,248,454.9Z"/><path class="cls-14" d="M249.19,461s3.63,1.54,14,.11"/><path class="cls-11" d="M249.19,461s.22,0,.6.08c.18,0,.43,0,.69.06s.56,0,.89,0l1.05,0c.37,0,.77,0,1.17,0s.83,0,1.25,0l1.3,0c.87,0,1.74-.07,2.56-.07.41,0,.81,0,1.18,0l1.06,0c1.32,0,2.21,0,2.21,0s-.85.27-2.15.53a17.71,17.71,0,0,1-2.24.36c-.83.08-1.71.18-2.6.19h-1.33a9.92,9.92,0,0,1-1.29-.08,14.6,14.6,0,0,1-2.26-.35,6.06,6.06,0,0,1-.88-.24,5.81,5.81,0,0,1-.67-.24A4.41,4.41,0,0,1,249.19,461Z"/><path class="cls-14" d="M250.59,467s13.22-2.66,21.46-2.85"/><path class="cls-11" d="M250.59,467s1.29-.43,3.28-.89c1-.24,2.15-.49,3.4-.74s2.6-.43,3.94-.64,2.69-.36,4-.49,2.47-.1,3.49-.11,1.87,0,2.46,0l.93,0-.92.17c-.59.09-1.43.24-2.43.38s-2.17.28-3.43.42-2.58.41-3.92.6l-2,.26c-.66.08-1.31.15-1.94.25-1.25.18-2.43.33-3.44.44l-2.45.25Z"/><path class="cls-13" d="M137.85,457.48c0-3.22-4.16-2.35-8.77-2.35-6.62,0-19.76.75-23-.18s-.23,4.7-.23,8.59c0,3.58-.26,6.43-.26,8.94,0,1.92,20.88-2,29.38,1.8,3.4,1.52,3.07-2.56,2.84-5.87C137.55,464.38,137.85,462,137.85,457.48Z"/><path class="cls-11" d="M136.26,475.1h0a3.65,3.65,0,0,1-1.48-.37c-2.55-1.14-6.55-1.69-12.24-1.69-3.1,0-6.2.16-8.94.3-2.09.11-3.9.2-5.29.2-1.69,0-3.2-.08-3.2-1.06,0-1.16.06-2.39.11-3.7.07-1.55.15-3.3.15-5.24a20.38,20.38,0,0,0-.71-4.33c-.48-2-.85-3.6-.22-4.4a1.62,1.62,0,0,1,1.8-.34,32.79,32.79,0,0,0,7,.44c2.74,0,5.83-.08,8.82-.15,2.62-.07,5.09-.13,7-.13.84,0,1.66,0,2.44-.06s1.42,0,2.07,0c1.66,0,4.76,0,4.76,3,0,1.68,0,3.07-.08,4.35a61.5,61.5,0,0,0,.05,6.55v.16c.16,2.4.33,4.88-.72,6A1.79,1.79,0,0,1,136.26,475.1ZM122.54,472c5.83,0,10,.58,12.65,1.78a2.75,2.75,0,0,0,1.07.28h0a.8.8,0,0,0,.63-.25c.75-.8.58-3.26.45-5.24v-.16a62.33,62.33,0,0,1-.05-6.65c0-1.27.08-2.65.08-4.32,0-1.46-.95-2-3.76-2-.64,0-1.32,0-2,0s-1.63.06-2.47.06c-1.91,0-4.38.06-7,.13-3,.08-6.09.15-8.85.15a32.66,32.66,0,0,1-7.29-.48c-.47-.13-.7,0-.74,0-.33.42.08,2.15.41,3.55a21.07,21.07,0,0,1,.74,4.56c0,2-.08,3.72-.15,5.28-.06,1.25-.11,2.43-.11,3.53a6.85,6.85,0,0,0,2.2.19c1.36,0,3.16-.09,5.24-.2C116.29,472.2,119.41,472,122.54,472Z"/><path class="cls-14" d="M132.41,461.67s-3.63,1.54-14,.11"/><path class="cls-11" d="M132.41,461.67a4.41,4.41,0,0,1-.55.27,10.35,10.35,0,0,1-1.55.48,14.38,14.38,0,0,1-2.26.35,9.74,9.74,0,0,1-1.29.08h-1.33c-.89,0-1.77-.11-2.6-.19a17.68,17.68,0,0,1-2.24-.36c-1.3-.27-2.15-.53-2.15-.53s.9-.07,2.21,0l1.06,0c.38,0,.77,0,1.18,0,.82,0,1.69.08,2.56.07l1.3,0c.43,0,.85,0,1.25,0s.8,0,1.17,0l1,0c.33,0,.63,0,.89,0s.5,0,.69-.06C132.19,461.71,132.41,461.67,132.41,461.67Z"/><path class="cls-14" d="M131,467.66s-13.22-2.66-21.45-2.85"/><path class="cls-11" d="M131,467.66l-.93-.08-2.45-.25c-1-.11-2.19-.26-3.44-.44-.62-.1-1.28-.17-1.93-.25l-2-.26c-1.34-.2-2.67-.39-3.92-.6s-2.42-.27-3.43-.42-1.84-.29-2.43-.38l-.92-.17.93,0c.59,0,1.44,0,2.46,0s2.21.05,3.49.11,2.61.31,4,.49,2.69.36,3.94.64,2.41.5,3.4.74C129.72,467.24,131,467.66,131,467.66Z"/><path class="cls-15" d="M303.32,495.65c-3,5.41-24,11.51-38.4,7.5a96.55,96.55,0,0,1-17.69-7.21,117.66,117.66,0,0,0-11.66-5.21s-1,.1-1,5.62c0,1.38,5,2.2,8.53,3.78,5.83,2.59,14.52,8.72,21.24,11.86,17.16,8,42-3.83,41.77-7.06C305.82,501.07,304.23,494,303.32,495.65Z"/><path class="cls-16" d="M266.27,509.85c-6.71-3.13-15.41-9.27-21.24-11.86-3.54-1.57-8-2.16-8-3.54a29.59,29.59,0,0,1,.15-3.2,14.92,14.92,0,0,0-1.59-.53s-1,.1-1,5.62c0,1.38,5,2.2,8.53,3.78,5.83,2.59,14.52,8.72,21.24,11.86,16.9,7.89,41.23-3.47,41.74-6.9C299.93,509.51,280.47,516.48,266.27,509.85Z"/><path class="cls-17" d="M303.34,495.65a25,25,0,0,0-2.1-3.72c-3.73-5.48-11.4-8.21-16.18-9.4S279.65,459.05,279,458s-18.94-.48-20.12,6.15l-5.68-7.31-12.28,2.71-4.85,31.2c5.57,2.3,16.72,8.72,28.71,12.3C280.84,507.9,300.79,500.39,303.34,495.65Z"/><path class="cls-18" d="M272,499c-12-3.58-23.14-10-28.71-12.3L247.73,458l-6.82,1.51-4.85,31.2c5.57,2.3,16.72,8.72,28.71,12.3,14.36,4.29,31.82-1.25,37.18-5.87C294.07,500.15,282.23,502.11,272,499Z"/><path class="cls-19" d="M276,505.15h0a39.9,39.9,0,0,1-11.4-1.56c-8.43-2.52-16.5-6.46-22.39-9.33-2.53-1.23-4.71-2.3-6.37-3l-.36-.15,5-31.93,12.92-2.86,5.29,6.8c2.13-4.88,13-6,17.24-6,3.08,0,3.36.42,3.49.63s.32,1.2.65,4.49c.62,6.16,1.91,19,5.12,19.79,4.47,1.12,12.55,3.85,16.47,9.6a25.25,25.25,0,0,1,2.15,3.8l.1.22-.11.21C301.78,499.61,289.24,505.15,276,505.15Zm-39.42-14.65c1.63.7,3.7,1.7,6.06,2.86,5.86,2.86,13.89,6.78,22.24,9.27A38.87,38.87,0,0,0,276,504.15c12.61,0,24.51-5,26.75-8.53a25.65,25.65,0,0,0-2-3.41c-3.73-5.48-11.55-8.11-15.88-9.2-3.59-.9-4.91-11.13-5.87-20.66-.18-1.81-.35-3.52-.48-4a10,10,0,0,0-2.66-.22c-6,0-15.76,1.67-16.56,6.14l-.2,1.11L253,457.44,241.35,460Z"/><path class="cls-19" d="M277,502.11c-11.67.92-34.78-10.29-40.82-11.85l-.09.56c5.57,2.3,16.72,8.72,28.71,12.3,16.07,4.8,36-2.71,38.57-7.45a11.12,11.12,0,0,0-.76-1.71C291.43,501.18,282.14,501.7,277,502.11Z"/><path class="cls-18" d="M258.91,465.06s5.89,21,10.78,23.77,2.18-6.72,16.77-5.4c0,0-5-1.43-6.61-15.55-.54-4.75-15.16,1.08-15.16,1.08A7,7,0,0,1,258.91,465.06Z"/><path class="cls-19" d="M240,465.62l12.89-1.54h0l0,0a11.68,11.68,0,0,1,2.09,2.32,21.67,21.67,0,0,1,1.58,2.68,27.59,27.59,0,0,1,1.2,2.87c.35,1,.63,2,.89,3s.46,2,.62,3,.33,2,.57,3a24.85,24.85,0,0,0,.87,2.92,19.37,19.37,0,0,0,1.28,2.75,14.63,14.63,0,0,0,1.73,2.47,12,12,0,0,0,2.2,2,11.11,11.11,0,0,0,2.62,1.43,18.38,18.38,0,0,1,2.87,1.31,12.86,12.86,0,0,1,4.52,4.44,13.58,13.58,0,0,1,1.32,2.91,11.44,11.44,0,0,1,.56,3.18h-1a10.49,10.49,0,0,0-.48-2.89,12.63,12.63,0,0,0-1.19-2.72,12,12,0,0,0-4.16-4.18,17.68,17.68,0,0,0-2.73-1.28,11.82,11.82,0,0,1-2.77-1.57,12.68,12.68,0,0,1-2.3-2.18,15.23,15.23,0,0,1-1.76-2.61,20,20,0,0,1-1.27-2.87,25.62,25.62,0,0,1-.85-3c-.23-1-.36-2-.53-3.06s-.34-2-.55-3-.5-2-.83-3a27.08,27.08,0,0,0-1.13-2.85,21.36,21.36,0,0,0-1.51-2.66,11.42,11.42,0,0,0-2-2.3l.08,0Z"/><path class="cls-19" d="M258.13,472.87l-.09.27c-.06.19-.16.45-.3.78a14.94,14.94,0,0,1-1.37,2.55,16,16,0,0,1-1.16,1.55c-.22.26-.48.5-.72.77a6.45,6.45,0,0,1-.8.75l-.88.72-1,.63-.5.32-.54.25-1.08.5c-.75.25-1.5.5-2.26.67s-1.51.28-2.25.32l-2.12.05-1.88-.19-.83-.09-.74-.16-1.2-.26-1-.23,1.05.19,1.21.21.74.13.83.05,1.87.11,2.08-.13c.72-.06,1.44-.27,2.18-.4s1.44-.47,2.16-.74l1-.52.5-.26.46-.32.91-.63.81-.72a6,6,0,0,0,.73-.74c.22-.26.46-.49.66-.75a15.28,15.28,0,0,0,1-1.51,13.92,13.92,0,0,0,1.19-2.45c.12-.31.19-.55.24-.71s.07-.26.07-.26Z"/><path class="cls-19" d="M263.17,502.09l-1,0c.32-7.49,4.36-10.06,4.53-10.17l.53.85S263.47,495.16,263.17,502.09Z"/><path class="cls-19" d="M258.88,464.19l1.43,4.27c.42,1.28,1,2.76,1.53,4.34s1.19,3.26,1.88,4.91,1.39,3.29,2.13,4.79c.38.75.75,1.46,1.12,2.13s.76,1.28,1.13,1.83.75,1,1.09,1.45a10.46,10.46,0,0,0,1,1,7.3,7.3,0,0,0,.69.59l.26.2-.29-.15a5,5,0,0,1-.79-.48,10.54,10.54,0,0,1-1.11-.91,13.34,13.34,0,0,1-1.27-1.37,26.75,26.75,0,0,1-2.58-3.89c-.41-.75-.82-1.53-1.19-2.34s-.74-1.64-1.09-2.48c-.67-1.68-1.28-3.39-1.78-5s-.9-3.15-1.23-4.46-.53-2.43-.69-3.2S258.88,464.19,258.88,464.19Z"/><circle cx="252.69" cy="462.08" r="0.97"/><path class="cls-20" d="M252.86,460.7a1.28,1.28,0,1,0,1.28,1.28A1.28,1.28,0,0,0,252.86,460.7Zm-.18,2.32a1,1,0,1,1,1-1A1,1,0,0,1,252.68,463Z"/><path class="cls-21" d="M253.7,461.94a1,1,0,0,0-1.88-.31,1,1,0,0,1,1.77.74A1,1,0,0,0,253.7,461.94Z"/><path class="cls-21" d="M252.91,463.15a1.28,1.28,0,0,1-1.28-1.28,1.29,1.29,0,0,1,.08-.43,1.28,1.28,0,1,0,2.35,1A1.28,1.28,0,0,1,252.91,463.15Z"/><circle cx="260.92" cy="475.58" r="0.97"/><path class="cls-20" d="M260.75,477a1.28,1.28,0,1,0-1.28-1.28A1.28,1.28,0,0,0,260.75,477Zm.18-2.32a1,1,0,1,1-1,1A1,1,0,0,1,260.93,474.63Z"/><path class="cls-21" d="M259.91,475.72a1,1,0,0,0,1.88.31,1,1,0,0,1-1.77-.74A1,1,0,0,0,259.91,475.72Z"/><path class="cls-21" d="M260.7,474.51a1.28,1.28,0,0,1,1.28,1.28,1.29,1.29,0,0,1-.08.43,1.28,1.28,0,1,0-2.35-1A1.28,1.28,0,0,1,260.7,474.51Z"/><circle cx="261.78" cy="479.91" r="0.97"/><path class="cls-20" d="M261.61,481.29a1.28,1.28,0,1,0-1.28-1.28A1.28,1.28,0,0,0,261.61,481.29Zm.18-2.32a1,1,0,1,1-1,1A1,1,0,0,1,261.79,479Z"/><path class="cls-21" d="M260.77,480.05a1,1,0,0,0,1.88.31,1,1,0,0,1-1.77-.74A1,1,0,0,0,260.77,480.05Z"/><path class="cls-21" d="M261.56,478.85a1.27,1.27,0,0,1,1.2,1.71,1.28,1.28,0,1,0-2.35-1A1.28,1.28,0,0,1,261.56,478.85Z"/><circle cx="263.26" cy="483.78" r="0.97"/><path class="cls-20" d="M263.09,485.16a1.28,1.28,0,1,0-1.28-1.28A1.28,1.28,0,0,0,263.09,485.16Zm.18-2.32a1,1,0,1,1-1,1A1,1,0,0,1,263.27,482.83Z"/><path class="cls-21" d="M262.25,483.92a1,1,0,0,0,1.88.31,1,1,0,0,1-1.77-.74A1,1,0,0,0,262.25,483.92Z"/><path class="cls-21" d="M263,482.72a1.28,1.28,0,0,1,1.28,1.28,1.29,1.29,0,0,1-.08.43,1.28,1.28,0,1,0-2.35-1A1.28,1.28,0,0,1,263,482.72Z"/><circle cx="266.24" cy="488.25" r="0.97"/><path class="cls-20" d="M266.07,489.62a1.28,1.28,0,1,0-1.28-1.28A1.28,1.28,0,0,0,266.07,489.62Zm.18-2.32a1,1,0,1,1-1,1A1,1,0,0,1,266.25,487.3Z"/><path class="cls-21" d="M265.24,488.39a1,1,0,0,0,1.88.31,1,1,0,0,1-1.77-.74A1,1,0,0,0,265.24,488.39Z"/><path class="cls-21" d="M266,487.18a1.27,1.27,0,0,1,1.2,1.71,1.28,1.28,0,1,0-2.35-1A1.28,1.28,0,0,1,266,487.18Z"/><path class="cls-10" d="M283.49,477.65s-14.75-2.5-20.77,5.48c0,0-.2,1.46.56,1.14s11.67-6.37,20.48-3.47c0,0,1.2.09,1-1.65S283.49,477.65,283.49,477.65Z"/><path class="cls-22" d="M284.74,479.14a2.52,2.52,0,0,0-.3-1s0,.06,0,.1c.22,1.74-1,1.65-1,1.65-8.81-2.9-19.72,3.14-20.48,3.47a.37.37,0,0,1-.31,0c0,.41,0,1.11.58.87.76-.33,11.67-6.37,20.48-3.47C283.76,480.79,285,480.88,284.74,479.14Z"/><path class="cls-10" d="M281.41,469.83s-14.71-2.31-20.72,5.06c0,0-.2,1.35.56,1.05s11.64-5.89,20.43-3.21c0,0,1.2.08,1-1.53S281.41,469.83,281.41,469.83Z"/><path class="cls-22" d="M282.66,471.2a2.17,2.17,0,0,0-.31-.92v0c.22,1.61-1,1.53-1,1.53-8.78-2.69-19.67,2.9-20.43,3.21a.42.42,0,0,1-.28,0c0,.36,0,1.09.58.86.76-.3,11.64-5.89,20.43-3.21C281.68,472.73,282.87,472.82,282.66,471.2Z"/><path class="cls-10" d="M282.11,474.08s-14.52-2.39-20.44,5.24c0,0-.2,1.4.55,1.09s11.49-6.1,20.15-3.32c0,0,1.18.09,1-1.58S282.11,474.08,282.11,474.08Z"/><path class="cls-22" d="M283.34,475.5a2.33,2.33,0,0,0-.3-.95s0,0,0,.06c.21,1.67-1,1.58-1,1.58-8.67-2.78-19.4,3-20.15,3.32a.39.39,0,0,1-.29,0c0,.38,0,1.1.57.86.75-.31,11.49-6.1,20.15-3.32C282.38,477.09,283.56,477.17,283.34,475.5Z"/><path class="cls-10" d="M285.85,480s-14.94-.86-20,7.73c0,0,0,1.48.69,1.07s10.9-7.62,20-5.7c0,0,1.2,0,.79-1.75S285.85,480,285.85,480Z"/><path class="cls-22" d="M287.26,481.38a2.89,2.89,0,0,0-.25-.67c.25,1.48-.83,1.54-.83,1.54-9.07-1.92-19.25,5.3-20,5.71a.34.34,0,0,1-.4,0c0,.38.12,1.19.68.87.72-.41,10.9-7.62,20-5.71C286.46,483.13,287.67,483.09,287.26,481.38Z"/><path class="cls-10" d="M252.77,461.77s-5.88,1.6-1.31,10.31,2.72,12.66-3.59,14.49c-5.66,1.63-15.25-6.86-22.11,3.7,0,0,0,1.74,1.42,1.2s3.81-4.68,7-4.47,9.5,2.71,14.16,1.28c9.09-2.79,7.87-8.27,5.69-14.3-2.48-6.85-1.31-10.08-.83-11.43C253.39,461.9,253.08,461.69,252.77,461.77Z"/><path class="cls-22" d="M254,474c-2.68-7.4-1.19-10.24-.76-11.74.11-.39-.18-.55-.46-.47a4.28,4.28,0,0,0-1.47.84c-.45,1.37-.32,3.8,2.11,10.54,2.18,6,3.4,11.51-5.69,14.3-4.66,1.43-11-1.06-14.16-1.28s-5.55,3.92-7,4.47a1.07,1.07,0,0,1-.78,0c.1.48.4,1.16,1.36.79,1.42-.54,3.81-4.68,7-4.47s9.5,2.71,14.16,1.28C257.39,485.48,256.17,480,254,474Z"/><path class="cls-16" d="M225.91,490.6l-2,1.92.34.63,2-1.83A.56.56,0,0,0,225.91,490.6Z"/><path class="cls-23" d="M226,490.61a.64.64,0,0,1,.06.49l-1.9,1.74.16.29,2-1.83A.57.57,0,0,0,226,490.61Z"/><path class="cls-10" d="M280,461.43s5,1.82,7.36,11.3,5.61,10.46,11,8.55,10.25.17,11.86,1.7-.27,2.24-1.62,1.47-7.15-3.12-10.51-.95-10.87.7-12.54-10.38c-1.35-8.94-5.47-10.88-5.47-10.88Z"/><path class="cls-22" d="M309.36,483.31c-1.35-.76-7.15-3.12-10.51-.95s-10.87.7-12.54-10.38a24.19,24.19,0,0,0-1.5-5.63c-2.31-3.95-4.83-4.88-4.83-4.88l.08.82s4.13,1.94,5.47,10.88c1.67,11.08,9.17,12.55,12.54,10.38s9.17.19,10.51.95c1.16.66,2.71.22,2.1-.89A2.33,2.33,0,0,1,309.36,483.31Z"/><path class="cls-16" d="M310.61,483.76l2.25,1.58-.24.67-2.26-1.49A.56.56,0,0,1,310.61,483.76Z"/><path class="cls-23" d="M310.56,483.78a.65.65,0,0,0,0,.5l2.16,1.42-.11.31-2.26-1.49A.57.57,0,0,1,310.56,483.78Z"/><path class="cls-10" d="M101.82,461.07s-5.88,1.6-1.31,10.31,2.72,12.66-3.59,14.49c-5.66,1.63-15.25-6.86-22.11,3.7,0,0,0,1.74,1.42,1.2s3.81-4.68,7-4.47,9.5,2.71,14.16,1.28c9.09-2.79,7.87-8.27,5.69-14.3-2.48-6.85-1.31-10.08-.83-11.43C102.43,461.2,102.13,461,101.82,461.07Z"/><path class="cls-22" d="M103,473.27c-2.68-7.4-1.19-10.24-.76-11.74.11-.39-.18-.55-.46-.47a4.28,4.28,0,0,0-1.47.84c-.45,1.37-.32,3.8,2.11,10.54,2.18,6,3.4,11.51-5.69,14.3-4.66,1.43-11-1.06-14.16-1.28s-5.55,3.92-7,4.47a1.07,1.07,0,0,1-.78,0c.1.48.4,1.16,1.36.79,1.42-.54,3.81-4.68,7-4.47s9.5,2.71,14.16,1.28C106.44,484.78,105.22,479.29,103,473.27Z"/><path class="cls-16" d="M75,489.9l-2,1.92.34.63,2-1.83A.56.56,0,0,0,75,489.9Z"/><path class="cls-23" d="M75,489.91a.64.64,0,0,1,.06.49l-1.9,1.74.16.29,2-1.83A.57.57,0,0,0,75,489.91Z"/><path class="cls-15" d="M78.15,497.78c3,5.41,24,11.51,38.4,7.5a96.55,96.55,0,0,0,17.69-7.21,117.67,117.67,0,0,1,11.66-5.21s1,.1,1,5.62c0,1.38-5,2.2-8.53,3.78-5.83,2.59-14.52,8.72-21.24,11.86-17.16,8-42-3.83-41.77-7.06C75.65,503.2,77.24,496.13,78.15,497.78Z"/><path class="cls-16" d="M115.2,512c6.71-3.13,15.41-9.27,21.24-11.86,3.54-1.57,8-2.16,8-3.54a29.56,29.56,0,0,0-.15-3.2,14.94,14.94,0,0,1,1.59-.53s1,.1,1,5.62c0,1.38-5,2.2-8.53,3.78-5.83,2.59-14.52,8.72-21.24,11.86-16.9,7.89-41.23-3.47-41.74-6.9C81.54,511.64,101,518.61,115.2,512Z"/><path class="cls-17" d="M78.13,497.78a25,25,0,0,1,2.1-3.72c3.73-5.48,11.4-8.21,16.18-9.4s5.41-23.48,6.06-24.49,18.94-.48,20.12,6.15l5.68-7.31,12.28,2.71,4.85,31.2c-5.57,2.3-16.72,8.72-28.71,12.3C100.63,510,80.68,502.52,78.13,497.78Z"/><path class="cls-18" d="M109.5,501.17c12-3.58,23.14-10,28.71-12.3l-4.48-28.79,6.82,1.51,4.85,31.2c-5.57,2.3-16.72,8.72-28.71,12.3-14.36,4.29-31.82-1.25-37.18-5.87C87.4,502.28,99.24,504.24,109.5,501.17Z"/><path class="cls-19" d="M77.69,498l-.11-.21.1-.22a25.25,25.25,0,0,1,2.15-3.8c3.92-5.75,12-8.49,16.47-9.6,3.21-.8,4.5-13.63,5.12-19.79.33-3.29.44-4.16.65-4.49s.41-.63,3.49-.63c4.26,0,15.12,1.11,17.24,6l5.29-6.8L141,461.32l5,31.93-.36.15c-1.66.69-3.84,1.75-6.37,3-5.89,2.88-14,6.82-22.39,9.33a39.9,39.9,0,0,1-11.4,1.56h0C92.23,507.28,79.69,501.75,77.69,498Zm62.43-35.87-11.64-2.57-6.18,7.95-.2-1.11c-.79-4.47-10.58-6.14-16.56-6.14a10,10,0,0,0-2.67.22c-.13.47-.3,2.18-.48,4-1,9.53-2.28,19.76-5.87,20.66-4.33,1.08-12.15,3.72-15.88,9.2a25.66,25.66,0,0,0-2,3.41c2.24,3.51,14.13,8.53,26.75,8.53a38.86,38.86,0,0,0,11.12-1.52c8.35-2.49,16.38-6.41,22.24-9.27,2.36-1.15,4.43-2.16,6.06-2.86Z"/><path class="cls-19" d="M104.5,504.24c11.67.92,34.78-10.29,40.82-11.85l.09.56c-5.57,2.3-16.72,8.72-28.71,12.3-16.07,4.8-36-2.71-38.57-7.46a11.12,11.12,0,0,1,.76-1.71C90,503.32,99.33,503.83,104.5,504.24Z"/><path class="cls-18" d="M122.55,467.19s-5.89,21-10.78,23.77-2.18-6.72-16.77-5.4c0,0,5-1.43,6.61-15.55.54-4.75,15.16,1.09,15.16,1.09A7,7,0,0,0,122.55,467.19Z"/><path class="cls-19" d="M141.49,467.75,128.6,466.2h0l0,0a11.68,11.68,0,0,0-2.09,2.32,21.67,21.67,0,0,0-1.58,2.68,27.61,27.61,0,0,0-1.2,2.87c-.35,1-.63,2-.89,3s-.46,2-.62,3-.33,2-.57,3a24.84,24.84,0,0,1-.87,2.92,19.36,19.36,0,0,1-1.28,2.75,14.62,14.62,0,0,1-1.73,2.47,12,12,0,0,1-2.2,2,11.11,11.11,0,0,1-2.62,1.43,18.38,18.38,0,0,0-2.87,1.31,12.86,12.86,0,0,0-4.52,4.44,13.58,13.58,0,0,0-1.32,2.91,11.44,11.44,0,0,0-.56,3.18h1a10.49,10.49,0,0,1,.48-2.89,12.64,12.64,0,0,1,1.19-2.72,12,12,0,0,1,4.16-4.18,17.68,17.68,0,0,1,2.73-1.28,11.82,11.82,0,0,0,2.77-1.57,12.67,12.67,0,0,0,2.3-2.18,15.24,15.24,0,0,0,1.76-2.61,20,20,0,0,0,1.27-2.87,25.57,25.57,0,0,0,.85-3c.23-1,.36-2,.53-3.06s.34-2,.55-3,.5-2,.83-3a27.07,27.07,0,0,1,1.13-2.85,21.35,21.35,0,0,1,1.51-2.66,11.42,11.42,0,0,1,2-2.3l-.08,0Z"/><path class="cls-19" d="M123.34,475l.09.27c.06.19.16.45.3.78a15,15,0,0,0,1.37,2.55,16,16,0,0,0,1.16,1.55c.22.26.48.5.72.77a6.45,6.45,0,0,0,.8.75l.88.72,1,.63.5.32.54.25,1.08.5c.75.25,1.5.5,2.26.67s1.51.28,2.25.32l2.12.05,1.88-.19.83-.09.74-.16,1.2-.26,1-.23-1.05.19-1.21.21-.74.13-.83.05-1.87.11-2.08-.13c-.72-.06-1.44-.27-2.18-.4s-1.44-.47-2.16-.74l-1-.52-.5-.26-.46-.32-.91-.63-.81-.72a6.05,6.05,0,0,1-.73-.74c-.22-.26-.46-.49-.66-.75a15.26,15.26,0,0,1-1-1.51,13.92,13.92,0,0,1-1.19-2.45c-.12-.31-.19-.55-.24-.71s-.07-.26-.07-.26Z"/><path class="cls-19" d="M118.29,504.22l1,0c-.32-7.49-4.36-10.06-4.53-10.17l-.53.85S118,497.29,118.29,504.22Z"/><path class="cls-19" d="M122.59,466.32l-1.43,4.27c-.42,1.28-1,2.76-1.53,4.34s-1.19,3.26-1.88,4.91-1.39,3.29-2.13,4.79c-.38.75-.75,1.46-1.12,2.13s-.76,1.28-1.13,1.83-.75,1-1.09,1.45a10.44,10.44,0,0,1-1,1,7.28,7.28,0,0,1-.69.59l-.26.2.29-.15a5,5,0,0,0,.79-.48,10.54,10.54,0,0,0,1.11-.91,13.35,13.35,0,0,0,1.27-1.37,26.74,26.74,0,0,0,2.58-3.89c.41-.75.82-1.53,1.19-2.34s.74-1.64,1.09-2.48c.67-1.68,1.28-3.39,1.78-5s.9-3.15,1.23-4.46.53-2.43.69-3.2S122.59,466.32,122.59,466.32Z"/><circle cx="128.78" cy="464.21" r="0.97"/><path class="cls-20" d="M127.32,464.12a1.28,1.28,0,1,0,1.28-1.28A1.28,1.28,0,0,0,127.32,464.12Zm.5.07a1,1,0,1,1,1,1A1,1,0,0,1,127.82,464.19Z"/><path class="cls-21" d="M127.77,464.07a1,1,0,0,1,1.88-.31,1,1,0,0,0-1.77.74A1,1,0,0,1,127.77,464.07Z"/><path class="cls-21" d="M128.56,465.28a1.27,1.27,0,0,0,1.2-1.71,1.28,1.28,0,1,1-2.35,1A1.28,1.28,0,0,0,128.56,465.28Z"/><circle cx="120.55" cy="477.71" r="0.97"/><path class="cls-20" d="M122,477.8a1.28,1.28,0,1,0-1.28,1.28A1.28,1.28,0,0,0,122,477.8Zm-.5-.07a1,1,0,1,1-1-1A1,1,0,0,1,121.5,477.73Z"/><path class="cls-21" d="M121.56,477.85a1,1,0,0,1-1.88.31,1,1,0,0,0,1.77-.74A1,1,0,0,1,121.56,477.85Z"/><path class="cls-21" d="M120.77,476.64a1.28,1.28,0,0,0-1.28,1.28,1.3,1.3,0,0,0,.08.43,1.28,1.28,0,1,1,2.35-1A1.28,1.28,0,0,0,120.77,476.64Z"/><circle cx="119.69" cy="482.04" r="0.97"/><path class="cls-20" d="M121.14,482.14a1.28,1.28,0,1,0-1.28,1.28A1.28,1.28,0,0,0,121.14,482.14Zm-.5-.07a1,1,0,1,1-1-1A1,1,0,0,1,120.65,482.06Z"/><path class="cls-21" d="M120.7,482.18a1,1,0,0,1-1.88.31,1,1,0,0,0,1.77-.74A1,1,0,0,1,120.7,482.18Z"/><path class="cls-21" d="M119.91,481a1.28,1.28,0,0,0-1.28,1.28,1.29,1.29,0,0,0,.08.43,1.28,1.28,0,1,1,2.35-1A1.28,1.28,0,0,0,119.91,481Z"/><circle cx="118.21" cy="485.91" r="0.97"/><path class="cls-20" d="M119.66,486a1.28,1.28,0,1,0-1.28,1.28A1.28,1.28,0,0,0,119.66,486Zm-.5-.07a1,1,0,1,1-1-1A1,1,0,0,1,119.17,485.93Z"/><path class="cls-21" d="M119.22,486.05a1,1,0,0,1-1.88.31,1,1,0,0,0,1.77-.74A1,1,0,0,1,119.22,486.05Z"/><path class="cls-21" d="M118.43,484.85a1.27,1.27,0,0,0-1.2,1.71,1.28,1.28,0,1,1,2.35-1A1.28,1.28,0,0,0,118.43,484.85Z"/><circle cx="115.23" cy="490.38" r="0.97"/><path class="cls-20" d="M116.68,490.47a1.28,1.28,0,1,0-1.28,1.28A1.28,1.28,0,0,0,116.68,490.47Zm-.5-.07a1,1,0,1,1-1-1A1,1,0,0,1,116.18,490.4Z"/><path class="cls-21" d="M116.23,490.52a1,1,0,0,1-1.88.31,1,1,0,0,0,1.77-.74A1,1,0,0,1,116.23,490.52Z"/><path class="cls-21" d="M115.45,489.31a1.27,1.27,0,0,0-1.2,1.71,1.28,1.28,0,1,1,2.35-1A1.28,1.28,0,0,0,115.45,489.31Z"/><path class="cls-10" d="M98,479.78s14.75-2.5,20.77,5.48c0,0,.2,1.46-.56,1.14s-11.67-6.37-20.48-3.47c0,0-1.2.09-1-1.65S98,479.78,98,479.78Z"/><path class="cls-22" d="M96.73,481.27a2.52,2.52,0,0,1,.3-1s0,.06,0,.1c-.22,1.74,1,1.65,1,1.65,8.81-2.9,19.72,3.14,20.48,3.47a.37.37,0,0,0,.31,0c0,.41,0,1.11-.58.87-.76-.33-11.67-6.37-20.48-3.47C97.71,482.92,96.51,483,96.73,481.27Z"/><path class="cls-10" d="M100.06,472s14.71-2.31,20.72,5.06c0,0,.2,1.35-.56,1.05s-11.64-5.89-20.43-3.21c0,0-1.2.08-1-1.53S100.06,472,100.06,472Z"/><path class="cls-22" d="M98.81,473.34a2.17,2.17,0,0,1,.31-.92v0c-.22,1.61,1,1.53,1,1.53,8.78-2.69,19.67,2.9,20.43,3.21a.43.43,0,0,0,.28,0c0,.36,0,1.09-.58.86-.76-.3-11.64-5.89-20.43-3.21C99.79,474.86,98.59,474.95,98.81,473.34Z"/><path class="cls-10" d="M99.36,476.21s14.52-2.39,20.44,5.24c0,0,.2,1.4-.55,1.09s-11.49-6.1-20.15-3.32c0,0-1.18.09-1-1.58S99.36,476.21,99.36,476.21Z"/><path class="cls-22" d="M98.13,477.64a2.33,2.33,0,0,1,.3-.95s0,0,0,.06c-.21,1.67,1,1.58,1,1.58,8.67-2.78,19.4,3,20.15,3.32a.39.39,0,0,0,.29,0c0,.38,0,1.1-.57.86-.75-.31-11.49-6.1-20.15-3.32C99.09,479.22,97.91,479.3,98.13,477.64Z"/><path class="cls-10" d="M95.62,482.17s14.94-.86,20,7.73c0,0,0,1.48-.69,1.07s-10.9-7.62-20-5.71c0,0-1.2,0-.79-1.75S95.62,482.17,95.62,482.17Z"/><path class="cls-22" d="M94.21,483.51a2.89,2.89,0,0,1,.25-.67c-.25,1.48.83,1.54.83,1.54,9.07-1.92,19.25,5.3,20,5.71a.34.34,0,0,0,.4,0c0,.38-.12,1.19-.68.87-.72-.41-10.9-7.62-20-5.71C95,485.26,93.8,485.22,94.21,483.51Z"/><path class="cls-10" d="M128.61,463.56s5,1.82,7.36,11.3,5.61,10.46,11,8.55,10.25.17,11.86,1.7-.27,2.24-1.62,1.47-7.15-3.12-10.51-.95-10.87.7-12.54-10.38c-1.35-8.94-5.47-10.88-5.47-10.88Z"/><path class="cls-22" d="M158,485.44c-1.35-.76-7.15-3.12-10.51-.95s-10.87.7-12.54-10.38a24.18,24.18,0,0,0-1.5-5.63c-2.31-3.95-4.83-4.88-4.83-4.88l.08.82s4.13,1.94,5.47,10.88c1.67,11.08,9.17,12.55,12.54,10.38s9.17.19,10.51.95c1.16.66,2.71.22,2.1-.89A2.33,2.33,0,0,1,158,485.44Z"/><path class="cls-16" d="M159.23,485.89l2.25,1.58-.24.67L159,486.66A.56.56,0,0,1,159.23,485.89Z"/><path class="cls-23" d="M159.18,485.91a.65.65,0,0,0,0,.5l2.16,1.42-.11.31L159,486.64A.57.57,0,0,1,159.18,485.91Z"/><path class="cls-11" d="M137,345.34l1.21-.14c.79-.08,1.94-.24,3.41-.37,2.94-.28,7.15-.72,12.2-1.09s11-.76,17.29-1.06c3.17-.11,6.44-.28,9.76-.35s6.71-.17,10.09-.17,6.76,0,10.09.05,6.61.14,9.78.3l4.67.21,4.46.34c1.45.12,2.86.2,4.22.34l3.94.46,3.62.44,3.24.57c2,.36,3.81.62,5.24,1,2.88.71,4.51,1.15,4.51,1.15l-4.58-.76c-1.44-.31-3.23-.44-5.27-.67l-3.25-.35L228,345l-3.93-.27-4.21-.18-4.45-.19-4.65-.1-4.81-.1-4.93,0c-3.32-.06-6.69,0-10.06,0s-6.74.07-10.06.1l-9.75.18-17.29.44Z"/><path class="cls-11" d="M149.05,344.56l-.38.55c-.26.35-.58.91-1,1.59s-1,1.51-1.54,2.51l-1.93,3.3-2.1,4-1.14,2.18L139.84,361l-2.3,4.87c-.73,1.68-1.39,3.42-2.1,5.15s-1.46,3.43-2.11,5.15l-1.76,5.09c-.56,1.65-1.14,3.24-1.68,4.75s-.88,3-1.29,4.33c-.77,2.69-1.46,4.92-1.93,6.49l-.76,2.46.57-2.51c.38-1.59.89-3.87,1.57-6.6.36-1.36.66-2.85,1.13-4.39s1-3.15,1.56-4.82l1.71-5.14c.63-1.73,1.37-3.46,2.06-5.2s1.42-3.47,2.18-5.15l2.37-4.87,1.14-2.32,1.23-2.15,2.26-3.94,2.1-3.21c.61-1,1.21-1.76,1.69-2.42C148.44,345.26,149.05,344.56,149.05,344.56Z"/><path class="cls-11" d="M232.08,344.56s.61.71,1.57,2c.48.66,1.08,1.46,1.69,2.42l2.1,3.21,2.26,3.94,1.23,2.15,1.14,2.32,2.37,4.87c.76,1.68,1.44,3.43,2.18,5.15s1.43,3.47,2.06,5.2l1.71,5.14c.56,1.66,1.07,3.28,1.56,4.82s.78,3,1.13,4.39c.68,2.72,1.19,5,1.57,6.6l.57,2.51-.76-2.46c-.46-1.57-1.16-3.8-1.93-6.49-.41-1.34-.76-2.82-1.29-4.33s-1.12-3.1-1.68-4.75l-1.76-5.09c-.64-1.72-1.41-3.42-2.11-5.15s-1.37-3.47-2.1-5.15l-2.3-4.87-1.09-2.33-1.14-2.18-2.1-4-1.93-3.3c-.55-1-1.1-1.82-1.54-2.51s-.77-1.24-1-1.59Z"/><path class="cls-11" d="M249.19,310.13s0,.61.14,1.67.33,2.57.69,4.35a40.34,40.34,0,0,0,1.7,6c.38,1.07.85,2.13,1.35,3.21a29.29,29.29,0,0,0,1.74,3.13,28.44,28.44,0,0,0,2.08,2.91c.39.44.76.89,1.16,1.32s.79.84,1.21,1.21a31.42,31.42,0,0,0,2.49,2.08l1.24.87,1.21.73c.79.44,1.53.84,2.19,1.16s1.25.59,1.76.77l1.57.61-1.63-.42c-.52-.13-1.13-.38-1.84-.61a23.1,23.1,0,0,1-2.31-1l-1.28-.68-1.32-.82a23.47,23.47,0,0,1-2.66-2,26.06,26.06,0,0,1-2.51-2.56,29.28,29.28,0,0,1-2.18-3,30.37,30.37,0,0,1-1.76-3.25,31.34,31.34,0,0,1-1.31-3.33,35.66,35.66,0,0,1-1.42-6.15,33.27,33.27,0,0,1-.34-4.44C249.13,310.74,249.19,310.13,249.19,310.13Z"/><path class="cls-11" d="M113.08,340.11l1.57-.61c.5-.18,1.08-.48,1.76-.77s1.4-.72,2.19-1.15l1.21-.73L121,336a30.81,30.81,0,0,0,2.49-2.08c.42-.37.8-.8,1.21-1.21s.76-.88,1.16-1.32a28.39,28.39,0,0,0,2.08-2.91,29.54,29.54,0,0,0,1.74-3.13c.49-1.07,1-2.14,1.35-3.21a40.55,40.55,0,0,0,1.7-6c.36-1.78.59-3.29.7-4.35s.14-1.67.14-1.67.06.61.05,1.68a33.21,33.21,0,0,1-.34,4.44,35.5,35.5,0,0,1-1.42,6.15,31.25,31.25,0,0,1-1.31,3.33,30.27,30.27,0,0,1-1.76,3.25,29.41,29.41,0,0,1-2.18,3,26.36,26.36,0,0,1-2.52,2.56,23.47,23.47,0,0,1-2.66,2l-1.32.82-1.28.68a23.1,23.1,0,0,1-2.31,1c-.71.24-1.32.48-1.84.61Z"/><path class="cls-24" d="M275,211.68c0,5.56-5.06,10.06-11.31,10.06h-147c-6.24,0-11.31-4.5-11.31-10.06V64.47c0-5.56,5.06-10.07,11.31-10.07h147C270,54.4,275,58.91,275,64.47Z"/><path class="cls-25" d="M270.22,219.41c-.12.08-.22.17-.34.25h0a10.8,10.8,0,0,1-6.17,1.95H195.55c-12.86,0-48.71,0-72.31,0h-6.52c-6.25,0-11.31-5.36-11.31-12V220c0,6.62,5.06,12,11.31,12h6.52c23.6,0,59.45,0,72.31,0h68.15a10.8,10.8,0,0,0,6.17-1.95h0c.12-.08.23-.17.34-.25a10.15,10.15,0,0,0,3.2-3.68A12.44,12.44,0,0,0,275,220V209.64a12.45,12.45,0,0,1-1.58,6.09A10.15,10.15,0,0,1,270.22,219.41Z"/><path class="cls-26" d="M189.83,163s3.3-7.21,17.43-7.21c10.22,0,25.24,10.22,33.05,10.22s7-4.7,5-5.39c0,0,2-4.83,9.61-4.83,10.28,0,13.94,11.25,13.94,17s-5.25,23.76-29.93,23.76S210.67,178,189.83,178Z"/><path class="cls-26" d="M189.83,163s-3.3-7.21-17.43-7.21c-10.22,0-25.24,10.22-33.05,10.22s-7-4.7-5-5.39c0,0-2-4.83-9.61-4.83-10.28,0-13.93,11.25-13.93,17s5.25,23.76,29.93,23.76S169,178,189.83,178Z"/><path class="cls-10" d="M254.94,155.83c-7.6,0-9.61,4.83-9.61,4.83s8.92-1.49,8.92,6.6c0,5.55-4.54,8.93-12.74,8.93-11.63,0-33.81-24.07-51.63-13.15v15c20.85,0,24.39,18.51,49.07,18.51s29.93-18.05,29.93-23.76S265.22,155.83,254.94,155.83Z"/><path class="cls-10" d="M138.25,176.19c-8.19,0-12.74-3.37-12.74-8.93,0-8.1,8.92-6.6,8.92-6.6s-2-4.83-9.61-4.83c-10.28,0-13.93,11.25-13.93,17s5.25,23.76,29.92,23.76S169,178,189.88,178V163C172.67,150.17,149.88,176.19,138.25,176.19Z"/><path class="cls-25" d="M267,164.61c-2.82,15.79-10.93,24.73-27.61,24.73S210.31,171.48,189.88,178c20.85,0,24.39,18.51,49.07,18.51s29.93-18.05,29.93-23.76A22.89,22.89,0,0,0,267,164.61Z"/><path class="cls-25" d="M140.33,189.33c-16.68,0-24.48-9.87-27.29-25.66-2.2,5.18-2.2,8.18-2.2,9.11,0,5.71,5.31,23.76,30,23.76S169,178,189.88,178C169.45,171.48,157,189.33,140.33,189.33Z"/><path class="cls-27" d="M205.17,160.19a11.31,11.31,0,0,1-11.31,11.31h-8a11.31,11.31,0,0,1-11.31-11.31l5.34-43.37c0-6.24,2.81-11.75,9.06-11.75h2.45c6.25,0,8.67,7.06,8.67,13.31Z"/><path class="cls-25" d="M205.14,160.72a11.39,11.39,0,0,1-11.33,10.72h-8a11.32,11.32,0,0,1-11.25-11.25l0,5.33a11.31,11.31,0,0,0,11.31,11.31h8a11.31,11.31,0,0,0,11.31-11.31Z"/><path class="cls-28" d="M193.87,171.49a11.31,11.31,0,0,0,11.31-11.31V160l-.32-2.62a11.4,11.4,0,0,1-11,8.68h-8a11.36,11.36,0,0,1-10.91-8.59l-.34,2.75a11.22,11.22,0,0,0,11.28,11.23Z"/><path class="cls-28" d="M239,196.54c-24.67,0-28.39-18.51-49-18.51s-24.45,18.51-49.12,18.51c-1.55,0-23.54.91-29.39-19.72,0,0,2.53,22.67,22,27a30.17,30.17,0,0,0,18-2.09c17.91-8.08,24.85-19.76,38.38-19.76s20.47,11.69,38.38,19.76a30.18,30.18,0,0,0,18,2.09c19.52-4.31,22-27,22-27C262,197.59,240.51,196.54,239,196.54Z"/><circle class="cls-11" cx="138.77" cy="116.09" r="6.69"/><circle class="cls-29" cx="141.33" cy="113.02" r="2.11"/><circle class="cls-29" cx="143.76" cy="116.09" r="0.86"/><circle class="cls-11" cx="236.38" cy="116.09" r="6.69"/><circle class="cls-29" cx="238.93" cy="113.02" r="2.11"/><circle class="cls-29" cx="241.36" cy="116.09" r="0.86"/><path class="cls-30" d="M287.89,87.27c-19.23-7-49.45-7.23-70.75-2.75-3.6.72-16.31,4.85-17.38,5.18a30.91,30.91,0,0,1-8.66,1.35v0l-1.24,0-1.24,0v0A30.91,30.91,0,0,1,180,89.71c-1.08-.33-13.78-4.46-17.38-5.18-21.3-4.48-51.52-4.27-70.75,2.75.12,5.08-1.25,11.61,0,16.77.62,2.54,3.77,5.48,5.18,7.93,4.49,7.79,6.91,19.9,12.81,25.92,7.36,7.51,24.1,8.15,37.82,7.32,20.35-1.23,25.56-11.69,32-26.84,2.18-5.11,3.87-11.91,9-12.82h0a7.37,7.37,0,0,1,2.48,0h0c5.09.91,6.78,7.71,9,12.82,6.47,15.15,11.67,25.6,32,26.84,13.72.83,30.46.19,37.82-7.32,5.9-6,8.32-18.13,12.81-25.92,1.41-2.45,4.57-5.39,5.18-7.93C289.14,98.88,287.76,92.35,287.89,87.27Zm-114,30.8c-2.62,9.24-6.24,15.85-12.81,19.52-9.81,5.49-34,6-43.61,0-6.58-4.08-9-11.73-10.67-21.65-1.09-6.55-1.87-15.86.91-20.13,4.83-7.41,25.79-7.58,38.42-6.71,11.95.83,26.93,3.78,29.28,11.59C177,106.11,175.13,113.61,173.86,118.07Zm99.09-2.14c-1.65,9.92-4.1,17.58-10.67,21.65-9.62,6-33.8,5.49-43.61,0-6.56-3.67-10.19-10.27-12.81-19.52-1.27-4.47-3.16-12-1.53-17.38,2.35-7.81,17.33-10.76,29.28-11.59,12.63-.88,33.6-.7,38.42,6.71C274.81,100.08,274,109.39,272.94,115.94Z"/><g class="cls-31"><path class="cls-32" d="M271.9,95.84c-4.83-7.41-25.79-7.59-38.42-6.71-11.95.83-26.93,3.78-29.28,11.59-1.63,5.42.26,12.92,1.53,17.38,2.62,9.24,6.24,15.85,12.81,19.52,9.81,5.49,34,6,43.61,0,6.58-4.08,9-11.73,10.67-21.65C273.9,109.42,274.68,100.11,271.9,95.84Z"/><path class="cls-32" d="M146,89.13c-12.63-.88-33.6-.7-38.42,6.71-2.78,4.27-2,13.58-.91,20.13,1.65,9.92,4.1,17.58,10.67,21.65,9.62,6,33.8,5.49,43.61,0,6.57-3.67,10.19-10.27,12.81-19.52,1.27-4.47,3.15-12,1.53-17.38C172.91,92.91,157.92,90,146,89.13Z"/></g><g class="cls-33"><path class="cls-34" d="M146.06,89.09a145.45,145.45,0,0,0-14.56-.29l-21.78,39c1.67,4.2,4,7.53,7.66,9.78,2.77,1.72,6.74,2.9,11.23,3.58l28.32-50.75A96.8,96.8,0,0,0,146.06,89.09Z"/></g><g class="cls-35"><path class="cls-36" d="M165.21,92.57l-27.52,49.31c1.35,0,2.71,0,4.06-.06l26.73-47.89A31.52,31.52,0,0,0,165.21,92.57Z"/></g><g class="cls-37"><path class="cls-38" d="M233.59,89.09c-1,.07-2.11.16-3.19.27L209.14,127a23.25,23.25,0,0,0,9.5,10.59,32,32,0,0,0,9.06,3l28.91-51.2A124.49,124.49,0,0,0,233.59,89.09Z"/></g><g class="cls-39"><path class="cls-40" d="M265,91.23l-28.53,50.51c1.36.08,2.74.13,4.12.14l27.79-49.22A21,21,0,0,0,265,91.23Z"/></g><path class="cls-41" d="M275,129.69a28.71,28.71,0,0,1-5.16,8.13c-7.36,7.51-24.1,8.15-37.82,7.32-20.35-1.23-25.56-11.69-32-26.84-2.18-5.11-3.87-11.91-9-12.82h0a7.41,7.41,0,0,0-2.48,0h0c-5.09.91-6.78,7.71-9,12.82-6.47,15.15-11.67,25.6-32,26.84-13.72.83-30.46.19-37.82-7.32a21.57,21.57,0,0,1-4.41-6.56v3.6a21.53,21.53,0,0,0,4.41,6.56c7.36,7.51,24.1,8.15,37.82,7.32,20.35-1.23,25.56-11.69,32-26.84,2.18-5.12,3.87-11.91,9-12.82h0a7.4,7.4,0,0,1,2.48,0h0c5.09.91,6.78,7.71,9,12.82,6.46,15.15,11.67,25.6,32,26.84,13.72.83,30.46.19,37.82-7.32a28.71,28.71,0,0,0,5.16-8.13Z"/><path class="cls-17" d="M278.05,241.81s7.37,19.81,23.77,19.81c10.57,0,30.34-2.79,30.34-36.41H374s1,63.92-66.12,56.91c-28.44-3-40.55-23.84-43.2-37.16S278.05,241.81,278.05,241.81Z"/><path class="cls-42" d="M317.78,283.17a96.49,96.49,0,0,1-10-.54c-27.26-2.85-40.55-22-43.64-37.56-.56-2.83-.34-4.89.67-6.13a4,4,0,0,1,3.31-1.34c4.15,0,9.94,3.63,10.18,3.79a.51.51,0,0,1,.2.25c.07.2,7.45,19.49,23.3,19.49,19.8,0,29.84-12.08,29.84-35.91a.5.5,0,0,1,.5-.5H374a.5.5,0,0,1,.5.49c0,.26.21,26-16.5,43C348.22,278.14,334.69,283.17,317.78,283.17ZM268.14,238.6a3.1,3.1,0,0,0-2.53,1c-.81,1-1,2.77-.47,5.3,3,15.21,16,34,42.76,36.76,21.3,2.22,38-2.55,49.35-14.1,15.15-15.38,16.15-38.19,16.21-41.82H332.66c-.14,24.16-10.51,36.41-30.83,36.41-15.75,0-23.41-18.05-24.17-20C276.75,241.6,271.67,238.6,268.14,238.6Z"/><path class="cls-43" d="M370.89,233.79v-5.15h3c0-.33,0-.64.07-.93h-3v-3h-1v3h-5.15v-3h-.93v3H358.4v-3h-1v3h-5.15v-3h-.93v3H345.9v-3h-1v3h-5.15v-3h-.93v3H333.4v-2.95h-1v2.95h-.27c0,.32,0,.62,0,.93h.32v5.15h-.76c0,.33-.1.65-.14,1h.91v5.83h-2.11c-.09.32-.19.62-.28.93h2.39v5.15H328c-.16.34-.33.66-.51,1h4.9v5.06h-5.15v-4.57q-.45.8-.93,1.54v3H324c-.28.31-.56.62-.85.91h3.18v5.15H320.9V255.6q-.49.38-1,.72v2.43h-4.48a27.26,27.26,0,0,1-2.77,1h1.17v5.83h-5.9v-2.72h-1v2.72H301.8v-2.75h-.93v2.75h-5.44v-2.72h-1v2.72H289.3v-2.75h-.93v2.75H286v0h-3v-2.72h-1v2.72H276.8v-5.83H282v3.06h1v-3.06h5.44v3h.93v-3h5.15v3h1V260a20.7,20.7,0,0,1-3-1.29H289.3v-2.05q-.47-.36-.93-.74v2.79h-2.5v0h-2.93v-5.15h2.94q-.44-.47-.86-.94h-2.08V250c-.35-.48-.67-1-1-1.42v4H276.8v-5.06h4.49c-.21-.33-.4-.66-.59-1h-3.9v-5.15h1.35l-.05-.13s-.9-.57-2.22-1.25v.46h-5.44v-2.6l-.57-.12h-.41v2.72h-4.95a6.56,6.56,0,0,0-.1.93h5v5.15h-4.27c.08.32.17.65.27,1h4v5.06h-2.21c.13.31.27.62.41.93h1.8v3.61q.7,1.26,1.5,2.52h4.92v5.83h-.53c.47.53,1,1.06,1.46,1.58v-.65H282v5.15h-.12c.43.33.87.66,1.32,1h5.22v3.23l.93.49v-3.72h5.15v5.06h-2.24c1,.44,2.11.86,3.22,1.24v-.31h5.44v1.85l.93.2v-2H307v2.89l.94.12h0v-3h5.9v3.46l.93,0v-3.49h5.15v3.52l1,0v-3.48h5.44v3.07l.93-.1v-3h5.15v2.11l1-.22v-1.89h5.44V279l.93-.33v0h.09q1.23-.44,2.4-.93h-2.49v-5.06h5.15v3.87l1-.5v-3.37h5.44v.08q.74-.52,1.44-1.06h-.51v-5.15h5.15v1.08c.33-.33.66-.67,1-1v-.08h.08l.85-.93h-.92V262.9h-1v2.72h-5.15v-5.83h5.15v3.08h1v-3.08h5.36c.35-.53.68-1.06,1-1.6v-4.54h2.46l.44-.93h-2.91v-5.06h5q.63-1.73,1.14-3.41v-2.72h.77c.08-.31.16-.62.24-.93h-1v-2.72h-1v2.72h-5.15v-5.83h5.15v3.06h1v-3.06h2.2c.06-.33.11-.66.15-1ZM276.8,253.57H282v5.15H276.8Zm-.93,5.15h-5.44v-5.15h5.44Zm0-6.08h-5.44v-5.06h5.44Zm0-6h-5.44v-5.15h5.44Zm12.5,25h-5.44v-5.15h5.44Zm6.08,0H289.3v-5.15h5.15Zm6.42,6.06h-5.44v-5.06h5.44Zm0-6h-5.44v-5.15h2.38v0h3.06Zm6.08,6H301.8v-5.06H307Zm0-6H301.8V266.5H307Zm6.88,6h-5.9v-5.06h5.9Zm0-6h-5.9V266.5h5.9Zm6.08,6h-5.15v-5.06h5.15Zm0-6h-5.15V266.5h5.15Zm0-8.8v2.71h-5.15v-5.83h5.15Zm6.42,14.85H320.9v-5.06h2.35v0h3.09Zm0-6H320.9V266.5h5.44Zm0-8.81v2.73H320.9v-5.83h5.44Zm6.08,14.85h-5.15v-5.06h5.15Zm0-6h-5.15v-5.15h5.15Zm0-8.81v2.73h-5.15v-5.83h5.15Zm0-4.09h-5.15v-5.15h5.15Zm6.42,19H333.4v-5.06h5.44Zm0-6H333.4v-5.15h5.44Zm0-8.82v2.74H333.4v-5.83h5.44Zm0-4.07H333.4v-5.15h5.44Zm0-6.08h-2.48v0h-3v-5.06h5.44Zm0-6H333.4v-5.15h5.44Zm0-8.82v2.74H333.4v-5.83h2.29v0h3.15Zm0-4.07H333.4v-5.15h5.44Zm6.08,37.92h-5.15v-5.15h5.15Zm0-8.82v2.74h-5.15v-5.84h5.15Zm0-4.07h-5.15v-5.15h5.15Zm0-6.08h-5.15v-5.06h5.15Zm0-6h-5.15v-5.15h5.15Zm0-8.82v2.74h-5.15v-5.83h5.15Zm0-4.07h-5.15v-5.15h5.15Zm6.42,37.93H345.9v-5.15h2.38v0h3.06Zm0-8.84v2.76H345.9v-5.84h5.44Zm0-4.06H345.9v-5.15h5.44Zm0-6.08H345.9v-5.06h5.44Zm0-6H345.9v-5.15h5.44Zm0-8.84v2.76H345.9v-5.83h5.44Zm0-4.06H345.9v-5.15h5.44Zm.93-5.15h5.15v5.15h-5.15Zm5.15,30.17h-5.15v-5.15h5.15Zm0-6.08h-5.15v-5.06h5.15Zm0-6h-5.15v-5.15h5.15Zm6.42,12.14H358.4v-5.15h5.44Zm0-6.08H358.4v-5.06h5.44Zm0-6H358.4v-5.15h5.44Zm0-8.85v2.77H358.4v-2.72h-1v2.72h-5.15v-5.83h5.15v3.08h1v-3.08h5.44Zm0-4H358.4v-5.15h5.44Zm6.08,7.74v5.15h-5.15v-5.15Zm0-7.74h-5.15v-5.15h5.15Z"/><g class="cls-31"><path class="cls-44" d="M341.94,225.63h-9.72c0,23.77-9.88,32.12-19.41,35C323.47,259.46,341.54,253.47,341.94,225.63Z"/><path class="cls-44" d="M313.84,279c-27.44-7-32.86-22.57-35.51-35.89-.5-2.51-8-3.07-7.37-4.14-3.88-1.08-7.64-.55-6.25,6.43,2.65,13.33,14.76,34.19,43.2,37.16,10.55,1.1,19.42.45,26.87-1.43C328.68,282,321.5,280.92,313.84,279Z"/></g><path class="cls-24" d="M383.73,172.38c-.06-8.91-.61-16.12-4.3-21-1.82-2.39-3.68-3.65-5.52-3.76a4.14,4.14,0,0,0-2.19.48c-.15-1.78-1.18-5.57-7-7.71-4.76-1.76-7.12-.17-8.11.94-.63-1.6-2.48-4.63-7.51-5.27-5.46-.69-7.58,1.72-8.36,3.25,0,0-3.51-3.37-9.77,0-5,2.71-5.06,11.17-5.05,11.18v25a.48.48,0,0,0,0,.1,19.37,19.37,0,0,0-4,.48,9.39,9.39,0,0,0-3.67,1.66.47.47,0,0,0-.06.43c5.33,14.45.46,40.34.41,40.61a.47.47,0,0,0,.25.5s17.75,12.12,32.22,12.12c22,0,32.47-14.31,32.47-14.31a.47.47,0,0,0,.16-.36V174.57Q383.8,173.45,383.73,172.38Z"/><path class="cls-45" d="M351.16,232.1c-14.53,0-31.89-11.74-32.62-12.24a1.14,1.14,0,0,1-.54-1.22c.2-1.07,4.8-26.21-.37-40.23a1.18,1.18,0,0,1,.14-1.08,9.29,9.29,0,0,1,4.07-1.94,18,18,0,0,1,3.41-.48V150.54c0-1,.31-9.06,5.42-11.81a12,12,0,0,1,5.65-1.58,7.9,7.9,0,0,1,4.25,1.17c.94-1.37,2.88-3,6.73-3a15.49,15.49,0,0,1,1.92.13c4.52.57,6.66,3,7.65,4.79a6.34,6.34,0,0,1,4-1.26,12.08,12.08,0,0,1,4.13.83c5.32,2,6.85,5.34,7.28,7.38a5,5,0,0,1,1.67-.19c2.06.12,4.09,1.48,6,4,3.63,4.75,4.38,11.44,4.45,21.38,0,.7.06,1.44.06,2.2v42.15a1.18,1.18,0,0,1-.34.83C383.39,218.56,372.52,232.1,351.16,232.1Zm-31.75-13.35c1.76,1.17,18.33,11.94,31.75,11.94,21.36,0,31.8-13.88,31.9-14l0,0V174.57c0-.73,0-1.45-.06-2.16-.07-9.67-.77-16.12-4.16-20.57-1.69-2.22-3.38-3.39-5-3.49a3.54,3.54,0,0,0-1.82.4l-.95.51L371,148.2c-.15-1.81-1.2-5.15-6.5-7.1a10.68,10.68,0,0,0-3.64-.74,4.71,4.71,0,0,0-3.7,1.49l-.76.86-.42-1.07c-.61-1.55-2.33-4.25-6.94-4.83a14,14,0,0,0-1.74-.11c-3.62,0-5.2,1.62-5.9,3l-.43.85-.69-.66a6,6,0,0,0-4-1.3,10.61,10.61,0,0,0-5,1.41c-4.51,2.42-4.68,10.16-4.68,10.54v24.92s-2.85.9-4.47,1.32A10.71,10.71,0,0,0,319,178.1C324.07,192.1,319.84,216.43,319.41,218.75Z"/><path class="cls-46" d="M324.13,218.77c0-.26,4.92-26.16-.41-40.61a.47.47,0,0,1,.05-.43,9.41,9.41,0,0,1,3.67-1.66,8.06,8.06,0,0,1,3.88.26s.06-.8.06-.84v-25s0-8.48,5.05-11.18a13.46,13.46,0,0,1,2.5-1c-1.64-.6-4.32-.89-7.93,1-5,2.71-5.06,11.17-5.05,11.18v25a.48.48,0,0,0,0,.1,19.37,19.37,0,0,0-4,.48,9.39,9.39,0,0,0-3.67,1.66.47.47,0,0,0-.06.43c5.33,14.45.46,40.34.41,40.61a.47.47,0,0,0,.25.5s17.75,12.12,32.22,12.12c1.06,0,2.09,0,3.09-.11-14-1.16-29.88-12-29.88-12A.47.47,0,0,1,324.13,218.77Z"/><path class="cls-46" d="M356.4,140.84c-.34-.07-1.28-3.38-6.45-4.54-3.78-.85-7.24.9-8.51,2.76-.06,2.45.15,50.81.15,50.81.17-.34,2.79-17,2.79-17,0-6.9.13-19.68.13-28.42C344.52,139.89,353.78,139.87,356.4,140.84Z"/><path class="cls-46" d="M371.71,148.14c-.34-.07-1.79-6.55-7-7.71-3.78-.85-7.07,0-8.34,1.9-.06,2.45.15,47.2.15,47.2.17-.34,2.63-13.4,2.63-13.4,0-6.9.13-19.68.13-28.42C359.32,143.17,368.53,145.16,371.71,148.14Z"/><path class="cls-46" d="M383.3,163c-.34-.07-.62-8.87-4.47-12.52-3.59-3.4-5.84-3.74-7.11-1.88-.06,2.45.12,41,.12,41l2.41-12.43c0-6.9.11-10.35.11-19.1C374.38,151.51,380.82,155.18,383.3,163Z"/><path class="cls-45" d="M332.15,227.27a.75.75,0,0,1-.32-.07c-9-4.22-13.07-7.54-13.24-7.68a.75.75,0,0,1-.26-.71c0-.26,4.82-26.4-.49-40.77a.75.75,0,0,1,.33-.91c.12-.07,12-6.75,19.11,3,4.17,5.7,1.8,15.31-.35,20.44,2.76.18,9.9,1.09,14.52,5.71a14.31,14.31,0,0,1,4.1,10.54.75.75,0,0,1-1.5,0,12.86,12.86,0,0,0-3.66-9.47c-5.27-5.26-14.47-5.31-14.6-5.31h0a.75.75,0,0,1-.68-1.07c2.1-4.48,5-14.4,1-19.94-5.6-7.66-14.32-4-16.6-2.88,4.79,14,1,36.89.41,40.5a71.24,71.24,0,0,0,12.58,7.21.75.75,0,0,1-.32,1.43Z"/><path class="cls-45" d="M341.1,190.29a.75.75,0,0,1-.75-.75V138.8a.75.75,0,1,1,1.5,0v50.74A.75.75,0,0,1,341.1,190.29Z"/><path class="cls-45" d="M356.57,190.29a.75.75,0,0,1-.75-.75V140.89a.75.75,0,1,1,1.5,0v48.65A.75.75,0,0,1,356.57,190.29Z"/><path class="cls-45" d="M371.42,190.29a.75.75,0,0,1-.75-.75V146.63a.75.75,0,1,1,1.5,0v42.91A.75.75,0,0,1,371.42,190.29Z"/><path class="cls-17" d="M107,274.23s-7.37-19.81-23.77-19.81c-10.57,0-30.34,2.79-30.34,36.41H11s-1-63.92,66.12-56.91c28.44,3,40.55,23.84,43.2,37.16S107,274.23,107,274.23Z"/><path class="cls-42" d="M52.86,291.32H11a.5.5,0,0,1-.5-.49c0-.26-.21-26,16.5-43,11.6-11.78,28.56-16.66,50.18-14.4,27.26,2.85,40.55,22,43.64,37.56.56,2.83.34,4.89-.67,6.13a4,4,0,0,1-3.31,1.34c-4.15,0-9.94-3.63-10.18-3.79a.51.51,0,0,1-.2-.25c-.07-.2-7.45-19.49-23.3-19.49-19.8,0-29.84,12.08-29.84,35.91A.5.5,0,0,1,52.86,291.32Zm-41.31-1H52.36c.14-24.16,10.51-36.41,30.83-36.41,15.75,0,23.41,18.05,24.17,20,.9.55,6,3.55,9.51,3.55a3.1,3.1,0,0,0,2.53-1c.81-1,1-2.77.47-5.3-3-15.21-16-34-42.76-36.76-21.3-2.22-38,2.55-49.36,14.11C12.6,263.91,11.61,286.7,11.55,290.32Z"/><path class="cls-43" d="M14.13,282.08v5.15h-3q0,.49-.07.93h3v3h1v-3h5.15v3h.93v-3h5.44v3h1v-3h5.15v3h.93v-3h5.44v3h1v-3h5.15v3h.93v-3h5.44v2.95h1v-2.95h.27c0-.32,0-.62,0-.93H52.6v-5.15h.76c0-.33.1-.65.14-1H52.6v-5.83h2.11c.09-.32.19-.62.28-.93H52.6v-5.15H57c.16-.34.33-.66.51-1H52.6v-5.06h5.15v4.57c.3-.53.61-1,.93-1.54v-3H61c.28-.31.56-.62.85-.91H58.68v-5.15h5.44v3.15q.49-.37,1-.72v-2.43h4.48a27.3,27.3,0,0,1,2.77-1H71.18v-5.83h5.9V253h1v-2.72h5.15v2.75h.93v-2.75h5.44V253h1v-2.72h5.15v2.75h.93v-2.75h5.44v2.72h1v-2.72h5.15v5.83h-5.15v-3.06h-1v3.06H96.64v-3h-.93v3H90.56v-3h-1v2.74a20.82,20.82,0,0,1,3,1.29h3.17v2q.47.36.93.74v-2.79h5.44v5.15H99.14q.44.47.86.94h2.08v2.62c.34.48.67.95,1,1.41v-4h5.15v5.06h-4.49c.21.33.4.66.59,1h3.9v5.15h-1.35l.05.13s.9.56,2.22,1.25v-.46h5.44V278l.57.12h.41v-2.72h4.95a6.57,6.57,0,0,0,.1-.93h-5v-5.15h4.27c-.08-.33-.17-.65-.27-1h-4v-5.06h2.21c-.13-.31-.27-.62-.41-.93h-1.81v-3.61q-.7-1.26-1.5-2.52h-4.92v-5.83h.53c-.47-.53-1-1.06-1.46-1.58v.65h-5.15v-5.15h.13q-.65-.5-1.32-1H96.64V240l-.93-.49v3.72H90.56V238.2H92.8c-1-.44-2.11-.86-3.22-1.24v.31H84.14v-1.85l-.93-.2v2H78.06v-2.89l-.94-.12h0v3h-5.9V233.8l-.93,0v3.49H65.1v-3.52l-1,0v3.48H58.68v-3.07l-.93.1v3H52.6v-2.11l-1,.22v1.89H46.18v-.36l-.93.33v0h-.09q-1.23.44-2.4.93h2.49v5.06H40.1v-3.87l-1,.5v3.37H33.69v-.07q-.74.52-1.44,1.06h.51v5.15H27.6v-1.09c-.33.33-.66.67-1,1v.08h-.07l-.85.93h.92V253h1v-2.72h5.15v5.83H27.6V253h-1v3.08H21.26q-.52.8-1,1.6v4.54H17.79l-.44.93h2.91v5.06h-5q-.63,1.73-1.14,3.41v2.72h-.77c-.08.31-.16.62-.24.93h1V278h1v-2.72h5.15v5.83H15.11V278h-1v3.06h-2.2c-.06.33-.11.66-.15,1Zm94.09-19.78h-5.15v-5.15h5.15Zm.93-5.15h5.44v5.15h-5.44Zm0,6.08h5.44v5.06h-5.44Zm0,6h5.44v5.15h-5.44Zm-12.5-25h5.44v5.15H96.64Zm-6.08,0h5.15v5.15H90.56Zm-6.42-6.06h2.48v0h3v5.06H84.14Zm0,6h5.44v5.15H87.2v0H84.14Zm-6.08-6h5.15v5.06H78.06Zm0,6h5.15v5.15H78.06Zm-6.88-6h5.9v5.06h-5.9Zm0,6h5.9v5.15h-5.9Zm-6.08-6h5.15v5.06H65.1Zm0,6h5.15v5.15H65.1Zm0,8.8v-2.71h5.15v5.83H65.1Zm-6.42-14.85h5.44v5.06H61.77v0H58.68Zm0,6h5.44v5.15H58.68Zm0,8.81v-2.73h5.44v5.83H58.68ZM52.6,238.17h5.15v5.06H52.6Zm0,6h5.15v5.15H52.6Zm0,8.81v-2.73h5.15v5.83H52.6Zm0,4.09h5.15v5.15H52.6Zm-6.42-19h5.44v5.06H46.18Zm0,6h5.44v5.15H46.18Zm0,8.82v-2.74h5.44v5.83H46.18Zm0,4.07h5.44v5.15H46.18Zm0,6.08h5.44v5.06H46.18Zm0,6h5.44v5.15H46.18Zm0,8.82V275.3h5.44v5.83H49.33v0H46.18Zm0,4.07h5.44v5.15H46.18ZM40.1,244.2h5.15v5.15H40.1Zm0,8.82v-2.74h5.15v5.83H40.1Zm0,4.07h5.15v5.15H40.1Zm0,6.08h5.15v5.06H40.1Zm0,6h5.15v5.15H40.1Zm0,8.82V275.3h5.15v5.83H40.1Zm0,4.07h5.15v5.15H40.1Zm-6.42-37.93h5.44v5.15H36.74v0H33.69Zm0,8.84v-2.76h5.44v5.83H33.69Zm0,4.06h5.44v5.15H33.69Zm0,6.08h5.44v5.06H33.69Zm0,6h2.45v0h3v5.15H33.69Zm0,8.84v-2.76h5.44v5.83H33.69Zm0,4.06h5.44v5.15H33.69Zm-.93,5.15H27.6V282.1h5.15ZM27.6,257.08h5.15v5.15H27.6Zm0,6.08h5.15v5.06H27.6Zm0,6h5.15v5.15H27.6Zm-6.42-12.14h5.44v5.15H21.19Zm0,6.08h5.44v5.06H21.19Zm0,6h5.44v5.15H21.19Zm0,8.85v-2.77h5.44V278h1v-2.72h5.15v5.83H27.6V278h-1v3.08H21.19Zm0,4h5.44v5.15H21.19Zm-6.08-7.74v-5.15h5.15v5.15Zm0,7.74h5.15v5.15H15.11Z"/><g class="cls-31"><path class="cls-44" d="M23.56,282s-.39-25.39,16.12-42.41C10.47,254.23,11,291.16,11,291.16H52.86a70,70,0,0,1,.57-9.16Z"/><path class="cls-44" d="M113.25,254.89c-3.89-4.74-9.68-9.3-17.54-9.3-6.75,0-17.26,1.16-24,10.75a37.52,37.52,0,0,1,11.45-1.59c16.4,0,23.77,19.81,23.77,19.81s16.06,10.17,13.4-3.16A45.81,45.81,0,0,0,113.25,254.89Z"/></g><path class="cls-24" d="M.81,343.32c.06,8.91.61,16.12,4.31,21,1.82,2.39,3.68,3.66,5.52,3.76a4.14,4.14,0,0,0,2.19-.48c.15,1.78,1.18,5.57,7,7.71,4.76,1.76,7.12.17,8.11-.95.63,1.6,2.48,4.63,7.51,5.27,5.46.69,7.58-1.71,8.36-3.25,0,0,3.51,3.37,9.77,0,5-2.71,5.06-11.17,5.05-11.18v-25a29,29,0,0,0,3.94-.58A9.39,9.39,0,0,0,66.21,338a.47.47,0,0,0,.06-.43c-5.33-14.45-.46-40.34-.41-40.61a.47.47,0,0,0-.25-.5s-17.75-12.12-32.22-12.12c-22,0-32.47,14.31-32.47,14.31a.47.47,0,0,0-.16.36v42.15C.75,341.87.77,342.6.81,343.32Z"/><path class="cls-45" d="M37.24,380.46a15.49,15.49,0,0,1-1.92-.13c-4.5-.57-6.65-2.93-7.66-4.77a6.4,6.4,0,0,1-4,1.24,12.13,12.13,0,0,1-4.15-.83c-5.3-2-6.85-5.32-7.3-7.36a4.89,4.89,0,0,1-1.36.19H10.6c-2.07-.12-4.11-1.49-6.07-4.06C.88,360,.13,353.28.06,343.33c0-.7-.06-1.44-.06-2.2V299a1.22,1.22,0,0,1,.35-.86c.79-1,11.66-14.56,33-14.56,14.54,0,31.91,11.75,32.64,12.25a1.18,1.18,0,0,1,.56,1.26c-.2,1.07-4.79,26.23.37,40.21a1.22,1.22,0,0,1-.14,1.12,9.14,9.14,0,0,1-4.1,2,21.65,21.65,0,0,1-3.38.54v24.28c0,1.09-.34,9.1-5.44,11.84a12,12,0,0,1-5.67,1.58A8,8,0,0,1,44,377.44C43,378.8,41.08,380.46,37.24,380.46Zm-9.09-7.55L28.6,374c.61,1.54,2.32,4.22,6.9,4.8a14,14,0,0,0,1.74.11c3.59,0,5.17-1.61,5.86-3l.46-.9.73.7a6,6,0,0,0,3.93,1.29,10.57,10.57,0,0,0,5-1.41c4.48-2.41,4.65-10.12,4.66-10.5v-25c0-.7.65-.75,1.08-.79a21.76,21.76,0,0,0,3.41-.52,10.82,10.82,0,0,0,3.14-1.31c-5-14-.84-38.16-.4-40.62-1.9-1.26-18.36-11.91-31.7-11.91-21.34,0-31.77,13.87-31.87,14l0,0v42c0,.73,0,1.45.06,2.16.07,9.67.77,16.11,4.15,20.54,1.69,2.21,3.36,3.38,5,3.47h.2a3.39,3.39,0,0,0,1.6-.4l1-.54.1,1.14c.15,1.8,1.19,5.12,6.47,7.07a10.63,10.63,0,0,0,3.63.74,4.67,4.67,0,0,0,3.67-1.48Z"/><path class="cls-45" d="M43.44,377.77a.75.75,0,0,1-.75-.75V326.16a.75.75,0,1,1,1.5,0V377A.75.75,0,0,1,43.44,377.77Z"/><path class="cls-46" d="M30.82,371.94V335.09L28,326.16v42.2a11.47,11.47,0,0,0,0,4.53v1.64h.54a8.56,8.56,0,0,0,6.89,5c2.93.37,7.51-2,8.82-2.79C44.22,376.7,35.73,375.66,30.82,371.94Z"/><path class="cls-46" d="M16,368.5V333.86l-2.84-7.7v38.09a2.87,2.87,0,0,1-1.85-1c-4-4.61-4.24-12.05-4.31-21,0-.72-.06-1.45-.06-2.2V297.92a.47.47,0,0,1,.16-.36s7.19-9.77,22.08-13.17C10.07,286.06.91,298.53.91,298.53a.47.47,0,0,0-.16.36V341c0,.75,0,1.48.06,2.2.06,8.91.61,16.12,4.31,21,1.82,2.39,3.68,3.65,5.52,3.76a4.15,4.15,0,0,0,2.19-.48,7.43,7.43,0,0,0,.29,1.5v1h.36c.81,1.78,2.55,3.86,6.3,5.25,4.15,1.53,6.48.52,7.66-.5A21.65,21.65,0,0,1,16,368.5Z"/><path class="cls-46" d="M46.28,373.35V335.49l-2.84-9.33v43.77a10.25,10.25,0,0,0,0,4.35v.25h.07c1.82,6.1,11.41,3.53,14.24-4.07C54.83,373.65,49.65,375.09,46.28,373.35Z"/><path class="cls-46" d="M64.78,332s-1.75,1.53-3.24.87-2.91-6.5-2.91-6.5l-.05,13.73s5.72,0,7.72-2.28C66.29,337.82,65.06,333.62,64.78,332Z"/><path class="cls-45" d="M28,375.46a.75.75,0,0,1-.75-.75V326.16a.75.75,0,1,1,1.5,0v48.55A.75.75,0,0,1,28,375.46Z"/><path class="cls-45" d="M13.12,369.72a.75.75,0,0,1-.75-.75v-42.8a.75.75,0,0,1,1.5,0V369A.75.75,0,0,1,13.12,369.72Z"/><path class="cls-45" d="M58.63,341.76a.75.75,0,0,1-.75-.75v-14.3a.75.75,0,1,1,1.5,0V341A.75.75,0,0,1,58.63,341.76Z"/><path class="cls-47" d="M105.47,232v52.62c0,6.62,5.06,12,11.31,12h147c6.24,0,11.31-5.36,11.31-12V232Z"/><path class="cls-17" d="M105.47,232v59.24c0,6.62,6.19,5.84,11.5,9.2L181.73,332l8.54-19.54L200.94,332l62.82-31.62c4.31-2.3,11.14-3.84,11.31-9.2V232l-57,31.8-13.85-16.84-13.55,32.15-14.57-32.15-13.62,16.56Z"/><path class="cls-42" d="M200.94,332.51a.5.5,0,0,1-.44-.26l-10.18-18.64-8.13,18.6a.5.5,0,0,1-.29.27.5.5,0,0,1-.39,0l-64.76-31.62a25.43,25.43,0,0,0-5-2.29c-3.47-1.28-6.76-2.49-6.76-7.36V232a.5.5,0,0,1,.25-.43.49.49,0,0,1,.5,0l56.68,31.33,13.36-16.24a.49.49,0,0,1,.45-.18.5.5,0,0,1,.39.29l14.1,31.1,13.11-31.09a.5.5,0,0,1,.85-.12l13.59,16.52,56.59-31.6a.51.51,0,0,1,.5,0,.5.5,0,0,1,.25.43v59.24c-.14,4.53-4.61,6.5-8.55,8.23-1.08.48-2.11.93-3,1.41l-62.83,31.62A.5.5,0,0,1,200.94,332.51ZM190.27,312a.5.5,0,0,1,.44.26l10.44,19.11,62.39-31.4c.94-.5,2-1,3.08-1.44,3.85-1.69,7.83-3.44,8-7.33V232.8l-56.21,31.39a.5.5,0,0,1-.63-.12l-13.33-16.2-13.23,31.38a.5.5,0,0,1-.45.31.52.52,0,0,1-.46-.29L176,247.85,162.9,263.8a.5.5,0,0,1-.63.12L106,232.8v58.39c0,4.18,2.56,5.12,6.1,6.42a26.37,26.37,0,0,1,5.16,2.36l64.24,31.36,8.33-19.06a.5.5,0,0,1,.44-.3Z"/><path class="cls-43" d="M274.29,256.08v2.72h-5.15v-2.75h-.93v2.75h-5.44v-2.72h-1v2.72h-5.15V256h-.93v2.75h-5.44v-2.72h-1v2.72h-5.15v-5.84h5.15V256h1v-3.06h2.29v0h3.14v3h.93v-3h5.15v3h1v-3h5.44v3h.93v-3h5.15v3H275V231.4l-.71.4v2h-3.56l-2.52,1.41v4.67h-5.44v-1.62l-1,.55v1.08h-1.92l-1.76,1h3.68v5.06h-5.15v-4.24l-.93.52v3.72h-5.44v-.67l-1,.55v.12h-.22l-1.66.93h1.88V252h-5.15v-3.33l-.93.52V252h-2.5v0h-2.5l-1.76,1h.34V256h1v-3.08h5.44v5.84h-5.44V256h-1v2.72h-5.15v-3.15l-.93.52v2.63H228.3v0H226l-1.74,1v5.11h-5.15v-2.23l-.93.52v1.72h-2.45v0h-3v-5.15h2.36l-.76-.93h-1.59v-1.93l-1-1.19v3.13h-5.15v-5.83h2.93l-.81-1h-2.12v-2.58l-.93-1.13v3.71h-3.86l-.41,1h4.27v5.83h-5.44v-3.06l-1,2.33v.74H199l-.39.93h.7v5.15h-2.87l-.41,1h3.29v5.06h-5.15v-.64l-.93,2.2v4.52h-1.91l-.41,1h2.32v5.83h-5.9V281h-1v2.72h-5.15V281h-.93v2.75h-5.44V281h-1v2.72h-5.15V281h-.93v2.75h-5.44V281h-1v2.72h-5.15v-5.83h5.15v3.06h1v-3.06h5.44v3h.93v-3h5.15v3h1v-3h2.29v0h3.14v3h.93v-3h5.15v3h1v-3h3.05l-.45-1h-2.61v-5.15h.27L186.34,269v1.84h-5.15v-5.06h3.69l-.44-1h-3.25v-5.15h.91l-.42-.93h-.49v-1.08l-.76-1.67h-.17v2.75h-5.44V256h-1v2.72h-5.15V256h-.5l-.43.52v2.23h-1.83l-.76.93h2.59v5.15h-5.44v-1.92l-1-.54v2.46h-5.15v-5.15h.27l-1.68-.93h-5v-2.72h-1v2.72h-5.15v-5.83h.51l-1.78-1h-5.1V249l-1-.54v3.35h-5.15v-5.15h1.89l-1.68-.93h-.21v-.12l-.93-.51v.63h-5.44v-3.62l-1-.54v4.16h-5.15v-5.06h3.52l-1.77-1h-1.75v-1l-.93-.51v1.48h-5.44v-4.47l-1-.54v5h-5.15v-5.15h4.9l-1.68-.93h-3.22v-1.78l-.78-.43v59.24a6.43,6.43,0,0,0,.78,3.31v-3.23h5.15v5.06H108a11.22,11.22,0,0,0,1.76.93h1.62v.64l1,.37v-1h5.44v3.54l.93.45v-4h5.15v5.15h-2.78l2,1h.77v.37l1,.48v-.85h5.44v3.49l.93.45v-3.95h5.15v5.83h-1.29l2.27,1.11v-.18h5.44v2.82l.93.45v-3.27h5.15v5.15h-1.3l2.28,1.11v-.13h5.44v2.77l.93.45v-3.23h5.15v5.06h-1.39l2.37,1.16v-.23h5.44v2.87l.93.45v-3.32h5.15v5.15h-1.41l2.39,1.16v-.18h5.44v2.82l.43.21h.5v-3h2l.43-1h-2.45V321.8h4.7l.4-.93h-5.11v-5.06h5.15v5l1-2.25v-2.71h1.18l.43-1h-1.61v-5.15h5.9v5.15H191.8l.54,1h.88v1.62l.93,1.7v-3.32h5.15v5.06h-4.2l.51.93h3.69V327h-.88l.54,1h.34v.63l1,1.8v-2.43h5.44V329l.93-.47V328h1.18l1.95-1h-3.13v-5.15h5.15V326l1-.49v-3.64h5.44v.89l.93-.47v-.42H220l1.84-.93h-2.68v-5.06h5.15v3.82l1-.49v-3.33h5.44v.58l.93-.47v-.11h.21l2-1h-2.17v-5.15h5.15v3.65l1-.49v-3.16h2.38v0h3.06v.4l2.65-1.33h-1.72V303h5.15V306h1V303h5.44v.86l.93-.47V303h.78l2-1h-2.73v-5.15h5.15v3.94l1-.49v-3.44h5.44v.88l.93-.44v-.45H270a18.1,18.1,0,0,0,1.57-.93h-2.45v-5.06h5.15v2.34a5.57,5.57,0,0,0,.71-2.59V281.1h-.71v2.72h-5.15v-2.75h-.93v2.75h-5.44v-2.72h-1v2.72h-5.15v-2.75h-.93v2.75h-5.44v-2.72h-1v2.72h-5.15V278h5.15V281h1V278h5.44v3h.93v-3h5.15v3h1v-3h5.44v3h.93v-3h5.15v3H275V256.08Zm-5.15-21.37h5.15v5.15h-5.15Zm0,6.13h5.15v5.06h-5.15Zm0,6h5.15V252h-5.15Zm-6.37-6h5.44v5.06h-5.44Zm0,6h2.32v0h3.12V252h-5.44Zm-6.13,0h5.15V252h-5.15Zm-6.37,0h5.44V252h-5.44Zm-69.09,25h5.15v5.15h-5.15Zm-6.37-12.14h5.44v5.15h-5.44Zm0,6.13h5.44v5.06h-5.44Zm0,6h5.44v5.15h-5.44Zm-6.13-12.12h5.15v5.15h-5.15Zm0,6.13h5.15v5.06h-5.15Zm0,6h5.15v5.15h-5.15Zm-6.37-6h5.44v5.06h-5.44Zm0,6h2.32v0h3.12v5.15h-5.44Zm-6.13-6h5.15v5.06h-5.15Zm0,6h5.15v5.15h-5.15Zm-44.84,18h-5.15v-5.15h5.15Zm0-8.79v2.71h-5.15v-5.83h5.15Zm0-4.1h-5.15v-5.15h5.15Zm0-6.08h-5.15v-5.06h5.15Zm0-6h-5.15v-5.15h5.15Zm0-8.79v2.71h-5.15v-5.83h5.15Zm0-4.1h-5.15v-5.15h5.15Zm0-6.08h-5.15v-5.06h5.15Zm6.42,50.06h-5.44v-5.06h5.44Zm0-6h-5.44v-5.15h5.44Zm0-8.81v2.73h-5.44v-5.83h5.44Zm0-4.09h-5.44v-5.15h5.44Zm0-6.08h-5.44v-5.06h5.44Zm0-6h-5.44v-5.15h2.38v0h3.06Zm0-8.81v2.73h-5.44v-5.83h5.44Zm0-4.09h-5.44v-5.15h5.44Zm0-6.08h-2.48v0h-3v-5.06h5.44Zm6.08,50h-5.15v-5.06h5.15Zm0-6h-5.15v-5.15h5.15Zm0-8.81v2.73h-5.15v-5.83h5.15Zm0-4.09h-5.15v-5.15h5.15Zm0-6.08h-5.15V265.7h5.15Zm0-6h-5.15v-5.15h5.15Zm0-8.81v2.73h-5.15V252.8h5.15Zm0-4.09h-5.15v-5.15h5.15Zm6.42,50.05h-5.44v-5.15h5.44Zm0-6.08h-5.44v-5.06h5.44Zm0-6h-5.44v-5.15h5.44Zm0-8.82v2.74h-5.44v-5.83h5.44Zm0-4.07h-5.44v-5.15h5.44Zm0-6.08h-2.48v0h-3V265.7h5.44Zm0-6h-5.44v-5.15h5.44Zm0-8.82v2.74h-5.44V252.8h5.44Zm0-4.07h-5.44v-5.15h5.44Zm6.08,50h-5.15v-5.15h5.15Zm0-6.08h-5.15v-5.06h5.15Zm0-6h-5.15V284.6h5.15Zm0-8.82v2.74h-5.15v-5.83h5.15Zm0-4.07h-5.15v-5.15h5.15Zm0-6.08h-5.15v-5.06h5.15Zm0-6h-5.15v-5.15h5.15Zm0-8.82v2.74h-5.15v-5.83h5.15Zm6.42,50v2.76h-5.44v-5.83h5.44Zm0-4.06h-2.51v0h-2.93v-5.15h5.44Zm0-6.08h-5.44v-5.06h5.44Zm0-6h-5.44V284.6h5.44Zm0-8.84v2.76h-5.44v-5.83h5.44Zm0-4.06h-5.44v-5.15h5.44Zm0-6.08h-5.44v-5.06h2.35v0h3.09Zm0-6h-5.44v-5.15h5.44Zm0-8.84v2.76h-5.44v-5.83h5.44Zm.93,3.69h5.15v5.15h-5.15Zm0,6.13h5.15v5.06h-5.15Zm0,6h5.15v5.15h-5.15Zm0,12.9h5.15v5.15h-5.15Zm0,6.13h5.15v5.06h-5.15Zm0,6h5.15v5.15h-5.15Zm11.57,18.06h-5.44v-5.15h2.38v0h3.06Zm0-8.85v2.77h-5.44V306h-1v2.72h-5.15v-5.83h5.15V306h1v-3.08h5.44Zm0-4h-5.44v-5.15h5.44Zm0-6.08h-5.44v-5.06h5.44Zm0-6h-5.44v-5.15h5.44Zm0-8.85v2.77h-5.44V281h-1v2.72h-5.15v-5.83h5.15v3.08h1v-3.08h5.44Zm0-4h-5.44v-5.15h5.44Zm0-6.08h-5.44v-5.06h5.44Zm0-6h-5.44V259.6h5.44Zm25.93,19.9h5.15v5.15h-5.15Zm0,6.13h5.15v5.06h-5.15Zm0,6h5.15v5.15h-5.15Zm-6.37-12.14h2.38v0h3.06v5.15h-5.44Zm0,6.13h5.44v5.06h-5.44Zm0,6h5.44v5.15h-5.44Zm-6.13-12.12h5.15v5.15h-5.15Zm0,6.13h5.15v5.06h-5.15Zm0,6h5.15v5.15h-5.15Zm-6.37-12.14h5.44v5.15h-5.44Zm0,6.13h5.44v5.06h-5.44Zm0,6h5.44v5.15h-5.44Zm-6.13-12.12h5.15v5.15h-5.15Zm0,6.13h5.15v5.06h-5.15Zm0,6h5.15v5.15h-5.15Zm5.15,18h-5.15v-5.15h5.15Zm6.42,6.06h-5.44v-5.06h5.44Zm0-6h-5.44v-5.15h5.44Zm6.08,6h-5.15V315.8h5.15Zm0-6h-5.15v-5.15h5.15ZM180.26,327h-5.44v-5.15h5.44Zm0-6.08h-5.44V315.8h5.44Zm0-6h-5.44v-5.15h5.44Zm6.08,0h-5.15v-5.15h5.15Zm6.88-8.79v2.71h-5.9V306h-1v2.72h-5.15V306h-.93v2.75h-5.44V306h-1v2.72h-5.15V306h-.93v2.75h-5.44V306h-1v2.72h-5.15v-5.83h5.15V306h1v-3.06h5.44v3h.93v-3h5.15v3h1v-3h5.44v3h.93v-3h5.15v3h1v-3h5.9Zm0-4.1h-5.9v-5.15h5.9Zm0-6.08h-5.9v-5.06h5.9Zm0-6h-5.9v-5.15h5.9Zm6.08,25h-5.15v-5.15h5.15Zm0-8.79v2.71h-5.15v-5.84h5.15Zm0-4.1h-5.15v-5.15h5.15Zm0-6.08h-5.15v-5.06h5.15Zm0-6h-5.15v-5.15h5.15Zm0-8.8v2.71h-5.15V277.9h5.15Zm0-4.1h-5.15v-5.15h5.15ZM205.72,327h-5.44v-5.15h5.44Zm0-6.08h-5.44v-5.06h5.44Zm0-6h-5.44v-5.15h2.38v0h3.06Zm0-8.81v2.73h-5.44v-5.84h5.44Zm0-4.09h-5.44v-5.15h5.44Zm0-6.08h-5.44v-5.06h2.35v0h3.09Zm0-6h-5.44v-5.15h5.44Zm0-8.81v2.73h-5.44V277.9h5.44Zm0-4.09h-5.44v-5.15h5.44Zm0-6.08h-5.44v-5.06h5.44Zm0-6h-5.44v-5.15h5.44Zm6.08,56.09h-5.15v-5.06h5.15Zm0-6h-5.15V309.7h5.15Zm0-8.81v2.73h-5.15v-5.83h5.15Zm0-4.09h-5.15V296.8h5.15Zm0-6.08h-5.15v-5.06h5.15Zm0-6h-5.15v-5.15h5.15Zm0-8.81v2.73h-5.15v-5.83h5.15Zm0-4.09h-5.15v-5.15h5.15Zm0-6.08h-5.15v-5.06h5.15Zm0-6h-5.15v-5.15h5.15Zm6.42,56.1h-5.44v-5.06h5.44Zm0-6h-5.44V309.7h5.44Zm0-8.82v2.74h-5.44v-5.83h5.44Zm0-4.07h-5.44V296.8h5.44Zm0-6.08h-5.44v-5.06h5.44Zm0-6h-5.44v-5.15h5.44Zm0-8.82v2.74h-5.44v-5.83h5.44Zm0-4.07h-5.44v-5.15h5.44Zm0-6.08h-5.44v-5.06h5.44Zm6.08,44h-5.15v-5.15h5.15Zm0-8.82v2.74h-5.15v-5.83h5.15Zm0-4.07h-5.15v-5.15h5.15Zm0-6.08h-5.15v-5.06h5.15Zm0-6h-5.15v-5.15h5.15Zm0-8.82v2.74h-5.15v-5.83h5.15Zm0-4.07h-5.15v-5.15h5.15Zm0-6.08h-5.15V265.8h5.15Zm6.42,44h-5.44v-5.15h5.44Zm0-8.84v2.76h-5.44v-5.83h5.44Zm0-4.06h-5.44v-5.15h5.44Zm0-6.08h-5.44v-5.06h5.44Zm0-6h-5.44v-5.15h2.38v0h3.06Zm0-8.84v2.76h-5.44v-5.83h5.44Zm0-4.06h-5.44v-5.15h5.44Zm0-6.08h-5.44V265.8h5.44Zm0-6h-5.44v-5.15h5.44Zm.93-5.15h5.15v5.15h-5.15Zm0,6.13h5.15v5.06h-5.15Zm0,6h5.15V277h-5.15Zm0,12.9h5.15v5.15h-5.15Zm0,6.13h5.15v5.06h-5.15Zm0,6h5.15V302h-5.15ZM243.21,306v2.77h-5.44v-2.72h-1v2.72h-5.15V303h5.15V306h1V303h2.29v0h3.14Zm0-4h-5.44v-5.15h5.44Zm0-6.08h-5.44v-5.06h5.44Zm0-6h-2.45v0h-3V284.7h5.44Zm0-8.85v2.77h-5.44v-2.72h-1v2.72h-5.15v-5.83h5.15V281h1v-3.08h5.44Zm0-4h-5.44v-5.15h5.44Zm0-6.08h-5.44v-5.06h5.44Zm0-6h-5.44v-5.15h5.44Zm25.93,19.9h5.15v5.15h-5.15Zm-6.37,0h5.44v5.15h-5.44Zm0,6.13h5.44v5.06h-5.44Zm-6.13-6.13h5.15v5.15h-5.15Zm0,6.13h5.15v5.06h-5.15Zm-6.37-6.15h5.44v5.15h-5.44Zm0,6.13h5.44v5.06h-5.44Zm0,6h5.44V302h-5.44Zm-1,5.15h-5.15v-5.15h5.15Zm0-6.08h-5.15v-5.06h5.15Zm0-11.2v5.15h-5.15v-5.15Zm0-7.74h-5.15v-5.15h5.15Zm0-6.08h-5.15v-5.06h5.15Zm0-6h-5.15V259.7h5.15ZM255.71,277h-5.44v-5.15h5.44Zm0-6.08h-5.44v-5.06h5.44Zm0-6h-5.44V259.7h5.44ZM261.79,277h-5.15v-5.15h5.15Zm0-6.08h-5.15v-5.06h5.15Zm0-6h-5.15v-5.15h5.15ZM268.21,277h-2.5v0h-2.93v-5.15h5.44Zm0-6.08h-5.44v-5.06h5.44Zm0-6h-2.45v0h-3v-5.15h5.44ZM274.29,277h-5.15v-5.15h5.15Zm0-6.08h-5.15v-5.06h5.15Zm0-6h-5.15v-5.15h5.15Z"/><polygon class="cls-43" points="173.84 255.91 174.82 255.91 174.82 252.86 177.11 252.86 177.11 252.88 179.03 252.88 178.59 251.9 177.75 251.9 177.75 251.88 174.82 251.88 174.82 247.88 173.84 249.08 173.84 251.88 171.53 251.88 170.72 252.86 173.84 252.86 173.84 255.91"/><g class="cls-31"><path class="cls-44" d="M267.79,295.9,205,327.52,191.91,303.9V279.72l13.78-31.12-1.39-1.69-14,32.15v33.41L201,332l62.82-31.62c3.93-2.1,9.95-3.58,11.1-7.89C272.65,293.82,269.92,294.77,267.79,295.9Z"/><path class="cls-44" d="M121,295.9c-5.3-3.36-11.5-2.58-11.5-9.2V234.16l-4-2.21v59.24c0,6.62,6.19,5.84,11.5,9.2L181.77,332l2.32-5.31Z"/></g><polygon class="cls-17" points="100.78 219.8 176.14 246.91 143.12 287.06 97.52 236.51 100.78 219.8"/><path class="cls-42" d="M143.12,287.56a.5.5,0,0,1-.37-.17l-45.6-50.55a.5.5,0,0,1-.12-.43l3.25-16.72a.5.5,0,0,1,.24-.34.51.51,0,0,1,.42,0l75.36,27.12a.5.5,0,0,1,.22.79l-33,40.15a.5.5,0,0,1-.37.18Zm-45.06-51.2,45,49.93,32.2-39.15-74.14-26.68Z"/><polygon class="cls-48" points="97.52 236.51 143.12 287.06 176.14 246.91 146.14 295.93 97.52 236.51"/><polygon class="cls-49" points="100.78 219.8 105.41 217.6 105.5 221.5 100.78 219.8"/><path class="cls-43" d="M170.15,248.3l2.14-2.73-.92-.33-1.95,2.49-1.92-1.51h0l-2.36-1.85.83-1.06-1-.35-.63.8-2.44-1.91-3-1.06-3.12,4-1.95-1.53h0l-2.33-1.83,2-2.55-1-.35-1.8,2.3-4.06-3.18.75-1-.92-.33L146,237l-1.95-1.53h0l-.19-.15L140.24,234l-3,3.82-4.06-3.18,1.94-2.48-.92-.33-1.75,2.24-2-1.54h0l-2.31-1.81.64-.81-1-.35-.44.56-1.69-1.32-2.95-1.06,4,3.16-1.91,2.43-1.69,2.16-4.06-3.18,1.69-2.16,1.9-2.42-.92-.33-1.71,2.18-1.69,2.16-1.9-1.49h0l-2.38-1.86,1.68-2.15.6-.77-1-.35-.4.51-1.68,2.15-4.06-3.18,1-1.32-.92-.33-.84,1.08-1.9-1.49h0l-1.32-1-2.78-1,.38.3-3.18,4.06h0L99.38,227l.58-.75,1.85,1.45h0l2.43,1.9-3.12,4L99.17,232h0l-.68-.53-.2,1,2.25,1.76-2.35,3,.63.7,2.45-3.13,4.06,3.18-3,3.83.67.74,3.11-4,1.83,1.43h0l2.45,1.92-3.18,4.06-2-1.54h0l-1.79-1.4,3.89,4.31,4,3.17-.55.7.67.74.66-.84,1.81,1.42h0l2.47,1.94-1.23,1.57.63.7,1.33-1.7,4.06,3.18-1.88,2.4.09.1.67.52,1.9-2.42,1.81,1.42h0l2.48,1.94-1.89,2.41-.67.86.63.7.77-1,1.89-2.41L131,266l-3,3.84h0l-.21.26.67.74,1.4-1.78,1.92-2.45,1.81,1.42h0l2.47,1.94-3,3.83h0l-.6.76-1.9-1.49h0l-.34-.26,3.68,4.08,2.76,2.16-.38.48.67.74.48-.61,1.87,1.47h0l2.41,1.88-1.06,1.35.63.7,1.16-1.47,2.13,1.67.59-.72L143,282.9l1.69-2.16h0l1.91-2.43,2.25,1.77.62-.76-2.27-1.78,3.18-4.06,2.37,1.86.59-.72L151,272.75l3.12-4,2.48,1.94.62-.76-2.5-2,3.18-4.06,2.59,2,.59-.72-2.61-2,1.92-2.45h0l1.68-2.14,2.72,2.13.62-.76-2.74-2.14,3.18-4.05,2.83,2.22.59-.72-2.85-2.23,3.12-4,2.94,2.31.62-.76Zm-10.43-6.95,4.05,3.18-3.12,4-4.06-3.18Zm-3.7,4.72,4.06,3.18-3.18,4.06-4.06-3.18Zm-1.48,10.25h0l-1.84,2.35-4.06-3.18,1.78-2.27,1.82-2.32,4.06,3.18Zm-18.38,4.78,3.12-4,1.85,1.45h0l2.43,1.9-3.12,4-1.95-1.53h0Zm-9.83-7.72,3.12-4,1.85,1.45h0l2.43,1.9-3.12,4-1.95-1.53h0Zm-9.83-7.72,3.12-4,1.85,1.45h0l2.43,1.9-3.12,4-1.95-1.53h0Zm-.77-.6-4.06-3.18,3.12-4,4.06,3.18Zm8.9.56,4.06,3.18-3.12,4-4.06-3.18Zm12.88,2.32L134.33,252l-1.93-1.51h0l-2.35-1.85,3.18-4.06,1.87,1.47h0Zm14,2.4-1.74,2.22h0l-1.86,2.37-1.9-1.49h0l-2.38-1.86,1.93-2.47h0l1.67-2.12,1.81,1.42h0Zm-11.62,6,3.18-4.05,1.88,1.47h0l2.41,1.89-3.18,4.05-1.93-1.51h0Zm4.83-7.75h0l-1.85,2.36-4.06-3.18,1.71-2.18,1.89-2.41,4.06,3.18Zm-2.42,3.09-3.18,4.06-4.05-3.18,3.18-4.05Zm-13-3.67-4.06-3.18,3.18-4.05,4.06,3.18Zm5.17,5.32,4.06,3.18-3.12,4-4.05-3.18Zm6.13,12.44,4.06,3.18L141.47,273l-4.06-3.18Zm.57-.73,3.12-4,4.06,3.18-3.12,4Zm3.73-4.76,3.18-4.05,4.06,3.18-3.18,4.05ZM151,242.13l1.83,1.43h0l2.45,1.92-3.18,4.06-2-1.54h0l-2.31-1.81Zm-4.83-3.78,4.05,3.18-3.18,4.06L143,242.4Zm-5-3.94,1.83,1.43h0l2.45,1.92-3.18,4.06-2-1.55h0L138,238.46Zm-3.78,4.83,1.81,1.41h0l2.48,1.94L139.79,245l-1.71,2.18-1.9-1.49h0l-2.38-1.86,1.8-2.3h0Zm-4.83-3.78,4.06,3.18-1.78,2.27h0L133,243.22,129,240l1.7-2.17Zm-6.91-1.51,1.91-2.43,1.81,1.42h0l2.47,1.94L130,237.3l-1.7,2.17-1.9-1.49h0L124,236.11Zm-2.27,2.89,1.87,1.47h0l2.41,1.88-3.18,4.06-1.93-1.51h0l-2.36-1.84Zm-4.83-3.78,4.06,3.18-3.18,4.06-4.06-3.18Zm-5-3.94,1.87,1.47h0l2.41,1.88-3.18,4.06L112.75,235h0l-2.35-1.85Zm-4.83-3.78,4.06,3.18-3.18,4.05-4.06-3.18Zm-5.83,2h0l-2.35-1.84,3.18-4.06,1.87,1.47h0l2.41,1.88-3.18,4.06Zm3,10-4.06-3.18,3.12-4,4.06,3.18Zm3.1,2.44h0l-2.33-1.83,3.12-4,1.85,1.45h0l2.43,1.9-3.12,4Zm3,10.06-4.06-3.18,3.18-4.06,4.06,3.18Zm5,4-2-1.54h0l-2.31-1.81,3.18-4.06,1.83,1.43h0l2.45,1.92Zm4.79,3.75-4.06-3.18,3.18-4.06L125,253.5Zm5,4-2-1.55h0l-2.31-1.81,3.18-4.05,1.83,1.43h0l2.45,1.92Zm4.79,3.75-4.05-3.18,3.18-4.06,4.06,3.18Zm3.07,2.43h0l-2.31-1.81,3.18-4.06,1.83,1.43h0l2.45,1.92-3.18,4.05Zm2.55,10.66-4.06-3.18L134.9,273l1.9-2.43,4.06,3.18-3,3.83h0Zm5.65,3.2h0l-.61.77-1.9-1.49h0L138,279l1.68-2.14h0l1.92-2.45,1.81,1.42h0l2.48,1.94Zm3.6-4.59-2-1.54h0l-2.31-1.81,3.18-4.05,1.83,1.43h0l2.45,1.92Zm3.75-4.79-1.95-1.53h0L146,268.81l3.12-4,1.85,1.45h0l2.43,1.9Zm3.73-4.76-1.92-1.51h0l-2.36-1.84L152.9,260l1.87,1.47h0l2.41,1.89Zm5.48-7h0l-1.73,2.2-1.9-1.49h0l-2.38-1.86.83-1.07h0l2.76-3.53,1.81,1.42h0l2.48,1.94Zm2.48-3.16-2-1.54h0l-2.31-1.81,3.18-4.06,1.83,1.43h0l2.45,1.92Zm3.75-4.79L163.75,251h0l-2.33-1.83,3.12-4,1.85,1.45h0l2.43,1.91Z"/><polygon class="cls-17" points="279.62 219.8 204.26 246.91 237.28 287.06 282.88 236.51 279.62 219.8"/><path class="cls-42" d="M237.28,287.56h0a.5.5,0,0,1-.37-.18l-33-40.15a.5.5,0,0,1-.1-.45.5.5,0,0,1,.31-.34l75.36-27.12a.5.5,0,0,1,.66.38l3.25,16.72a.5.5,0,0,1-.12.43L237.65,287.4A.5.5,0,0,1,237.28,287.56ZM205.1,247.14l32.2,39.15,45-49.93-3.1-15.9Z"/><polygon class="cls-48" points="282.88 236.51 237.28 287.06 204.26 246.91 234.26 295.93 282.88 236.51"/><polygon class="cls-49" points="279.62 219.8 274.99 217.6 274.9 221.5 279.62 219.8"/><path class="cls-43" d="M207.26,250.54l.62.76,2.94-2.31,3.12,4-2.85,2.23.59.72,2.83-2.22,3.18,4.06L215,259.91l.62.76,2.72-2.13,1.68,2.14h0l1.92,2.45-2.61,2,.59.72,2.59-2,3.18,4.06-2.5,2,.62.76,2.48-1.94,3.12,4L227,274.54l.59.72L230,273.4l3.18,4.06-2.27,1.78.62.76,2.25-1.77,1.91,2.43h0l1.69,2.16-2.15,1.68.59.72,2.13-1.67,1.16,1.47.63-.7L238.64,283,241,281.1h0l1.87-1.47.48.62.67-.74-.38-.48,2.76-2.16,3.68-4.08-.34.26h0l-1.9,1.49-.6-.76h0l-3-3.83,2.47-1.94h0l1.81-1.42L250.5,269l1.4,1.78.67-.74-.21-.26h0l-3-3.84,4.06-3.18,1.89,2.41.77,1,.63-.7-.67-.86-1.89-2.41,2.47-1.94h0l1.81-1.41,1.9,2.42.67-.52.09-.1-1.88-2.4,4.06-3.18,1.33,1.7.63-.7L264,254.5l2.47-1.94h0l1.8-1.42.66.84.67-.74-.55-.7,4-3.17,3.89-4.31-1.79,1.4h0l-2,1.54L270,242l2.45-1.92h0l1.83-1.43,3.11,4,.67-.74-3-3.83,4.06-3.18,2.45,3.13.63-.7-2.35-3,2.25-1.76-.2-1-.67.53h0l-1.95,1.53-3.12-4,2.43-1.9h0l1.85-1.45.58.75-.41-2.12h0l-3.18-4.06.38-.3-2.78,1-1.32,1h0l-1.9,1.49-.84-1.08-.92.33,1,1.32L267,227.7l-1.68-2.15-.4-.51-1,.35.6.77,1.68,2.15-2.38,1.86h0l-1.9,1.49-1.69-2.16-1.71-2.18-.92.33,1.9,2.42,1.69,2.16-4.06,3.18-1.69-2.16-1.91-2.43,4-3.16-2.95,1.06L253,230.06l-.44-.56-1,.35.64.81-2.31,1.81h0l-2,1.54-1.75-2.24-.92.33,1.94,2.48-4.06,3.18-3-3.82-3.67,1.32-.19.15h0L234.34,237l-.56-.72-.92.33.75,1-4.05,3.18-1.8-2.3-1,.35,2,2.55-2.33,1.83h0l-1.95,1.53-3.12-4-3,1.06L216,243.68l-.63-.8-1,.35.83,1.06-2.36,1.85h0L211,247.65,209,245.16l-.92.33,2.14,2.73Zm16.52-5.28-4.06,3.18-3.12-4,4.06-3.18Zm3.75,4.79-4.06,3.18-3.18-4.06,4.06-3.18Zm-3.45,4,4.06-3.18,1.82,2.32,1.78,2.27-4.06,3.18-1.84-2.35h0Zm17.8,8.85h0l-1.95,1.53-3.12-4,2.43-1.9h0L241.1,257l3.12,4Zm9.83-7.72h0l-1.95,1.53-3.12-4,2.43-1.9h0l1.85-1.45,3.12,4Zm9.83-7.72h0l-1.95,1.53-3.12-4,2.43-1.9h0l1.85-1.45,3.12,4Zm0-6.42,4.06-3.18,3.12,4L264.65,245Zm-2.65,8.53-4.06,3.18-3.12-4,4.06-3.18ZM245.28,246h0l1.88-1.47,3.18,4.06L248,250.38h0L246,251.9l-3.18-4.06Zm-13.93,2.34h0l1.81-1.41,1.66,2.13h0l1.93,2.47-2.38,1.86h0l-1.9,1.49-1.85-2.37h0l-1.74-2.22Zm6.79,9.8h0l-1.93,1.51L233,255.57l2.41-1.89h0l1.87-1.47,3.18,4.05Zm-4.22-11.83L238,243.1l1.89,2.41,1.71,2.18-4.06,3.18-1.85-2.36h0Zm8.23,2.15,3.18,4.06-4.05,3.18-3.18-4.05Zm5.77-4.54L252,240.7l3.18,4.05-4.06,3.18ZM249,257.23,245,260.41l-3.12-4,4.05-3.18ZM243,269.74l-4.06,3.18-3.18-4.05,4.06-3.18Zm-7.81-1.61-3.12-4,4.05-3.18,3.12,4Zm-3.73-4.76-3.18-4.05,4.06-3.18,3.18,4.05Zm1.11-17.26-2.31,1.81h0l-2,1.54-3.18-4.06,2.45-1.92h0l1.83-1.43Zm4.83-3.78-4.06,3.18-3.18-4.06,4.05-3.18Zm5-3.94-2.31,1.81h0l-2,1.55-3.18-4.06,2.45-1.92h0l1.83-1.43Zm2.4,3.06h0l1.8,2.3-2.38,1.86h0l-1.9,1.49-1.71-2.18-1.89-2.41,2.47-1.94h0l1.81-1.42Zm4.93-3.65,1.7,2.17-4.06,3.18-1.82-2.32h0l-1.78-2.27,4.06-3.18Zm6.7-1.77L254,237.89h0l-1.9,1.49-1.7-2.17-1.9-2.42,2.47-1.94h0l1.8-1.42,1.91,2.43Zm3.75,4.79-2.36,1.84h0l-1.92,1.51-3.18-4.06,2.41-1.88h0l1.87-1.47ZM265,237l-4.06,3.18-3.18-4.06L261.8,233Zm5-3.94-2.35,1.85h0l-1.93,1.51-3.18-4.05,2.41-1.89h0L266.8,229Zm4.83-3.78-4.05,3.18-3.18-4.06,4.05-3.18Zm.73-.57-3.18-4.06,2.41-1.88h0l1.87-1.47,3.18,4.06-2.35,1.84h0Zm-4.18,4.52,4.06-3.18,3.12,4-4.05,3.18Zm-1.92,8-3.12-4,2.43-1.9h0l1.85-1.45,3.12,4-2.33,1.83h0Zm-4.21,4.48,4.06-3.18,3.18,4.06-4.06,3.18Zm-5,4,2.45-1.92h0l1.83-1.43,3.18,4.06-2.31,1.81h0l-2,1.54Zm-4.79,3.75,4.06-3.18,3.18,4.05-4.06,3.18Zm-5,4,2.45-1.92h0l1.83-1.43,3.18,4.06-2.31,1.81h0l-2,1.54Zm-4.79,3.75,4.05-3.18L252.8,262l-4.06,3.18Zm-1.87,8-3.18-4.06,2.45-1.92h0l1.83-1.43L248,265.8l-2.31,1.81h0Zm-1.18,8.35h0l-3-3.83,4.06-3.18,1.9,2.43,1.69,2.16-4.06,3.18Zm-8,.14,2.48-1.94h0l1.81-1.42,1.92,2.45h0l1.68,2.14L240,280.75h0l-1.91,1.49-.61-.77h0Zm-3.78-4.83,2.45-1.92h0l1.83-1.43,3.18,4.05-2.31,1.81h0l-2,1.54ZM227,268.12l2.43-1.9h0l1.85-1.45,3.12,4-2.33,1.83h0l-1.95,1.53Zm-3.78-4.83,2.41-1.89h0l1.88-1.47,3.18,4.05-2.36,1.84h0l-1.92,1.51ZM219,258l2.48-1.94h0l1.81-1.42,2.76,3.53h0l.83,1.07-2.38,1.86h0l-1.9,1.49-1.73-2.21h0Zm-3.78-4.83,2.45-1.92h0l1.83-1.43,3.18,4.06-2.31,1.81h0l-2,1.54Zm-3.7-4.72,2.43-1.9h0l1.85-1.45,3.12,4-2.33,1.83h0l-1.95,1.53Z"/><polygon class="cls-11" points="220.85 226.01 190.74 241.65 160.63 226.01 160.63 254.87 190.74 242.18 220.85 254.87 220.85 226.01"/><polygon class="cls-50" points="218.55 227.27 218.55 252.32 191.91 241.1 190.86 241.65 187.63 239.97 160.75 251.3 160.75 254.87 190.86 242.18 220.97 254.87 220.97 226.01 218.55 227.27"/><ellipse class="cls-11" cx="191.31" cy="241.95" rx="8.53" ry="9.54"/><path class="cls-50" d="M191.31,232.41a7.66,7.66,0,0,0-1.55.17c4,.82,7,4.7,7,9.37s-3,8.55-7,9.37a7.66,7.66,0,0,0,1.55.17c4.71,0,8.53-4.27,8.53-9.54S196,232.41,191.31,232.41Z"/><path class="cls-26" d="M146.64,32.3s4.32-21.12,32.5-21.12c20.38,0,22.63,14.32,33,14.32,18.14,0,10.42-21.08,10.42-21.08,25.21-10.21,61.3-4.32,61.3,34.65,0,25.83-20.05,42.22-51.21,42.22-42.41,0-53-42.37-86-21.55Z"/><path class="cls-26" d="M146.64,32.3c0-11.07-51.32-20.78-45.46,37.91a73.28,73.28,0,0,0,5.12,20.13s12-8.12,12.71-19.63c1-15.25,20.35-21.92,27.63-11Z"/><path class="cls-10" d="M232.69,81.29c31.16,0,51.21-16.39,51.21-42.22,0-39-36.08-44.86-61.3-34.65,19.65-.7,29.93,9.59,29.93,23.31s-22.44,27.5-41,16.35c-15.21-9.15-24.5-22.66-40.23-23.87-11.17-.85-18.7,5.27-24.67,12.08V59.74C179.18,38.8,190.59,81.29,232.69,81.29Z"/><path class="cls-10" d="M111.86,69.08c2.13,11.67-5.56,21.25-5.56,21.25s12-8.12,12.71-19.63c1-15.25,20.35-21.92,27.63-11V32.3c-10.26-5.7-23.92-1.68-30.56,6.64C109.65,47,110,59,111.86,69.08Z"/><path class="cls-25" d="M231.39,65.67C195.71,63.54,196,41.55,168.3,43.82c-11.73,1-19.72,12.8-21.66,15.92,33.07-20.93,43.91,21.55,85.8,21.55,31.16,0,51.45-16.39,51.45-42.22a46.94,46.94,0,0,0-3-17.31C282.61,36,275.18,68.29,231.39,65.67Z"/><path class="cls-25" d="M136.55,49.06c-15.55-.12-20.92,13.35-21,24.57-.06,9.49-9.26,16.7-9.26,16.7s12-8.12,12.71-19.63c1-15.25,20.35-21.92,27.63-11C146.64,59.74,145.91,49.14,136.55,49.06Z"/><path class="cls-51" d="M114.41,46.81v0l0,0Z"/><path class="cls-26" d="M114.37,46.84h0Z"/><path class="cls-26" d="M114.36,46.81v0Z"/><path class="cls-25" d="M114.39,46.83h0v0Z"/><path class="cls-28" d="M119,70.71c-.69,10.93-11.52,18.8-12.6,19.56v.08s18.16-5.78,20.69-17.61,9.91-16.82,19.53-13C139.41,48.79,120,55.48,119,70.71Z"/><path class="cls-28" d="M146.64,59.74S160,53,169.1,57.65s23.78,34,47.55,35.58C237.79,94.6,261.88,82.14,275,69.81v-4.9C264.3,78.21,244.94,81.3,232.69,81.3,190.37,81.3,179.78,38.8,146.64,59.74Z"/></g></g></g></svg>